<svg xmlns="http://www.w3.org/2000/svg" width="116" height="116" viewBox="0 0 116 116" fill="none">
<g clip-path="url(#clip0_693_2200)">
<rect width="115" height="115" transform="translate(0.237793 0.0605469)" fill="none"/>
<rect width="19.9994" height="59.9982" transform="matrix(-0.707104 0.70711 -0.707104 -0.70711 71.8808 99.9864)" fill="#007D79"/>
<rect width="19.9994" height="79.9976" transform="matrix(0.707104 -0.70711 0.707104 0.70711 43.5961 15.134)" fill="#009D9A"/>
<rect width="19.9994" height="59.9982" transform="matrix(-0.707104 -0.70711 0.707104 -0.70711 57.7375 114.128)" fill="#007D79"/>
<rect width="19.9994" height="19.9994" transform="matrix(-0.707104 -0.70711 0.707104 -0.70711 100.163 71.7034)" fill="#012749"/>
<rect width="19.9994" height="19.9994" transform="matrix(-0.707104 -0.70711 0.707104 -0.70711 57.8808 71.7032)" fill="#012749"/>
<rect width="19.9994" height="79.9976" transform="matrix(0.707104 0.70711 -0.707104 0.70711 57.7375 0.993881)" fill="#009D9A"/>
<rect width="19.9994" height="19.9994" transform="matrix(-0.707104 -0.70711 0.707104 -0.70711 15.3133 71.7034)" fill="#012749"/>
</g>
<defs>
<clipPath id="clip0_693_2200">
<rect width="115" height="115" fill="none" transform="translate(0.237793 0.0605469)"/>
</clipPath>
</defs>
</svg>