<svg xmlns="http://www.w3.org/2000/svg" width="116" height="116" viewBox="0 0 116 116" fill="none">
<rect width="115" height="115" transform="translate(0.883789 0.0605469)" fill="none"/>
<rect width="19.9994" height="59.9982" transform="matrix(4.21468e-06 1 -1 -4.38327e-06 98.3837 77.5594)" fill="#007D79"/>
<rect width="19.9994" height="79.9976" transform="matrix(-4.13039e-06 -1 1 4.46757e-06 18.3838 37.5602)" fill="#009D9A"/>
<rect width="19.9994" height="59.9982" transform="matrix(-1 -4.38327e-06 -4.21468e-06 -1 98.3827 97.5602)" fill="#007D79"/>
<rect width="19.9994" height="19.9994" transform="matrix(-1 -4.38327e-06 -4.21468e-06 -1 98.3833 37.5618)" fill="#012749"/>
<rect width="19.9994" height="79.9976" transform="matrix(1 4.55186e-06 4.0461e-06 1 18.3846 17.562)" fill="#009D9A"/>
<rect width="19.9994" height="19.9994" transform="matrix(-1 -4.38327e-06 -4.21468e-06 -1 38.3853 97.5599)" fill="#012749"/>
</svg>