<svg xmlns="http://www.w3.org/2000/svg" width="100" height="100" viewBox="0 0 100 100" fill="none">
<path d="M30 50L30 30L70 30L70 50L30 50Z" fill="#009D9A"/>
<path d="M90 70V90L50 90L50 70L90 70Z" fill="#007D79"/>
<path d="M30 30L50 30L50 70H30L30 30Z" fill="#009D9A"/>
<path d="M30 70L50 70L50 90L30 90L30 70Z" fill="#022B30"/>
<path d="M10 70L30 70L30 90L10 90L10 70Z" fill="#007D79"/>
<path d="M69.9999 30L89.9999 30L89.9999 50L69.9999 50L69.9999 30Z" fill="#022B30"/>
<path d="M69.9999 10L89.9999 10L89.9999 30L69.9999 30L69.9999 10Z" fill="#007D79"/>
<path d="M90 90H70V50H90V90Z" fill="#007D79"/>
</svg>