<svg xmlns="http://www.w3.org/2000/svg" xmlns:xlink="http://www.w3.org/1999/xlink" version="1.1" id="Layer_1" x="0px" y="0px" viewBox="0 0 462 462" style="enable-background:new 0 0 462 462;" xml:space="preserve">
<style type="text/css">
	.st0{fill:none;stroke:#000000;}
</style>
<g transform="translate(-229.000000, 6235.935616)">
	<path id="Stroke-1" class="st0" d="M460-6178c-2.2,0-4-2.1-4-4.6v-47.8c0-2.5,1.8-4.6,4-4.6s4,2.1,4,4.6v47.8   C464-6180.1,462.2-6178,460-6178z"/>
	<path id="Stroke-3" class="st0" d="M392.5-6164c-1.8,0-3.5-1.1-4.2-2.9l-17.9-44.7c-1-2.4,0.1-5.1,2.4-6.1c2.3-1,5,0.1,5.9,2.5   l17.9,44.7c1,2.4-0.1,5.1-2.4,6.1C393.6-6164.1,393.1-6164,392.5-6164z"/>
	<path id="Stroke-5" class="st0" d="M333.4-6127c-1.2,0-2.4-0.5-3.3-1.4l-33.8-33.8c-1.8-1.8-1.8-4.7,0-6.5c1.8-1.8,4.7-1.8,6.5,0   l33.8,33.8c1.8,1.8,1.8,4.7,0,6.5C335.7-6127.5,334.6-6127,333.4-6127z"/>
	<path id="Stroke-7" class="st0" d="M296.3-6068c-0.6,0-1.2-0.1-1.8-0.3l-44.7-17.9c-2.4-1-3.5-3.6-2.5-5.9c1-2.3,3.7-3.4,6.1-2.4   l44.7,17.9c2.4,1,3.5,3.6,2.5,5.9C299.9-6069.1,298.2-6068,296.3-6068z"/>
	<path id="Stroke-9" class="st0" d="M282.4-6001h-47.8c-2.5,0-4.6-1.8-4.6-4c0-2.2,2.1-4,4.6-4h47.8c2.5,0,4.6,1.8,4.6,4   C287-6002.8,284.9-6001,282.4-6001z"/>
	<path id="Stroke-11" class="st0" d="M251.7-5915c-1.8,0-3.6-1.1-4.3-2.8c-1-2.3,0.1-5,2.5-5.9l44.7-17.9c2.4-1,5.1,0.1,6.1,2.4   c1,2.3-0.1,5-2.5,5.9l-44.7,17.9C252.9-5915.1,252.3-5915,251.7-5915z"/>
	<path id="Stroke-13" class="st0" d="M299.6-5840c-1.2,0-2.4-0.4-3.3-1.4c-1.8-1.8-1.8-4.7,0-6.5l33.8-33.8c1.8-1.8,4.7-1.8,6.5,0   c1.8,1.8,1.8,4.7,0,6.5l-33.8,33.8C302-5840.4,300.8-5840,299.6-5840z"/>
	<path id="Stroke-15" class="st0" d="M374.5-5792c-0.6,0-1.2-0.1-1.7-0.4c-2.3-1-3.4-3.7-2.4-6.1l17.9-44.7c1-2.4,3.6-3.5,5.9-2.5   c2.3,1,3.4,3.7,2.4,6.1l-17.9,44.7C378-5793.1,376.3-5792,374.5-5792z"/>
	<path id="Stroke-17" class="st0" d="M460-5775c-2.2,0-4-2.1-4-4.6v-47.8c0-2.5,1.8-4.6,4-4.6s4,2.1,4,4.6v47.8   C464-5777.1,462.2-5775,460-5775z"/>
	<path id="Stroke-19" class="st0" d="M545.5-5792c-1.8,0-3.5-1.1-4.2-2.9l-17.9-44.7c-1-2.4,0.1-5.1,2.4-6.1c2.3-1,5,0.1,5.9,2.5   l17.9,44.7c1,2.4-0.1,5.1-2.5,6.1C546.6-5792.1,546.1-5792,545.5-5792z"/>
	<path id="Stroke-21" class="st0" d="M620.4-5840c-1.2,0-2.4-0.4-3.3-1.4l-33.8-33.8c-1.8-1.8-1.8-4.7,0-6.5c1.8-1.8,4.7-1.8,6.5,0   l33.8,33.8c1.8,1.8,1.8,4.7,0,6.5C622.7-5840.4,621.6-5840,620.4-5840z"/>
	<path id="Stroke-23" class="st0" d="M668.3-5915c-0.6,0-1.2-0.1-1.8-0.3l-44.7-17.9c-2.4-1-3.5-3.6-2.5-5.9c1-2.3,3.7-3.4,6.1-2.4   l44.7,17.9c2.4,1,3.5,3.6,2.5,5.9C671.9-5916.1,670.2-5915,668.3-5915z"/>
	<path id="Stroke-25" class="st0" d="M685.4-6001h-47.8c-2.5,0-4.6-1.8-4.6-4c0-2.2,2.1-4,4.6-4h47.8c2.5,0,4.6,1.8,4.6,4   C690-6002.8,687.9-6001,685.4-6001z"/>
	<path id="Stroke-27" class="st0" d="M623.7-6068c-1.8,0-3.6-1.1-4.3-2.8c-1-2.3,0.1-5,2.5-5.9l44.7-17.9c2.4-1,5.1,0.1,6.1,2.4   c1,2.3-0.1,5-2.5,5.9l-44.7,17.9C624.9-6068.1,624.3-6068,623.7-6068z"/>
	<path id="Stroke-29" class="st0" d="M586.6-6127c-1.2,0-2.4-0.5-3.3-1.4c-1.8-1.8-1.8-4.7,0-6.5l33.8-33.8c1.8-1.8,4.7-1.8,6.5,0   c1.8,1.8,1.8,4.7,0,6.5l-33.8,33.8C589-6127.5,587.8-6127,586.6-6127z"/>
	<path id="Stroke-31" class="st0" d="M527.5-6164c-0.6,0-1.2-0.1-1.7-0.4c-2.3-1-3.4-3.7-2.4-6.1l17.9-44.7c1-2.4,3.6-3.5,5.9-2.5   c2.3,1,3.4,3.7,2.5,6.1l-17.9,44.7C531-6165.1,529.3-6164,527.5-6164z"/>
</g>
</svg>