<svg xmlns="http://www.w3.org/2000/svg" width="206" height="72" viewBox="0 0 206 72" fill="none">
<g clip-path="url(#clip0_1050_43364)">
<path d="M13.1926 64.3799C13.1926 64.8813 13.1753 64.9221 12.9504 65.0504C11.7511 65.6859 9.94636 65.89 8.51062 65.89C3.99584 65.89 0 63.7269 0 58.5844C0 55.605 1.52799 53.5177 3.2059 52.4915C4.97606 51.4129 6.61361 51.2788 8.16466 51.2788C9.43318 51.2788 11.0592 51.5004 11.4282 51.5762C11.8145 51.652 12.4603 51.7627 12.8813 51.7802C13.1004 51.7977 13.1407 51.8735 13.1407 52.0018C13.1407 52.2059 13.0139 52.7306 13.0139 55.057C13.0139 55.3543 12.9562 55.4476 12.8121 55.4476C12.6852 55.4476 12.6448 55.3543 12.6276 55.2027C12.5699 54.7771 12.4776 54.1766 11.9991 53.6576C11.4455 53.0629 9.97519 52.2059 7.8879 52.2059C6.87308 52.2059 5.5296 52.2816 4.23801 53.3603C3.2059 54.2349 2.54281 55.6342 2.54281 57.9255C2.54281 61.9311 5.06832 64.9279 8.95461 64.9279C9.43318 64.9279 10.079 64.9279 10.523 64.7239C10.7997 64.5956 10.8747 64.3507 10.8747 64.0359V62.2867C10.8747 61.3539 10.8747 60.6484 10.8574 60.0887C10.8401 59.4531 10.6729 59.1558 10.0674 59.0275C9.91753 58.9925 9.60616 58.9692 9.34669 58.9692C9.17948 58.9692 9.06993 58.9342 9.06993 58.8176C9.06993 58.666 9.19678 58.631 9.45625 58.631C10.4134 58.631 11.5724 58.6893 12.1259 58.6893C12.6794 58.6893 13.6712 58.631 14.2824 58.631C14.5246 58.631 14.6514 58.666 14.6514 58.8176C14.6514 58.9284 14.5419 58.9692 14.4092 58.9692C14.2593 58.9692 14.1325 58.9867 13.9134 59.0275C13.4175 59.1208 13.233 59.4356 13.2157 60.0887C13.1984 60.6484 13.1984 61.3947 13.1984 62.3217V64.3682L13.1926 64.3799Z" fill="#F2F4F8"/>
<path d="M19.3398 58.2816C19.3398 55.8911 19.3398 55.448 19.311 54.9466C19.2822 54.4102 19.1553 54.1595 18.6422 54.0487C18.5153 54.0195 18.2558 54.002 18.0367 54.002C17.8637 54.002 17.7715 53.9729 17.7715 53.8621C17.7715 53.7513 17.881 53.7222 18.1117 53.7222C18.9362 53.7222 19.9164 53.7688 20.2451 53.7688C20.7756 53.7688 21.9576 53.7222 22.4419 53.7222C23.4222 53.7222 24.4658 53.8155 25.3077 54.3985C25.7459 54.6959 26.3686 55.5005 26.3686 56.5558C26.3686 57.7219 25.9016 58.7772 24.3274 60.0657C25.7113 61.8265 26.7838 63.2433 27.7063 64.2229C28.577 65.1382 29.1997 65.2432 29.4361 65.2898C29.6091 65.319 29.7475 65.3365 29.8743 65.3365C30.0012 65.3365 30.0588 65.3831 30.0588 65.4647C30.0588 65.593 29.9493 65.6222 29.7648 65.6222H28.2368C27.3661 65.6222 26.974 65.5464 26.5704 65.3248C25.9016 64.9633 25.3077 64.2229 24.437 63.0101C23.8143 62.1414 23.0993 61.0744 22.8975 60.8353C22.8225 60.7421 22.7245 60.7246 22.6149 60.7246L21.306 60.6954C21.2253 60.6954 21.1792 60.7246 21.1792 60.8237V61.0452C21.1792 62.5087 21.1792 63.7506 21.2542 64.4153C21.3003 64.87 21.3925 65.2199 21.8596 65.2782C22.096 65.3073 22.4362 65.3423 22.6207 65.3423C22.7475 65.3423 22.8052 65.3889 22.8052 65.4706C22.8052 65.5814 22.6957 65.628 22.4938 65.628C21.5886 65.628 20.4411 65.5814 20.2047 65.5814C19.9107 65.5814 18.9305 65.628 18.3077 65.628C18.1059 65.628 17.9964 65.5814 17.9964 65.4706C17.9964 65.3889 18.0598 65.3423 18.2443 65.3423C18.4749 65.3423 18.6652 65.3131 18.8036 65.2782C19.115 65.214 19.1899 64.87 19.2533 64.4153C19.3341 63.7564 19.3341 62.5087 19.3341 61.0627V58.2933L19.3398 58.2816ZM21.1792 59.5235C21.1792 59.6984 21.208 59.7625 21.3176 59.8092C21.6462 59.92 22.1133 59.9666 22.4996 59.9666C23.1223 59.9666 23.3241 59.9025 23.6067 59.6984C24.0737 59.3544 24.5235 58.6256 24.5235 57.3371C24.5235 55.104 23.0589 54.4568 22.1421 54.4568C21.75 54.4568 21.4733 54.4743 21.3176 54.5209C21.208 54.5501 21.1792 54.6142 21.1792 54.7425V59.5293V59.5235Z" fill="#F2F4F8"/>
<path d="M33.5813 60.4855C33.5813 62.7653 34.0311 63.7273 34.798 64.357C35.4957 64.94 36.2164 65.0042 36.7411 65.0042C37.4273 65.0042 38.2691 64.7826 38.8918 64.1529C39.7452 63.29 39.7971 61.8732 39.7971 60.2523V58.2875C39.7971 55.897 39.7971 55.4538 39.7683 54.9524C39.7394 54.416 39.6126 54.1653 39.0994 54.0545C38.9726 54.0254 38.7131 54.0079 38.5401 54.0079C38.3671 54.0079 38.2749 53.9787 38.2749 53.868C38.2749 53.7572 38.3844 53.728 38.6035 53.728C39.3992 53.728 40.3795 53.7747 40.391 53.7747C40.5755 53.7747 41.5557 53.728 42.1669 53.728C42.386 53.728 42.4956 53.7572 42.4956 53.868C42.4956 53.9787 42.4033 54.0079 42.2131 54.0079C42.0401 54.0079 41.9478 54.0254 41.7633 54.0545C41.3424 54.1303 41.2213 54.3985 41.1867 54.9524C41.1579 55.4538 41.1579 55.897 41.1579 58.2875V59.9725C41.1579 61.7216 40.9849 63.5757 39.6818 64.7068C38.5747 65.6688 37.4561 65.8379 36.447 65.8379C35.6225 65.8379 34.1291 65.7913 32.9932 64.7535C32.1975 64.0305 31.6094 62.8644 31.6094 60.5847V58.2875C31.6094 55.897 31.6094 55.4538 31.5805 54.9524C31.5517 54.416 31.4249 54.1653 30.9117 54.0545C30.7848 54.0254 30.5254 54.0079 30.3063 54.0079C30.1333 54.0079 30.041 53.9787 30.041 53.868C30.041 53.7572 30.1506 53.728 30.3812 53.728C31.2057 53.728 32.186 53.7747 32.653 53.7747C33.0278 53.7747 34.008 53.728 34.5673 53.728C34.798 53.728 34.9075 53.7572 34.9075 53.868C34.9075 53.9787 34.8153 54.0079 34.6596 54.0079C34.4866 54.0079 34.3944 54.0254 34.2098 54.0545C33.7889 54.1303 33.6678 54.3985 33.6332 54.9524C33.6044 55.4538 33.6044 55.897 33.6044 58.2875V60.4914L33.5813 60.4855Z" fill="#F2F4F8"/>
<path d="M46.5193 53.9842C46.5193 53.6693 46.5655 53.4478 46.7211 53.4478C46.8941 53.4478 47.0325 53.6518 47.2977 53.9375C47.4823 54.1416 49.8521 56.707 52.1239 58.9867C53.1848 60.0595 55.3586 62.4034 55.6239 62.6541L55.4682 55.5117C55.4509 54.5497 55.3125 54.2524 54.9377 54.0949C54.7071 54.0016 54.3323 54.0017 54.1132 54.0017C53.9287 54.0017 53.8652 53.955 53.8652 53.8617C53.8652 53.7334 54.0382 53.7218 54.2689 53.7218C55.0761 53.7218 55.8257 53.7684 56.1543 53.7684C56.3273 53.7684 56.9154 53.7218 57.6823 53.7218C57.8841 53.7218 58.0398 53.7393 58.0398 53.8617C58.0398 53.955 57.9476 54.0017 57.7573 54.0017C57.6016 54.0017 57.4747 54.0016 57.2902 54.0483C56.852 54.1766 56.7309 54.5031 56.7136 55.3835C56.6502 58.7068 56.6041 61.9952 56.5407 65.3128C56.5407 65.6568 56.4772 65.8025 56.3388 65.8025C56.1659 65.8025 55.9814 65.6276 55.8084 65.4585C54.8282 64.514 52.8331 62.45 51.2186 60.8291C49.5234 59.1266 47.7475 57.1151 47.465 56.8178L47.6379 63.4762C47.6668 64.7064 47.8686 65.1145 48.1799 65.2253C48.4452 65.3186 48.7392 65.3361 48.9872 65.3361C49.1602 65.3361 49.2524 65.3652 49.2524 65.4644C49.2524 65.5926 49.114 65.6218 48.8949 65.6218C47.8859 65.6218 47.2632 65.5751 46.9633 65.5751C46.8249 65.5751 46.0927 65.6218 45.2796 65.6218C45.0778 65.6218 44.9395 65.6043 44.9395 65.4644C44.9395 65.3711 45.0317 65.3361 45.1874 65.3361C45.3892 65.3361 45.6717 65.3186 45.8851 65.2603C46.2887 65.132 46.3521 64.6772 46.3694 63.3071C46.4155 59.9721 46.479 56.0831 46.5078 53.99L46.5193 53.9842Z" fill="#F2F4F8"/>
<path d="M72.0988 64.5609C72.0988 64.9865 72.0815 65.0156 71.897 65.1264C70.888 65.6628 69.36 65.8319 68.1433 65.8319C64.332 65.8319 60.9531 64.007 60.9531 59.6633C60.9531 57.1445 62.2447 55.3837 63.6631 54.515C65.1565 53.5996 66.5404 53.4946 67.8493 53.4946C68.9217 53.4946 70.2941 53.6812 70.6054 53.7453C70.9341 53.8095 71.4761 53.9028 71.8336 53.9203C72.0181 53.9377 72.0527 53.9961 72.0527 54.1068C72.0527 54.2817 71.9431 54.719 71.9431 56.6897C71.9431 56.9404 71.897 57.0221 71.7702 57.0221C71.6606 57.0221 71.6318 56.9463 71.6145 56.818C71.5683 56.4565 71.4876 55.9551 71.084 55.512C70.6169 55.0106 69.3715 54.2817 67.6129 54.2817C66.7595 54.2817 65.6178 54.3459 64.5338 55.2554C63.6631 55.9959 63.1038 57.1737 63.1038 59.1094C63.1038 62.491 65.2373 65.0273 68.5181 65.0273C68.9217 65.0273 69.4695 65.0273 69.8385 64.8524C70.0692 64.7416 70.1326 64.5375 70.1326 64.2693V62.7884C70.1326 62.0013 70.1326 61.4008 70.1153 60.9343C70.098 60.3979 69.9596 60.1472 69.4465 60.0364C69.3196 60.0073 69.0601 59.9898 68.841 59.9898C68.7026 59.9898 68.6104 59.9606 68.6104 59.8615C68.6104 59.7332 68.7199 59.7041 68.939 59.7041C69.7463 59.7041 70.7265 59.7507 71.1936 59.7507C71.6606 59.7507 72.5024 59.7041 73.0156 59.7041C73.2174 59.7041 73.327 59.7332 73.327 59.8615C73.327 59.9548 73.2347 59.9898 73.1252 59.9898C72.9983 59.9898 72.8945 60.0073 72.7042 60.0364C72.2833 60.1122 72.1276 60.3804 72.1103 60.9343C72.093 61.4066 72.093 62.0363 72.093 62.8234V64.555L72.0988 64.5609Z" fill="#F2F4F8"/>
<path d="M75.9902 59.6691C75.9902 56.9754 77.7489 53.5005 82.4193 53.5005C86.2941 53.5005 88.7043 55.7802 88.7043 59.3834C88.7043 62.9867 86.2134 65.8378 82.2637 65.8378C77.795 65.8378 75.9902 62.4561 75.9902 59.6691ZM86.5247 59.9665C86.5247 56.439 84.5182 54.2526 81.9638 54.2526C80.1764 54.2526 78.1352 55.2613 78.1352 59.1794C78.1352 62.4503 79.9227 65.0507 82.9152 65.0507C84.005 65.0507 86.5247 64.5143 86.5247 59.9665Z" fill="#F2F4F8"/>
<path d="M101.112 63.8551C99.3077 62.2518 98.8291 60.1644 98.8291 58.357C98.8291 57.0918 99.2154 54.8937 100.986 53.2553C102.312 52.0251 104.065 51.2788 106.809 51.2788C107.951 51.2788 108.631 51.3546 109.479 51.4654C110.177 51.5587 110.822 51.7278 111.376 51.7802C111.578 51.7977 111.595 51.891 111.595 52.0018C111.595 52.1476 111.537 52.3749 111.503 53.028C111.468 53.6402 111.485 54.6663 111.445 55.0395C111.428 55.3193 111.387 55.4884 111.226 55.4884C111.076 55.4884 111.042 55.3193 111.042 55.0628C111.024 54.4856 110.782 53.8326 110.321 53.3486C109.715 52.6956 108.274 52.1942 106.579 52.1942C104.976 52.1942 103.926 52.6023 103.113 53.3486C101.77 54.5963 101.418 56.3688 101.418 58.1763C101.418 62.6074 104.751 64.8113 107.219 64.8113C108.856 64.8113 109.854 64.6248 110.592 63.7677C110.903 63.412 111.145 62.8756 111.22 62.5375C111.278 62.2401 111.313 62.1643 111.462 62.1643C111.589 62.1643 111.63 62.2926 111.63 62.4442C111.63 62.6657 111.411 64.2866 111.226 64.9221C111.134 65.237 111.059 65.3302 110.747 65.4643C110.009 65.7617 108.608 65.89 107.432 65.89C104.906 65.89 102.79 65.3302 101.112 63.861V63.8551Z" fill="#F2F4F8"/>
<path d="M115.066 59.6691C115.066 56.9754 116.825 53.5005 121.496 53.5005C125.37 53.5005 127.78 55.7802 127.78 59.3834C127.78 62.9867 125.29 65.8378 121.34 65.8378C116.871 65.8378 115.066 62.4561 115.066 59.6691ZM125.601 59.9665C125.601 56.439 123.594 54.2526 121.04 54.2526C119.253 54.2526 117.211 55.2613 117.211 59.1794C117.211 62.4503 118.999 65.0507 121.991 65.0507C123.081 65.0507 125.601 64.5143 125.601 59.9665Z" fill="#F2F4F8"/>
<path d="M134.158 61.051C134.158 63.0684 134.158 64.1528 134.486 64.4327C134.752 64.6659 135.155 64.7767 136.372 64.7767C137.196 64.7767 137.802 64.7592 138.194 64.3336C138.378 64.1295 138.569 63.6864 138.597 63.389C138.615 63.2491 138.644 63.15 138.77 63.15C138.88 63.15 138.897 63.2258 138.897 63.4182C138.897 63.5931 138.788 64.7709 138.667 65.2256C138.574 65.5696 138.494 65.6513 137.686 65.6513C136.256 65.6513 134.821 65.558 133.16 65.558C132.537 65.558 131.897 65.6046 131.2 65.6046C130.998 65.6046 130.888 65.558 130.888 65.4472C130.888 65.3656 130.952 65.3189 131.136 65.3189C131.373 65.3189 131.557 65.2898 131.696 65.2548C132.007 65.1906 132.082 64.8467 132.145 64.3919C132.22 63.733 132.22 62.4853 132.22 61.0394V58.2699C132.22 55.8794 132.22 55.4363 132.191 54.9348C132.163 54.3984 132.036 54.1477 131.523 54.037C131.396 54.0078 131.211 53.9903 131.009 53.9903C130.836 53.9903 130.744 53.9612 130.744 53.8504C130.744 53.7396 130.854 53.7104 131.084 53.7104C131.817 53.7104 132.797 53.7571 133.218 53.7571C133.593 53.7571 134.728 53.7104 135.334 53.7104C135.553 53.7104 135.663 53.7396 135.663 53.8504C135.663 53.9612 135.57 53.9903 135.38 53.9903C135.207 53.9903 134.959 54.0078 134.775 54.037C134.354 54.1128 134.233 54.381 134.198 54.9348C134.169 55.4363 134.169 55.8794 134.169 58.2699V61.0394L134.158 61.051Z" fill="#F2F4F8"/>
<path d="M144.692 61.5115C144.617 61.5115 144.583 61.5406 144.554 61.6397L143.712 63.8903C143.556 64.2809 143.475 64.6599 143.475 64.8523C143.475 65.138 143.614 65.3421 144.098 65.3421H144.329C144.513 65.3421 144.559 65.3712 144.559 65.4704C144.559 65.5986 144.467 65.6278 144.294 65.6278C143.798 65.6278 143.129 65.5811 142.645 65.5811C142.472 65.5811 141.619 65.6278 140.806 65.6278C140.604 65.6278 140.512 65.5986 140.512 65.4704C140.512 65.3771 140.604 65.3421 140.731 65.3421C140.869 65.3421 141.059 65.3246 141.181 65.3129C141.896 65.2197 142.19 64.6832 142.501 63.8961L146.41 54.0135C146.595 53.5587 146.704 53.3838 146.849 53.3838C146.975 53.3838 147.085 53.5237 147.241 53.8852C147.615 54.7481 150.106 61.1733 151.098 63.5638C151.692 64.9806 152.142 65.2022 152.47 65.278C152.701 65.3246 152.937 65.3421 153.122 65.3421C153.249 65.3421 153.324 65.3712 153.324 65.4704C153.324 65.5986 153.185 65.6278 152.609 65.6278C152.032 65.6278 150.804 65.6278 149.559 65.5986C149.276 65.5811 149.201 65.5695 149.201 65.4704C149.201 65.3887 149.265 65.3421 149.42 65.3304C149.53 65.3013 149.639 65.1555 149.559 64.9689L148.313 61.6339C148.284 61.5581 148.238 61.5231 148.157 61.5231H144.686L144.692 61.5115ZM147.869 60.7244C147.944 60.7244 147.961 60.6777 147.944 60.6311L146.543 56.7421C146.497 56.6022 146.433 56.5556 146.37 56.7421L144.94 60.6136C144.923 60.6777 144.94 60.7244 145.003 60.7244H147.869Z" fill="#F2F4F8"/>
<path d="M156.213 58.2816C156.213 55.8911 156.213 55.448 156.184 54.9466C156.155 54.4102 156.028 54.1595 155.515 54.0487C155.388 54.0195 155.129 54.002 154.91 54.002C154.737 54.002 154.645 53.9729 154.645 53.8621C154.645 53.7513 154.754 53.7222 154.985 53.7222C155.809 53.7222 156.789 53.7688 157.118 53.7688C157.649 53.7688 158.831 53.7222 159.315 53.7222C160.295 53.7222 161.339 53.8155 162.181 54.3985C162.619 54.6959 163.242 55.5005 163.242 56.5558C163.242 57.7219 162.775 58.7772 161.2 60.0657C162.584 61.8265 163.663 63.2433 164.579 64.2229C165.45 65.1382 166.073 65.2432 166.309 65.2898C166.482 65.319 166.621 65.3365 166.747 65.3365C166.874 65.3365 166.932 65.3831 166.932 65.4647C166.932 65.593 166.822 65.6222 166.638 65.6222H165.11C164.239 65.6222 163.847 65.5464 163.443 65.3248C162.775 64.9633 162.181 64.2229 161.31 63.0101C160.687 62.1414 159.972 61.0744 159.771 60.8353C159.696 60.7421 159.598 60.7246 159.488 60.7246L158.179 60.6954C158.098 60.6954 158.052 60.7246 158.052 60.8237V61.0452C158.052 62.5087 158.052 63.7506 158.133 64.4153C158.179 64.87 158.271 65.2199 158.738 65.2782C158.969 65.3073 159.315 65.3423 159.499 65.3423C159.626 65.3423 159.684 65.3889 159.684 65.4706C159.684 65.5814 159.574 65.628 159.373 65.628C158.467 65.628 157.32 65.5814 157.084 65.5814C156.789 65.5814 155.809 65.628 155.187 65.628C154.985 65.628 154.875 65.5814 154.875 65.4706C154.875 65.3889 154.939 65.3423 155.123 65.3423C155.36 65.3423 155.544 65.3131 155.682 65.2782C155.994 65.214 156.069 64.87 156.132 64.4153C156.207 63.7564 156.207 62.5087 156.207 61.0627V58.2933L156.213 58.2816ZM158.052 59.5235C158.052 59.6984 158.081 59.7625 158.191 59.8092C158.519 59.92 158.986 59.9666 159.373 59.9666C159.995 59.9666 160.197 59.9025 160.48 59.6984C160.947 59.3544 161.397 58.6256 161.397 57.3371C161.397 55.104 159.932 54.4568 159.015 54.4568C158.629 54.4568 158.346 54.4743 158.191 54.5209C158.081 54.5501 158.052 54.6142 158.052 54.7425V59.5293V59.5235Z" fill="#F2F4F8"/>
<path d="M170.46 60.4855C170.46 62.7653 170.91 63.7273 171.677 64.357C172.375 64.94 173.095 65.0042 173.62 65.0042C174.306 65.0042 175.148 64.7826 175.771 64.1529C176.624 63.29 176.676 61.8732 176.676 60.2523V58.2875C176.676 55.897 176.676 55.4538 176.647 54.9524C176.618 54.416 176.492 54.1653 175.978 54.0545C175.851 54.0254 175.592 54.0079 175.419 54.0079C175.246 54.0079 175.154 53.9787 175.154 53.868C175.154 53.7572 175.263 53.728 175.482 53.728C176.278 53.728 177.258 53.7747 177.27 53.7747C177.454 53.7747 178.435 53.728 179.046 53.728C179.265 53.728 179.374 53.7572 179.374 53.868C179.374 53.9787 179.282 54.0079 179.092 54.0079C178.919 54.0079 178.827 54.0254 178.642 54.0545C178.221 54.1303 178.1 54.3985 178.066 54.9524C178.037 55.4538 178.037 55.897 178.037 58.2875V59.9725C178.037 61.7216 177.864 63.5757 176.561 64.7068C175.454 65.6688 174.335 65.8379 173.326 65.8379C172.501 65.8379 171.008 65.7913 169.872 64.7535C169.076 64.0305 168.488 62.8644 168.488 60.5847V58.2875C168.488 55.897 168.488 55.4538 168.459 54.9524C168.431 54.416 168.304 54.1653 167.791 54.0545C167.664 54.0254 167.404 54.0079 167.185 54.0079C167.012 54.0079 166.92 53.9787 166.92 53.868C166.92 53.7572 167.029 53.728 167.26 53.728C168.085 53.728 169.065 53.7747 169.532 53.7747C169.907 53.7747 170.887 53.728 171.446 53.728C171.683 53.728 171.786 53.7572 171.786 53.868C171.786 53.9787 171.694 54.0079 171.538 54.0079C171.366 54.0079 171.273 54.0254 171.089 54.0545C170.668 54.1303 170.547 54.3985 170.512 54.9524C170.483 55.4538 170.483 55.897 170.483 58.2875V60.4914L170.46 60.4855Z" fill="#F2F4F8"/>
<path d="M185.435 61.051C185.435 63.0684 185.435 64.1528 185.764 64.4327C186.029 64.6659 186.432 64.7767 187.649 64.7767C188.474 64.7767 189.079 64.7592 189.471 64.3336C189.656 64.1295 189.846 63.6864 189.875 63.389C189.892 63.2491 189.921 63.15 190.048 63.15C190.157 63.15 190.175 63.2258 190.175 63.4182C190.175 63.5931 190.065 64.7709 189.944 65.2256C189.852 65.5696 189.771 65.6513 188.964 65.6513C187.534 65.6513 186.098 65.558 184.437 65.558C183.815 65.558 183.175 65.6046 182.477 65.6046C182.275 65.6046 182.166 65.558 182.166 65.4472C182.166 65.3656 182.229 65.3189 182.414 65.3189C182.65 65.3189 182.834 65.2898 182.973 65.2548C183.284 65.1906 183.359 64.8467 183.423 64.3919C183.498 63.733 183.498 62.4853 183.498 61.0394V58.2699C183.498 55.8794 183.498 55.4363 183.469 54.9348C183.44 54.3984 183.313 54.1477 182.8 54.037C182.673 54.0078 182.489 53.9903 182.287 53.9903C182.114 53.9903 182.021 53.9612 182.021 53.8504C182.021 53.7396 182.131 53.7104 182.362 53.7104C183.094 53.7104 184.074 53.7571 184.495 53.7571C184.87 53.7571 186.006 53.7104 186.611 53.7104C186.83 53.7104 186.94 53.7396 186.94 53.8504C186.94 53.9612 186.848 53.9903 186.657 53.9903C186.484 53.9903 186.236 54.0078 186.052 54.037C185.631 54.1128 185.51 54.381 185.475 54.9348C185.447 55.4363 185.446 55.8794 185.446 58.2699V61.0394L185.435 61.051Z" fill="#F2F4F8"/>
<path d="M192.458 59.6691C192.458 56.9754 194.217 53.5005 198.887 53.5005C202.762 53.5005 205.172 55.7802 205.172 59.3834C205.172 62.9867 202.681 65.8378 198.731 65.8378C194.263 65.8378 192.458 62.4561 192.458 59.6691ZM202.992 59.9665C202.992 56.439 200.986 54.2526 198.432 54.2526C196.644 54.2526 194.603 55.2613 194.603 59.1794C194.603 62.4503 196.39 65.0507 199.383 65.0507C200.473 65.0507 202.992 64.5143 202.992 59.9665Z" fill="#F2F4F8"/>
<path d="M96.2751 15.719L96.6153 30.7791V30.9482C96.6441 30.9191 96.6729 30.8899 96.7018 30.8549C98.2932 29.0766 99.2503 26.657 99.2503 23.526C99.2503 20.1443 97.9761 17.509 96.2751 15.719ZM85.4004 33.3562C84.6623 33.3562 83.6648 33.3562 82.9787 33.0414C82.552 32.8373 82.4367 32.4641 82.4367 31.9744V29.2632C82.4367 27.8231 82.4367 26.727 82.4655 25.864C82.4943 24.8845 82.7538 24.4239 83.6937 24.2198C83.9243 24.1615 84.4086 24.1324 84.8065 24.1324C85.0602 24.1324 85.2332 24.0741 85.2332 23.905C85.2332 23.6718 85.0314 23.6193 84.6335 23.6193C83.1517 23.6193 81.3584 23.7068 80.4993 23.7068C79.6402 23.7068 78.1064 23.6193 77.1665 23.6193C76.7975 23.6193 76.5957 23.6776 76.5957 23.905C76.5957 24.0741 76.7629 24.1324 76.9647 24.1324C77.1954 24.1324 77.3914 24.1615 77.7316 24.2198C78.5043 24.3656 78.7868 24.8554 78.8156 25.864C78.8444 26.727 78.8445 27.8814 78.8445 29.3215V32.4933C78.8445 33.2687 78.8733 33.327 79.2135 33.5311C81.0644 34.5106 83.8609 34.8255 86.0808 34.8255C88.047 34.8255 89.9498 34.5631 91.668 34.0034L91.7372 31.1173C90.0882 32.5341 87.9317 33.3562 85.4004 33.3562ZM86.6286 12.2324C84.6623 12.2324 82.1541 12.5764 81.5833 12.693C80.9836 12.8096 79.9861 12.9787 79.3288 13.0078C78.9886 13.037 78.9309 13.1536 78.9309 13.3518C78.9309 13.6725 79.1328 14.4771 79.1328 18.0804C79.1328 18.541 79.2192 18.6809 79.4441 18.6809C79.6459 18.6809 79.7036 18.5351 79.7266 18.3077C79.8131 17.6431 79.9573 16.7219 80.6953 15.9173C81.5487 14.996 83.8263 13.6667 87.0495 13.6667C88.4564 13.6667 90.29 13.76 92.0947 15.0019L92.1409 13.0545C90.2092 12.3373 88.3757 12.2266 86.6228 12.2266L86.6286 12.2324Z" fill="#F2F4F8"/>
<path d="M108.897 29.0592C108.667 29.0592 108.615 29.1758 108.528 29.6364C108.413 30.1553 108.044 30.9891 107.559 31.5371C106.418 32.8606 104.878 33.1522 102.347 33.1522C100.536 33.1522 98.4261 32.3884 96.7078 30.855C96.679 30.8316 96.6502 30.8025 96.6213 30.7792V30.9482L96.6905 33.9101C98.4722 34.5515 100.467 34.8197 102.658 34.8197C104.48 34.8197 106.648 34.6214 107.79 34.1608C108.274 33.9568 108.39 33.8168 108.534 33.3271C108.816 32.3476 109.162 29.8405 109.162 29.4906C109.162 29.2632 109.105 29.0592 108.909 29.0592H108.897ZM108.753 13.0079C107.9 12.9204 106.896 12.6639 105.818 12.5181C104.509 12.349 103.454 12.2324 101.684 12.2324C99.487 12.2324 97.7053 12.5414 96.2119 13.1012L96.2581 15.1943C97.4747 14.1915 99.0373 13.6492 101.338 13.6492C103.961 13.6492 106.181 14.4247 107.127 15.4334C107.836 16.1855 108.211 17.1942 108.24 18.0862C108.24 18.4885 108.297 18.7451 108.522 18.7451C108.782 18.7451 108.839 18.4885 108.863 18.0512C108.92 17.474 108.891 15.8881 108.949 14.9378C109.007 13.9291 109.093 13.5851 109.093 13.3519C109.093 13.1828 109.064 13.037 108.753 13.0079ZM89.3446 23.1821C89.3446 25.5551 89.8809 28.2371 91.7491 30.511L92.0777 15.894C89.852 18.3428 89.3389 21.3746 89.3389 23.1821H89.3446Z" fill="#F2F4F8"/>
<path d="M94.1821 71.021L91.7373 51.4131L92.1352 33.8401L92.1986 31.0181L92.2101 30.6858L92.5561 15.4099V15.34L92.6022 13.2352L92.7694 5.73136L92.0429 2.45463L94.1821 0L96.3155 2.45463L95.589 5.73136L95.7562 13.2818L95.8023 15.2525V15.5965L96.1425 30.3185L96.1656 31.4088L96.2175 33.7351L96.6153 51.4131L94.1763 71.021H94.1821Z" fill="#F2F4F8"/>
<path d="M96.6211 51.4131L94.1821 71.021L91.7373 51.4131L92.1352 33.8401L92.1986 31.0181L92.2101 30.6858L92.5561 15.41C92.5561 15.41 92.5791 15.3808 92.5964 15.375C92.5849 15.3633 92.5734 15.3517 92.5618 15.3458L92.608 13.241L92.7752 5.73721L92.0487 2.46049L94.1879 0.00585938L96.3213 2.46049L95.5948 5.73721L95.762 13.2877L95.8081 15.2584V15.6024L96.1483 30.3243L96.1714 31.4146L96.2233 33.741L96.6211 51.419V51.4131Z" fill="#F2F4F8"/>
</g>
<defs>
<clipPath id="clip0_1050_43364">
<rect width="205.172" height="71.021" fill="white"/>
</clipPath>
</defs>
</svg>