<svg xmlns="http://www.w3.org/2000/svg" width="205" height="52" viewBox="0 0 205 52" fill="none">
<path d="M6.67329 0.689209V24.0296H23.4074V26.394H4.01172V0.689209H6.68322H6.67329Z" fill="white"/>
<path d="M43.0124 13.9537H32.0582V24.0296H51.0169V26.394H29.3867V0.689209H50.143V3.05366H32.0582V11.6285H43.0124V13.9537Z" fill="white"/>
<path d="M68.9116 0.100586C76.9162 0.100586 83.2921 6.08529 83.2921 13.4828C83.2921 20.8803 76.9162 27.022 68.9116 27.022C60.9071 27.022 54.6504 20.998 54.6504 13.4828C54.6504 5.96756 60.9369 0.100586 68.9116 0.100586ZM68.9116 24.6575C75.4067 24.6575 80.5014 19.6637 80.5014 13.4828C80.5014 7.30186 75.4067 2.42579 68.9116 2.42579C62.4166 2.42579 57.4808 7.38034 57.4808 13.4828C57.4808 19.5852 62.4961 24.6575 68.9116 24.6575Z" fill="white"/>
<path d="M91.0986 26.394V0.689209H104.883C108.111 0.689209 110.345 1.51333 112.014 3.24988C113.285 4.58417 113.97 6.24223 113.97 8.04745C113.97 10.0587 113.136 11.8247 111.736 13.159C110.147 14.6895 107.952 15.4449 104.883 15.4449H93.7701V26.3842H91.0986V26.394ZM93.7701 3.05366V13.1295H104.883C106.631 13.1295 108.389 12.8548 109.779 11.5205C110.772 10.6179 111.289 9.35231 111.289 8.05726C111.289 6.8407 110.812 5.73206 109.938 4.7902C108.667 3.45591 106.949 3.05366 104.883 3.05366H93.7701Z" fill="white"/>
<path d="M132.741 0.100586C140.745 0.100586 147.121 6.08529 147.121 13.4828C147.121 20.8803 140.745 27.022 132.741 27.022C124.736 27.022 118.479 20.998 118.479 13.4828C118.479 5.96756 124.776 0.100586 132.741 0.100586ZM132.741 24.6575C139.236 24.6575 144.33 19.6637 144.33 13.4828C144.33 7.30186 139.236 2.42579 132.741 2.42579C126.246 2.42579 121.31 7.38034 121.31 13.4828C121.31 19.5852 126.325 24.6575 132.741 24.6575Z" fill="white"/>
<path d="M157.598 0.689209V24.0296H174.332V26.394H154.927V0.689209H157.598Z" fill="white"/>
<path d="M180.311 26.394V0.689209H191.146C196.081 0.689209 198.832 2.10199 201.345 4.38795C203.659 6.71316 204.97 9.94097 204.97 13.522C204.97 17.103 203.579 20.527 201.146 22.8522C198.673 25.0597 196.131 26.394 191.146 26.394H180.311ZM191.066 24.0296C195.168 24.0296 197.005 22.97 199.071 21.1942C201.027 19.2614 202.219 16.5143 202.219 13.522C202.219 10.5296 201.107 7.89048 199.15 5.96752C197.164 4.15249 195.128 3.05366 191.066 3.05366H182.982V24.0296H191.066Z" fill="white"/>
<path d="M23.4281 48.0468L28.7711 36.666H29.933L35.276 48.0468H33.985L32.2768 44.348H26.328L24.6297 48.0468H23.4082H23.4281ZM26.7848 43.4062H31.8696L29.3868 38.0199H29.2776L26.7848 43.4062Z" fill="white"/>
<path d="M46.3689 38.8636C45.6638 38.2161 44.1642 37.4018 42.029 37.4018C40.4797 37.4018 38.7119 37.9806 38.7119 39.5995C38.7119 41.2183 40.7776 41.3066 42.7341 41.4145C44.7303 41.5322 47.9579 41.7284 47.9579 44.6717C47.9579 47.2324 45.5446 48.3312 42.7738 48.3312C40.003 48.3312 38.1161 47.1245 36.8945 46.0159L37.6195 45.2114C38.6226 46.1336 40.2314 47.3207 42.7937 47.3207C44.9488 47.3207 46.786 46.5358 46.786 44.8091C46.786 42.896 44.6905 42.6605 42.744 42.5428C40.3109 42.4054 37.5401 42.2288 37.5401 39.6878C37.5401 37.1467 40.0626 36.4109 42.0886 36.4109C44.4224 36.4109 46.2398 37.3527 47.1038 38.0689L46.3789 38.8734L46.3689 38.8636Z" fill="white"/>
<path d="M59.4178 38.8636C58.7126 38.2161 57.213 37.4018 55.0778 37.4018C53.5285 37.4018 51.7608 37.9806 51.7608 39.5995C51.7608 41.2183 53.8265 41.3066 55.7829 41.4145C57.7791 41.5322 61.0068 41.7284 61.0068 44.6717C61.0068 47.2324 58.5935 48.3312 55.8226 48.3312C53.0518 48.3312 51.1649 47.1245 49.9434 46.0159L50.6683 45.2114C51.6714 46.1336 53.2803 47.3207 55.8425 47.3207C57.9976 47.3207 59.8349 46.5358 59.8349 44.8091C59.8349 42.896 57.7394 42.6605 55.7929 42.5428C53.3597 42.4054 50.5889 42.2288 50.5889 39.6878C50.5889 37.1467 53.1114 36.4109 55.1374 36.4109C57.4712 36.4109 59.2886 37.3527 60.1527 38.0689L59.4277 38.8734L59.4178 38.8636Z" fill="white"/>
<path d="M69.4891 36.4109C73.0346 36.4109 75.855 39.0599 75.855 42.3367C75.855 45.6136 73.0346 48.3312 69.4891 48.3312C65.9437 48.3312 63.1729 45.6627 63.1729 42.3367C63.1729 39.0108 65.9635 36.4109 69.4891 36.4109ZM69.4891 47.2913C72.3692 47.2913 74.6236 45.074 74.6236 42.3367C74.6236 39.5995 72.3692 37.441 69.4891 37.441C66.6091 37.441 64.4242 39.6387 64.4242 42.3367C64.4242 45.0348 66.6488 47.2913 69.4891 47.2913Z" fill="white"/>
<path d="M89.9275 46.114C88.6563 47.3305 86.7892 48.3312 84.5249 48.3312C80.8404 48.3312 78.1689 45.643 78.1689 42.3564C78.1689 39.0697 80.8504 36.4109 84.4653 36.4109C86.4814 36.4109 88.3782 37.1565 89.6395 38.324L88.845 39.0893C87.7327 38.0788 86.0941 37.4312 84.4852 37.4312C81.5555 37.4312 79.4004 39.6583 79.4004 42.3662C79.4004 45.074 81.5654 47.2815 84.5349 47.2815C86.392 47.2815 88.0108 46.4672 89.1231 45.3487L89.9176 46.114H89.9275Z" fill="white"/>
<path d="M92.9854 48.0468V36.666H94.1672V48.0468H92.9854Z" fill="white"/>
<path d="M97.0374 48.0468L102.38 36.666H103.542L108.885 48.0468H107.594L105.886 44.348H99.9374L98.2391 48.0468H97.0176H97.0374ZM100.394 43.4062H105.479L102.996 38.0199H102.887L100.394 43.4062Z" fill="white"/>
<path d="M109.114 36.666H119.185V37.7158H114.736V48.0566H113.554V37.7158H109.104V36.666H109.114Z" fill="white"/>
<path d="M127.953 42.543H123.097V47.007H131.499V48.0568H121.915V36.676H131.111V37.7258H123.097V41.5227H127.953V42.5528V42.543Z" fill="white"/>
<path d="M142.731 38.8636C142.026 38.2161 140.526 37.4018 138.391 37.4018C136.842 37.4018 135.074 37.9806 135.074 39.5995C135.074 41.2183 137.14 41.3066 139.096 41.4145C141.093 41.5322 144.32 41.7284 144.32 44.6717C144.32 47.2324 141.907 48.3312 139.136 48.3312C136.365 48.3312 134.478 47.1245 133.257 46.0159L133.982 45.2114C134.985 46.1336 136.594 47.3207 139.156 47.3207C141.311 47.3207 143.148 46.5358 143.148 44.8091C143.148 42.896 141.053 42.6605 139.106 42.5428C136.673 42.4054 133.902 42.2288 133.902 39.6878C133.902 37.1467 136.425 36.4109 138.451 36.4109C140.785 36.4109 142.602 37.3527 143.466 38.0689L142.741 38.8734L142.731 38.8636Z" fill="white"/>
<path d="M146.237 50.421C146.982 50.1954 148.214 49.5282 148.214 48.5177C148.214 48.2037 148.075 47.9585 147.856 47.9094C147.717 47.9487 147.578 47.9781 147.419 47.9781C146.942 47.9781 146.555 47.6641 146.555 47.2325C146.555 46.8008 146.923 46.4868 147.419 46.4868C148.323 46.4868 149.097 47.2226 149.097 48.243C149.097 49.9697 147.638 50.7546 146.575 51.1176L146.237 50.421Z" fill="white"/>
<path d="M156.406 48.0468V36.666H162.514C163.944 36.666 164.927 37.029 165.672 37.7943C166.238 38.3829 166.536 39.1188 166.536 39.9233C166.536 40.8161 166.169 41.6009 165.553 42.1896C164.848 42.8666 163.875 43.2001 162.514 43.2001H157.588V48.0468H156.406ZM157.588 37.706V42.17H162.514C163.289 42.17 164.063 42.0523 164.679 41.4538C165.116 41.0515 165.354 40.4923 165.354 39.9233C165.354 39.3837 165.146 38.8931 164.758 38.481C164.192 37.8924 163.438 37.7158 162.514 37.7158H157.588V37.706Z" fill="white"/>
<path d="M170.688 36.666V47.0068H178.096V48.0566H169.506V36.6758H170.688V36.666Z" fill="white"/>
<path d="M181.84 36.666V47.0068H189.249V48.0566H180.658V36.6758H181.84V36.666Z" fill="white"/>
<path d="M201.991 46.114C200.72 47.3305 198.853 48.3312 196.588 48.3312C192.904 48.3312 190.232 45.643 190.232 42.3564C190.232 39.0697 192.914 36.4109 196.529 36.4109C198.545 36.4109 200.442 37.1565 201.703 38.324L200.908 39.0893C199.796 38.0788 198.158 37.4312 196.549 37.4312C193.619 37.4312 191.464 39.6583 191.464 42.3662C191.464 45.074 193.629 47.2815 196.598 47.2815C198.455 47.2815 200.074 46.4672 201.187 45.3487L201.981 46.114H201.991Z" fill="white"/>
<path d="M4.6274 48.3611C-0.65602 46.3498 0.168273 40.6398 3.4853 39.1093C2.63122 38.0203 2.22404 36.7056 2.75039 35.4498C3.58462 33.3993 6.37529 33.0854 7.65642 34.0861C8.42113 34.6747 8.47078 35.9011 8.2225 36.4309C7.96429 36.9803 7.47766 37.255 7.18965 37.255C7.10027 37.255 7.08041 37.1275 7.13007 36.8724C7.30883 35.7441 5.64038 34.9691 4.48836 35.9992C3.61441 36.7939 3.82297 38.3244 4.23015 38.8346C4.56781 38.7659 5.56093 38.2361 6.41502 38.6874C6.86192 38.9229 6.81227 39.7863 6.5044 40.1395C6.28591 40.3847 5.64038 40.5613 4.87568 40.1983C4.58767 40.061 4.34932 39.9334 4.1507 39.8059C3.12778 38.5991 -0.477258 46.5166 8.62968 46.5166C16.1178 46.5166 15.9788 39.9727 11.6091 39.9727C11.1423 39.9727 10.755 40.0414 10.4769 40.1885C8.50058 41.1598 9.85122 43.4065 10.2683 42.8669C10.318 42.8081 10.3279 42.7296 10.2981 42.6413C10.169 42.2096 10.5961 41.4738 11.2217 41.4738C12.8207 41.4738 12.7511 42.8081 12.2049 43.485C11.7382 44.0639 9.47384 44.3288 8.6992 42.4647C8.45092 41.8662 8.39133 40.9047 8.74886 40.0904C10.4968 36.1954 16.0185 39.8059 17.4585 37.2158C18.0941 36.0581 17.0216 35.0868 16.4257 35.0868C15.7802 35.0868 16.6938 36.0483 15.7206 36.6369C15.085 37.0196 14.072 36.5977 14.072 35.7049C14.072 35.283 14.2508 34.9396 14.5984 34.6649C14.9459 34.4 15.3333 34.2627 15.7702 34.2627C19.276 34.2627 19.0475 37.7946 17.6969 39.1486C16.1774 40.6594 14.4692 39.9531 15.0155 40.8066C15.4624 41.4738 15.5716 42.3568 15.5716 43.1318C15.5716 48.469 8.71906 49.9014 4.6274 48.3415V48.3611Z" fill="white"/>
</svg>