<svg xmlns="http://www.w3.org/2000/svg" width="226" height="50" viewBox="0 0 226 50" fill="none">
<g clip-path="url(#clip0_1681_4636)">
<path d="M36.5477 24.9981H13.0115L24.7789 13.4241L36.5477 24.9981Z" fill="#F2F4F8"/>
<path d="M24.7803 13.4255L37.4526 0.961498C37.9053 0.516321 38.6396 0.516321 39.0922 0.961498L49.2198 10.9226C49.6724 11.3677 49.6724 12.09 49.2198 12.5352L36.5474 24.9992L24.7803 13.4255Z" fill="#F2F4F8" fill-opacity="0.5"/>
<path d="M13.0115 24.9995L0.339106 12.5355C-0.113512 12.0903 -0.113511 11.368 0.339107 10.9229L10.4667 0.961787C10.9193 0.516609 11.6536 0.516608 12.1062 0.961785L24.7786 13.4258L13.0115 24.9995Z" fill="#F2F4F8" fill-opacity="0.2"/>
<path d="M23.959 37.381L12.1064 49.0387C11.6538 49.4839 10.9195 49.4839 10.4669 49.0387L0.339308 39.0777C-0.11331 38.6325 -0.113312 37.9102 0.339306 37.4651L13.0117 25.001L23.959 35.7684C24.4116 36.2136 24.4116 36.9358 23.959 37.381Z" fill="#F2F4F8" fill-opacity="0.7"/>
<path d="M199.385 23.5753C199.758 25.1374 200.118 26.7022 200.517 28.2566C200.575 28.4865 200.812 28.6733 200.966 28.8796C201.125 28.6746 201.371 28.4917 201.43 28.2605C202.695 23.3663 203.938 18.4681 205.182 13.57C205.446 12.5303 205.438 12.5289 206.533 12.5289C208.035 12.5289 209.538 12.5459 211.04 12.5185C211.588 12.5081 211.851 12.6543 211.992 13.2278C213.195 18.1141 214.436 22.9914 215.665 27.8726C215.697 27.9993 215.71 28.139 215.778 28.2448C215.903 28.4421 216.061 28.6197 216.206 28.8052C216.368 28.6093 216.624 28.4342 216.679 28.2122C217.24 25.9381 217.77 23.6549 218.309 21.3757C218.57 20.2785 218.83 19.18 219.09 18.0828C219.131 18.0541 219.135 18.0201 219.106 17.9809C219.192 17.6126 219.279 17.2455 219.365 16.8772L219.393 16.8472L219.376 16.8106C219.664 15.6063 219.971 14.4072 220.23 13.1977C220.335 12.7066 220.554 12.5107 221.076 12.5198C222.469 12.5472 223.862 12.5224 225.256 12.5289C226.009 12.5329 226.114 12.6792 225.902 13.3962C224.025 19.7234 222.147 26.0492 220.268 32.3763C219.977 33.3546 219.667 34.3277 219.397 35.3112C219.292 35.6939 219.094 35.8389 218.696 35.835C216.904 35.8219 215.113 35.8193 213.321 35.8363C212.88 35.8402 212.705 35.6548 212.6 35.2551C211.418 30.7618 210.222 26.2712 209.028 21.7806C208.995 21.6552 208.98 21.5154 208.914 21.4083C208.788 21.2046 208.629 21.0191 208.485 20.8258C208.316 21.023 208.054 21.1954 207.995 21.4201C206.776 25.9486 205.568 30.4797 204.394 35.02C204.235 35.6378 203.987 35.8651 203.32 35.8455C201.64 35.7958 199.959 35.818 198.278 35.8363C197.837 35.8415 197.598 35.7122 197.466 35.2707C195.307 28.0071 193.134 20.7474 190.966 13.4864C190.719 12.6583 190.817 12.5316 191.697 12.5289C193.157 12.5237 194.618 12.5433 196.077 12.5172C196.587 12.5081 196.831 12.6779 196.947 13.1781C197.737 16.6055 198.553 20.0277 199.359 23.4512C199.351 23.4655 199.333 23.4838 199.339 23.4943C199.349 23.523 199.369 23.5478 199.385 23.574V23.5753Z" fill="#F2F4F8"/>
<path d="M163.216 26.0543C163.007 24.2466 163.069 22.4532 163.48 20.6755C163.519 20.6507 163.525 20.6193 163.498 20.5828C164.423 17.0979 166.341 14.4006 169.802 12.9417C170.266 12.7457 170.759 12.6177 171.24 12.4584L171.296 12.4767L171.343 12.4427C174.912 11.7178 178.14 12.3003 180.873 14.8252C181.023 14.9636 181.297 15.0629 181.489 15.0328C181.59 15.0172 181.69 14.6854 181.703 14.4895C181.734 14.0349 181.719 13.5765 181.71 13.1206C181.702 12.7105 181.897 12.5237 182.31 12.525C183.924 12.5289 185.538 12.5354 187.152 12.525C187.777 12.5211 187.777 12.9077 187.777 13.3557C187.771 18.9239 187.773 24.4908 187.773 30.0591C187.773 31.7336 187.755 33.4094 187.783 35.0826C187.792 35.656 187.582 35.848 187.01 35.8376C185.484 35.8101 183.958 35.8114 182.432 35.8376C181.87 35.8467 181.677 35.6207 181.707 35.0996C181.73 34.709 181.739 34.3146 181.7 33.9266C181.678 33.6902 181.554 33.4643 181.476 33.2331C181.254 33.3349 180.987 33.3911 180.817 33.5478C178.817 35.4 176.443 36.266 173.707 36.202C173.675 36.1994 173.645 36.1968 173.613 36.1942C173.2 36.1576 172.787 36.121 172.373 36.0831C172.353 36.0609 172.331 36.0596 172.309 36.0792C169.16 35.6312 166.744 34.0298 165.126 31.3848C164.41 30.2158 164.023 28.8535 163.488 27.5799C163.495 27.5656 163.512 27.546 163.508 27.5368C163.495 27.5094 163.474 27.4872 163.456 27.4624C163.379 27.0235 163.304 26.5846 163.227 26.1471C163.256 26.1131 163.252 26.0818 163.217 26.053L163.216 26.0543ZM175.881 30.9917L175.921 31.0126L175.958 30.9877C178.488 30.7121 180.238 29.4138 181.205 27.1019C181.72 25.8675 181.775 24.5692 181.678 23.2604C181.4 19.5287 178.307 16.9751 174.614 17.4205L174.592 17.3905L174.57 17.4231C172.767 17.687 171.367 18.5713 170.377 20.0747C169.317 21.6826 169.09 23.4485 169.331 25.3137C169.778 28.7516 172.592 31.2268 175.881 30.993V30.9917Z" fill="#F2F4F8"/>
<path d="M118.38 20.4594C119.596 16.1869 122.362 13.4857 126.775 12.4565L126.834 12.4761L126.885 12.4434C127.471 12.3611 128.057 12.2788 128.642 12.1965L128.676 12.2174L128.706 12.1926C130.982 12.0542 133.2 12.2958 135.277 13.2807C138.842 14.9722 140.75 17.847 141.355 21.631L141.336 21.6702L141.362 21.7068C141.394 22.7909 141.47 23.8776 141.443 24.9605C141.419 25.9479 141.343 25.9754 140.349 25.9754C135.374 25.9767 130.399 25.9767 125.423 25.9754C123.924 25.9754 123.872 26.0367 124.337 27.4866C125.03 29.647 126.547 30.9284 128.802 31.2288C131.041 31.5266 132.958 30.9297 134.211 28.8934C134.336 28.6896 134.693 28.5185 134.945 28.5133C136.603 28.4793 138.261 28.495 139.92 28.4976C140.739 28.4976 140.888 28.6909 140.568 29.4315C138.916 33.2416 135.986 35.4791 131.834 36.0682C128.607 36.5253 125.526 36.0407 122.795 34.1625C119.696 32.0308 118.277 28.9835 117.98 25.3575L118 25.3157L117.972 25.2779C118.024 24.131 118.076 22.9842 118.127 21.8374C118.151 21.8178 118.153 21.7969 118.133 21.7747C118.21 21.3711 118.287 20.9688 118.364 20.5652C118.406 20.5365 118.411 20.4999 118.382 20.4581L118.38 20.4594ZM135.231 21.4416L135.251 21.3998L135.223 21.3633C135.083 20.8852 135.021 20.3666 134.791 19.9343C133.607 17.6994 131.607 16.9419 129.168 17.0359C127.063 17.1169 125.216 18.4727 124.458 20.4855C123.933 21.8779 124.013 21.9928 125.51 21.9928C128.495 21.9928 131.482 21.9928 134.467 21.9928C134.86 21.9928 135.256 22.0007 135.229 21.4416H135.231Z" fill="#F2F4F8"/>
<path d="M79.4506 12.5328C80.2687 12.5328 81.0894 12.5733 81.9048 12.5197C82.505 12.4805 82.7534 12.7287 82.9473 13.2525C84.667 17.8946 86.4067 22.5302 88.1597 27.1606C88.2765 27.4689 88.5607 27.7144 88.7679 27.99C88.9552 27.721 89.2075 27.4754 89.3217 27.1776C91.1065 22.5368 92.8821 17.8933 94.6324 13.2394C94.8342 12.7039 95.0985 12.4988 95.6868 12.5145C97.2339 12.5537 98.7824 12.525 100.331 12.5302C101.12 12.5328 101.251 12.7235 100.948 13.4327C96.2725 24.3837 91.5912 35.332 86.922 46.2856C86.7507 46.6879 86.5236 46.8329 86.0787 46.8264C84.4864 46.8003 82.8941 46.8185 81.3019 46.8172C80.4626 46.8172 80.347 46.6461 80.6804 45.8885C82.1531 42.5487 83.6179 39.2062 85.1106 35.8741C85.3138 35.4196 85.3297 35.0512 85.1345 34.5875C82.2036 27.6191 79.2926 20.6415 76.3776 13.6665C76.3351 13.566 76.2939 13.4654 76.2568 13.3648C76.0217 12.7405 76.1625 12.5419 76.865 12.5354C77.7269 12.5276 78.5901 12.5341 79.4519 12.5328H79.4506Z" fill="#F2F4F8"/>
<path d="M105.938 10.3963C106.108 6.36288 108.435 3.97258 112.835 3.31297L112.884 3.33256L112.928 3.30382C113.722 3.26072 114.515 3.21892 115.309 3.17582C115.697 3.15492 115.872 3.3208 115.869 3.71527C115.859 5.02014 115.885 6.32631 115.843 7.62987C115.837 7.81143 115.553 8.0596 115.343 8.13928C115.066 8.24508 114.732 8.19283 114.43 8.24639C112.782 8.53897 112.107 9.27957 112.023 10.9319C111.925 12.8611 111.932 12.498 113.549 12.528C114.212 12.5398 114.876 12.5346 115.54 12.528C115.954 12.5241 116.14 12.6991 116.136 13.1184C116.124 14.3371 116.12 15.5544 116.136 16.7731C116.143 17.2694 115.9 17.417 115.442 17.4092C114.58 17.3948 113.717 17.4027 112.855 17.4053C112.011 17.4066 111.994 17.4223 111.994 18.2438C111.994 23.769 111.994 29.2941 111.994 34.8205C111.994 35.4953 111.651 35.8328 110.966 35.8328C109.551 35.8328 108.135 35.8027 106.721 35.8458C106.061 35.8654 105.896 35.629 105.899 35.0125C105.918 29.4874 105.911 23.9623 105.911 18.4372C105.911 17.4066 105.911 17.4118 104.893 17.4066C103.023 17.3974 103.191 17.6378 103.185 15.7399C103.184 14.9131 103.196 14.0863 103.185 13.2595C103.179 12.7501 103.367 12.4849 103.93 12.528C104.347 12.5594 104.771 12.5097 105.191 12.5346C105.75 12.5672 105.942 12.3112 105.917 11.7913C105.896 11.3577 105.924 10.9227 105.93 10.4878C105.944 10.4812 105.969 10.4708 105.968 10.4669C105.961 10.4434 105.949 10.4212 105.938 10.399V10.3963Z" fill="#F2F4F8"/>
<path d="M145.037 24.1498C145.037 20.5827 145.037 17.0142 145.037 13.4471C145.037 12.5602 145.07 12.5301 145.97 12.5301C147.364 12.5301 148.758 12.5288 150.151 12.5301C151.012 12.5301 151.055 12.5719 151.055 13.4066C151.055 19.0192 151.055 24.6318 151.055 30.2445C151.055 31.1196 151.063 31.1274 151.94 31.1287C155.058 31.1287 158.177 31.1287 161.296 31.13C162.127 31.13 162.156 31.1614 162.158 31.9804C162.159 33.0462 162.147 34.112 162.164 35.1779C162.172 35.6533 161.981 35.8349 161.497 35.8349C156.233 35.8257 150.969 35.8244 145.705 35.8375C145.095 35.8388 145.033 35.5201 145.034 35.0486C145.042 31.4161 145.038 27.7823 145.038 24.1498H145.036H145.037Z" fill="#F2F4F8"/>
<path d="M60.8556 24.1261C60.8556 20.5589 60.8556 16.9904 60.8556 13.4233C60.8556 12.5743 60.902 12.5299 61.7413 12.5299C63.1796 12.5299 64.6178 12.556 66.0547 12.5207C66.7054 12.505 66.8847 12.7519 66.882 13.3645C66.8635 18.9549 66.8714 24.5467 66.8714 30.1371C66.8714 30.798 67.2171 31.1289 67.9086 31.1298C70.9829 31.1298 74.0573 31.1441 77.1316 31.118C77.765 31.1128 78.0067 31.3074 77.9842 31.9383C77.947 32.9806 77.9563 34.0269 77.9802 35.0705C77.9935 35.6165 77.8195 35.8425 77.2206 35.8398C72.0227 35.8216 66.8249 35.8202 61.6271 35.8398C60.9857 35.8425 60.8463 35.5891 60.8489 35.0235C60.8662 31.391 60.8582 27.7572 60.8582 24.1248H60.8556V24.1261Z" fill="#F2F4F8"/>
<path d="M141.361 21.7092L141.334 21.6723L141.354 21.6328L141.391 21.6697L141.361 21.7092Z" fill="#F2F4F8"/>
<path d="M199.385 23.5754C199.369 23.5493 199.349 23.5245 199.338 23.4959C199.334 23.4855 199.351 23.4672 199.358 23.4529C199.378 23.4802 199.399 23.5063 199.414 23.535C199.418 23.5428 199.395 23.561 199.385 23.5754Z" fill="#F2F4F8"/>
<path d="M117.971 25.2791L117.999 25.3173L117.979 25.3594L117.94 25.3199L117.971 25.2791Z" fill="#F2F4F8"/>
<path d="M163.215 26.0552C163.25 26.0844 163.254 26.1162 163.225 26.1507C163.21 26.1268 163.192 26.1043 163.18 26.0804C163.18 26.0791 163.203 26.0645 163.215 26.0552Z" fill="#F2F4F8"/>
<path d="M163.496 20.584C163.524 20.6211 163.517 20.653 163.478 20.6782C163.472 20.653 163.462 20.6291 163.459 20.6052C163.459 20.5999 163.482 20.5919 163.496 20.5853V20.584Z" fill="#F2F4F8"/>
<path d="M163.454 27.4641C163.473 27.4889 163.494 27.511 163.506 27.5384C163.51 27.5475 163.494 27.567 163.486 27.5814C163.465 27.5553 163.441 27.5319 163.425 27.5045C163.421 27.4993 163.444 27.4784 163.454 27.4641Z" fill="#F2F4F8"/>
<path d="M118.38 20.4598C118.409 20.502 118.404 20.5389 118.361 20.5678C118.356 20.5415 118.348 20.5138 118.346 20.4875C118.346 20.4783 118.368 20.469 118.379 20.4585L118.38 20.4598Z" fill="#F2F4F8"/>
<path d="M219.108 17.9817C219.138 18.0208 219.133 18.056 219.092 18.0833C219.059 18.0442 219.064 18.0104 219.108 17.9817Z" fill="#F2F4F8"/>
<path d="M128.708 12.1946L128.677 12.2185L128.643 12.1973L128.674 12.1614L128.708 12.1946Z" fill="#F2F4F8"/>
<path d="M171.341 12.4438L171.293 12.4777L171.238 12.4594L171.285 12.4216L171.341 12.4438Z" fill="#F2F4F8"/>
<path d="M172.309 36.0814C172.332 36.0615 172.353 36.0628 172.374 36.0854L172.338 36.1199L172.307 36.0814H172.309Z" fill="#F2F4F8"/>
<path d="M112.93 3.3042L112.886 3.3334L112.836 3.31349C112.868 3.31084 112.899 3.30685 112.93 3.3042Z" fill="#F2F4F8"/>
<path d="M173.612 36.196C173.644 36.1987 173.676 36.2014 173.707 36.204L173.657 36.2226L173.612 36.196Z" fill="#F2F4F8"/>
<path d="M219.378 16.8105L219.395 16.8491L219.367 16.8796L219.337 16.8398L219.378 16.8105Z" fill="#F2F4F8"/>
<path d="M126.887 12.4438L126.834 12.4768L126.775 12.457C126.813 12.4531 126.849 12.4478 126.887 12.4438Z" fill="#F2F4F8"/>
<path d="M105.939 10.397C105.949 10.4195 105.961 10.442 105.968 10.4658C105.968 10.4685 105.944 10.4804 105.93 10.487C105.902 10.4539 105.905 10.4248 105.939 10.397Z" fill="#F2F4F8"/>
<path d="M118.132 21.7756C118.152 21.7982 118.151 21.8195 118.126 21.8394L118.093 21.8049L118.132 21.7756Z" fill="#F2F4F8"/>
<path d="M174.618 17.4232L174.57 17.4276L174.593 17.3899L174.618 17.4232Z" fill="#F2F4F8"/>
<path d="M175.881 30.992L175.918 30.9551L175.958 30.9867L175.921 31.0117L175.881 30.992Z" fill="#F2F4F8"/>
<path d="M135.232 21.4421L135.195 21.4039L135.224 21.363L135.252 21.4012L135.232 21.4421Z" fill="#F2F4F8"/>
</g>
<defs>
<clipPath id="clip0_1681_4636">
<rect width="226" height="48.7451" fill="white" transform="translate(0 0.627441)"/>
</clipPath>
</defs>
</svg>