<svg xmlns="http://www.w3.org/2000/svg" width="205" height="35" viewBox="0 0 205 35" fill="none">
<g clip-path="url(#clip0_1050_43075)">
<path d="M205 32.7782H148.305V31.5286H203.797V1.24918H1.20347V31.5286H57.1963V32.7782H0V-0.000488281H205V32.7782Z" fill="#F2F4F8"/>
<path d="M14.6013 19.7113C14.6013 21.831 14.8405 22.3278 16.5329 22.3278V22.9589H10.8675V22.3278C12.5419 22.3278 12.7811 21.831 12.7811 19.7113V11.7259C12.7811 10.7715 13.0202 9.60618 11.7686 9.60618C9.89273 9.60618 8.36583 11.0964 7.57455 12.7194L7.07812 12.5085L8.40194 8.9751H19.0165L20.3042 12.5085L19.8439 12.7194C19.0526 11.0761 17.452 9.64367 15.6137 9.60618C14.3621 9.60618 14.6013 10.7715 14.6013 11.7259V19.7113Z" fill="#F2F4F8"/>
<path d="M26.7258 8.49717L30.0744 18.8881C30.3136 19.6332 30.792 21.2188 31.2884 21.7717C31.6013 22.1341 32.024 22.2685 32.4844 22.3263V22.9574H27.0763V22.3263C27.7021 22.2685 28.8604 22.4606 28.8604 21.4671C28.8604 21.161 28.6573 20.5314 28.5475 20.244L27.7938 17.8947H23.1033L22.8641 18.621C22.6806 19.1756 22.1285 20.6642 22.1285 21.2188C22.1285 22.1935 23.1033 22.3263 23.857 22.3263V22.9574H19.1484V22.3263C20.731 22.3075 21.2274 20.722 21.6501 19.4036L24.9988 8.9736L26.7288 8.49561L26.7258 8.49717ZM25.4742 10.5982L23.3952 17.0168H27.5336L25.4727 10.5982H25.4742Z" fill="#F2F4F8"/>
<path d="M38.9392 19.7113C38.9392 21.831 39.1784 22.3278 40.8707 22.3278V22.9589H35.2054V22.3278C36.8798 22.3278 37.1189 21.831 37.1189 19.7113V11.7259C37.1189 10.7715 37.3581 9.60618 36.1065 9.60618C34.2306 9.60618 32.7037 11.0964 31.9124 12.7194L31.416 12.5085L32.7398 8.9751H43.3544L44.6421 12.5085L44.1818 12.7194C43.3905 11.0761 41.7899 9.64367 39.9516 9.60618C38.7 9.60618 38.9392 10.7715 38.9392 11.7259V19.7113Z" fill="#F2F4F8"/>
<path d="M54.852 12.2227C54.852 10.1217 54.6128 9.60618 53.1957 9.60618V8.9751H57.4079V9.60618C55.9366 9.60618 55.6974 10.1217 55.6974 12.2227V18.1258C55.6974 21.5061 54.2067 23.1682 50.9332 23.1682C48.1367 23.1682 46.2788 21.6405 46.2788 18.6787V12.2227C46.2788 10.1217 46.0396 9.60618 44.6602 9.60618V8.9751H49.8667V9.60618C48.3398 9.60618 48.1006 10.1217 48.1006 12.2227V17.59C48.1006 20.1112 48.5789 22.4043 51.4673 22.384C54.5211 22.4028 54.852 20.0159 54.852 17.4369V12.2227Z" fill="#F2F4F8"/>
<path d="M72.9895 19.7119C72.9895 21.8316 73.2467 22.3284 74.7375 22.3284V22.9594H69.4212V22.3284C70.9105 22.3284 71.1692 21.8316 71.1692 19.7119V10.4659H71.1136L66.5509 22.9579H65.8514L61.3264 10.3894H61.2707V19.7103C61.2707 21.8301 61.5099 22.3268 62.9812 22.3268V22.9579H58.6953V22.3268C60.1846 22.3268 60.4238 21.8301 60.4238 19.7103V12.2217C60.4238 10.1207 60.1846 9.6052 58.6953 9.6052V8.97412H62.6683L66.6969 20.0915L70.7435 8.97412H74.736V9.6052C73.2467 9.6052 72.988 10.1207 72.988 12.2217V19.7103L72.9895 19.7119Z" fill="#F2F4F8"/>
<path d="M85.1141 15.0109C84.7094 14.1518 84.3048 13.1958 84.3048 12.2023C84.3048 10.1778 85.7023 8.76416 87.6534 8.76416C89.0148 8.76416 90.5237 9.64361 90.5237 11.1713C90.5237 12.9865 88.2973 14.094 86.9554 14.8C88.0039 16.748 89.0705 18.7349 90.45 20.4157C91.2036 19.327 91.7557 17.9711 91.7557 16.6152C91.7557 15.4889 90.9283 15.3358 90.0077 15.3358V14.7813H94.7539V15.3358C93.3007 15.3733 93.1909 15.8326 92.7305 17.0744C92.2341 18.3928 91.7001 19.73 90.8546 20.875C91.2412 21.3905 92.0867 21.945 92.7501 21.945C93.5233 21.945 94.2033 21.467 94.811 21.0281L95.1059 21.3905C94.2604 22.3262 93.0449 23.1666 91.7768 23.1666C90.7644 23.1666 90.2138 22.7089 89.4767 22.059C88.3364 22.7464 87.2502 23.1666 85.8888 23.1666C83.8474 23.1666 81.4375 21.8685 81.4375 19.48C81.4375 17.5696 82.9825 16.3856 84.3815 15.4499L85.1171 15.0109H85.1141ZM83.3661 18.4678C83.3661 20.4923 84.9667 22.3449 86.9343 22.3449C87.7076 22.3449 88.5349 22.1356 89.1051 21.5998C87.6519 19.7659 86.4379 17.7227 85.3713 15.5826C84.1934 16.0403 83.3661 17.1104 83.3661 18.4662V18.4678ZM89.1608 11.4759C89.1608 10.4247 88.553 9.39368 87.4323 9.39368C86.4018 9.39368 85.8136 10.3481 85.8136 11.3228C85.8136 12.2398 86.2363 13.4426 86.659 14.2455C87.8369 13.7113 89.1608 12.9662 89.1608 11.4759Z" fill="#F2F4F8"/>
<path d="M107.76 8.49717L111.109 18.8881C111.348 19.6332 111.826 21.2188 112.323 21.7717C112.635 22.1341 113.058 22.2685 113.519 22.3263V22.9574H108.11V22.3263C108.736 22.2685 109.895 22.4606 109.895 21.4671C109.895 21.161 109.692 20.5314 109.582 20.244L108.828 17.8947H104.138L103.898 18.621C103.715 19.1756 103.163 20.6642 103.163 21.2188C103.163 22.1935 104.138 22.3263 104.891 22.3263V22.9574H100.183V22.3263C101.765 22.3075 102.262 20.722 102.684 19.4036L106.033 8.9736L107.763 8.49561L107.76 8.49717ZM106.508 10.5982L104.429 17.0168H108.568L106.507 10.5982H106.508Z" fill="#F2F4F8"/>
<path d="M119.975 19.7113C119.975 21.831 120.215 22.3278 121.907 22.3278V22.9589H116.242V22.3278C117.916 22.3278 118.155 21.831 118.155 19.7113V11.7259C118.155 10.7715 118.394 9.60618 117.143 9.60618C115.267 9.60618 113.74 11.0964 112.949 12.7194L112.452 12.5085L113.776 8.9751H124.391L125.678 12.5085L125.218 12.7194C124.427 11.0761 122.826 9.64367 120.988 9.60618C119.736 9.60618 119.975 10.7715 119.975 11.7259V19.7113Z" fill="#F2F4F8"/>
<path d="M133.588 11.879C133.901 11.5541 134.654 10.848 134.654 10.37C134.654 9.60618 133.735 9.60618 133.201 9.60618V8.9751H138.314V9.60618C136.548 9.64523 135.187 11.2495 134.028 12.4898L132.372 14.2284L135.94 19.8831C136.676 21.0484 137.467 22.4621 138.994 22.3278V22.9589H133.329V22.3278C133.881 22.3278 134.856 22.4231 134.856 21.7935C134.856 21.4499 134.415 20.8391 134.23 20.5704L131.066 15.6046L129.356 17.4197V19.7113C129.356 21.831 129.595 22.3278 131.066 22.3278V22.9589H125.786V22.3278C127.295 22.3278 127.534 21.831 127.534 19.7113V12.2227C127.534 10.1217 127.295 9.60618 125.786 9.60618V8.9751H131.066V9.60618C129.595 9.60618 129.356 10.1217 129.356 12.2227V16.3106L133.588 11.879Z" fill="#F2F4F8"/>
<path d="M142.767 19.7113C142.767 21.831 143.024 22.3278 144.515 22.3278V22.9589H139.217V22.3278C140.688 22.3278 140.945 21.831 140.945 19.7113V12.2227C140.945 10.1217 140.688 9.60618 139.217 9.60618V8.9751H144.515V9.60618C143.026 9.60618 142.767 10.1217 142.767 12.2227V19.7113Z" fill="#F2F4F8"/>
<path d="M156.215 19.387V12.2233C156.215 10.1223 155.976 9.60676 154.505 9.60676V8.97568H158.773V9.60676C157.319 9.60676 157.062 10.1223 157.062 12.2233V22.9579H156.436L148.471 11.3251V19.7103C148.471 21.8301 148.71 22.3268 150.181 22.3268V22.9579H145.896V22.3268C147.367 22.3268 147.625 21.8301 147.625 19.7103V12.2217C147.625 10.1207 147.368 9.6052 145.896 9.6052V8.97412H149.097L156.215 19.3838V19.387Z" fill="#F2F4F8"/>
<path d="M169.092 12.3178L168.558 12.5849C167.657 11.0759 166.258 9.39514 164.42 9.39514C163.04 9.39514 161.974 10.5027 161.974 11.9351C161.974 13.5971 163.666 14.2657 164.954 14.6672C167.272 15.4123 169.644 16.0621 169.644 19.0988C169.644 21.5435 167.804 23.168 165.524 23.168C164.366 23.168 163.371 22.6135 162.636 22.6135C162.231 22.6135 161.789 22.8806 161.513 23.168L160.17 19.444L160.722 19.1769C161.844 20.7234 163.499 22.5385 165.413 22.5385C166.83 22.5385 168.135 21.545 168.135 19.9595C168.135 15.5279 160.612 17.782 160.612 12.663C160.612 10.2559 162.231 8.76562 164.511 8.76562C165.1 8.76562 165.431 8.87966 165.983 9.09054C166.405 9.22488 166.571 9.32016 166.976 9.32016C167.288 9.32016 167.655 9.22488 167.877 8.95776L169.091 12.3194L169.092 12.3178Z" fill="#F2F4F8"/>
<path d="M177.132 23.168C173.305 23.168 171.189 19.6158 171.189 15.9668C171.189 12.3178 173.396 8.76562 177.186 8.76562C180.975 8.76562 183.146 12.4334 183.146 16.0809C183.146 19.7283 180.939 23.168 177.13 23.168H177.132ZM173.305 15.8903C173.305 18.2584 174.114 22.5369 177.132 22.5369C180.149 22.5369 181.031 18.4677 181.031 15.9278C181.031 13.3878 180.24 9.39514 177.186 9.39514C174.132 9.39514 173.305 13.4253 173.305 15.8903Z" fill="#F2F4F8"/>
<path d="M195.599 19.387V12.2233C195.599 10.1223 195.36 9.60676 193.889 9.60676V8.97568H198.156V9.60676C196.703 9.60676 196.446 10.1223 196.446 12.2233V22.9579H195.82L187.855 11.3251V19.7103C187.855 21.8301 188.094 22.3268 189.565 22.3268V22.9579H185.279V22.3268C186.751 22.3268 187.009 21.8301 187.009 19.7103V12.2217C187.009 10.1207 186.752 9.6052 185.279 9.6052V8.97412H188.481L195.599 19.3838V19.387Z" fill="#F2F4F8"/>
<path d="M65.6561 29.3965L66.0442 30.8898L65.7779 30.9648C65.4319 30.404 64.7926 29.7027 64.1021 29.687V33.9296C64.1021 34.4529 64.2826 34.617 64.8001 34.617V34.8638H62.2247V34.617C62.7422 34.617 62.9227 34.4529 62.9227 33.9296V29.687C62.2036 29.7761 61.6425 30.3587 61.2604 30.9648L60.9941 30.8898L61.3462 29.3965H65.6561Z" fill="#F2F4F8"/>
<path d="M70.1946 31.8849V30.3306C70.1946 29.8073 70.0141 29.6433 69.4966 29.6433V29.3965H72.072V29.6433C71.5546 29.6433 71.374 29.8073 71.374 30.3306V33.9312C71.374 34.4545 71.5546 34.6185 72.072 34.6185V34.8653H69.4966V34.6185C70.0141 34.6185 70.1946 34.4545 70.1946 33.9312V32.2348H68.2661V33.9312C68.2661 34.4545 68.4466 34.6185 68.9641 34.6185V34.8653H66.3887V34.6185C66.9062 34.6185 67.0867 34.4545 67.0867 33.9312V30.3306C67.0867 29.8073 66.9062 29.6433 66.3887 29.6433V29.3965H68.9641V29.6433C68.4466 29.6433 68.2661 29.8073 68.2661 30.3306V31.8849H70.1946Z" fill="#F2F4F8"/>
<path d="M72.9507 34.6185C73.4682 34.6185 73.6487 34.4545 73.6487 33.9312V30.3306C73.6487 29.8073 73.4682 29.6433 72.9507 29.6433V29.3965H77.2892L77.742 30.793L77.5194 30.8898C77.038 30.24 76.2888 29.687 75.469 29.687C74.8281 29.687 74.8281 29.9104 74.8281 30.4634V31.9208H74.9725C75.6916 31.9208 76.009 31.7943 76.2527 31.0398H76.5325V33.1986H76.2527C76.0587 32.4441 75.6916 32.2723 74.9861 32.2723H74.8281V33.8484C74.8281 34.2811 74.8718 34.5732 75.3817 34.5732C76.2738 34.5732 77.0726 34.0499 77.6337 33.3704L77.8278 33.4751L77.2877 34.8638H72.9492V34.617L72.9507 34.6185Z" fill="#F2F4F8"/>
<path d="M83.7317 31.8849V30.3306C83.7317 29.8073 83.5512 29.6433 83.0337 29.6433V29.3965H85.6092V29.6433C85.0917 29.6433 84.9111 29.8073 84.9111 30.3306V33.9312C84.9111 34.4545 85.0917 34.6185 85.6092 34.6185V34.8653H83.0337V34.6185C83.5512 34.6185 83.7317 34.4545 83.7317 33.9312V32.2348H81.8032V33.9312C81.8032 34.4545 81.9837 34.6185 82.5012 34.6185V34.8653H79.9258V34.6185C80.4433 34.6185 80.6238 34.4545 80.6238 33.9312V30.3306C80.6238 29.8073 80.4433 29.6433 79.9258 29.6433V29.3965H82.5012V29.6433C81.9837 29.6433 81.8032 29.8073 81.8032 30.3306V31.8849H83.7317Z" fill="#F2F4F8"/>
<path d="M86.4859 34.6185C87.0034 34.6185 87.1839 34.4545 87.1839 33.9312V30.3306C87.1839 29.8073 87.0034 29.6433 86.4859 29.6433V29.3965H90.8244L91.2772 30.793L91.0545 30.8898C90.5732 30.24 89.824 29.687 89.0041 29.687C88.3633 29.687 88.3633 29.9104 88.3633 30.4634V31.9208H88.5077C89.2268 31.9208 89.5442 31.7943 89.7879 31.0398H90.0677V33.1986H89.7879C89.5938 32.4441 89.2268 32.2723 88.5212 32.2723H88.3633V33.8484C88.3633 34.2811 88.4069 34.5732 88.9169 34.5732C89.8089 34.5732 90.6077 34.0499 91.1689 33.3704L91.3629 33.4751L90.8229 34.8638H86.4844V34.617L86.4859 34.6185Z" fill="#F2F4F8"/>
<path d="M95.3079 33.6764C95.4658 34.2138 95.538 34.6028 96.1849 34.6184V34.8652H93.6591V34.6184C94.1195 34.6028 94.2278 34.5059 94.2278 34.2825C94.2278 34.1404 94.1841 33.9842 94.142 33.8498L93.8833 32.9688H92.0495L91.8915 33.439C91.8268 33.6327 91.7471 33.8576 91.7471 34.067C91.7471 34.4481 92.0781 34.5981 92.394 34.6199V34.8667H90.4805V34.6199C91.1499 34.4262 91.2928 34.0529 91.517 33.439L92.9205 29.5541L93.9705 29.2026L95.3079 33.6764ZM93.0484 30.218L92.1924 32.6158H93.7674L93.0484 30.218Z" fill="#F2F4F8"/>
<path d="M97.5439 29.3965V29.6433C97.0325 29.6808 96.9753 29.7854 96.9753 29.9573C96.9753 30.0619 97.0189 30.1806 97.055 30.2791L98.1622 33.4985L99.1039 30.6899C99.1536 30.5259 99.2258 30.354 99.2258 30.1822C99.2258 29.8011 98.946 29.6667 98.6286 29.6449V29.398H100.398V29.6449C99.9524 29.7495 99.7433 29.8089 99.4259 30.8258L98.0584 34.9575H97.4537L95.993 30.7368C95.8275 30.2666 95.7056 29.7058 95.1445 29.6464V29.3996H97.5394L97.5439 29.3965Z" fill="#F2F4F8"/>
<path d="M102.125 29.3965V29.6433C101.758 29.673 101.657 29.748 101.657 29.9198C101.657 30.0541 101.707 30.1432 101.773 30.2478L102.723 31.9067L103.55 30.5024C103.63 30.3759 103.723 30.1963 103.723 30.0401C103.723 29.6886 103.392 29.6745 103.141 29.6449V29.398H105.075V29.6449C104.558 29.7042 104.377 29.9057 104.098 30.3322L103.989 30.504L102.911 32.2676V33.9328C102.918 34.4186 103.069 34.6201 103.616 34.6201V34.8669H101.026V34.6201C101.494 34.5685 101.731 34.5529 101.731 33.9328V32.5066L100.358 30.1838C100.156 29.8323 100.027 29.7136 99.6387 29.6464V29.3996H102.128L102.125 29.3965Z" fill="#F2F4F8"/>
<path d="M111.582 31.8849V30.3306C111.582 29.8073 111.402 29.6433 110.884 29.6433V29.3965H113.46V29.6433C112.942 29.6433 112.762 29.8073 112.762 30.3306V33.9312C112.762 34.4545 112.942 34.6185 113.46 34.6185V34.8653H110.884V34.6185C111.402 34.6185 111.582 34.4545 111.582 33.9312V32.2348H109.654V33.9312C109.654 34.4545 109.834 34.6185 110.352 34.6185V34.8653H107.776V34.6185C108.294 34.6185 108.474 34.4545 108.474 33.9312V30.3306C108.474 29.8073 108.294 29.6433 107.776 29.6433V29.3965H110.352V29.6433C109.834 29.6433 109.654 29.8073 109.654 30.3306V31.8849H111.582Z" fill="#F2F4F8"/>
<path d="M114.602 30.3306C114.602 29.8073 114.422 29.6433 113.904 29.6433V29.3965H116.48V29.6433C115.962 29.6433 115.782 29.8073 115.782 30.3306V33.9312C115.782 34.4545 115.962 34.6185 116.48 34.6185V34.8653H113.904V34.6185C114.422 34.6185 114.602 34.4545 114.602 33.9312V30.3306Z" fill="#F2F4F8"/>
<path d="M121.702 29.3965L122.09 30.8898L121.824 30.9648C121.478 30.404 120.838 29.7027 120.148 29.687V33.9296C120.148 34.4529 120.329 34.617 120.846 34.617V34.8638H118.271V34.617C118.788 34.617 118.969 34.4529 118.969 33.9296V29.687C118.25 29.7761 117.688 30.3587 117.306 30.9648L117.04 30.8898L117.392 29.3965H121.702Z" fill="#F2F4F8"/>
<path d="M126.579 29.3965L126.967 30.8898L126.701 30.9648C126.355 30.404 125.715 29.7027 125.025 29.687V33.9296C125.025 34.4529 125.205 34.617 125.723 34.617V34.8638H123.148V34.617C123.665 34.617 123.846 34.4529 123.846 33.9296V29.687C123.126 29.7761 122.565 30.3587 122.183 30.9648L121.917 30.8898L122.269 29.3965H126.579Z" fill="#F2F4F8"/>
<path d="M126.968 34.6185C127.486 34.6185 127.666 34.4545 127.666 33.9312V30.3306C127.666 29.8073 127.486 29.6433 126.968 29.6433V29.3965H131.307L131.76 30.793L131.537 30.8898C131.056 30.24 130.306 29.687 129.487 29.687C128.846 29.687 128.846 29.9104 128.846 30.4634V31.9208H128.99C129.709 31.9208 130.027 31.7943 130.27 31.0398H130.55V33.1986H130.27C130.076 32.4441 129.709 32.2723 129.004 32.2723H128.846V33.8484C128.846 34.2811 128.889 34.5732 129.399 34.5732C130.291 34.5732 131.09 34.0499 131.651 33.3704L131.845 33.4751L131.305 34.8638H126.967V34.617L126.968 34.6185Z" fill="#F2F4F8"/>
<path d="M135.817 33.6013C136.083 34.109 136.329 34.5729 136.947 34.6167V34.8635H135.17C135.049 34.6698 134.961 34.4448 134.86 34.2355L134.436 33.3014C134.005 32.3376 133.725 32.2548 133.422 32.2548V33.9278C133.422 34.4511 133.603 34.6151 134.12 34.6151V34.8619H131.545V34.6151C132.062 34.6151 132.243 34.4511 132.243 33.9278V30.3272C132.243 29.8039 132.062 29.6399 131.545 29.6399V29.3931H134.638C135.703 29.3931 136.357 29.9913 136.357 30.7818C136.357 31.5722 135.659 31.9924 134.969 32.1267C135.191 32.2829 135.307 32.5453 135.429 32.7922L135.817 33.5982V33.6013ZM133.558 31.9049C134.745 31.9049 135.104 31.5019 135.104 30.7099C135.104 29.9179 134.687 29.6867 133.917 29.6867C133.442 29.6867 133.421 29.8742 133.421 30.2991V31.9049H133.558Z" fill="#F2F4F8"/>
<path d="M140.66 30.8241L140.386 30.9209C140.034 30.3227 139.313 29.5541 138.587 29.5541C138.09 29.5541 137.687 29.8306 137.687 30.368C137.687 30.9803 138.305 31.1443 138.766 31.2943L139.19 31.4364C140.074 31.7348 140.938 32.1612 140.938 33.2672C140.938 34.2903 140.118 34.9995 139.175 34.9995C138.865 34.9995 138.564 34.9324 138.268 34.8355C138.131 34.7902 138.045 34.7527 137.901 34.7527C137.779 34.7527 137.714 34.7683 137.26 34.9917L136.792 33.2656L137.072 33.1688C137.496 33.8779 138.194 34.7074 139.065 34.7074C139.583 34.7074 140.115 34.3263 140.115 33.7514C140.115 33.1391 139.539 32.9516 139.079 32.8032C138.122 32.4814 136.92 32.1081 136.92 30.8381C136.92 29.89 137.646 29.262 138.531 29.262C138.826 29.262 139.048 29.3135 139.322 29.412C139.423 29.4494 139.516 29.4869 139.625 29.4869C139.805 29.4869 140.049 29.337 140.178 29.2104L140.654 30.8241H140.66Z" fill="#F2F4F8"/>
<path d="M142.693 32.0626C141.732 32.0626 140.951 31.2503 140.951 30.2537C140.951 29.2571 141.733 28.4448 142.693 28.4448C143.653 28.4448 144.435 29.2571 144.435 30.2537C144.435 31.2503 143.653 32.0626 142.693 32.0626ZM142.693 28.7557C141.899 28.7557 141.252 29.4274 141.252 30.2522C141.252 31.0769 141.899 31.7486 142.693 31.7486C143.487 31.7486 144.134 31.0769 144.134 30.2522C144.134 29.4274 143.487 28.7557 142.693 28.7557Z" fill="#F2F4F8"/>
<path d="M143.556 31.2695H143.181C143.146 31.2101 143.133 31.1305 143.13 31.0321L143.122 30.8134C143.112 30.5587 143.01 30.4884 142.815 30.4884H142.342V31.2679H141.978V29.2778H142.847C143.289 29.2778 143.522 29.5043 143.522 29.8402C143.522 30.0698 143.41 30.2401 143.202 30.3151C143.414 30.3854 143.471 30.5337 143.479 30.7399L143.495 31.0367C143.498 31.1227 143.516 31.2101 143.554 31.2695H143.556ZM142.826 30.1932C143.023 30.1932 143.149 30.087 143.149 29.8824C143.149 29.6777 143.023 29.5887 142.812 29.5887H142.342V30.1932H142.826Z" fill="#F2F4F8"/>
</g>
<defs>
<clipPath id="clip0_1050_43075">
<rect width="205" height="35" fill="white"/>
</clipPath>
</defs>
</svg>