<svg width="802" height="505" viewBox="0 0 802 505" fill="none" xmlns="http://www.w3.org/2000/svg">
<path d="M72.5215 42.9086C133.343 29.0025 178.771 63.7677 208.806 147.204C253.829 272.275 270.754 255.549 341.622 252.626L72.5215 42.9086ZM341.622 252.626C341.667 252.626 341.577 252.626 341.622 252.626V252.626Z" stroke="url(#paint0_linear_88_650)" stroke-width="21"/>
<path d="M412.107 386.202C483.643 386.202 541.634 328.211 541.634 256.675C541.634 185.14 483.643 127.148 412.107 127.148C340.571 127.148 282.58 185.14 282.58 256.675C282.58 328.211 340.571 386.202 412.107 386.202Z" fill="#E2EFFE"/>
<path d="M252.732 242.032H64.6367V265.685H252.732V242.032Z" fill="url(#paint1_linear_88_650)"/>
<path d="M412.107 369.307C474.312 369.307 524.739 318.88 524.739 256.675C524.739 194.47 474.312 144.043 412.107 144.043C349.902 144.043 299.475 194.47 299.475 256.675C299.475 318.88 349.902 369.307 412.107 369.307Z" fill="#BAD5F9"/>
<path d="M412.107 352.412C464.982 352.412 507.845 309.549 507.845 256.675C507.845 203.801 464.982 160.938 412.107 160.938C359.233 160.938 316.37 203.801 316.37 256.675C316.37 309.549 359.233 352.412 412.107 352.412Z" fill="#9EC6F9"/>
<path d="M72.5215 463.824C133.343 477.73 178.771 442.965 208.806 359.528C253.801 234.534 269.628 257.238 341.539 254.106L72.5215 463.824ZM341.539 254.106C341.626 254.106 341.453 254.106 341.539 254.106V254.106Z" stroke="url(#paint2_linear_88_650)" stroke-width="21"/>
<path d="M72.5215 147.421C133.343 140.663 178.771 157.558 208.806 198.105C253.822 258.876 266.812 256.111 341.601 253.859C341.656 253.859 341.545 253.295 341.601 253.295" stroke="url(#paint3_linear_88_650)" stroke-width="21"/>
<path d="M71.3945 359.394C132.216 366.152 177.644 349.257 207.679 308.709C252.481 248.227 272.779 254.573 339.459 254.645C339.833 254.646 339.459 254.646 339.836 254.646" stroke="url(#paint4_linear_88_650)" stroke-opacity="0.5" stroke-width="21"/>
<path d="M753.33 42.9086C692.509 29.0025 647.08 63.7677 617.045 147.204C572.038 272.231 551.415 254.006 484.001 253.966" stroke="#4A9CFA" stroke-opacity="0.4" stroke-width="21"/>
<path d="M753.33 463.824C692.509 477.73 647.08 442.965 617.045 359.528C572.086 234.634 551.803 254.025 484.56 254.106" stroke="#4A9CFA" stroke-opacity="0.4" stroke-width="21"/>
<path d="M753.33 147.421C692.509 140.663 647.08 157.558 617.045 198.105C572.118 258.757 551.832 253.326 484.703 253.295" stroke="url(#paint5_linear_88_650)" stroke-opacity="0.5" stroke-width="21"/>
<path d="M753.33 359.482C692.509 366.239 647.08 349.345 617.045 308.797C572.004 247.992 551.038 253.962 483.5 253.965" stroke="url(#paint6_linear_88_650)" stroke-opacity="0.5" stroke-width="21"/>
<g filter="url(#filter0_i_88_650)">
<path d="M412.107 335.517C455.651 335.517 490.95 300.218 490.95 256.674C490.95 213.131 455.651 177.832 412.107 177.832C368.564 177.832 333.265 213.131 333.265 256.674C333.265 300.218 368.564 335.517 412.107 335.517Z" fill="#4A9CFA"/>
</g>
<path d="M402.304 247.077C403.214 246.442 404.404 246.364 405.392 246.868L405.511 246.932L406.484 247.487L434.872 263.581V262.642C434.872 261.081 436.515 260.085 437.909 260.719L437.998 260.761L438.086 260.809L443.693 263.977C444.326 264.334 444.729 264.983 444.768 265.697L444.771 265.811V271.056C444.771 271.57 444.581 272.064 444.238 272.45L444.156 272.537L441.542 275.148C440.432 276.541 438.826 277.032 437.418 276.31L437.301 276.247L417.048 264.729L417.042 286.381C417.119 287.267 416.785 288.133 416.142 288.741L416.043 288.831L415.944 288.912L412.122 291.94C411.572 292.44 410.853 292.718 410.104 292.718C408.503 292.718 407.195 291.47 407.135 289.906L407.133 289.793L407.136 259.105L404.015 257.336L402.46 258.211L402.396 258.253L400.587 259.284C399.138 260.115 397.314 259.667 396.479 258.256L395.49 256.579L394.51 254.921C393.662 253.485 394.125 251.686 395.566 250.869L397.29 249.898L401.567 247.482L402.304 247.077ZM412.153 220.633L412.341 220.638L412.521 220.65C413.309 220.716 414.081 220.963 414.651 221.324L414.77 221.404L427.708 228.715L441.583 236.551L442.302 236.953C443.064 237.384 443.69 238 444.124 238.747C444.521 239.432 444.742 240.205 444.766 240.982L444.768 241.161L444.771 255.412C444.771 256.997 443.061 257.994 441.654 257.277L441.569 257.23L435.985 254.074C435.356 253.719 434.956 253.076 434.917 252.368L434.914 252.256V243.919L423.759 237.611L423.604 237.529L422.807 237.082L412.107 231.025L400.986 237.306L400.802 237.423L399.991 237.885L389.302 243.92V269.702L400.477 276.02L400.662 276.12L401.434 276.554L401.497 276.599L401.732 276.802L401.785 276.86L401.95 277.075L402 277.115C402.411 277.46 402.672 277.946 402.733 278.472L402.743 278.586L402.746 278.708V284.992C402.746 286.599 400.999 287.587 399.57 286.823L399.482 286.774L396.512 284.908L395.016 284.073L382.63 277.069L381.916 276.669C381.153 276.238 380.526 275.622 380.092 274.875C379.694 274.188 379.472 273.414 379.449 272.64L379.448 272.461L379.444 256.811V241.136C379.444 240.232 379.705 239.346 380.192 238.586C380.637 237.881 381.272 237.285 381.936 236.935L382.078 236.864L395.062 229.526L396.347 228.799L396.488 228.72L408.922 221.7L409.651 221.277C410.416 220.847 411.276 220.626 412.153 220.633Z" fill="white"/>
<path d="M68.5793 1H13.3895C6.54698 1 1 6.54698 1 13.3895V68.5793C1 75.4218 6.54698 80.9688 13.3895 80.9688H68.5793C75.4218 80.9688 80.9688 75.4218 80.9688 68.5793V13.3895C80.9688 6.54698 75.4218 1 68.5793 1Z" fill="white" stroke="#EAEAEA"/>
<path d="M68.5793 106.874H13.3895C6.54698 106.874 1 112.421 1 119.264V174.453C1 181.296 6.54698 186.843 13.3895 186.843H68.5793C75.4218 186.843 80.9688 181.296 80.9688 174.453V119.264C80.9688 112.421 75.4218 106.874 68.5793 106.874Z" fill="white" stroke="#EAEAEA"/>
<path d="M68.5793 106.874H13.3895C6.54698 106.874 1 112.421 1 119.264V174.453C1 181.296 6.54698 186.843 13.3895 186.843H68.5793C75.4218 186.843 80.9688 181.296 80.9688 174.453V119.264C80.9688 112.421 75.4218 106.874 68.5793 106.874Z" fill="white" stroke="#EAEAEA"/>
<path d="M68.5793 318.622H13.3895C6.54698 318.622 1 324.169 1 331.012V386.201C1 393.044 6.54698 398.591 13.3895 398.591H68.5793C75.4218 398.591 80.9688 393.044 80.9688 386.201V331.012C80.9688 324.169 75.4218 318.622 68.5793 318.622Z" fill="white" stroke="#EAEAEA"/>
<path d="M68.5793 212.748H13.3895C6.54698 212.748 1 218.295 1 225.138V280.327C1 287.17 6.54698 292.717 13.3895 292.717H68.5793C75.4218 292.717 80.9688 287.17 80.9688 280.327V225.138C80.9688 218.295 75.4218 212.748 68.5793 212.748Z" fill="white" stroke="#EAEAEA"/>
<path d="M68.5793 424.497H13.3895C6.54698 424.497 1 430.044 1 436.887V492.076C1 498.919 6.54698 504.466 13.3895 504.466H68.5793C75.4218 504.466 80.9688 498.919 80.9688 492.076V436.887C80.9688 430.044 75.4218 424.497 68.5793 424.497Z" fill="white" stroke="#EAEAEA"/>
<path d="M788.809 1H733.619C726.776 1 721.229 6.54698 721.229 13.3895V68.5793C721.229 75.4218 726.776 80.9688 733.619 80.9688H788.809C795.651 80.9688 801.198 75.4218 801.198 68.5793V13.3895C801.198 6.54698 795.651 1 788.809 1Z" fill="white" stroke="#EAEAEA"/>
<path d="M788.809 106.874H733.619C726.776 106.874 721.229 112.421 721.229 119.264V174.453C721.229 181.296 726.776 186.843 733.619 186.843H788.809C795.651 186.843 801.198 181.296 801.198 174.453V119.264C801.198 112.421 795.651 106.874 788.809 106.874Z" fill="white" stroke="#EAEAEA"/>
<path d="M788.809 318.622H733.619C726.776 318.622 721.229 324.169 721.229 331.012V386.201C721.229 393.044 726.776 398.591 733.619 398.591H788.809C795.651 398.591 801.198 393.044 801.198 386.201V331.012C801.198 324.169 795.651 318.622 788.809 318.622Z" fill="white" stroke="#EAEAEA"/>
<path d="M788.809 424.497H733.619C726.776 424.497 721.229 430.044 721.229 436.887V492.076C721.229 498.919 726.776 504.466 733.619 504.466H788.809C795.651 504.466 801.198 498.919 801.198 492.076V436.887C801.198 430.044 795.651 424.497 788.809 424.497Z" fill="white" stroke="#EAEAEA"/>
<defs>
<filter id="filter0_i_88_650" x="333.265" y="177.832" width="157.685" height="157.685" filterUnits="userSpaceOnUse" color-interpolation-filters="sRGB">
<feFlood flood-opacity="0" result="BackgroundImageFix"/>
<feBlend mode="normal" in="SourceGraphic" in2="BackgroundImageFix" result="shape"/>
<feColorMatrix in="SourceAlpha" type="matrix" values="0 0 0 0 0 0 0 0 0 0 0 0 0 0 0 0 0 0 127 0" result="hardAlpha"/>
<feOffset/>
<feGaussianBlur stdDeviation="5"/>
<feComposite in2="hardAlpha" operator="arithmetic" k2="-1" k3="1"/>
<feColorMatrix type="matrix" values="0 0 0 0 0.054902 0 0 0 0 0.729412 0 0 0 0 0.772549 0 0 0 1 0"/>
<feBlend mode="normal" in2="shape" result="effect1_innerShadow_88_650"/>
</filter>
<linearGradient id="paint0_linear_88_650" x1="116.577" y1="84.8274" x2="223.886" y2="230.224" gradientUnits="userSpaceOnUse">
<stop stop-color="#F0F1FA"/>
<stop offset="1" stop-color="#E4E8F6"/>
</linearGradient>
<linearGradient id="paint1_linear_88_650" x1="64.6367" y1="253.859" x2="252.732" y2="253.859" gradientUnits="userSpaceOnUse">
<stop stop-color="white"/>
<stop offset="1" stop-color="#E4E8F6"/>
</linearGradient>
<linearGradient id="paint2_linear_88_650" x1="116.577" y1="421.905" x2="223.886" y2="276.508" gradientUnits="userSpaceOnUse">
<stop stop-color="#F0F1FA"/>
<stop offset="1" stop-color="#E4E8F6"/>
</linearGradient>
<linearGradient id="paint3_linear_88_650" x1="116.574" y1="168.536" x2="153.377" y2="267.754" gradientUnits="userSpaceOnUse">
<stop stop-color="#F0F1FA"/>
<stop offset="1" stop-color="#E4E8F6"/>
</linearGradient>
<linearGradient id="paint4_linear_88_650" x1="71.3945" y1="315.948" x2="309.887" y2="221.664" gradientUnits="userSpaceOnUse">
<stop stop-color="white"/>
<stop offset="1" stop-color="#4A9CFA"/>
</linearGradient>
<linearGradient id="paint5_linear_88_650" x1="753.33" y1="191.14" x2="515.244" y2="286.183" gradientUnits="userSpaceOnUse">
<stop stop-color="white"/>
<stop offset="1" stop-color="#4A9CFA"/>
</linearGradient>
<linearGradient id="paint6_linear_88_650" x1="753.33" y1="316.036" x2="514.837" y2="221.752" gradientUnits="userSpaceOnUse">
<stop stop-color="white"/>
<stop offset="1" stop-color="#4A9CFA"/>
</linearGradient>
</defs>
</svg>
