<svg width="1173" height="423" viewBox="0 0 1173 423" fill="none" xmlns="http://www.w3.org/2000/svg">
<g filter="url(#filter0_d_235_520)">
<rect x="31" y="29.9155" width="343.493" height="361.812" rx="8.10453" fill="white"/>
</g>
<path d="M77.7693 316.645C77.3339 316.645 76.9686 316.498 76.6736 316.203C76.3786 315.908 76.2311 315.542 76.2311 315.107C76.2311 314.671 76.3786 314.306 76.6736 314.011C76.9686 313.716 77.3339 313.569 77.7693 313.569C78.1908 313.569 78.549 313.716 78.844 314.011C79.139 314.306 79.2865 314.671 79.2865 315.107C79.2865 315.542 79.139 315.908 78.844 316.203C78.549 316.498 78.1908 316.645 77.7693 316.645ZM78.9494 318.183V329.794H76.5472V318.183H78.9494ZM87.9612 317.994C88.8743 317.994 89.689 318.183 90.4055 318.563C91.136 318.942 91.7049 319.504 92.1123 320.248C92.5197 320.993 92.7234 321.892 92.7234 322.946V329.794H90.3423V323.304C90.3423 322.264 90.0824 321.471 89.5626 320.923C89.0428 320.361 88.3334 320.08 87.4344 320.08C86.5353 320.08 85.8189 320.361 85.285 320.923C84.7653 321.471 84.5054 322.264 84.5054 323.304V329.794H82.1032V318.183H84.5054V319.511C84.8987 319.033 85.3974 318.661 86.0015 318.394C86.6196 318.127 87.2728 317.994 87.9612 317.994ZM100.276 327.645L103.563 318.183H106.113L101.688 329.794H98.8218L94.4178 318.183H96.9886L100.276 327.645ZM112.965 329.984C111.869 329.984 110.879 329.738 109.994 329.246C109.108 328.74 108.413 328.038 107.907 327.139C107.402 326.226 107.149 325.172 107.149 323.978C107.149 322.798 107.409 321.752 107.928 320.838C108.448 319.925 109.158 319.223 110.057 318.731C110.956 318.24 111.96 317.994 113.07 317.994C114.18 317.994 115.184 318.24 116.083 318.731C116.982 319.223 117.692 319.925 118.211 320.838C118.731 321.752 118.991 322.798 118.991 323.978C118.991 325.158 118.724 326.205 118.19 327.118C117.657 328.031 116.926 328.74 115.999 329.246C115.086 329.738 114.074 329.984 112.965 329.984ZM112.965 327.897C113.583 327.897 114.159 327.75 114.693 327.455C115.24 327.16 115.683 326.717 116.02 326.127C116.357 325.537 116.526 324.821 116.526 323.978C116.526 323.135 116.364 322.426 116.041 321.85C115.718 321.26 115.29 320.817 114.756 320.522C114.222 320.227 113.646 320.08 113.028 320.08C112.41 320.08 111.834 320.227 111.3 320.522C110.78 320.817 110.366 321.26 110.057 321.85C109.748 322.426 109.593 323.135 109.593 323.978C109.593 325.228 109.909 326.198 110.541 326.886C111.188 327.56 111.995 327.897 112.965 327.897ZM122.588 316.645C122.153 316.645 121.787 316.498 121.492 316.203C121.197 315.908 121.05 315.542 121.05 315.107C121.05 314.671 121.197 314.306 121.492 314.011C121.787 313.716 122.153 313.569 122.588 313.569C123.009 313.569 123.368 313.716 123.663 314.011C123.958 314.306 124.105 314.671 124.105 315.107C124.105 315.542 123.958 315.908 123.663 316.203C123.368 316.498 123.009 316.645 122.588 316.645ZM123.768 318.183V329.794H121.366V318.183H123.768ZM126.121 323.978C126.121 322.784 126.36 321.738 126.838 320.838C127.329 319.925 128.004 319.223 128.86 318.731C129.717 318.24 130.701 317.994 131.811 317.994C133.215 317.994 134.374 318.331 135.287 319.005C136.215 319.665 136.84 320.614 137.163 321.85H134.571C134.36 321.274 134.023 320.824 133.559 320.501C133.096 320.178 132.513 320.017 131.811 320.017C130.827 320.017 130.04 320.368 129.45 321.07C128.875 321.759 128.587 322.728 128.587 323.978C128.587 325.228 128.875 326.205 129.45 326.907C130.04 327.61 130.827 327.961 131.811 327.961C133.201 327.961 134.121 327.35 134.571 326.127H137.163C136.826 327.307 136.193 328.249 135.266 328.951C134.339 329.639 133.187 329.984 131.811 329.984C130.701 329.984 129.717 329.738 128.86 329.246C128.004 328.74 127.329 328.038 126.838 327.139C126.36 326.226 126.121 325.172 126.121 323.978ZM150.198 323.704C150.198 324.14 150.17 324.533 150.114 324.884H141.242C141.313 325.811 141.657 326.556 142.275 327.118C142.893 327.68 143.652 327.961 144.551 327.961C145.843 327.961 146.756 327.42 147.29 326.338H149.882C149.531 327.406 148.891 328.284 147.964 328.972C147.051 329.646 145.913 329.984 144.551 329.984C143.441 329.984 142.444 329.738 141.559 329.246C140.688 328.74 139.999 328.038 139.493 327.139C139.002 326.226 138.756 325.172 138.756 323.978C138.756 322.784 138.995 321.738 139.472 320.838C139.964 319.925 140.645 319.223 141.516 318.731C142.401 318.24 143.413 317.994 144.551 317.994C145.646 317.994 146.623 318.233 147.48 318.71C148.337 319.188 149.004 319.862 149.482 320.733C149.959 321.59 150.198 322.58 150.198 323.704ZM147.69 322.946C147.676 322.061 147.36 321.351 146.742 320.817C146.124 320.284 145.358 320.017 144.445 320.017C143.617 320.017 142.907 320.284 142.317 320.817C141.727 321.337 141.376 322.047 141.264 322.946H147.69ZM160.438 319.89C160.845 319.356 161.4 318.907 162.103 318.542C162.805 318.176 163.599 317.994 164.484 317.994C165.495 317.994 166.415 318.247 167.244 318.752C168.087 319.244 168.747 319.939 169.225 320.838C169.702 321.738 169.941 322.77 169.941 323.936C169.941 325.102 169.702 326.149 169.225 327.076C168.747 327.989 168.087 328.705 167.244 329.225C166.415 329.731 165.495 329.984 164.484 329.984C163.599 329.984 162.812 329.808 162.124 329.457C161.435 329.092 160.873 328.642 160.438 328.108V335.315H158.036V318.183H160.438V319.89ZM167.497 323.936C167.497 323.135 167.328 322.447 166.991 321.871C166.668 321.281 166.233 320.838 165.685 320.543C165.151 320.234 164.575 320.08 163.957 320.08C163.353 320.08 162.777 320.234 162.229 320.543C161.695 320.852 161.26 321.302 160.922 321.892C160.599 322.482 160.438 323.177 160.438 323.978C160.438 324.779 160.599 325.481 160.922 326.085C161.26 326.675 161.695 327.125 162.229 327.434C162.777 327.743 163.353 327.897 163.957 327.897C164.575 327.897 165.151 327.743 165.685 327.434C166.233 327.111 166.668 326.647 166.991 326.043C167.328 325.439 167.497 324.737 167.497 323.936ZM174.719 319.869C175.07 319.279 175.534 318.823 176.11 318.499C176.7 318.162 177.395 317.994 178.196 317.994V320.48H177.585C176.643 320.48 175.927 320.719 175.435 321.197C174.958 321.674 174.719 322.503 174.719 323.683V329.794H172.317V318.183H174.719V319.869ZM185.44 329.984C184.344 329.984 183.354 329.738 182.469 329.246C181.584 328.74 180.888 328.038 180.383 327.139C179.877 326.226 179.624 325.172 179.624 323.978C179.624 322.798 179.884 321.752 180.404 320.838C180.924 319.925 181.633 319.223 182.532 318.731C183.431 318.24 184.436 317.994 185.545 317.994C186.655 317.994 187.66 318.24 188.559 318.731C189.458 319.223 190.167 319.925 190.687 320.838C191.207 321.752 191.467 322.798 191.467 323.978C191.467 325.158 191.2 326.205 190.666 327.118C190.132 328.031 189.401 328.74 188.474 329.246C187.561 329.738 186.55 329.984 185.44 329.984ZM185.44 327.897C186.058 327.897 186.634 327.75 187.168 327.455C187.716 327.16 188.158 326.717 188.495 326.127C188.833 325.537 189.001 324.821 189.001 323.978C189.001 323.135 188.84 322.426 188.516 321.85C188.193 321.26 187.765 320.817 187.231 320.522C186.697 320.227 186.121 320.08 185.503 320.08C184.885 320.08 184.309 320.227 183.775 320.522C183.256 320.817 182.841 321.26 182.532 321.85C182.223 322.426 182.068 323.135 182.068 323.978C182.068 325.228 182.385 326.198 183.017 326.886C183.663 327.56 184.471 327.897 185.44 327.897ZM193.04 323.978C193.04 322.784 193.279 321.738 193.757 320.838C194.249 319.925 194.923 319.223 195.78 318.731C196.637 318.24 197.62 317.994 198.73 317.994C200.135 317.994 201.294 318.331 202.207 319.005C203.134 319.665 203.759 320.614 204.082 321.85H201.49C201.28 321.274 200.942 320.824 200.479 320.501C200.015 320.178 199.432 320.017 198.73 320.017C197.746 320.017 196.96 320.368 196.37 321.07C195.794 321.759 195.506 322.728 195.506 323.978C195.506 325.228 195.794 326.205 196.37 326.907C196.96 327.61 197.746 327.961 198.73 327.961C200.121 327.961 201.041 327.35 201.49 326.127H204.082C203.745 327.307 203.113 328.249 202.186 328.951C201.258 329.639 200.107 329.984 198.73 329.984C197.62 329.984 196.637 329.738 195.78 329.246C194.923 328.74 194.249 328.038 193.757 327.139C193.279 326.226 193.04 325.172 193.04 323.978ZM217.117 323.704C217.117 324.14 217.089 324.533 217.033 324.884H208.162C208.232 325.811 208.576 326.556 209.194 327.118C209.812 327.68 210.571 327.961 211.47 327.961C212.762 327.961 213.676 327.42 214.209 326.338H216.801C216.45 327.406 215.811 328.284 214.884 328.972C213.971 329.646 212.833 329.984 211.47 329.984C210.36 329.984 209.363 329.738 208.478 329.246C207.607 328.74 206.919 328.038 206.413 327.139C205.921 326.226 205.675 325.172 205.675 323.978C205.675 322.784 205.914 321.738 206.392 320.838C206.883 319.925 207.565 319.223 208.436 318.731C209.321 318.24 210.332 317.994 211.47 317.994C212.566 317.994 213.542 318.233 214.399 318.71C215.256 319.188 215.923 319.862 216.401 320.733C216.878 321.59 217.117 322.58 217.117 323.704ZM214.61 322.946C214.596 322.061 214.28 321.351 213.661 320.817C213.043 320.284 212.278 320.017 211.365 320.017C210.536 320.017 209.826 320.284 209.236 320.817C208.646 321.337 208.295 322.047 208.183 322.946H214.61ZM223.696 329.984C222.782 329.984 221.961 329.822 221.23 329.499C220.514 329.162 219.945 328.712 219.523 328.15C219.102 327.574 218.877 326.935 218.849 326.233H221.336C221.378 326.724 221.609 327.139 222.031 327.476C222.466 327.799 223.007 327.961 223.653 327.961C224.328 327.961 224.848 327.834 225.213 327.581C225.592 327.315 225.782 326.977 225.782 326.57C225.782 326.134 225.571 325.811 225.15 325.601C224.742 325.39 224.089 325.158 223.19 324.905C222.319 324.666 221.609 324.435 221.062 324.21C220.514 323.985 220.036 323.641 219.629 323.177C219.235 322.714 219.039 322.103 219.039 321.344C219.039 320.726 219.221 320.164 219.587 319.658C219.952 319.139 220.472 318.731 221.146 318.436C221.834 318.141 222.621 317.994 223.506 317.994C224.826 317.994 225.887 318.331 226.688 319.005C227.503 319.665 227.938 320.572 227.994 321.723H225.592C225.55 321.204 225.339 320.789 224.96 320.48C224.581 320.171 224.068 320.017 223.422 320.017C222.79 320.017 222.305 320.136 221.968 320.375C221.631 320.614 221.462 320.93 221.462 321.323C221.462 321.632 221.574 321.892 221.799 322.103C222.024 322.313 222.298 322.482 222.621 322.608C222.944 322.721 223.422 322.868 224.054 323.051C224.897 323.276 225.585 323.508 226.119 323.746C226.667 323.971 227.137 324.308 227.531 324.758C227.924 325.207 228.128 325.804 228.142 326.549C228.142 327.209 227.959 327.799 227.594 328.319C227.229 328.839 226.709 329.246 226.035 329.541C225.374 329.836 224.595 329.984 223.696 329.984ZM234.952 329.984C234.039 329.984 233.217 329.822 232.486 329.499C231.77 329.162 231.201 328.712 230.78 328.15C230.358 327.574 230.133 326.935 230.105 326.233H232.592C232.634 326.724 232.866 327.139 233.287 327.476C233.723 327.799 234.263 327.961 234.91 327.961C235.584 327.961 236.104 327.834 236.469 327.581C236.848 327.315 237.038 326.977 237.038 326.57C237.038 326.134 236.827 325.811 236.406 325.601C235.998 325.39 235.345 325.158 234.446 324.905C233.575 324.666 232.866 324.435 232.318 324.21C231.77 323.985 231.292 323.641 230.885 323.177C230.492 322.714 230.295 322.103 230.295 321.344C230.295 320.726 230.477 320.164 230.843 319.658C231.208 319.139 231.728 318.731 232.402 318.436C233.09 318.141 233.877 317.994 234.762 317.994C236.083 317.994 237.143 318.331 237.944 319.005C238.759 319.665 239.194 320.572 239.25 321.723H236.848C236.806 321.204 236.595 320.789 236.216 320.48C235.837 320.171 235.324 320.017 234.678 320.017C234.046 320.017 233.561 320.136 233.224 320.375C232.887 320.614 232.718 320.93 232.718 321.323C232.718 321.632 232.83 321.892 233.055 322.103C233.28 322.313 233.554 322.482 233.877 322.608C234.2 322.721 234.678 322.868 235.31 323.051C236.153 323.276 236.841 323.508 237.375 323.746C237.923 323.971 238.393 324.308 238.787 324.758C239.18 325.207 239.384 325.804 239.398 326.549C239.398 327.209 239.215 327.799 238.85 328.319C238.485 328.839 237.965 329.246 237.291 329.541C236.63 329.836 235.851 329.984 234.952 329.984ZM243.216 316.645C242.78 316.645 242.415 316.498 242.12 316.203C241.825 315.908 241.677 315.542 241.677 315.107C241.677 314.671 241.825 314.306 242.12 314.011C242.415 313.716 242.78 313.569 243.216 313.569C243.637 313.569 243.995 313.716 244.29 314.011C244.585 314.306 244.733 314.671 244.733 315.107C244.733 315.542 244.585 315.908 244.29 316.203C243.995 316.498 243.637 316.645 243.216 316.645ZM244.396 318.183V329.794H241.993V318.183H244.396ZM253.407 317.994C254.321 317.994 255.135 318.183 255.852 318.563C256.582 318.942 257.151 319.504 257.559 320.248C257.966 320.993 258.17 321.892 258.17 322.946V329.794H255.789V323.304C255.789 322.264 255.529 321.471 255.009 320.923C254.489 320.361 253.78 320.08 252.881 320.08C251.982 320.08 251.265 320.361 250.731 320.923C250.212 321.471 249.952 322.264 249.952 323.304V329.794H247.549V318.183H249.952V319.511C250.345 319.033 250.844 318.661 251.448 318.394C252.066 318.127 252.719 317.994 253.407 317.994ZM265.912 317.994C266.811 317.994 267.604 318.176 268.293 318.542C268.995 318.893 269.543 319.335 269.936 319.869V318.183H272.36V329.984C272.36 331.051 272.135 331.999 271.685 332.828C271.236 333.671 270.583 334.331 269.726 334.809C268.883 335.287 267.871 335.525 266.691 335.525C265.118 335.525 263.812 335.153 262.772 334.409C261.732 333.678 261.142 332.681 261.002 331.416H263.383C263.566 332.021 263.952 332.505 264.542 332.87C265.146 333.25 265.863 333.439 266.691 333.439C267.661 333.439 268.44 333.144 269.03 332.554C269.634 331.964 269.936 331.107 269.936 329.984V328.045C269.529 328.593 268.974 329.056 268.272 329.436C267.583 329.801 266.797 329.984 265.912 329.984C264.9 329.984 263.973 329.731 263.13 329.225C262.301 328.705 261.641 327.989 261.15 327.076C260.672 326.149 260.433 325.102 260.433 323.936C260.433 322.77 260.672 321.738 261.15 320.838C261.641 319.939 262.301 319.244 263.13 318.752C263.973 318.247 264.9 317.994 265.912 317.994ZM269.936 323.978C269.936 323.177 269.768 322.482 269.431 321.892C269.108 321.302 268.679 320.852 268.145 320.543C267.612 320.234 267.036 320.08 266.417 320.08C265.799 320.08 265.223 320.234 264.69 320.543C264.156 320.838 263.72 321.281 263.383 321.871C263.06 322.447 262.898 323.135 262.898 323.936C262.898 324.737 263.06 325.439 263.383 326.043C263.72 326.647 264.156 327.111 264.69 327.434C265.237 327.743 265.813 327.897 266.417 327.897C267.036 327.897 267.612 327.743 268.145 327.434C268.679 327.125 269.108 326.675 269.431 326.085C269.768 325.481 269.936 324.779 269.936 323.978ZM283.791 320.143V326.57C283.791 327.005 283.889 327.322 284.086 327.518C284.297 327.701 284.648 327.792 285.14 327.792H286.615V329.794H284.718C283.637 329.794 282.808 329.541 282.232 329.035C281.656 328.53 281.368 327.708 281.368 326.57V320.143H279.998V318.183H281.368V315.297H283.791V318.183H286.615V320.143H283.791ZM290.051 316.645C289.615 316.645 289.25 316.498 288.955 316.203C288.66 315.908 288.513 315.542 288.513 315.107C288.513 314.671 288.66 314.306 288.955 314.011C289.25 313.716 289.615 313.569 290.051 313.569C290.472 313.569 290.831 313.716 291.126 314.011C291.421 314.306 291.568 314.671 291.568 315.107C291.568 315.542 291.421 315.908 291.126 316.203C290.831 316.498 290.472 316.645 290.051 316.645ZM291.231 318.183V329.794H288.829V318.183H291.231ZM308.44 317.994C309.353 317.994 310.168 318.183 310.884 318.563C311.614 318.942 312.183 319.504 312.591 320.248C313.012 320.993 313.223 321.892 313.223 322.946V329.794H310.842V323.304C310.842 322.264 310.582 321.471 310.062 320.923C309.542 320.361 308.833 320.08 307.934 320.08C307.035 320.08 306.318 320.361 305.785 320.923C305.265 321.471 305.005 322.264 305.005 323.304V329.794H302.624V323.304C302.624 322.264 302.364 321.471 301.844 320.923C301.324 320.361 300.615 320.08 299.716 320.08C298.817 320.08 298.1 320.361 297.567 320.923C297.047 321.471 296.787 322.264 296.787 323.304V329.794H294.385V318.183H296.787V319.511C297.18 319.033 297.679 318.661 298.283 318.394C298.887 318.127 299.533 317.994 300.222 317.994C301.149 317.994 301.978 318.19 302.708 318.584C303.439 318.977 304.001 319.546 304.394 320.291C304.745 319.588 305.293 319.033 306.037 318.626C306.782 318.204 307.583 317.994 308.44 317.994ZM326.921 323.704C326.921 324.14 326.893 324.533 326.837 324.884H317.965C318.036 325.811 318.38 326.556 318.998 327.118C319.616 327.68 320.375 327.961 321.274 327.961C322.566 327.961 323.479 327.42 324.013 326.338H326.605C326.254 327.406 325.614 328.284 324.687 328.972C323.774 329.646 322.636 329.984 321.274 329.984C320.164 329.984 319.167 329.738 318.281 329.246C317.411 328.74 316.722 328.038 316.216 327.139C315.725 326.226 315.479 325.172 315.479 323.978C315.479 322.784 315.718 321.738 316.195 320.838C316.687 319.925 317.368 319.223 318.239 318.731C319.124 318.24 320.136 317.994 321.274 317.994C322.369 317.994 323.346 318.233 324.203 318.71C325.06 319.188 325.727 319.862 326.204 320.733C326.682 321.59 326.921 322.58 326.921 323.704ZM324.413 322.946C324.399 322.061 324.083 321.351 323.465 320.817C322.847 320.284 322.081 320.017 321.168 320.017C320.34 320.017 319.63 320.284 319.04 320.817C318.45 321.337 318.099 322.047 317.986 322.946H324.413Z" fill="black"/>
<path d="M93.2808 287.806C92.2975 287.806 91.4125 287.638 90.6258 287.3C89.8391 286.949 89.221 286.458 88.7715 285.825C88.3219 285.193 88.0972 284.456 88.0972 283.613H90.6679C90.7241 284.245 90.9699 284.765 91.4054 285.172C91.855 285.58 92.4801 285.783 93.2808 285.783C94.1096 285.783 94.7558 285.587 95.2194 285.193C95.683 284.786 95.9148 284.266 95.9148 283.634C95.9148 283.142 95.7673 282.742 95.4723 282.433C95.1913 282.124 94.8331 281.885 94.3976 281.716C93.9762 281.548 93.3862 281.365 92.6276 281.169C91.6723 280.916 90.8927 280.663 90.2886 280.41C89.6986 280.143 89.1929 279.736 88.7715 279.188C88.35 278.64 88.1393 277.909 88.1393 276.996C88.1393 276.154 88.35 275.416 88.7715 274.784C89.1929 274.152 89.7829 273.667 90.5415 273.33C91.3001 272.993 92.1781 272.824 93.1755 272.824C94.5943 272.824 95.7532 273.182 96.6523 273.899C97.5654 274.601 98.0711 275.571 98.1695 276.807H95.5144C95.4723 276.273 95.2194 275.816 94.7558 275.437C94.2923 275.058 93.6812 274.868 92.9226 274.868C92.2343 274.868 91.6723 275.044 91.2369 275.395C90.8014 275.746 90.5836 276.252 90.5836 276.912C90.5836 277.362 90.7171 277.734 90.984 278.029C91.265 278.31 91.6161 278.535 92.0376 278.703C92.459 278.872 93.035 279.054 93.7655 279.251C94.7348 279.518 95.5214 279.785 96.1255 280.052C96.7436 280.319 97.2634 280.733 97.6848 281.295C98.1203 281.843 98.338 282.58 98.338 283.508C98.338 284.252 98.1343 284.954 97.727 285.615C97.3336 286.275 96.7506 286.809 95.978 287.216C95.2194 287.61 94.3204 287.806 93.2808 287.806ZM100.372 281.801C100.372 280.635 100.611 279.602 101.088 278.703C101.58 277.804 102.24 277.109 103.069 276.617C103.912 276.111 104.839 275.859 105.85 275.859C106.764 275.859 107.557 276.041 108.232 276.406C108.92 276.758 109.468 277.2 109.875 277.734V276.048H112.298V287.659H109.875V285.931C109.468 286.479 108.913 286.935 108.21 287.3C107.508 287.666 106.707 287.848 105.808 287.848C104.811 287.848 103.898 287.595 103.069 287.09C102.24 286.57 101.58 285.854 101.088 284.94C100.611 284.013 100.372 282.967 100.372 281.801ZM109.875 281.843C109.875 281.042 109.707 280.347 109.369 279.757C109.046 279.167 108.618 278.717 108.084 278.408C107.55 278.099 106.974 277.945 106.356 277.945C105.738 277.945 105.162 278.099 104.628 278.408C104.094 278.703 103.659 279.146 103.322 279.736C102.999 280.312 102.837 281 102.837 281.801C102.837 282.601 102.999 283.304 103.322 283.908C103.659 284.512 104.094 284.976 104.628 285.299C105.176 285.608 105.752 285.762 106.356 285.762C106.974 285.762 107.55 285.608 108.084 285.299C108.618 284.99 109.046 284.54 109.369 283.95C109.707 283.346 109.875 282.644 109.875 281.843ZM119.942 285.509L123.229 276.048H125.779L121.354 287.659H118.488L114.084 276.048H116.655L119.942 285.509ZM138.236 281.569C138.236 282.004 138.208 282.398 138.151 282.749H129.28C129.351 283.676 129.695 284.421 130.313 284.983C130.931 285.544 131.689 285.825 132.589 285.825C133.881 285.825 134.794 285.285 135.328 284.203H137.92C137.569 285.271 136.929 286.149 136.002 286.837C135.089 287.511 133.951 287.848 132.589 287.848C131.479 287.848 130.481 287.603 129.596 287.111C128.725 286.605 128.037 285.903 127.531 285.004C127.04 284.091 126.794 283.037 126.794 281.843C126.794 280.649 127.033 279.602 127.51 278.703C128.002 277.79 128.683 277.088 129.554 276.596C130.439 276.104 131.451 275.859 132.589 275.859C133.684 275.859 134.661 276.097 135.518 276.575C136.374 277.053 137.042 277.727 137.519 278.598C137.997 279.455 138.236 280.445 138.236 281.569ZM135.728 280.81C135.714 279.925 135.398 279.216 134.78 278.682C134.162 278.148 133.396 277.881 132.483 277.881C131.654 277.881 130.945 278.148 130.355 278.682C129.765 279.202 129.414 279.911 129.301 280.81H135.728Z" fill="black"/>
<path d="M31 38.02C31 33.544 34.6285 29.9155 39.1045 29.9155H366.388C370.864 29.9155 374.493 33.544 374.493 38.0201V210.364H31V38.02Z" fill="#E6F2FF"/>
<path d="M263.864 287.848C262.768 287.848 261.778 287.603 260.892 287.111C260.007 286.605 259.312 285.903 258.806 285.004C258.301 284.091 258.048 283.037 258.048 281.843C258.048 280.663 258.308 279.616 258.827 278.703C259.347 277.79 260.057 277.088 260.956 276.596C261.855 276.104 262.859 275.859 263.969 275.859C265.079 275.859 266.083 276.104 266.982 276.596C267.881 277.088 268.591 277.79 269.11 278.703C269.63 279.616 269.89 280.663 269.89 281.843C269.89 283.023 269.623 284.069 269.089 284.983C268.556 285.896 267.825 286.605 266.898 287.111C265.985 287.603 264.973 287.848 263.864 287.848ZM263.864 285.762C264.482 285.762 265.058 285.615 265.591 285.32C266.139 285.025 266.582 284.582 266.919 283.992C267.256 283.402 267.425 282.686 267.425 281.843C267.425 281 267.263 280.291 266.94 279.715C266.617 279.125 266.189 278.682 265.655 278.387C265.121 278.092 264.545 277.945 263.927 277.945C263.309 277.945 262.733 278.092 262.199 278.387C261.679 278.682 261.265 279.125 260.956 279.715C260.647 280.291 260.492 281 260.492 281.843C260.492 283.093 260.808 284.062 261.44 284.751C262.087 285.425 262.894 285.762 263.864 285.762ZM277.132 278.008H274.983V287.659H272.56V278.008H271.19V276.048H272.56V275.226C272.56 273.892 272.911 272.923 273.613 272.318C274.33 271.7 275.447 271.391 276.964 271.391V273.393C276.233 273.393 275.721 273.534 275.426 273.815C275.131 274.081 274.983 274.552 274.983 275.226V276.048H277.132V278.008ZM287.538 278.008V284.435C287.538 284.87 287.636 285.186 287.833 285.383C288.043 285.566 288.394 285.657 288.886 285.657H290.361V287.659H288.465C287.383 287.659 286.554 287.406 285.978 286.9C285.402 286.394 285.114 285.573 285.114 284.435V278.008H283.745V276.048H285.114V273.161H287.538V276.048H290.361V278.008H287.538ZM298.581 275.859C299.466 275.859 300.252 276.048 300.941 276.427C301.643 276.807 302.191 277.369 302.584 278.113C302.992 278.858 303.195 279.757 303.195 280.81V287.659H300.814V281.169C300.814 280.129 300.554 279.335 300.035 278.787C299.515 278.226 298.805 277.945 297.906 277.945C297.007 277.945 296.291 278.226 295.757 278.787C295.237 279.335 294.977 280.129 294.977 281.169V287.659H292.575V272.066H294.977V277.397C295.385 276.905 295.898 276.526 296.516 276.259C297.148 275.992 297.836 275.859 298.581 275.859ZM316.901 281.569C316.901 282.004 316.873 282.398 316.816 282.749H307.945C308.015 283.676 308.36 284.421 308.978 284.983C309.596 285.544 310.354 285.825 311.254 285.825C312.546 285.825 313.459 285.285 313.993 284.203H316.585C316.233 285.271 315.594 286.149 314.667 286.837C313.754 287.511 312.616 287.848 311.254 287.848C310.144 287.848 309.146 287.603 308.261 287.111C307.39 286.605 306.702 285.903 306.196 285.004C305.705 284.091 305.459 283.037 305.459 281.843C305.459 280.649 305.698 279.602 306.175 278.703C306.667 277.79 307.348 277.088 308.219 276.596C309.104 276.104 310.116 275.859 311.254 275.859C312.349 275.859 313.326 276.097 314.182 276.575C315.039 277.053 315.707 277.727 316.184 278.598C316.662 279.455 316.901 280.445 316.901 281.569ZM314.393 280.81C314.379 279.925 314.063 279.216 313.445 278.682C312.827 278.148 312.061 277.881 311.148 277.881C310.319 277.881 309.61 278.148 309.02 278.682C308.43 279.202 308.079 279.911 307.966 280.81H314.393Z" fill="black"/>
<path d="M166.983 282.925C167.356 284.891 168.5 285.873 170.416 285.873C171.734 285.873 172.667 285.289 173.214 284.119C173.762 282.95 174.035 281.047 174.035 278.41C173.488 279.182 172.742 279.779 171.796 280.201C170.851 280.624 169.794 280.836 168.625 280.836C167.033 280.836 165.615 280.512 164.371 279.866C163.127 279.194 162.145 278.211 161.423 276.918C160.727 275.599 160.378 274.007 160.378 272.142C160.378 270.301 160.751 268.696 161.498 267.328C162.269 265.96 163.351 264.903 164.744 264.156C166.162 263.41 167.829 263.037 169.744 263.037C173.426 263.037 176.001 264.181 177.468 266.47C178.936 268.758 179.67 272.129 179.67 276.582C179.67 279.816 179.371 282.49 178.774 284.605C178.202 286.694 177.219 288.286 175.826 289.381C174.458 290.475 172.58 291.023 170.192 291.023C168.301 291.023 166.684 290.649 165.341 289.903C164.023 289.157 163.003 288.174 162.281 286.955C161.585 285.736 161.187 284.393 161.087 282.925H166.983ZM170.08 275.798C171.125 275.798 171.958 275.487 172.58 274.865C173.202 274.219 173.513 273.348 173.513 272.253C173.513 271.059 173.19 270.139 172.543 269.492C171.896 268.845 171.025 268.522 169.931 268.522C168.836 268.522 167.966 268.858 167.319 269.53C166.697 270.176 166.386 271.072 166.386 272.216C166.386 273.286 166.697 274.157 167.319 274.828C167.966 275.475 168.886 275.798 170.08 275.798ZM183.074 276.918C183.074 272.639 183.895 269.268 185.537 266.806C187.204 264.343 189.878 263.111 193.559 263.111C197.241 263.111 199.903 264.343 201.545 266.806C203.211 269.268 204.045 272.639 204.045 276.918C204.045 281.246 203.211 284.642 201.545 287.105C199.903 289.567 197.241 290.799 193.559 290.799C189.878 290.799 187.204 289.567 185.537 287.105C183.895 284.642 183.074 281.246 183.074 276.918ZM197.776 276.918C197.776 274.405 197.502 272.477 196.955 271.134C196.408 269.766 195.276 269.082 193.559 269.082C191.843 269.082 190.711 269.766 190.164 271.134C189.617 272.477 189.343 274.405 189.343 276.918C189.343 278.609 189.442 280.015 189.641 281.134C189.84 282.229 190.239 283.124 190.836 283.821C191.457 284.493 192.365 284.828 193.559 284.828C194.754 284.828 195.649 284.493 196.246 283.821C196.868 283.124 197.278 282.229 197.477 281.134C197.677 280.015 197.776 278.609 197.776 276.918ZM206.894 270.537C206.894 268.522 207.466 266.967 208.61 265.873C209.779 264.778 211.284 264.231 213.125 264.231C214.966 264.231 216.458 264.778 217.603 265.873C218.747 266.967 219.319 268.522 219.319 270.537C219.319 272.552 218.747 274.107 217.603 275.201C216.458 276.296 214.966 276.843 213.125 276.843C211.284 276.843 209.779 276.296 208.61 275.201C207.466 274.107 206.894 272.552 206.894 270.537ZM232.23 264.641L217.864 290.911H211.707L226.073 264.641H232.23ZM213.088 267.962C211.894 267.962 211.297 268.821 211.297 270.537C211.297 272.229 211.894 273.074 213.088 273.074C213.66 273.074 214.108 272.863 214.431 272.44C214.754 272.017 214.916 271.383 214.916 270.537C214.916 268.821 214.307 267.962 213.088 267.962ZM224.655 285.015C224.655 283 225.227 281.445 226.372 280.351C227.516 279.256 229.008 278.709 230.849 278.709C232.69 278.709 234.183 279.256 235.327 280.351C236.471 281.445 237.044 283 237.044 285.015C237.044 287.03 236.471 288.585 235.327 289.679C234.183 290.774 232.69 291.321 230.849 291.321C229.008 291.321 227.516 290.774 226.372 289.679C225.227 288.585 224.655 287.03 224.655 285.015ZM230.812 282.44C230.24 282.44 229.792 282.652 229.469 283.075C229.17 283.498 229.021 284.144 229.021 285.015C229.021 286.707 229.618 287.552 230.812 287.552C231.384 287.552 231.832 287.341 232.155 286.918C232.479 286.495 232.64 285.861 232.64 285.015C232.64 284.169 232.479 283.535 232.155 283.112C231.832 282.664 231.384 282.44 230.812 282.44Z" fill="#007AFF"/>
<circle cx="197.201" cy="120.91" r="58.704" fill="white" stroke="black" stroke-width="1.7719"/>
<path d="M127.842 180.5H269.49" stroke="black" stroke-width="1.7719" stroke-linecap="round" stroke-linejoin="round"/>
<circle cx="197.201" cy="120.91" r="42.006" fill="#E6F2FF"/>
<path d="M239.128 123.475C238.503 133.688 234.173 143.321 226.949 150.567C219.726 157.813 210.106 162.174 199.895 162.83C189.685 163.486 179.586 160.393 171.494 154.132C163.402 147.87 157.873 138.871 155.946 128.822C157.582 137.353 167.809 147.914 174.679 153.23C181.549 158.546 192.775 159.848 201.444 159.29C210.112 158.733 220.816 153.322 226.949 147.17C233.082 141.019 238.598 132.145 239.128 123.475Z" fill="#80BDFF"/>
<g filter="url(#filter1_d_235_520)">
<path d="M198.177 78.9043V123.09L219.669 142.402" stroke="#007AFF" stroke-width="3.54379" stroke-linecap="round" stroke-linejoin="round"/>
</g>
<circle cx="197.201" cy="120.91" r="58.704" stroke="black" stroke-width="1.7719"/>
<path d="M232.84 63.4505C239.908 67.3508 246.097 72.6672 251.018 79.0674C255.939 85.4677 259.487 92.8142 261.44 100.648" stroke="black" stroke-width="1.7719" stroke-linecap="round" stroke-linejoin="round"/>
<path d="M247.527 63.2785C254.973 69.2253 260.859 76.8952 264.678 85.6258" stroke="black" stroke-width="1.7719" stroke-linecap="round" stroke-linejoin="round"/>
<path d="M148.795 150.326C151.763 146.096 153.43 140.359 153.43 134.376L121.783 134.376C121.783 140.359 123.45 146.096 126.418 150.326C129.385 154.557 133.41 156.933 137.607 156.933C141.803 156.933 145.828 154.557 148.795 150.326Z" fill="#E6F2FF" stroke="black" stroke-width="1.83196" stroke-linecap="round" stroke-linejoin="round"/>
<path d="M146.414 152.71C147.587 151.569 149.097 150.053 150.308 148.421C151.512 146.799 149.978 145.908 148.55 147.336C148.437 147.45 148.311 147.551 148.176 147.638L146.879 148.475C141.425 151.994 134.429 152.044 128.924 148.604L127.3 147.588C127.213 147.534 127.13 147.473 127.053 147.407C125.568 146.134 123.961 147.289 125.231 148.776C126.766 150.573 128.576 151.978 129.863 153.23C132.199 155.503 134.639 156.933 137.943 156.933C141.246 156.933 144.078 154.983 146.414 152.71Z" fill="#80BDFF"/>
<path d="M148.795 150.326C151.763 146.096 153.43 140.359 153.43 134.376L121.783 134.376C121.783 140.359 123.45 146.096 126.418 150.326C129.385 154.557 133.41 156.933 137.607 156.933C141.803 156.933 145.828 154.557 148.795 150.326Z" stroke="black" stroke-width="1.83196" stroke-linecap="round" stroke-linejoin="round"/>
<path d="M114.376 134.04H161.509" stroke="black" stroke-width="1.83196" stroke-linecap="round"/>
<path d="M114.376 180.5H161.509" stroke="black" stroke-width="1.83196" stroke-linecap="round"/>
<path d="M126.417 164.214C123.449 168.444 121.782 174.181 121.782 180.164L153.429 180.164C153.429 174.181 151.762 168.444 148.794 164.214C145.827 159.983 141.802 157.607 137.605 157.607C133.409 157.607 129.384 159.983 126.417 164.214Z" fill="white" stroke="black" stroke-width="1.83196" stroke-linecap="round" stroke-linejoin="round"/>
<path d="M121.783 178.796C121.783 178.171 122.532 177.851 122.984 178.283C123.116 178.41 123.292 178.48 123.475 178.48H151.738C151.921 178.48 152.097 178.41 152.229 178.283C152.681 177.851 153.43 178.171 153.43 178.796V179.021C153.43 179.466 153.069 179.827 152.624 179.827H122.589C122.144 179.827 121.783 179.466 121.783 179.021V178.796Z" fill="#80BDFF"/>
<path d="M126.417 164.214C123.449 168.444 121.782 174.181 121.782 180.164L153.429 180.164C153.429 174.181 151.762 168.444 148.794 164.214C145.827 159.983 141.802 157.607 137.605 157.607C133.409 157.607 129.384 159.983 126.417 164.214Z" stroke="black" stroke-width="1.83196" stroke-linecap="round" stroke-linejoin="round"/>
<g filter="url(#filter2_d_235_520)">
<rect x="799.508" y="29.916" width="343.493" height="361.812" rx="8.10453" fill="white"/>
</g>
<path d="M799.508 38.0205C799.508 33.5445 803.136 29.916 807.612 29.916H1134.9C1139.37 29.916 1143 33.5445 1143 38.0205V210.364H799.508V38.0205Z" fill="#E6F2FF"/>
<rect x="948.318" y="61.9751" width="35.6117" height="37.0955" rx="0.91598" transform="rotate(11.5 948.318 61.9751)" fill="#B3D8FF" stroke="black" stroke-width="1.37397"/>
<rect width="35.6117" height="37.0955" rx="0.91598" transform="matrix(0.979925 -0.199368 -0.199368 -0.979925 971.872 112.301)" fill="#E6F2FF" stroke="black" stroke-width="1.37397"/>
<path d="M857.68 181.766H1085.75" stroke="black" stroke-width="1.7719" stroke-linecap="round" stroke-linejoin="round"/>
<path d="M1019.63 147.668H945.692C944.895 147.668 944.189 147.153 943.947 146.393L924.551 85.6207H1039.61C1040.87 85.6207 1041.75 86.8571 1041.35 88.046L1021.36 146.43C1021.11 147.171 1020.41 147.668 1019.63 147.668Z" fill="white"/>
<path d="M902.989 68.8511H917.861C918.658 68.8511 919.364 69.3666 919.606 70.126L924.551 85.6207M924.551 85.6207L943.947 146.393C944.189 147.153 944.895 147.668 945.692 147.668H1019.63C1020.41 147.668 1021.11 147.171 1021.36 146.43L1041.35 88.046C1041.75 86.8571 1040.87 85.6207 1039.61 85.6207H924.551Z" stroke="black" stroke-width="1.83196" stroke-linecap="square"/>
<path d="M1013.76 139.283H953.171C952.784 139.283 952.438 139.04 952.308 138.676L936.965 95.7885C936.752 95.1919 937.194 94.564 937.828 94.564H1030.22C1030.87 94.564 1031.31 95.2082 1031.08 95.8081L1014.62 138.695C1014.48 139.049 1014.14 139.283 1013.76 139.283Z" fill="#E6F2FF"/>
<path d="M985.159 101.272L989.17 104.02L994.03 104.154L995.66 108.735L999.513 111.701L998.139 116.365L999.513 121.029L995.66 123.994L994.03 128.575L989.17 128.709L985.159 131.457L981.148 128.709L976.288 128.575L974.658 123.994L970.805 121.029L972.179 116.365L970.805 111.701L974.658 108.735L976.288 104.154L981.148 104.02L985.159 101.272Z" fill="#80BDFF"/>
<path d="M902.987 178.304V123.707C902.987 122.578 903.403 121.49 904.157 120.649L916.155 107.266C917.024 106.297 918.264 105.744 919.565 105.744H937.424C938.639 105.744 939.804 106.226 940.662 107.085L954.19 120.613C955.049 121.472 955.532 122.637 955.532 123.851V178.304C955.532 180.833 953.481 182.884 950.952 182.884H907.567C905.037 182.884 902.987 180.833 902.987 178.304Z" fill="white" stroke="black" stroke-width="1.83196" stroke-linecap="square"/>
<path d="M908.787 178.765C904.662 178.012 903.457 176.412 903.075 175.471C902.617 182.247 904.221 183 908.787 183H950.03C955.529 183 955.376 177.667 954.613 175C954.154 178.012 949.839 178.765 947.739 178.765H908.787Z" fill="#80BDFF"/>
<g filter="url(#filter3_d_235_520)">
<path d="M932.73 131.818H936.433L925.916 157.262H922.174L932.73 131.818ZM921.15 131.7C922.831 131.7 924.183 132.225 925.207 133.275C926.258 134.326 926.783 136.177 926.783 138.829C926.783 141.481 926.258 143.332 925.207 144.382C924.183 145.433 922.831 145.958 921.15 145.958C920.074 145.958 919.102 145.735 918.236 145.288C917.395 144.842 916.739 144.094 916.266 143.043C915.794 141.993 915.557 140.588 915.557 138.829C915.557 137.043 915.794 135.638 916.266 134.614C916.739 133.564 917.395 132.816 918.236 132.369C919.102 131.923 920.074 131.7 921.15 131.7ZM921.15 135.166C920.809 135.166 920.494 135.271 920.205 135.481C919.942 135.665 919.719 136.019 919.535 136.544C919.378 137.07 919.299 137.831 919.299 138.829C919.299 139.8 919.378 140.549 919.535 141.074C919.719 141.599 919.942 141.967 920.205 142.177C920.494 142.361 920.809 142.452 921.15 142.452C921.492 142.452 921.807 142.361 922.096 142.177C922.384 141.967 922.608 141.599 922.765 141.074C922.949 140.549 923.041 139.8 923.041 138.829C923.041 137.831 922.949 137.07 922.765 136.544C922.608 136.019 922.384 135.665 922.096 135.481C921.807 135.271 921.492 135.166 921.15 135.166ZM937.338 142.964C939.019 142.964 940.371 143.49 941.395 144.54C942.446 145.59 942.971 147.441 942.971 150.094C942.971 152.746 942.446 154.597 941.395 155.647C940.371 156.697 939.019 157.223 937.338 157.223C936.236 157.223 935.264 156.999 934.424 156.553C933.584 156.107 932.914 155.358 932.415 154.308C931.942 153.258 931.706 151.853 931.706 150.094C931.706 148.308 931.942 146.903 932.415 145.879C932.914 144.829 933.584 144.08 934.424 143.634C935.264 143.188 936.236 142.964 937.338 142.964ZM937.338 146.47C936.997 146.47 936.682 146.562 936.393 146.746C936.131 146.929 935.907 147.284 935.724 147.809C935.566 148.334 935.487 149.096 935.487 150.094C935.487 151.091 935.566 151.853 935.724 152.378C935.907 152.903 936.131 153.271 936.393 153.481C936.682 153.665 936.997 153.757 937.338 153.757C937.68 153.757 937.982 153.665 938.244 153.481C938.533 153.271 938.756 152.903 938.914 152.378C939.098 151.853 939.19 151.091 939.19 150.094C939.19 149.096 939.098 148.334 938.914 147.809C938.756 147.284 938.533 146.929 938.244 146.746C937.982 146.562 937.68 146.47 937.338 146.47Z" fill="#007AFF"/>
</g>
<circle cx="929.82" cy="115.805" r="3.35393" fill="#B3D8FF"/>
<path d="M954.973 170.028H1013.11" stroke="black" stroke-width="1.83196"/>
<circle cx="974.297" cy="170.587" r="10.0618" fill="white" stroke="black" stroke-width="1.37397"/>
<circle cx="1018.38" cy="170.587" r="10.0618" fill="white" stroke="black" stroke-width="1.37397"/>
<g filter="url(#filter4_d_235_520)">
<circle cx="974.298" cy="170.587" r="4.31219" fill="#007AFF"/>
</g>
<g filter="url(#filter5_d_235_520)">
<circle cx="1018.38" cy="170.587" r="4.31219" fill="#007AFF"/>
</g>
<path d="M834.407 254.211C833.979 253.386 833.383 252.767 832.621 252.354C831.859 251.925 830.978 251.711 829.978 251.711C828.882 251.711 827.906 251.957 827.048 252.449C826.191 252.941 825.516 253.64 825.024 254.545C824.548 255.45 824.31 256.498 824.31 257.688C824.31 258.879 824.548 259.935 825.024 260.856C825.516 261.761 826.191 262.459 827.048 262.952C827.906 263.444 828.882 263.69 829.978 263.69C831.454 263.69 832.653 263.277 833.574 262.451C834.495 261.626 835.058 260.507 835.265 259.094H829.049V256.926H838.17V259.046C837.996 260.332 837.535 261.515 836.789 262.594C836.059 263.674 835.098 264.539 833.907 265.19C832.732 265.825 831.422 266.143 829.978 266.143C828.422 266.143 827.001 265.786 825.715 265.071C824.429 264.341 823.405 263.333 822.642 262.047C821.896 260.761 821.523 259.308 821.523 257.688C821.523 256.069 821.896 254.616 822.642 253.33C823.405 252.044 824.429 251.044 825.715 250.329C827.017 249.599 828.438 249.234 829.978 249.234C831.74 249.234 833.304 249.671 834.669 250.544C836.051 251.401 837.051 252.624 837.67 254.211H834.407ZM852.875 259.117C852.875 259.61 852.843 260.054 852.78 260.451H842.753C842.833 261.499 843.222 262.34 843.92 262.975C844.619 263.611 845.476 263.928 846.492 263.928C847.953 263.928 848.985 263.317 849.588 262.094H852.518C852.121 263.301 851.398 264.293 850.35 265.071C849.318 265.833 848.032 266.214 846.492 266.214C845.238 266.214 844.111 265.936 843.11 265.381C842.126 264.809 841.348 264.015 840.777 262.999C840.221 261.967 839.943 260.776 839.943 259.427C839.943 258.077 840.213 256.895 840.753 255.878C841.308 254.846 842.078 254.053 843.063 253.497C844.063 252.941 845.206 252.663 846.492 252.663C847.731 252.663 848.834 252.933 849.803 253.473C850.771 254.013 851.525 254.775 852.065 255.759C852.605 256.728 852.875 257.847 852.875 259.117ZM850.041 258.26C850.025 257.26 849.668 256.458 848.969 255.855C848.27 255.251 847.405 254.95 846.373 254.95C845.436 254.95 844.635 255.251 843.968 255.855C843.301 256.442 842.904 257.244 842.777 258.26H850.041ZM858.714 255.093V262.356C858.714 262.848 858.825 263.206 859.047 263.428C859.286 263.634 859.683 263.738 860.238 263.738H861.905V266H859.762C858.539 266 857.603 265.714 856.952 265.143C856.301 264.571 855.975 263.642 855.975 262.356V255.093H854.427V252.878H855.975V249.615H858.714V252.878H861.905V255.093H858.714ZM985.118 255.093V262.356C985.118 262.848 985.229 263.206 985.451 263.428C985.689 263.634 986.086 263.738 986.642 263.738H988.309V266H986.165C984.943 266 984.006 265.714 983.355 265.143C982.704 264.571 982.379 263.642 982.379 262.356V255.093H980.831V252.878H982.379V249.615H985.118V252.878H988.309V255.093H985.118ZM989.906 259.379C989.906 258.062 990.176 256.895 990.716 255.878C991.272 254.862 992.018 254.076 992.954 253.521C993.907 252.949 994.955 252.663 996.098 252.663C997.13 252.663 998.027 252.87 998.789 253.283C999.567 253.679 1000.19 254.18 1000.65 254.783V252.878H1003.39V266H1000.65V264.047C1000.19 264.666 999.559 265.182 998.765 265.595C997.972 266.008 997.067 266.214 996.051 266.214C994.923 266.214 993.891 265.929 992.954 265.357C992.018 264.77 991.272 263.96 990.716 262.928C990.176 261.88 989.906 260.697 989.906 259.379ZM1000.65 259.427C1000.65 258.522 1000.46 257.736 1000.08 257.069C999.71 256.402 999.226 255.894 998.623 255.545C998.019 255.196 997.368 255.021 996.67 255.021C995.971 255.021 995.32 255.196 994.717 255.545C994.114 255.878 993.621 256.379 993.24 257.045C992.875 257.696 992.693 258.474 992.693 259.379C992.693 260.284 992.875 261.078 993.24 261.761C993.621 262.444 994.114 262.967 994.717 263.333C995.336 263.682 995.987 263.857 996.67 263.857C997.368 263.857 998.019 263.682 998.623 263.333C999.226 262.983 999.71 262.475 1000.08 261.808C1000.46 261.126 1000.65 260.332 1000.65 259.427ZM1012.57 259.355L1016.81 266H1013.74L1010.91 261.547L1008.24 266H1005.4L1009.64 259.546L1005.4 252.878H1008.48L1011.31 257.331L1013.98 252.878H1016.81L1012.57 259.355ZM1024.12 259.427C1024.12 258.077 1024.39 256.895 1024.93 255.878C1025.48 254.846 1026.25 254.053 1027.21 253.497C1028.18 252.941 1029.29 252.663 1030.55 252.663C1032.14 252.663 1033.45 253.044 1034.48 253.806C1035.53 254.553 1036.23 255.624 1036.6 257.022H1033.67C1033.43 256.371 1033.05 255.863 1032.52 255.497C1032 255.132 1031.34 254.95 1030.55 254.95C1029.44 254.95 1028.55 255.347 1027.88 256.14C1027.23 256.918 1026.9 258.014 1026.9 259.427C1026.9 260.84 1027.23 261.943 1027.88 262.737C1028.55 263.531 1029.44 263.928 1030.55 263.928C1032.12 263.928 1033.16 263.237 1033.67 261.856H1036.6C1036.22 263.19 1035.5 264.254 1034.45 265.047C1033.41 265.825 1032.1 266.214 1030.55 266.214C1029.29 266.214 1028.18 265.936 1027.21 265.381C1026.25 264.809 1025.48 264.015 1024.93 262.999C1024.39 261.967 1024.12 260.776 1024.12 259.427ZM1042.02 254.783C1042.41 254.116 1042.94 253.6 1043.59 253.235C1044.26 252.854 1045.04 252.663 1045.95 252.663V255.474H1045.26C1044.19 255.474 1043.38 255.743 1042.83 256.283C1042.29 256.823 1042.02 257.76 1042.02 259.094V266H1039.3V252.878H1042.02V254.783ZM1060.47 259.117C1060.47 259.61 1060.44 260.054 1060.37 260.451H1050.35C1050.43 261.499 1050.82 262.34 1051.51 262.975C1052.21 263.611 1053.07 263.928 1054.09 263.928C1055.55 263.928 1056.58 263.317 1057.18 262.094H1060.11C1059.72 263.301 1058.99 264.293 1057.95 265.071C1056.91 265.833 1055.63 266.214 1054.09 266.214C1052.83 266.214 1051.71 265.936 1050.71 265.381C1049.72 264.809 1048.94 264.015 1048.37 262.999C1047.82 261.967 1047.54 260.776 1047.54 259.427C1047.54 258.077 1047.81 256.895 1048.35 255.878C1048.9 254.846 1049.67 254.053 1050.66 253.497C1051.66 252.941 1052.8 252.663 1054.09 252.663C1055.33 252.663 1056.43 252.933 1057.4 253.473C1058.37 254.013 1059.12 254.775 1059.66 255.759C1060.2 256.728 1060.47 257.847 1060.47 259.117ZM1057.64 258.26C1057.62 257.26 1057.26 256.458 1056.56 255.855C1055.87 255.251 1055 254.95 1053.97 254.95C1053.03 254.95 1052.23 255.251 1051.56 255.855C1050.9 256.442 1050.5 257.244 1050.37 258.26H1057.64ZM1062.24 259.379C1062.24 258.062 1062.51 256.895 1063.05 255.878C1063.6 254.862 1064.35 254.076 1065.28 253.521C1066.24 252.949 1067.29 252.663 1068.45 252.663C1069.31 252.663 1070.15 252.854 1070.98 253.235C1071.82 253.6 1072.48 254.092 1072.98 254.711V248.377H1075.72V266H1072.98V264.023C1072.53 264.658 1071.91 265.182 1071.12 265.595C1070.34 266.008 1069.44 266.214 1068.43 266.214C1067.29 266.214 1066.24 265.929 1065.28 265.357C1064.35 264.77 1063.6 263.96 1063.05 262.928C1062.51 261.88 1062.24 260.697 1062.24 259.379ZM1072.98 259.427C1072.98 258.522 1072.79 257.736 1072.41 257.069C1072.04 256.402 1071.56 255.894 1070.95 255.545C1070.35 255.196 1069.7 255.021 1069 255.021C1068.3 255.021 1067.65 255.196 1067.05 255.545C1066.44 255.878 1065.95 256.379 1065.57 257.045C1065.21 257.696 1065.02 258.474 1065.02 259.379C1065.02 260.284 1065.21 261.078 1065.57 261.761C1065.95 262.444 1066.44 262.967 1067.05 263.333C1067.67 263.682 1068.32 263.857 1069 263.857C1069.7 263.857 1070.35 263.682 1070.95 263.333C1071.56 262.983 1072.04 262.475 1072.41 261.808C1072.79 261.126 1072.98 260.332 1072.98 259.427ZM1080.66 251.139C1080.17 251.139 1079.76 250.972 1079.42 250.639C1079.09 250.306 1078.92 249.893 1078.92 249.401C1078.92 248.908 1079.09 248.496 1079.42 248.162C1079.76 247.829 1080.17 247.662 1080.66 247.662C1081.14 247.662 1081.54 247.829 1081.88 248.162C1082.21 248.496 1082.38 248.908 1082.38 249.401C1082.38 249.893 1082.21 250.306 1081.88 250.639C1081.54 250.972 1081.14 251.139 1080.66 251.139ZM1082 252.878V266H1079.28V252.878H1082ZM1088.73 255.093V262.356C1088.73 262.848 1088.84 263.206 1089.06 263.428C1089.3 263.634 1089.7 263.738 1090.25 263.738H1091.92V266H1089.78C1088.55 266 1087.62 265.714 1086.97 265.143C1086.32 264.571 1085.99 263.642 1085.99 262.356V255.093H1084.44V252.878H1085.99V249.615H1088.73V252.878H1091.92V255.093H1088.73ZM1099.19 266.214C1098.15 266.214 1097.22 266.032 1096.4 265.667C1095.59 265.286 1094.95 264.777 1094.47 264.142C1093.99 263.491 1093.74 262.769 1093.71 261.975H1096.52C1096.57 262.531 1096.83 262.999 1097.3 263.38C1097.8 263.745 1098.41 263.928 1099.14 263.928C1099.9 263.928 1100.49 263.785 1100.9 263.499C1101.33 263.198 1101.54 262.817 1101.54 262.356C1101.54 261.864 1101.31 261.499 1100.83 261.261C1100.37 261.023 1099.63 260.761 1098.61 260.475C1097.63 260.205 1096.83 259.943 1096.21 259.689C1095.59 259.435 1095.05 259.046 1094.59 258.522C1094.14 257.998 1093.92 257.307 1093.92 256.45C1093.92 255.751 1094.13 255.116 1094.54 254.545C1094.95 253.957 1095.54 253.497 1096.3 253.163C1097.08 252.83 1097.97 252.663 1098.97 252.663C1100.46 252.663 1101.66 253.044 1102.57 253.806C1103.49 254.553 1103.98 255.577 1104.04 256.879H1101.33C1101.28 256.291 1101.04 255.823 1100.61 255.474C1100.19 255.124 1099.61 254.95 1098.88 254.95C1098.16 254.95 1097.61 255.085 1097.23 255.354C1096.85 255.624 1096.66 255.982 1096.66 256.426C1096.66 256.775 1096.79 257.069 1097.04 257.307C1097.3 257.546 1097.61 257.736 1097.97 257.879C1098.34 258.006 1098.88 258.173 1099.59 258.379C1100.54 258.633 1101.32 258.895 1101.92 259.165C1102.54 259.419 1103.08 259.8 1103.52 260.308C1103.96 260.816 1104.19 261.491 1104.21 262.332C1104.21 263.079 1104 263.745 1103.59 264.333C1103.18 264.92 1102.59 265.381 1101.83 265.714C1101.08 266.048 1100.2 266.214 1099.19 266.214ZM878.961 295.878L874.889 309H872.031L869.387 299.307L866.744 309H863.886L859.79 295.878H862.552L865.291 306.428L868.077 295.878H870.911L873.579 306.38L876.294 295.878H878.961ZM882.371 294.139C881.879 294.139 881.466 293.972 881.133 293.639C880.8 293.306 880.633 292.893 880.633 292.401C880.633 291.908 880.8 291.496 881.133 291.162C881.466 290.829 881.879 290.662 882.371 290.662C882.848 290.662 883.253 290.829 883.586 291.162C883.919 291.496 884.086 291.908 884.086 292.401C884.086 292.893 883.919 293.306 883.586 293.639C883.253 293.972 882.848 294.139 882.371 294.139ZM883.705 295.878V309H880.99V295.878H883.705ZM890.437 298.093V305.356C890.437 305.848 890.548 306.206 890.77 306.428C891.009 306.634 891.406 306.738 891.961 306.738H893.628V309H891.485C890.262 309 889.326 308.714 888.675 308.143C888.024 307.571 887.698 306.642 887.698 305.356V298.093H886.15V295.878H887.698V292.615H890.437V295.878H893.628V298.093H890.437ZM902.918 295.663C903.918 295.663 904.807 295.878 905.585 296.306C906.379 296.735 906.998 297.37 907.443 298.212C907.903 299.053 908.134 300.069 908.134 301.26V309H905.442V301.665C905.442 300.49 905.149 299.593 904.561 298.974C903.974 298.339 903.172 298.021 902.156 298.021C901.14 298.021 900.33 298.339 899.727 298.974C899.139 299.593 898.846 300.49 898.846 301.665V309H896.131V291.377H898.846V297.402C899.306 296.846 899.885 296.417 900.584 296.116C901.299 295.814 902.077 295.663 902.918 295.663ZM923.475 309.214C922.237 309.214 921.117 308.936 920.117 308.381C919.117 307.809 918.331 307.015 917.759 305.999C917.188 304.967 916.902 303.776 916.902 302.427C916.902 301.093 917.196 299.91 917.783 298.878C918.371 297.846 919.172 297.053 920.189 296.497C921.205 295.941 922.34 295.663 923.594 295.663C924.848 295.663 925.984 295.941 927 296.497C928.016 297.053 928.818 297.846 929.405 298.878C929.993 299.91 930.286 301.093 930.286 302.427C930.286 303.761 929.985 304.943 929.381 305.975C928.778 307.007 927.952 307.809 926.904 308.381C925.872 308.936 924.729 309.214 923.475 309.214ZM923.475 306.857C924.174 306.857 924.825 306.69 925.428 306.356C926.047 306.023 926.547 305.523 926.928 304.856C927.309 304.189 927.5 303.38 927.5 302.427C927.5 301.474 927.317 300.673 926.952 300.022C926.587 299.355 926.103 298.855 925.499 298.521C924.896 298.188 924.245 298.021 923.546 298.021C922.848 298.021 922.197 298.188 921.594 298.521C921.006 298.855 920.538 299.355 920.189 300.022C919.839 300.673 919.665 301.474 919.665 302.427C919.665 303.84 920.022 304.935 920.736 305.713C921.467 306.476 922.38 306.857 923.475 306.857ZM944.854 295.878V309H942.139V307.452C941.71 307.992 941.147 308.42 940.448 308.738C939.766 309.04 939.035 309.191 938.257 309.191C937.225 309.191 936.296 308.976 935.471 308.548C934.661 308.119 934.018 307.484 933.542 306.642C933.081 305.801 932.851 304.785 932.851 303.594V295.878H935.542V303.189C935.542 304.364 935.836 305.269 936.423 305.904C937.011 306.523 937.813 306.833 938.829 306.833C939.845 306.833 940.647 306.523 941.234 305.904C941.837 305.269 942.139 304.364 942.139 303.189V295.878H944.854ZM951.151 297.783C951.548 297.116 952.072 296.6 952.723 296.235C953.39 295.854 954.176 295.663 955.081 295.663V298.474H954.39C953.326 298.474 952.517 298.743 951.961 299.283C951.421 299.823 951.151 300.76 951.151 302.094V309H948.436V295.878H951.151V297.783ZM966.478 297.807C966.938 297.203 967.565 296.695 968.359 296.283C969.153 295.87 970.05 295.663 971.05 295.663C972.194 295.663 973.233 295.949 974.17 296.521C975.123 297.076 975.869 297.862 976.409 298.878C976.949 299.895 977.219 301.062 977.219 302.379C977.219 303.697 976.949 304.88 976.409 305.928C975.869 306.96 975.123 307.77 974.17 308.357C973.233 308.929 972.194 309.214 971.05 309.214C970.05 309.214 969.161 309.016 968.383 308.619C967.605 308.206 966.97 307.698 966.478 307.095V315.24H963.763V295.878H966.478V297.807ZM974.456 302.379C974.456 301.474 974.265 300.696 973.884 300.045C973.519 299.379 973.027 298.878 972.408 298.545C971.805 298.196 971.154 298.021 970.455 298.021C969.772 298.021 969.121 298.196 968.502 298.545C967.899 298.894 967.407 299.402 967.026 300.069C966.66 300.736 966.478 301.522 966.478 302.427C966.478 303.332 966.66 304.126 967.026 304.808C967.407 305.475 967.899 305.983 968.502 306.333C969.121 306.682 969.772 306.857 970.455 306.857C971.154 306.857 971.805 306.682 972.408 306.333C973.027 305.967 973.519 305.444 973.884 304.761C974.265 304.078 974.456 303.284 974.456 302.379ZM985.595 309.214C984.357 309.214 983.238 308.936 982.237 308.381C981.237 307.809 980.451 307.015 979.88 305.999C979.308 304.967 979.022 303.776 979.022 302.427C979.022 301.093 979.316 299.91 979.903 298.878C980.491 297.846 981.293 297.053 982.309 296.497C983.325 295.941 984.46 295.663 985.714 295.663C986.969 295.663 988.104 295.941 989.12 296.497C990.136 297.053 990.938 297.846 991.525 298.878C992.113 299.91 992.407 301.093 992.407 302.427C992.407 303.761 992.105 304.943 991.502 305.975C990.898 307.007 990.073 307.809 989.025 308.381C987.993 308.936 986.85 309.214 985.595 309.214ZM985.595 306.857C986.294 306.857 986.945 306.69 987.548 306.356C988.167 306.023 988.668 305.523 989.049 304.856C989.43 304.189 989.62 303.38 989.62 302.427C989.62 301.474 989.438 300.673 989.072 300.022C988.707 299.355 988.223 298.855 987.62 298.521C987.016 298.188 986.365 298.021 985.667 298.021C984.968 298.021 984.317 298.188 983.714 298.521C983.126 298.855 982.658 299.355 982.309 300.022C981.959 300.673 981.785 301.474 981.785 302.427C981.785 303.84 982.142 304.935 982.857 305.713C983.587 306.476 984.5 306.857 985.595 306.857ZM1012.71 295.878L1008.64 309H1005.78L1003.14 299.307L1000.5 309H997.639L993.542 295.878H996.305L999.044 306.428L1001.83 295.878H1004.66L1007.33 306.38L1010.05 295.878H1012.71ZM1026.77 302.117C1026.77 302.61 1026.74 303.054 1026.67 303.451H1016.65C1016.73 304.499 1017.12 305.34 1017.82 305.975C1018.51 306.611 1019.37 306.928 1020.39 306.928C1021.85 306.928 1022.88 306.317 1023.48 305.094H1026.41C1026.02 306.301 1025.29 307.293 1024.25 308.071C1023.21 308.833 1021.93 309.214 1020.39 309.214C1019.13 309.214 1018.01 308.936 1017.01 308.381C1016.02 307.809 1015.24 307.015 1014.67 305.999C1014.12 304.967 1013.84 303.776 1013.84 302.427C1013.84 301.077 1014.11 299.895 1014.65 298.878C1015.2 297.846 1015.97 297.053 1016.96 296.497C1017.96 295.941 1019.1 295.663 1020.39 295.663C1021.63 295.663 1022.73 295.933 1023.7 296.473C1024.67 297.013 1025.42 297.775 1025.96 298.759C1026.5 299.728 1026.77 300.847 1026.77 302.117ZM1023.94 301.26C1023.92 300.26 1023.56 299.458 1022.86 298.855C1022.17 298.251 1021.3 297.95 1020.27 297.95C1019.33 297.95 1018.53 298.251 1017.86 298.855C1017.2 299.442 1016.8 300.244 1016.67 301.26H1023.94ZM1032.16 297.783C1032.55 297.116 1033.08 296.6 1033.73 296.235C1034.4 295.854 1035.18 295.663 1036.09 295.663V298.474H1035.4C1034.33 298.474 1033.52 298.743 1032.97 299.283C1032.43 299.823 1032.16 300.76 1032.16 302.094V309H1029.44V295.878H1032.16V297.783ZM1044.08 298.093H1041.65V309H1038.92V298.093H1037.37V295.878H1038.92V294.949C1038.92 293.441 1039.31 292.345 1040.11 291.662C1040.92 290.964 1042.18 290.614 1043.89 290.614V292.877C1043.07 292.877 1042.49 293.036 1042.15 293.353C1041.82 293.655 1041.65 294.187 1041.65 294.949V295.878H1044.08V298.093ZM1058.37 295.878V309H1055.66V307.452C1055.23 307.992 1054.67 308.42 1053.97 308.738C1053.28 309.04 1052.55 309.191 1051.78 309.191C1050.74 309.191 1049.82 308.976 1048.99 308.548C1048.18 308.119 1047.54 307.484 1047.06 306.642C1046.6 305.801 1046.37 304.785 1046.37 303.594V295.878H1049.06V303.189C1049.06 304.364 1049.35 305.269 1049.94 305.904C1050.53 306.523 1051.33 306.833 1052.35 306.833C1053.36 306.833 1054.17 306.523 1054.75 305.904C1055.36 305.269 1055.66 304.364 1055.66 303.189V295.878H1058.37ZM1064.67 291.377V309H1061.96V291.377H1064.67ZM901.109 347.618H894.179L892.988 351H890.154L896.084 334.424H899.228L905.158 351H902.3L901.109 347.618ZM900.347 345.403L897.656 337.711L894.941 345.403H900.347ZM910.451 334.448V351H907.736V334.448H910.451ZM919.297 344.379C919.297 343.062 919.567 341.895 920.107 340.878C920.662 339.862 921.409 339.076 922.345 338.521C923.298 337.949 924.346 337.663 925.489 337.663C926.521 337.663 927.418 337.87 928.18 338.283C928.958 338.679 929.577 339.18 930.038 339.783V337.878H932.776V351H930.038V349.047C929.577 349.666 928.95 350.182 928.156 350.595C927.362 351.008 926.457 351.214 925.441 351.214C924.314 351.214 923.282 350.929 922.345 350.357C921.409 349.77 920.662 348.96 920.107 347.928C919.567 346.88 919.297 345.697 919.297 344.379ZM930.038 344.427C930.038 343.522 929.847 342.736 929.466 342.069C929.101 341.402 928.617 340.894 928.013 340.545C927.41 340.196 926.759 340.021 926.061 340.021C925.362 340.021 924.711 340.196 924.108 340.545C923.504 340.878 923.012 341.379 922.631 342.045C922.266 342.696 922.083 343.474 922.083 344.379C922.083 345.284 922.266 346.078 922.631 346.761C923.012 347.444 923.504 347.967 924.108 348.333C924.727 348.682 925.378 348.857 926.061 348.857C926.759 348.857 927.41 348.682 928.013 348.333C928.617 347.983 929.101 347.475 929.466 346.808C929.847 346.126 930.038 345.332 930.038 344.427ZM939.057 333.377V351H936.342V333.377H939.057ZM947.909 337.663C948.925 337.663 949.822 337.87 950.6 338.283C951.394 338.679 952.013 339.18 952.458 339.783V337.878H955.197V351.214C955.197 352.421 954.942 353.493 954.434 354.429C953.926 355.382 953.188 356.128 952.22 356.668C951.267 357.208 950.124 357.478 948.79 357.478C947.012 357.478 945.535 357.057 944.36 356.216C943.186 355.39 942.519 354.263 942.36 352.834H945.051C945.258 353.517 945.694 354.064 946.361 354.477C947.044 354.906 947.853 355.12 948.79 355.12C949.886 355.12 950.767 354.787 951.434 354.12C952.116 353.453 952.458 352.484 952.458 351.214V349.023C951.997 349.643 951.37 350.166 950.576 350.595C949.798 351.008 948.909 351.214 947.909 351.214C946.766 351.214 945.718 350.929 944.765 350.357C943.829 349.77 943.082 348.96 942.527 347.928C941.987 346.88 941.717 345.697 941.717 344.379C941.717 343.062 941.987 341.895 942.527 340.878C943.082 339.862 943.829 339.076 944.765 338.521C945.718 337.949 946.766 337.663 947.909 337.663ZM952.458 344.427C952.458 343.522 952.267 342.736 951.886 342.069C951.521 341.402 951.037 340.894 950.433 340.545C949.83 340.196 949.179 340.021 948.481 340.021C947.782 340.021 947.131 340.196 946.528 340.545C945.924 340.878 945.432 341.379 945.051 342.045C944.686 342.696 944.503 343.474 944.503 344.379C944.503 345.284 944.686 346.078 945.051 346.761C945.432 347.444 945.924 347.967 946.528 348.333C947.147 348.682 947.798 348.857 948.481 348.857C949.179 348.857 949.83 348.682 950.433 348.333C951.037 347.983 951.521 347.475 951.886 346.808C952.267 346.126 952.458 345.332 952.458 344.427ZM964.454 351.214C963.216 351.214 962.097 350.936 961.096 350.381C960.096 349.809 959.31 349.015 958.739 347.999C958.167 346.967 957.881 345.776 957.881 344.427C957.881 343.093 958.175 341.91 958.763 340.878C959.35 339.846 960.152 339.053 961.168 338.497C962.184 337.941 963.319 337.663 964.573 337.663C965.828 337.663 966.963 337.941 967.979 338.497C968.995 339.053 969.797 339.846 970.384 340.878C970.972 341.91 971.266 343.093 971.266 344.427C971.266 345.761 970.964 346.943 970.361 347.975C969.757 349.007 968.932 349.809 967.884 350.381C966.852 350.936 965.709 351.214 964.454 351.214ZM964.454 348.857C965.153 348.857 965.804 348.69 966.407 348.356C967.026 348.023 967.527 347.523 967.908 346.856C968.289 346.189 968.479 345.38 968.479 344.427C968.479 343.474 968.297 342.673 967.931 342.022C967.566 341.355 967.082 340.855 966.479 340.521C965.875 340.188 965.224 340.021 964.526 340.021C963.827 340.021 963.176 340.188 962.573 340.521C961.986 340.855 961.517 341.355 961.168 342.022C960.819 342.673 960.644 343.474 960.644 344.427C960.644 345.84 961.001 346.935 961.716 347.713C962.446 348.476 963.359 348.857 964.454 348.857ZM976.665 339.783C977.061 339.116 977.585 338.6 978.236 338.235C978.903 337.854 979.689 337.663 980.594 337.663V340.474H979.903C978.84 340.474 978.03 340.743 977.474 341.283C976.934 341.823 976.665 342.76 976.665 344.094V351H973.95V337.878H976.665V339.783ZM984.471 336.139C983.979 336.139 983.566 335.972 983.233 335.639C982.899 335.306 982.732 334.893 982.732 334.401C982.732 333.908 982.899 333.496 983.233 333.162C983.566 332.829 983.979 332.662 984.471 332.662C984.947 332.662 985.352 332.829 985.686 333.162C986.019 333.496 986.186 333.908 986.186 334.401C986.186 334.893 986.019 335.306 985.686 335.639C985.352 335.972 984.947 336.139 984.471 336.139ZM985.805 337.878V351H983.09V337.878H985.805ZM992.537 340.093V347.356C992.537 347.848 992.648 348.206 992.87 348.428C993.108 348.634 993.505 348.738 994.061 348.738H995.728V351H993.584C992.362 351 991.425 350.714 990.774 350.143C990.123 349.571 989.798 348.642 989.798 347.356V340.093H988.25V337.878H989.798V334.615H992.537V337.878H995.728V340.093H992.537ZM1005.02 337.663C1006.02 337.663 1006.91 337.878 1007.68 338.306C1008.48 338.735 1009.1 339.37 1009.54 340.212C1010 341.053 1010.23 342.069 1010.23 343.26V351H1007.54V343.665C1007.54 342.49 1007.25 341.593 1006.66 340.974C1006.07 340.339 1005.27 340.021 1004.26 340.021C1003.24 340.021 1002.43 340.339 1001.83 340.974C1001.24 341.593 1000.95 342.49 1000.95 343.665V351H998.23V333.377H1000.95V339.402C1001.41 338.846 1001.99 338.417 1002.68 338.116C1003.4 337.814 1004.18 337.663 1005.02 337.663ZM1029.58 337.663C1030.61 337.663 1031.53 337.878 1032.34 338.306C1033.17 338.735 1033.81 339.37 1034.27 340.212C1034.75 341.053 1034.99 342.069 1034.99 343.26V351H1032.3V343.665C1032.3 342.49 1032 341.593 1031.42 340.974C1030.83 340.339 1030.03 340.021 1029.01 340.021C1027.99 340.021 1027.18 340.339 1026.58 340.974C1025.99 341.593 1025.7 342.49 1025.7 343.665V351H1023.01V343.665C1023.01 342.49 1022.71 341.593 1022.13 340.974C1021.54 340.339 1020.74 340.021 1019.72 340.021C1018.71 340.021 1017.9 340.339 1017.29 340.974C1016.7 341.593 1016.41 342.49 1016.41 343.665V351H1013.7V337.878H1016.41V339.378C1016.86 338.838 1017.42 338.417 1018.1 338.116C1018.78 337.814 1019.52 337.663 1020.29 337.663C1021.34 337.663 1022.28 337.886 1023.1 338.33C1023.93 338.775 1024.56 339.418 1025.01 340.259C1025.41 339.465 1026.02 338.838 1026.87 338.378C1027.71 337.901 1028.61 337.663 1029.58 337.663Z" fill="black"/>
<path d="M878.089 250.007V244.181H888.238V270.928H881.716V250.007H878.089ZM892.524 257.188C892.524 252.987 893.33 249.677 894.942 247.259C896.579 244.841 899.205 243.632 902.82 243.632C906.435 243.632 909.048 244.841 910.661 247.259C912.297 249.677 913.115 252.987 913.115 257.188C913.115 261.438 912.297 264.772 910.661 267.191C909.048 269.609 906.435 270.818 902.82 270.818C899.205 270.818 896.579 269.609 894.942 267.191C893.33 264.772 892.524 261.438 892.524 257.188ZM906.96 257.188C906.96 254.721 906.691 252.828 906.154 251.509C905.617 250.166 904.505 249.494 902.82 249.494C901.134 249.494 900.023 250.166 899.486 251.509C898.948 252.828 898.68 254.721 898.68 257.188C898.68 258.849 898.777 260.229 898.973 261.328C899.168 262.403 899.559 263.282 900.145 263.966C900.756 264.626 901.647 264.956 902.82 264.956C903.992 264.956 904.872 264.626 905.458 263.966C906.068 263.282 906.471 262.403 906.667 261.328C906.862 260.229 906.96 258.849 906.96 257.188ZM916.425 257.188C916.425 252.987 917.232 249.677 918.844 247.259C920.48 244.841 923.106 243.632 926.721 243.632C930.336 243.632 932.95 244.841 934.562 247.259C936.198 249.677 937.017 252.987 937.017 257.188C937.017 261.438 936.198 264.772 934.562 267.191C932.95 269.609 930.336 270.818 926.721 270.818C923.106 270.818 920.48 269.609 918.844 267.191C917.232 264.772 916.425 261.438 916.425 257.188ZM930.861 257.188C930.861 254.721 930.593 252.828 930.055 251.509C929.518 250.166 928.407 249.494 926.721 249.494C925.036 249.494 923.924 250.166 923.387 251.509C922.85 252.828 922.581 254.721 922.581 257.188C922.581 258.849 922.679 260.229 922.874 261.328C923.069 262.403 923.46 263.282 924.046 263.966C924.657 264.626 925.549 264.956 926.721 264.956C927.894 264.956 928.773 264.626 929.359 263.966C929.97 263.282 930.373 262.403 930.568 261.328C930.764 260.229 930.861 258.849 930.861 257.188ZM939.814 250.923C939.814 248.944 940.376 247.418 941.499 246.343C942.647 245.268 944.125 244.731 945.933 244.731C947.74 244.731 949.206 245.268 950.329 246.343C951.453 247.418 952.015 248.944 952.015 250.923C952.015 252.901 951.453 254.428 950.329 255.503C949.206 256.577 947.74 257.115 945.933 257.115C944.125 257.115 942.647 256.577 941.499 255.503C940.376 254.428 939.814 252.901 939.814 250.923ZM964.692 245.134L950.586 270.928H944.54L958.646 245.134H964.692ZM945.896 248.395C944.724 248.395 944.137 249.237 944.137 250.923C944.137 252.584 944.724 253.414 945.896 253.414C946.458 253.414 946.897 253.207 947.215 252.791C947.533 252.376 947.691 251.753 947.691 250.923C947.691 249.237 947.093 248.395 945.896 248.395ZM957.254 265.139C957.254 263.16 957.816 261.634 958.94 260.559C960.063 259.484 961.529 258.947 963.336 258.947C965.144 258.947 966.609 259.484 967.733 260.559C968.857 261.634 969.418 263.16 969.418 265.139C969.418 267.117 968.857 268.644 967.733 269.719C966.609 270.793 965.144 271.331 963.336 271.331C961.529 271.331 960.063 270.793 958.94 269.719C957.816 268.644 957.254 267.117 957.254 265.139ZM963.3 262.611C962.738 262.611 962.298 262.818 961.981 263.234C961.688 263.649 961.541 264.284 961.541 265.139C961.541 266.8 962.127 267.63 963.3 267.63C963.861 267.63 964.301 267.423 964.619 267.007C964.936 266.592 965.095 265.969 965.095 265.139C965.095 264.308 964.936 263.685 964.619 263.27C964.301 262.83 963.861 262.611 963.3 262.611Z" fill="#007AFF"/>
<g filter="url(#filter6_d_235_520)">
<rect x="414.795" y="29.9155" width="343.493" height="361.812" rx="8.10453" fill="white"/>
</g>
<path d="M414.795 38.02C414.795 33.544 418.424 29.9155 422.9 29.9155H750.183C754.659 29.9155 758.288 33.544 758.288 38.0201V210.364H414.795V38.02Z" fill="#E6F2FF"/>
<rect x="509.004" y="61.9746" width="163.294" height="118.106" rx="5.49588" fill="white" stroke="black" stroke-width="1.83196"/>
<path d="M510.031 164.676L512.337 171.266C513.109 173.47 515.189 174.946 517.525 174.946H662.739C664.821 174.946 666.724 173.77 667.655 171.908L671.271 164.676V175.39C671.271 177.414 669.631 179.054 667.607 179.054H513.695C511.671 179.054 510.031 177.414 510.031 175.39V164.676Z" fill="#80BDFF"/>
<path d="M509.004 67.4705C509.004 64.4352 511.464 61.9746 514.5 61.9746H666.802C669.838 61.9746 672.298 64.4352 672.298 67.4705V77.3797H509.004V67.4705Z" fill="#E6F2FF" stroke="black" stroke-width="1.83196"/>
<path d="M485.381 180.081H694.891" stroke="black" stroke-width="1.7719" stroke-linecap="round" stroke-linejoin="round"/>
<rect x="529.543" y="98.9463" width="54.4314" height="54.4314" rx="2.74794" fill="#E6F2FF" stroke="#007AFF" stroke-width="0.91598" stroke-linecap="round" stroke-dasharray="4.58 4.58"/>
<rect x="611.704" y="98.9463" width="39.0263" height="54.4314" rx="1.83196" fill="#E6F2FF" stroke="#231F20" stroke-width="0.91598" stroke-linecap="round"/>
<path d="M536.732 109.217H576.785" stroke="#007AFF" stroke-width="1.83196" stroke-linecap="round"/>
<path d="M618.893 109.217H643.541" stroke="white" stroke-width="1.83196" stroke-linecap="round"/>
<path d="M618.893 129.757H643.541" stroke="white" stroke-width="1.83196" stroke-linecap="round"/>
<path d="M536.732 120.514H576.785" stroke="#007AFF" stroke-width="1.83196" stroke-linecap="round"/>
<path d="M618.893 119.487H643.541" stroke="white" stroke-width="1.83196" stroke-linecap="round"/>
<path d="M618.893 140.027H643.541" stroke="white" stroke-width="1.83196" stroke-linecap="round"/>
<path d="M536.732 131.811H576.785" stroke="#007AFF" stroke-width="1.83196" stroke-linecap="round"/>
<path d="M536.732 142.081H576.785" stroke="#007AFF" stroke-width="1.83196" stroke-linecap="round"/>
<circle cx="519.273" cy="70.1912" r="2.05402" fill="#4DA3FF"/>
<circle cx="526.461" cy="70.1912" r="2.05402" fill="#4DA3FF"/>
<circle cx="533.651" cy="70.1912" r="2.05402" fill="#4DA3FF"/>
<rect x="493.488" y="108.08" width="37.1944" height="37.1944" rx="18.5972" fill="white" stroke="black" stroke-width="1.83196"/>
<rect x="476.408" y="158.778" width="24.2655" height="6.47178" rx="3.23589" transform="rotate(-46 476.408 158.778)" fill="white" stroke="black" stroke-width="1.83196"/>
<path d="M498.734 140.028L495.653 143.109" stroke="black" stroke-width="1.83196" stroke-linecap="square"/>
<path d="M586.029 108.759H585.571V109.675H586.029V108.759ZM599.656 109.217H600.114V108.759H599.656V109.217ZM599.656 121.541H599.198V121.999H599.656V121.541ZM609.65 121.541L605.07 118.897V124.186L609.65 121.541ZM586.029 109.675H599.656V108.759H586.029V109.675ZM599.198 109.217V121.541H600.114V109.217H599.198ZM599.656 121.999H605.528V121.083H599.656V121.999Z" fill="#231F20"/>
<path d="M659.043 142.234C661.511 137.959 667.68 137.959 670.148 142.234L686.362 170.317C688.83 174.592 685.745 179.935 680.809 179.935H648.382C643.446 179.935 640.361 174.592 642.829 170.317L659.043 142.234Z" fill="white" stroke="black" stroke-width="1.83196"/>
<g filter="url(#filter7_d_235_520)">
<path d="M666.852 151.091L666.471 162.594H663.661L663.256 151.091H666.852ZM665.137 168.167C664.534 168.167 664.034 167.984 663.637 167.619C663.256 167.238 663.065 166.77 663.065 166.214C663.065 165.658 663.256 165.198 663.637 164.833C664.034 164.451 664.534 164.261 665.137 164.261C665.725 164.261 666.209 164.451 666.59 164.833C666.971 165.198 667.162 165.658 667.162 166.214C667.162 166.77 666.971 167.238 666.59 167.619C666.209 167.984 665.725 168.167 665.137 168.167Z" fill="#007AFF"/>
</g>
<path d="M498.603 272.634V277.492H504.318V279.707H498.603V284.78H505.033V286.995H495.888V270.419H505.033V272.634H498.603ZM507.472 280.374C507.472 279.056 507.742 277.889 508.282 276.873C508.837 275.857 509.584 275.071 510.52 274.515C511.473 273.944 512.521 273.658 513.664 273.658C514.696 273.658 515.593 273.864 516.355 274.277C517.133 274.674 517.752 275.174 518.213 275.778V273.872H520.951V286.995H518.213V285.042C517.752 285.661 517.125 286.177 516.331 286.59C515.537 287.003 514.632 287.209 513.616 287.209C512.489 287.209 511.457 286.923 510.52 286.352C509.584 285.764 508.837 284.954 508.282 283.922C507.742 282.875 507.472 281.692 507.472 280.374ZM518.213 280.422C518.213 279.517 518.022 278.731 517.641 278.064C517.276 277.397 516.792 276.889 516.188 276.54C515.585 276.19 514.934 276.016 514.236 276.016C513.537 276.016 512.886 276.19 512.283 276.54C511.679 276.873 511.187 277.373 510.806 278.04C510.441 278.691 510.258 279.469 510.258 280.374C510.258 281.279 510.441 282.073 510.806 282.755C511.187 283.438 511.679 283.962 512.283 284.327C512.902 284.677 513.553 284.851 514.236 284.851C514.934 284.851 515.585 284.677 516.188 284.327C516.792 283.978 517.276 283.47 517.641 282.803C518.022 282.12 518.213 281.327 518.213 280.422ZM529.281 287.209C528.249 287.209 527.32 287.026 526.494 286.661C525.684 286.28 525.041 285.772 524.565 285.137C524.089 284.486 523.835 283.764 523.803 282.97H526.613C526.661 283.526 526.923 283.994 527.399 284.375C527.891 284.74 528.503 284.923 529.233 284.923C529.995 284.923 530.582 284.78 530.995 284.494C531.424 284.192 531.638 283.811 531.638 283.351C531.638 282.859 531.4 282.494 530.924 282.255C530.463 282.017 529.725 281.755 528.709 281.469C527.725 281.2 526.923 280.938 526.304 280.684C525.684 280.429 525.145 280.041 524.684 279.517C524.24 278.993 524.017 278.302 524.017 277.445C524.017 276.746 524.224 276.111 524.637 275.539C525.049 274.952 525.637 274.491 526.399 274.158C527.177 273.825 528.066 273.658 529.066 273.658C530.559 273.658 531.757 274.039 532.662 274.801C533.583 275.547 534.075 276.571 534.139 277.873H531.424C531.376 277.286 531.138 276.817 530.71 276.468C530.281 276.119 529.701 275.944 528.971 275.944C528.257 275.944 527.709 276.079 527.328 276.349C526.947 276.619 526.756 276.976 526.756 277.421C526.756 277.77 526.883 278.064 527.137 278.302C527.391 278.54 527.701 278.731 528.066 278.874C528.431 279.001 528.971 279.167 529.685 279.374C530.638 279.628 531.416 279.89 532.019 280.16C532.639 280.414 533.17 280.795 533.615 281.303C534.06 281.811 534.29 282.486 534.306 283.327C534.306 284.073 534.099 284.74 533.686 285.328C533.274 285.915 532.686 286.375 531.924 286.709C531.178 287.042 530.297 287.209 529.281 287.209ZM549.052 273.872L541.002 293.163H538.192L540.859 286.78L535.691 273.872H538.716L542.407 283.875L546.241 273.872H549.052ZM562.36 284.565L566.075 273.872H568.957L563.955 286.995H560.716L555.739 273.872H558.645L562.36 284.565ZM570.104 280.374C570.104 279.056 570.374 277.889 570.914 276.873C571.469 275.857 572.216 275.071 573.152 274.515C574.105 273.944 575.153 273.658 576.296 273.658C577.328 273.658 578.225 273.864 578.987 274.277C579.765 274.674 580.384 275.174 580.845 275.778V273.872H583.583V286.995H580.845V285.042C580.384 285.661 579.757 286.177 578.963 286.59C578.169 287.003 577.264 287.209 576.248 287.209C575.121 287.209 574.089 286.923 573.152 286.352C572.216 285.764 571.469 284.954 570.914 283.922C570.374 282.875 570.104 281.692 570.104 280.374ZM580.845 280.422C580.845 279.517 580.654 278.731 580.273 278.064C579.908 277.397 579.424 276.889 578.82 276.54C578.217 276.19 577.566 276.016 576.867 276.016C576.169 276.016 575.518 276.19 574.915 276.54C574.311 276.873 573.819 277.373 573.438 278.04C573.073 278.691 572.89 279.469 572.89 280.374C572.89 281.279 573.073 282.073 573.438 282.755C573.819 283.438 574.311 283.962 574.915 284.327C575.534 284.677 576.185 284.851 576.867 284.851C577.566 284.851 578.217 284.677 578.82 284.327C579.424 283.978 579.908 283.47 580.273 282.803C580.654 282.12 580.845 281.327 580.845 280.422ZM589.864 269.371V286.995H587.149V269.371H589.864ZM594.81 272.134C594.318 272.134 593.905 271.967 593.572 271.634C593.238 271.3 593.072 270.887 593.072 270.395C593.072 269.903 593.238 269.49 593.572 269.157C593.905 268.823 594.318 268.657 594.81 268.657C595.287 268.657 595.691 268.823 596.025 269.157C596.358 269.49 596.525 269.903 596.525 270.395C596.525 270.887 596.358 271.3 596.025 271.634C595.691 271.967 595.287 272.134 594.81 272.134ZM596.144 273.872V286.995H593.429V273.872H596.144ZM598.803 280.374C598.803 279.056 599.073 277.889 599.613 276.873C600.169 275.857 600.915 275.071 601.852 274.515C602.804 273.944 603.86 273.658 605.019 273.658C605.877 273.658 606.718 273.848 607.544 274.23C608.385 274.595 609.052 275.087 609.544 275.706V269.371H612.283V286.995H609.544V285.018C609.1 285.653 608.48 286.177 607.687 286.59C606.909 287.003 606.012 287.209 604.995 287.209C603.852 287.209 602.804 286.923 601.852 286.352C600.915 285.764 600.169 284.954 599.613 283.922C599.073 282.875 598.803 281.692 598.803 280.374ZM609.544 280.422C609.544 279.517 609.354 278.731 608.973 278.064C608.607 277.397 608.123 276.889 607.52 276.54C606.917 276.19 606.266 276.016 605.567 276.016C604.868 276.016 604.217 276.19 603.614 276.54C603.011 276.873 602.519 277.373 602.138 278.04C601.772 278.691 601.59 279.469 601.59 280.374C601.59 281.279 601.772 282.073 602.138 282.755C602.519 283.438 603.011 283.962 603.614 284.327C604.233 284.677 604.884 284.851 605.567 284.851C606.266 284.851 606.917 284.677 607.52 284.327C608.123 283.978 608.607 283.47 608.973 282.803C609.354 282.12 609.544 281.327 609.544 280.422ZM614.944 280.374C614.944 279.056 615.214 277.889 615.754 276.873C616.309 275.857 617.056 275.071 617.992 274.515C618.945 273.944 619.993 273.658 621.136 273.658C622.168 273.658 623.065 273.864 623.827 274.277C624.605 274.674 625.224 275.174 625.685 275.778V273.872H628.424V286.995H625.685V285.042C625.224 285.661 624.597 286.177 623.803 286.59C623.009 287.003 622.104 287.209 621.088 287.209C619.961 287.209 618.929 286.923 617.992 286.352C617.056 285.764 616.309 284.954 615.754 283.922C615.214 282.875 614.944 281.692 614.944 280.374ZM625.685 280.422C625.685 279.517 625.494 278.731 625.113 278.064C624.748 277.397 624.264 276.889 623.66 276.54C623.057 276.19 622.406 276.016 621.708 276.016C621.009 276.016 620.358 276.19 619.755 276.54C619.151 276.873 618.659 277.373 618.278 278.04C617.913 278.691 617.73 279.469 617.73 280.374C617.73 281.279 617.913 282.073 618.278 282.755C618.659 283.438 619.151 283.962 619.755 284.327C620.374 284.677 621.025 284.851 621.708 284.851C622.406 284.851 623.057 284.677 623.66 284.327C624.264 283.978 624.748 283.47 625.113 282.803C625.494 282.12 625.685 281.327 625.685 280.422ZM635.157 276.087V283.351C635.157 283.843 635.268 284.2 635.49 284.423C635.729 284.629 636.125 284.732 636.681 284.732H638.348V286.995H636.205C634.982 286.995 634.046 286.709 633.395 286.137C632.744 285.566 632.418 284.637 632.418 283.351V276.087H630.87V273.872H632.418V270.61H635.157V273.872H638.348V276.087H635.157ZM642.232 272.134C641.74 272.134 641.327 271.967 640.993 271.634C640.66 271.3 640.493 270.887 640.493 270.395C640.493 269.903 640.66 269.49 640.993 269.157C641.327 268.823 641.74 268.657 642.232 268.657C642.708 268.657 643.113 268.823 643.446 269.157C643.78 269.49 643.947 269.903 643.947 270.395C643.947 270.887 643.78 271.3 643.446 271.634C643.113 271.967 642.708 272.134 642.232 272.134ZM643.566 273.872V286.995H640.851V273.872H643.566ZM652.822 287.209C651.584 287.209 650.464 286.931 649.464 286.375C648.464 285.804 647.678 285.01 647.106 283.994C646.535 282.962 646.249 281.771 646.249 280.422C646.249 279.088 646.543 277.905 647.13 276.873C647.717 275.841 648.519 275.047 649.535 274.491C650.552 273.936 651.687 273.658 652.941 273.658C654.195 273.658 655.331 273.936 656.347 274.491C657.363 275.047 658.165 275.841 658.752 276.873C659.339 277.905 659.633 279.088 659.633 280.422C659.633 281.755 659.332 282.938 658.728 283.97C658.125 285.002 657.299 285.804 656.251 286.375C655.219 286.931 654.076 287.209 652.822 287.209ZM652.822 284.851C653.521 284.851 654.171 284.685 654.775 284.351C655.394 284.018 655.894 283.518 656.275 282.851C656.656 282.184 656.847 281.374 656.847 280.422C656.847 279.469 656.664 278.667 656.299 278.016C655.934 277.349 655.45 276.849 654.846 276.516C654.243 276.182 653.592 276.016 652.893 276.016C652.195 276.016 651.544 276.182 650.941 276.516C650.353 276.849 649.885 277.349 649.535 278.016C649.186 278.667 649.011 279.469 649.011 280.422C649.011 281.835 649.369 282.93 650.083 283.708C650.813 284.47 651.726 284.851 652.822 284.851ZM668.938 273.658C669.97 273.658 670.891 273.872 671.7 274.301C672.526 274.73 673.169 275.365 673.629 276.206C674.09 277.048 674.32 278.064 674.32 279.255V286.995H671.629V279.659C671.629 278.485 671.335 277.588 670.748 276.968C670.16 276.333 669.359 276.016 668.342 276.016C667.326 276.016 666.517 276.333 665.913 276.968C665.326 277.588 665.032 278.485 665.032 279.659V286.995H662.317V273.872H665.032V275.373C665.477 274.833 666.04 274.412 666.723 274.11C667.422 273.809 668.16 273.658 668.938 273.658ZM476.493 323.374C476.493 322.056 476.763 320.889 477.303 319.873C477.859 318.857 478.605 318.071 479.542 317.515C480.494 316.944 481.542 316.658 482.685 316.658C483.717 316.658 484.614 316.864 485.376 317.277C486.154 317.674 486.774 318.174 487.234 318.778V316.872H489.973V329.995H487.234V328.042C486.774 328.661 486.146 329.177 485.353 329.59C484.559 330.003 483.654 330.209 482.638 330.209C481.51 330.209 480.478 329.923 479.542 329.352C478.605 328.764 477.859 327.954 477.303 326.922C476.763 325.875 476.493 324.692 476.493 323.374ZM487.234 323.422C487.234 322.517 487.043 321.731 486.662 321.064C486.297 320.397 485.813 319.889 485.21 319.54C484.606 319.19 483.955 319.016 483.257 319.016C482.558 319.016 481.907 319.19 481.304 319.54C480.701 319.873 480.208 320.373 479.827 321.04C479.462 321.691 479.28 322.469 479.28 323.374C479.28 324.279 479.462 325.073 479.827 325.755C480.208 326.438 480.701 326.962 481.304 327.327C481.923 327.677 482.574 327.851 483.257 327.851C483.955 327.851 484.606 327.677 485.21 327.327C485.813 326.978 486.297 326.47 486.662 325.803C487.043 325.12 487.234 324.327 487.234 323.422ZM500.159 316.658C501.191 316.658 502.112 316.872 502.922 317.301C503.748 317.73 504.391 318.365 504.851 319.206C505.312 320.048 505.542 321.064 505.542 322.255V329.995H502.851V322.659C502.851 321.485 502.557 320.588 501.969 319.968C501.382 319.333 500.58 319.016 499.564 319.016C498.548 319.016 497.738 319.333 497.135 319.968C496.547 320.588 496.254 321.485 496.254 322.659V329.995H493.539V316.872H496.254V318.373C496.698 317.833 497.262 317.412 497.945 317.11C498.643 316.809 499.381 316.658 500.159 316.658ZM508.1 323.374C508.1 322.056 508.37 320.889 508.91 319.873C509.465 318.857 510.212 318.071 511.148 317.515C512.101 316.944 513.157 316.658 514.316 316.658C515.173 316.658 516.015 316.848 516.84 317.23C517.682 317.595 518.348 318.087 518.841 318.706V312.371H521.579V329.995H518.841V328.018C518.396 328.653 517.777 329.177 516.983 329.59C516.205 330.003 515.308 330.209 514.292 330.209C513.149 330.209 512.101 329.923 511.148 329.352C510.212 328.764 509.465 327.954 508.91 326.922C508.37 325.875 508.1 324.692 508.1 323.374ZM518.841 323.422C518.841 322.517 518.65 321.731 518.269 321.064C517.904 320.397 517.42 319.889 516.816 319.54C516.213 319.19 515.562 319.016 514.863 319.016C514.165 319.016 513.514 319.19 512.911 319.54C512.307 319.873 511.815 320.373 511.434 321.04C511.069 321.691 510.886 322.469 510.886 323.374C510.886 324.279 511.069 325.073 511.434 325.755C511.815 326.438 512.307 326.962 512.911 327.327C513.53 327.677 514.181 327.851 514.863 327.851C515.562 327.851 516.213 327.677 516.816 327.327C517.42 326.978 517.904 326.47 518.269 325.803C518.65 325.12 518.841 324.327 518.841 323.422ZM543.359 323.112C543.359 323.604 543.327 324.049 543.263 324.446H533.237C533.317 325.494 533.705 326.335 534.404 326.97C535.103 327.605 535.96 327.923 536.976 327.923C538.437 327.923 539.469 327.311 540.072 326.089H543.001C542.605 327.296 541.882 328.288 540.834 329.066C539.802 329.828 538.516 330.209 536.976 330.209C535.722 330.209 534.595 329.931 533.594 329.375C532.61 328.804 531.832 328.01 531.26 326.994C530.705 325.962 530.427 324.771 530.427 323.422C530.427 322.072 530.697 320.889 531.237 319.873C531.792 318.841 532.562 318.047 533.547 317.491C534.547 316.936 535.69 316.658 536.976 316.658C538.215 316.658 539.318 316.928 540.287 317.468C541.255 318.008 542.009 318.77 542.549 319.754C543.089 320.722 543.359 321.842 543.359 323.112ZM540.525 322.255C540.509 321.254 540.152 320.453 539.453 319.849C538.754 319.246 537.889 318.944 536.857 318.944C535.92 318.944 535.119 319.246 534.452 319.849C533.785 320.437 533.388 321.238 533.261 322.255H540.525ZM548.745 318.778C549.142 318.111 549.666 317.595 550.317 317.23C550.984 316.848 551.77 316.658 552.675 316.658V319.468H551.984C550.921 319.468 550.111 319.738 549.555 320.278C549.015 320.818 548.745 321.754 548.745 323.088V329.995H546.031V316.872H548.745V318.778ZM557.886 318.778C558.283 318.111 558.806 317.595 559.457 317.23C560.124 316.848 560.91 316.658 561.815 316.658V319.468H561.124C560.061 319.468 559.251 319.738 558.695 320.278C558.155 320.818 557.886 321.754 557.886 323.088V329.995H555.171V316.872H557.886V318.778ZM570.003 330.209C568.764 330.209 567.645 329.931 566.645 329.375C565.644 328.804 564.859 328.01 564.287 326.994C563.715 325.962 563.43 324.771 563.43 323.422C563.43 322.088 563.723 320.905 564.311 319.873C564.898 318.841 565.7 318.047 566.716 317.491C567.732 316.936 568.867 316.658 570.122 316.658C571.376 316.658 572.511 316.936 573.527 317.491C574.543 318.047 575.345 318.841 575.933 319.873C576.52 320.905 576.814 322.088 576.814 323.422C576.814 324.755 576.512 325.938 575.909 326.97C575.306 328.002 574.48 328.804 573.432 329.375C572.4 329.931 571.257 330.209 570.003 330.209ZM570.003 327.851C570.701 327.851 571.352 327.685 571.956 327.351C572.575 327.018 573.075 326.518 573.456 325.851C573.837 325.184 574.027 324.374 574.027 323.422C574.027 322.469 573.845 321.667 573.48 321.016C573.115 320.349 572.63 319.849 572.027 319.516C571.424 319.182 570.773 319.016 570.074 319.016C569.376 319.016 568.725 319.182 568.121 319.516C567.534 319.849 567.065 320.349 566.716 321.016C566.367 321.667 566.192 322.469 566.192 323.422C566.192 324.835 566.549 325.93 567.264 326.708C567.994 327.47 568.907 327.851 570.003 327.851ZM582.213 318.778C582.61 318.111 583.134 317.595 583.785 317.23C584.451 316.848 585.237 316.658 586.142 316.658V319.468H585.452C584.388 319.468 583.578 319.738 583.022 320.278C582.483 320.818 582.213 321.754 582.213 323.088V329.995H579.498V316.872H582.213V318.778ZM597.539 318.801C598 318.198 598.627 317.69 599.421 317.277C600.215 316.864 601.112 316.658 602.112 316.658C603.255 316.658 604.295 316.944 605.232 317.515C606.184 318.071 606.931 318.857 607.47 319.873C608.01 320.889 608.28 322.056 608.28 323.374C608.28 324.692 608.01 325.875 607.47 326.922C606.931 327.954 606.184 328.764 605.232 329.352C604.295 329.923 603.255 330.209 602.112 330.209C601.112 330.209 600.223 330.011 599.445 329.614C598.667 329.201 598.031 328.693 597.539 328.089V336.234H594.824V316.872H597.539V318.801ZM605.517 323.374C605.517 322.469 605.327 321.691 604.946 321.04C604.581 320.373 604.089 319.873 603.469 319.54C602.866 319.19 602.215 319.016 601.516 319.016C600.834 319.016 600.183 319.19 599.564 319.54C598.96 319.889 598.468 320.397 598.087 321.064C597.722 321.731 597.539 322.517 597.539 323.422C597.539 324.327 597.722 325.12 598.087 325.803C598.468 326.47 598.96 326.978 599.564 327.327C600.183 327.677 600.834 327.851 601.516 327.851C602.215 327.851 602.866 327.677 603.469 327.327C604.089 326.962 604.581 326.438 604.946 325.755C605.327 325.073 605.517 324.279 605.517 323.374ZM613.68 318.778C614.077 318.111 614.601 317.595 615.252 317.23C615.919 316.848 616.704 316.658 617.609 316.658V319.468H616.919C615.855 319.468 615.045 319.738 614.49 320.278C613.95 320.818 613.68 321.754 613.68 323.088V329.995H610.965V316.872H613.68V318.778ZM625.797 330.209C624.559 330.209 623.439 329.931 622.439 329.375C621.439 328.804 620.653 328.01 620.081 326.994C619.51 325.962 619.224 324.771 619.224 323.422C619.224 322.088 619.518 320.905 620.105 319.873C620.692 318.841 621.494 318.047 622.51 317.491C623.527 316.936 624.662 316.658 625.916 316.658C627.17 316.658 628.306 316.936 629.322 317.491C630.338 318.047 631.14 318.841 631.727 319.873C632.314 320.905 632.608 322.088 632.608 323.422C632.608 324.755 632.307 325.938 631.703 326.97C631.1 328.002 630.274 328.804 629.226 329.375C628.194 329.931 627.051 330.209 625.797 330.209ZM625.797 327.851C626.496 327.851 627.146 327.685 627.75 327.351C628.369 327.018 628.869 326.518 629.25 325.851C629.631 325.184 629.822 324.374 629.822 323.422C629.822 322.469 629.639 321.667 629.274 321.016C628.909 320.349 628.425 319.849 627.821 319.516C627.218 319.182 626.567 319.016 625.868 319.016C625.17 319.016 624.519 319.182 623.916 319.516C623.328 319.849 622.86 320.349 622.51 321.016C622.161 321.667 621.986 322.469 621.986 323.422C621.986 324.835 622.344 325.93 623.058 326.708C623.789 327.47 624.701 327.851 625.797 327.851ZM640.984 330.209C639.746 330.209 638.626 329.931 637.626 329.375C636.626 328.804 635.84 328.01 635.268 326.994C634.697 325.962 634.411 324.771 634.411 323.422C634.411 322.088 634.705 320.905 635.292 319.873C635.88 318.841 636.681 318.047 637.697 317.491C638.714 316.936 639.849 316.658 641.103 316.658C642.357 316.658 643.493 316.936 644.509 317.491C645.525 318.047 646.327 318.841 646.914 319.873C647.501 320.905 647.795 322.088 647.795 323.422C647.795 324.755 647.494 325.938 646.89 326.97C646.287 328.002 645.461 328.804 644.413 329.375C643.381 329.931 642.238 330.209 640.984 330.209ZM640.984 327.851C641.683 327.851 642.334 327.685 642.937 327.351C643.556 327.018 644.056 326.518 644.437 325.851C644.818 325.184 645.009 324.374 645.009 323.422C645.009 322.469 644.826 321.667 644.461 321.016C644.096 320.349 643.612 319.849 643.008 319.516C642.405 319.182 641.754 319.016 641.055 319.016C640.357 319.016 639.706 319.182 639.103 319.516C638.515 319.849 638.047 320.349 637.697 321.016C637.348 321.667 637.173 322.469 637.173 323.422C637.173 324.835 637.531 325.93 638.245 326.708C638.976 327.47 639.888 327.851 640.984 327.851ZM655.98 319.087H653.551V329.995H650.812V319.087H649.264V316.872H650.812V315.943C650.812 314.435 651.209 313.34 652.003 312.657C652.813 311.958 654.075 311.609 655.79 311.609V313.872C654.964 313.872 654.385 314.03 654.051 314.348C653.718 314.65 653.551 315.181 653.551 315.943V316.872H655.98V319.087ZM659.768 315.134C659.276 315.134 658.863 314.967 658.529 314.634C658.196 314.3 658.029 313.887 658.029 313.395C658.029 312.903 658.196 312.49 658.529 312.157C658.863 311.823 659.276 311.657 659.768 311.657C660.244 311.657 660.649 311.823 660.982 312.157C661.316 312.49 661.483 312.903 661.483 313.395C661.483 313.887 661.316 314.3 660.982 314.634C660.649 314.967 660.244 315.134 659.768 315.134ZM661.102 316.872V329.995H658.387V316.872H661.102ZM671.287 316.658C672.319 316.658 673.24 316.872 674.049 317.301C674.875 317.73 675.518 318.365 675.978 319.206C676.439 320.048 676.669 321.064 676.669 322.255V329.995H673.978V322.659C673.978 321.485 673.684 320.588 673.097 319.968C672.509 319.333 671.707 319.016 670.691 319.016C669.675 319.016 668.866 319.333 668.262 319.968C667.675 320.588 667.381 321.485 667.381 322.659V329.995H664.666V316.872H667.381V318.373C667.826 317.833 668.389 317.412 669.072 317.11C669.77 316.809 670.509 316.658 671.287 316.658ZM685.419 316.658C686.435 316.658 687.332 316.864 688.11 317.277C688.904 317.674 689.523 318.174 689.968 318.778V316.872H692.707V330.209C692.707 331.416 692.453 332.487 691.945 333.424C691.437 334.377 690.698 335.123 689.73 335.663C688.777 336.203 687.634 336.472 686.3 336.472C684.522 336.472 683.046 336.052 681.871 335.21C680.696 334.385 680.029 333.257 679.87 331.828H682.561C682.768 332.511 683.204 333.059 683.871 333.472C684.554 333.9 685.364 334.115 686.3 334.115C687.396 334.115 688.277 333.781 688.944 333.114C689.627 332.448 689.968 331.479 689.968 330.209V328.018C689.508 328.637 688.88 329.161 688.087 329.59C687.309 330.003 686.419 330.209 685.419 330.209C684.276 330.209 683.228 329.923 682.276 329.352C681.339 328.764 680.593 327.954 680.037 326.922C679.497 325.875 679.227 324.692 679.227 323.374C679.227 322.056 679.497 320.889 680.037 319.873C680.593 318.857 681.339 318.071 682.276 317.515C683.228 316.944 684.276 316.658 685.419 316.658ZM689.968 323.422C689.968 322.517 689.777 321.731 689.396 321.064C689.031 320.397 688.547 319.889 687.944 319.54C687.34 319.19 686.689 319.016 685.991 319.016C685.292 319.016 684.641 319.19 684.038 319.54C683.435 319.873 682.942 320.373 682.561 321.04C682.196 321.691 682.014 322.469 682.014 323.374C682.014 324.279 682.196 325.073 682.561 325.755C682.942 326.438 683.435 326.962 684.038 327.327C684.657 327.677 685.308 327.851 685.991 327.851C686.689 327.851 687.34 327.677 687.944 327.327C688.547 326.978 689.031 326.47 689.396 325.803C689.777 325.12 689.968 324.327 689.968 323.422Z" fill="black"/>
<defs>
<filter id="filter0_d_235_520" x="0.202802" y="0.739234" width="403.466" height="421.786" filterUnits="userSpaceOnUse" color-interpolation-filters="sRGB">
<feFlood flood-opacity="0" result="BackgroundImageFix"/>
<feColorMatrix in="SourceAlpha" type="matrix" values="0 0 0 0 0 0 0 0 0 0 0 0 0 0 0 0 0 0 127 0" result="hardAlpha"/>
<feOffset dx="-0.810453" dy="0.810453"/>
<feGaussianBlur stdDeviation="14.9934"/>
<feComposite in2="hardAlpha" operator="out"/>
<feColorMatrix type="matrix" values="0 0 0 0 0.8375 0 0 0 0 0.8375 0 0 0 0 0.8375 0 0 0 0.6 0"/>
<feBlend mode="normal" in2="BackgroundImageFix" result="effect1_dropShadow_235_520"/>
<feBlend mode="normal" in="SourceGraphic" in2="effect1_dropShadow_235_520" result="shape"/>
</filter>
<filter id="filter1_d_235_520" x="192.741" y="77.1323" width="32.363" height="74.3693" filterUnits="userSpaceOnUse" color-interpolation-filters="sRGB">
<feFlood flood-opacity="0" result="BackgroundImageFix"/>
<feColorMatrix in="SourceAlpha" type="matrix" values="0 0 0 0 0 0 0 0 0 0 0 0 0 0 0 0 0 0 127 0" result="hardAlpha"/>
<feOffset dy="3.66392"/>
<feGaussianBlur stdDeviation="1.83196"/>
<feComposite in2="hardAlpha" operator="out"/>
<feColorMatrix type="matrix" values="0 0 0 0 0 0 0 0 0 0 0 0 0 0 0 0 0 0 0.25 0"/>
<feBlend mode="normal" in2="BackgroundImageFix" result="effect1_dropShadow_235_520"/>
<feBlend mode="normal" in="SourceGraphic" in2="effect1_dropShadow_235_520" result="shape"/>
</filter>
<filter id="filter2_d_235_520" x="768.711" y="0.739722" width="403.466" height="421.786" filterUnits="userSpaceOnUse" color-interpolation-filters="sRGB">
<feFlood flood-opacity="0" result="BackgroundImageFix"/>
<feColorMatrix in="SourceAlpha" type="matrix" values="0 0 0 0 0 0 0 0 0 0 0 0 0 0 0 0 0 0 127 0" result="hardAlpha"/>
<feOffset dx="-0.810453" dy="0.810453"/>
<feGaussianBlur stdDeviation="14.9934"/>
<feComposite in2="hardAlpha" operator="out"/>
<feColorMatrix type="matrix" values="0 0 0 0 0.8375 0 0 0 0 0.8375 0 0 0 0 0.8375 0 0 0 0.6 0"/>
<feBlend mode="normal" in2="BackgroundImageFix" result="effect1_dropShadow_235_520"/>
<feBlend mode="normal" in="SourceGraphic" in2="effect1_dropShadow_235_520" result="shape"/>
</filter>
<filter id="filter3_d_235_520" x="911.894" y="131.7" width="34.7409" height="32.8903" filterUnits="userSpaceOnUse" color-interpolation-filters="sRGB">
<feFlood flood-opacity="0" result="BackgroundImageFix"/>
<feColorMatrix in="SourceAlpha" type="matrix" values="0 0 0 0 0 0 0 0 0 0 0 0 0 0 0 0 0 0 127 0" result="hardAlpha"/>
<feOffset dy="3.66392"/>
<feGaussianBlur stdDeviation="1.83196"/>
<feComposite in2="hardAlpha" operator="out"/>
<feColorMatrix type="matrix" values="0 0 0 0 0.520833 0 0 0 0 0.520833 0 0 0 0 0.520833 0 0 0 0.25 0"/>
<feBlend mode="normal" in2="BackgroundImageFix" result="effect1_dropShadow_235_520"/>
<feBlend mode="normal" in="SourceGraphic" in2="effect1_dropShadow_235_520" result="shape"/>
</filter>
<filter id="filter4_d_235_520" x="966.321" y="166.274" width="15.9524" height="15.9524" filterUnits="userSpaceOnUse" color-interpolation-filters="sRGB">
<feFlood flood-opacity="0" result="BackgroundImageFix"/>
<feColorMatrix in="SourceAlpha" type="matrix" values="0 0 0 0 0 0 0 0 0 0 0 0 0 0 0 0 0 0 127 0" result="hardAlpha"/>
<feOffset dy="3.66392"/>
<feGaussianBlur stdDeviation="1.83196"/>
<feComposite in2="hardAlpha" operator="out"/>
<feColorMatrix type="matrix" values="0 0 0 0 0 0 0 0 0 0 0 0 0 0 0 0 0 0 0.25 0"/>
<feBlend mode="normal" in2="BackgroundImageFix" result="effect1_dropShadow_235_520"/>
<feBlend mode="normal" in="SourceGraphic" in2="effect1_dropShadow_235_520" result="shape"/>
</filter>
<filter id="filter5_d_235_520" x="1010.4" y="166.274" width="15.9524" height="15.9524" filterUnits="userSpaceOnUse" color-interpolation-filters="sRGB">
<feFlood flood-opacity="0" result="BackgroundImageFix"/>
<feColorMatrix in="SourceAlpha" type="matrix" values="0 0 0 0 0 0 0 0 0 0 0 0 0 0 0 0 0 0 127 0" result="hardAlpha"/>
<feOffset dy="3.66392"/>
<feGaussianBlur stdDeviation="1.83196"/>
<feComposite in2="hardAlpha" operator="out"/>
<feColorMatrix type="matrix" values="0 0 0 0 0 0 0 0 0 0 0 0 0 0 0 0 0 0 0.25 0"/>
<feBlend mode="normal" in2="BackgroundImageFix" result="effect1_dropShadow_235_520"/>
<feBlend mode="normal" in="SourceGraphic" in2="effect1_dropShadow_235_520" result="shape"/>
</filter>
<filter id="filter6_d_235_520" x="383.998" y="0.739234" width="403.466" height="421.786" filterUnits="userSpaceOnUse" color-interpolation-filters="sRGB">
<feFlood flood-opacity="0" result="BackgroundImageFix"/>
<feColorMatrix in="SourceAlpha" type="matrix" values="0 0 0 0 0 0 0 0 0 0 0 0 0 0 0 0 0 0 127 0" result="hardAlpha"/>
<feOffset dx="-0.810453" dy="0.810453"/>
<feGaussianBlur stdDeviation="14.9934"/>
<feComposite in2="hardAlpha" operator="out"/>
<feColorMatrix type="matrix" values="0 0 0 0 0.8375 0 0 0 0 0.8375 0 0 0 0 0.8375 0 0 0 0.6 0"/>
<feBlend mode="normal" in2="BackgroundImageFix" result="effect1_dropShadow_235_520"/>
<feBlend mode="normal" in="SourceGraphic" in2="effect1_dropShadow_235_520" result="shape"/>
</filter>
<filter id="filter7_d_235_520" x="659.402" y="151.091" width="11.424" height="24.4035" filterUnits="userSpaceOnUse" color-interpolation-filters="sRGB">
<feFlood flood-opacity="0" result="BackgroundImageFix"/>
<feColorMatrix in="SourceAlpha" type="matrix" values="0 0 0 0 0 0 0 0 0 0 0 0 0 0 0 0 0 0 127 0" result="hardAlpha"/>
<feOffset dy="3.66392"/>
<feGaussianBlur stdDeviation="1.83196"/>
<feComposite in2="hardAlpha" operator="out"/>
<feColorMatrix type="matrix" values="0 0 0 0 0.8125 0 0 0 0 0.8125 0 0 0 0 0.8125 0 0 0 1 0"/>
<feBlend mode="normal" in2="BackgroundImageFix" result="effect1_dropShadow_235_520"/>
<feBlend mode="normal" in="SourceGraphic" in2="effect1_dropShadow_235_520" result="shape"/>
</filter>
</defs>
</svg>
