<svg width="385" height="315" viewBox="0 0 385 315" fill="none" xmlns="http://www.w3.org/2000/svg">
<path d="M57.6988 283.863C134.63 324.048 259.37 324.048 336.301 283.863C413.233 243.678 413.233 178.524 336.301 138.331C259.37 98.1376 134.666 98.1463 57.6988 138.331C-19.2681 178.516 -19.1977 243.678 57.6988 283.863Z" fill="#F5F5F5"/>
<path d="M36.2531 217.958L11.2454 203.525V149.893L36.2531 164.334V217.958Z" fill="#E0E0E0"/>
<path d="M36.2532 164.335L71.9835 143.711V197.334L36.2532 217.959V164.335Z" fill="#EBEBEB"/>
<path d="M71.9833 143.711L36.2531 164.336L11.2454 149.894L46.9756 129.27L71.9833 143.711Z" fill="#F5F5F5"/>
<path d="M39.8331 166.392L68.412 149.893L69.0717 150.271V170.139L40.484 186.639L39.8243 186.26L39.8331 166.392Z" fill="#E0E0E0"/>
<path d="M40.4845 166.78L69.0722 150.271V170.14L40.4845 186.639V166.78Z" fill="#F5F5F5"/>
<path d="M51.6903 163.675L56.5546 160.869C57.1791 160.5 57.6893 160.667 57.6893 161.239C57.644 161.589 57.5179 161.923 57.3209 162.217C57.124 162.51 56.8616 162.753 56.5546 162.927L51.6903 165.733C51.0569 166.102 50.5468 165.935 50.5468 165.363C50.5924 165.012 50.7195 164.677 50.9181 164.383C51.1167 164.09 51.3811 163.847 51.6903 163.675Z" fill="#E0E0E0"/>
<path d="M39.1733 191.529L67.7522 175.029V194.897L68.412 195.275L39.8243 211.775L39.1733 211.397V191.529Z" fill="#E0E0E0"/>
<path d="M39.8243 191.907L68.412 175.408V195.276L39.8243 211.775V191.907Z" fill="#F5F5F5"/>
<path d="M51.0309 188.812L55.9392 186.016C56.5725 185.646 57.0827 185.813 57.0827 186.385C57.0371 186.736 56.9099 187.072 56.7113 187.365C56.5128 187.658 56.2483 187.901 55.9392 188.074L51.0748 190.879C50.4415 191.249 49.9313 191.082 49.9313 190.51C49.9709 190.161 50.0907 189.826 50.2815 189.532C50.4723 189.237 50.7288 188.991 51.0309 188.812Z" fill="#E0E0E0"/>
<path d="M36.2531 161.238L11.2454 146.796V93.1726L36.2531 107.605V161.238Z" fill="#E0E0E0"/>
<path d="M36.2532 107.607L71.9835 86.9822V140.614L36.2532 161.239V107.607Z" fill="#EBEBEB"/>
<path d="M71.9833 86.9822L36.2531 107.607L11.2454 93.174L46.9756 72.5496L71.9833 86.9822Z" fill="#F5F5F5"/>
<path d="M39.8243 109.672L68.412 93.1726L69.0717 93.5508V113.419L40.484 129.918L39.8243 129.531V109.672Z" fill="#E0E0E0"/>
<path d="M51.6903 106.946L56.5458 104.14C57.1791 103.78 57.6893 103.947 57.6893 104.518C57.6423 104.869 57.5146 105.204 57.3162 105.497C57.1178 105.79 56.8541 106.033 56.5458 106.207L51.6903 109.013C51.0569 109.373 50.5468 109.215 50.5468 108.643C50.593 108.291 50.7204 107.955 50.9188 107.66C51.1173 107.366 51.3813 107.121 51.6903 106.946Z" fill="#E0E0E0"/>
<path d="M39.1733 134.811L67.7522 118.311V138.17L68.412 138.548L39.8243 155.048L39.1733 154.67V134.811Z" fill="#E0E0E0"/>
<path d="M39.8243 135.187L68.412 118.688V138.547L39.8243 155.046V135.187Z" fill="#F5F5F5"/>
<path d="M51.0306 132.084L55.9389 129.279C56.5634 128.918 57.0824 129.085 57.0824 129.657C57.0329 130.007 56.9041 130.341 56.706 130.633C56.5078 130.926 56.2454 131.17 55.9389 131.345L51.0306 134.125C50.3973 134.485 49.8871 134.318 49.8871 133.755C49.9372 133.408 50.0664 133.077 50.2646 132.787C50.4628 132.497 50.7249 132.257 51.0306 132.084Z" fill="#E0E0E0"/>
<path d="M39.8243 109.672L68.412 93.1726V113.032L39.8243 129.531V109.672Z" fill="#E0E0E0"/>
<path d="M82.7055 102.989L67.0571 93.9568V111.459L82.7055 120.483V102.989Z" fill="#E0E0E0"/>
<path d="M50.5468 132.363V107.605L56.6777 104.052L57.6893 105.547L75.5544 95.2307V117.922L50.5468 132.363Z" fill="#EBEBEB"/>
<path d="M50.5468 132.365L52.3324 110.703L77.34 96.27L75.5544 117.923L50.5468 132.365Z" fill="#F5F5F5"/>
<path d="M54.1186 119.488L40.4845 111.616V129.118L54.1186 136.981V119.488Z" fill="#EBEBEB"/>
<path d="M54.1183 117.923L82.706 101.423V121.282L54.1183 137.782V117.923Z" fill="#F5F5F5"/>
<path d="M65.3247 114.818L70.1802 112.012C70.8135 111.651 71.3237 111.819 71.3237 112.39C71.2761 112.741 71.1481 113.076 70.9498 113.369C70.7514 113.661 70.488 113.905 70.1802 114.079L65.3247 116.885C64.6913 117.245 64.1812 117.078 64.1812 116.515C64.2274 116.163 64.3548 115.826 64.5532 115.532C64.7517 115.237 65.0157 114.993 65.3247 114.818Z" fill="#E0E0E0"/>
<path d="M54.118 117.924L53.168 117.379V137.238L54.118 137.783V117.924Z" fill="#E0E0E0"/>
<path d="M53.168 117.378L81.7469 100.869L82.7057 101.423L54.118 117.923L53.168 117.378Z" fill="#EBEBEB"/>
<path d="M331.7 185.468L306.684 171.027V117.403L331.7 131.836V185.468Z" fill="#E0E0E0"/>
<path d="M331.7 131.837L367.431 111.213V164.845L331.7 185.47V131.837Z" fill="#EBEBEB"/>
<path d="M367.43 111.212L331.7 131.836L306.684 117.403L342.423 96.77L367.43 111.212Z" fill="#F5F5F5"/>
<path d="M335.271 133.903L363.859 117.403L364.519 117.782L364.51 137.641L335.931 154.14L335.271 153.762V133.903Z" fill="#E0E0E0"/>
<path d="M335.931 134.282L364.519 117.782L364.51 137.641L335.931 154.141V134.282Z" fill="#F5F5F5"/>
<path d="M347.138 131.177L351.993 128.371C352.627 128.011 353.137 128.178 353.137 128.741C353.091 129.093 352.963 129.429 352.765 129.724C352.566 130.018 352.302 130.263 351.993 130.438L347.138 133.244C346.505 133.604 345.994 133.437 345.994 132.874C346.041 132.522 346.168 132.186 346.366 131.891C346.565 131.597 346.829 131.352 347.138 131.177Z" fill="#E0E0E0"/>
<path d="M334.612 159.04L363.199 142.531V162.399L363.859 162.777L335.271 179.277L334.612 178.899V159.04Z" fill="#E0E0E0"/>
<path d="M335.271 159.418L363.859 142.918V162.777L335.271 179.277V159.418Z" fill="#F5F5F5"/>
<path d="M346.478 156.313L351.342 153.508C351.967 153.147 352.477 153.314 352.477 153.877C352.431 154.228 352.304 154.564 352.107 154.858C351.911 155.152 351.649 155.397 351.342 155.575L346.478 158.38C345.845 158.741 345.335 158.574 345.335 158.002C345.382 157.652 345.51 157.317 345.709 157.024C345.907 156.731 346.17 156.488 346.478 156.313Z" fill="#E0E0E0"/>
<path d="M93.7633 241.522C93.7633 241.522 93.8601 227.573 85.0639 217.116C77.2792 207.854 73.1362 201.979 75.5903 199.27C78.0445 196.561 83.3222 195.911 90.4383 203.404C97.5545 210.897 98.1087 231.654 97.1235 236.35L93.7633 241.522Z" fill="#5C99F0"/>
<path opacity="0.2" d="M93.7633 241.522C93.7633 241.522 93.8601 227.573 85.0639 217.116C77.2792 207.854 73.1362 201.979 75.5903 199.27C78.0445 196.561 83.3222 195.911 90.4383 203.404C97.5545 210.897 98.1087 231.654 97.1235 236.35L93.7633 241.522Z" fill="black"/>
<path d="M95.2411 226.527C95.1409 226.528 95.0436 226.494 94.9652 226.432C94.8869 226.369 94.8321 226.282 94.8101 226.184C91.7314 211.787 83.8324 203.827 79.3903 200.362C79.2984 200.291 79.2384 200.186 79.2236 200.07C79.2087 199.955 79.2402 199.838 79.3112 199.746C79.384 199.654 79.4904 199.594 79.6072 199.579C79.7241 199.564 79.842 199.596 79.9357 199.667C84.4657 203.185 92.5319 211.329 95.6721 226C95.685 226.056 95.6865 226.114 95.6766 226.17C95.6667 226.227 95.6456 226.281 95.6144 226.329C95.5833 226.378 95.5428 226.419 95.4953 226.452C95.4478 226.484 95.3942 226.507 95.3379 226.518L95.2411 226.527Z" fill="white"/>
<path d="M93.4291 246.702L89.8491 248.769C89.4672 247.726 88.8232 246.798 87.9789 246.076C87.1347 245.354 86.1187 244.861 85.0288 244.644C81.1144 243.765 77.0506 243.914 74.3062 240.52C71.5617 237.125 74.9043 233.431 74.3062 230.933C73.708 228.435 73.321 227.714 68.4127 225.216C63.5044 222.718 61.5692 218.576 65.2637 215.77C68.9581 212.965 74.9395 215.023 78.5635 217.529C81.7829 219.728 84.844 220.308 88.4417 220.757C92.0393 221.206 97.8976 223.202 97.0004 231.557C96.4129 236.729 95.2141 241.813 93.4291 246.702Z" fill="#5C99F0"/>
<path d="M79.6897 235.728C79.596 235.727 79.5048 235.697 79.4291 235.641C79.3534 235.586 79.2968 235.509 79.2674 235.42C79.2342 235.308 79.2458 235.187 79.3001 235.084C79.3543 234.98 79.4467 234.902 79.5577 234.866C79.8744 234.769 87.4743 232.359 90.7025 234.945C90.7827 235.02 90.8315 235.123 90.8393 235.233C90.8472 235.343 90.8135 235.452 90.7449 235.538C90.6764 235.624 90.5779 235.682 90.4691 235.699C90.3602 235.716 90.2489 235.692 90.1572 235.631C87.3072 233.344 79.9008 235.684 79.8216 235.71L79.6897 235.728Z" fill="white"/>
<path d="M93.8249 246.035C93.7178 246.035 93.6144 245.996 93.5347 245.924C93.455 245.853 93.4048 245.754 93.3939 245.648C91.4323 227.125 69.1163 218.339 68.8964 218.251C68.8419 218.231 68.792 218.199 68.7496 218.16C68.7072 218.12 68.6731 218.072 68.6494 218.018C68.6256 217.965 68.6127 217.908 68.6113 217.85C68.61 217.791 68.6202 217.734 68.6413 217.679C68.6846 217.573 68.7671 217.487 68.8719 217.439C68.9767 217.392 69.0957 217.387 69.2043 217.424C69.4418 217.521 92.2504 226.492 94.2647 245.568C94.2771 245.684 94.2433 245.799 94.1708 245.89C94.0983 245.981 93.993 246.039 93.8777 246.052L93.8249 246.035Z" fill="white"/>
<path d="M312.613 234.54C312.71 234.232 316.483 214.813 312.613 201.04C309.095 188.41 304.503 183.749 297.959 182.72C291.414 181.691 288.573 186.405 292.048 192.79C295.522 199.175 303.887 207.645 305.937 221.911C306.816 227.786 307.485 232.887 307.485 232.887L312.613 234.54Z" fill="#5C99F0"/>
<path opacity="0.2" d="M312.613 234.54C312.71 234.232 316.483 214.813 312.613 201.04C309.095 188.41 304.503 183.749 297.959 182.72C291.414 181.691 288.573 186.405 292.048 192.79C295.522 199.175 303.887 207.645 305.937 221.911C306.816 227.786 307.485 232.887 307.485 232.887L312.613 234.54Z" fill="black"/>
<path d="M310.405 223.387C310.347 223.384 310.291 223.369 310.239 223.344C310.187 223.319 310.14 223.284 310.102 223.24C310.063 223.197 310.034 223.146 310.015 223.092C309.996 223.037 309.988 222.979 309.992 222.921C310.871 207.196 305.734 193.159 296.525 186.272C296.432 186.202 296.37 186.098 296.353 185.983C296.337 185.867 296.367 185.75 296.437 185.657C296.508 185.565 296.612 185.505 296.727 185.489C296.842 185.472 296.958 185.501 297.053 185.569C306.491 192.605 311.786 206.958 310.863 222.974C310.856 223.089 310.804 223.197 310.719 223.274C310.633 223.352 310.52 223.392 310.405 223.387Z" fill="white"/>
<path d="M322.738 244.654C322.236 241.04 324.312 235.622 329.247 234.338C334.182 233.054 336.381 230.222 334.604 227.126C332.827 224.03 333.24 221.189 337.718 219.905C342.195 218.621 346.118 216.387 343.541 211.655C341.667 208.234 341.254 206.018 345.845 199.281C349.654 193.687 346.54 190.406 341.773 191.022C337.005 191.638 334.058 197.319 331.076 198.269C328.095 199.219 327.408 194.153 323.477 196.422C319.545 198.691 319.782 204.505 319.659 208.559C319.536 212.614 319.272 213.529 315.718 213.036C312.165 212.544 308.681 213.124 308.76 221.717C308.822 229.087 312.754 238.216 312.754 238.216L322.738 244.654Z" fill="#5C99F0"/>
<path d="M316.501 239.159H316.457C316.339 239.145 316.232 239.086 316.158 238.994C316.084 238.902 316.049 238.784 316.061 238.666C318.542 216.511 337.559 197.822 342.52 194.031C342.614 193.96 342.731 193.929 342.848 193.944C342.964 193.96 343.069 194.021 343.14 194.115C343.211 194.208 343.243 194.326 343.227 194.442C343.211 194.558 343.15 194.664 343.057 194.735C338.157 198.473 319.386 216.916 316.941 238.763C316.928 238.871 316.876 238.971 316.795 239.043C316.715 239.116 316.61 239.157 316.501 239.159Z" fill="white"/>
<path d="M325.175 215.473C325.085 215.472 324.999 215.445 324.925 215.395C324.851 215.345 324.794 215.274 324.761 215.192C324.723 215.081 324.73 214.959 324.779 214.853C324.828 214.747 324.916 214.663 325.025 214.62C332.115 211.981 340.154 213.23 340.498 213.283C340.611 213.302 340.713 213.366 340.781 213.46C340.848 213.554 340.876 213.67 340.858 213.784C340.837 213.898 340.773 213.999 340.68 214.067C340.587 214.136 340.472 214.167 340.357 214.154C340.278 214.154 332.203 212.887 325.333 215.447C325.282 215.464 325.228 215.473 325.175 215.473Z" fill="white"/>
<path d="M318.858 228.788C318.797 228.787 318.736 228.774 318.68 228.748C318.624 228.722 318.574 228.685 318.533 228.638C315.584 225.205 313.586 221.06 312.736 216.616C312.727 216.558 312.73 216.5 312.744 216.444C312.758 216.388 312.783 216.335 312.817 216.288C312.851 216.242 312.894 216.202 312.944 216.172C312.993 216.143 313.048 216.123 313.106 216.114C313.163 216.105 313.221 216.108 313.277 216.122C313.333 216.136 313.386 216.161 313.433 216.195C313.479 216.229 313.519 216.272 313.549 216.322C313.579 216.371 313.598 216.426 313.607 216.484C314.448 220.753 316.371 224.736 319.193 228.049C319.248 228.114 319.283 228.193 319.295 228.277C319.307 228.361 319.294 228.447 319.259 228.524C319.224 228.602 319.168 228.668 319.097 228.714C319.026 228.761 318.943 228.786 318.858 228.788Z" fill="white"/>
<path d="M93.429 110.579V246.709L232.779 166.269L232.77 42.5142L129.159 102.329L125.579 92.0128L93.429 110.579Z" fill="#5C99F0"/>
<path opacity="0.7" d="M93.429 110.579V246.709L232.779 166.269L232.77 42.5142L129.159 102.329L125.579 92.0128L93.429 110.579Z" fill="black"/>
<path d="M93.429 246.709L100.571 122.954L239.921 42.5142L232.779 166.269L93.429 246.709Z" fill="#E0E0E0"/>
<path d="M93.429 246.709L104.143 125.021L243.492 44.5723L232.779 166.27L93.429 246.709Z" fill="#5C99F0"/>
<path opacity="0.7" d="M93.429 246.709L104.143 125.021L243.492 44.5723L232.779 166.27L93.429 246.709Z" fill="black"/>
<path d="M114.865 122.956V259.094L254.214 178.646V54.8906L150.595 114.706L147.024 104.389L114.865 122.956Z" fill="#5C99F0"/>
<path opacity="0.5" d="M114.865 122.956V259.094L254.214 178.646V54.8906L150.595 114.706L147.024 104.389L114.865 122.956Z" fill="black"/>
<path d="M114.865 259.094L122.007 135.33L261.357 54.8906L254.214 178.646L114.865 259.094Z" fill="#E0E0E0"/>
<path d="M114.865 259.094L125.579 137.397L264.928 56.9487L254.214 178.646L114.865 259.094Z" fill="#5C99F0"/>
<path opacity="0.5" d="M114.865 259.094L125.579 137.397L264.928 56.9487L254.214 178.646L114.865 259.094Z" fill="black"/>
<path d="M232.744 302.41C207.727 287.969 184.523 272.27 173.932 253.853L206.126 235.269L232.744 302.41Z" fill="#E0E0E0"/>
<path d="M139.873 137.397V273.527L279.223 193.087V69.3315L175.603 129.147L172.032 118.83L139.873 137.397Z" fill="#5C99F0"/>
<path opacity="0.2" d="M139.873 137.397V273.527L279.223 193.087V69.3315L175.603 129.147L172.032 118.83L139.873 137.397Z" fill="black"/>
<path d="M180.019 177.644C179.667 177.644 179.614 177.239 179.614 177.002V60.9067C179.643 60.4564 179.775 60.0187 180.001 59.628C180.227 59.2374 180.54 58.9044 180.916 58.6552L281.492 0.607765C281.63 0.521868 281.787 0.47336 281.95 0.467041C282.301 0.467041 282.354 0.871617 282.354 1.10908V117.204C282.327 117.656 282.195 118.095 281.969 118.487C281.743 118.879 281.429 119.214 281.052 119.464L180.476 177.512C180.338 177.593 180.18 177.639 180.019 177.644Z" fill="white"/>
<path d="M281.897 0.87085C281.904 0.935151 281.904 1.00004 281.897 1.06434V117.159C281.868 117.534 281.756 117.897 281.568 118.222C281.381 118.548 281.124 118.828 280.815 119.041L180.239 177.089L180.063 177.168C180.051 177.104 180.051 177.038 180.063 176.974V60.8796C180.093 60.5067 180.206 60.1451 180.393 59.8211C180.58 59.4971 180.837 59.2188 181.145 59.0062L281.721 0.958799C281.776 0.920002 281.839 0.893059 281.905 0.879647L281.897 0.87085ZM281.958 0.000140505C281.719 0.00727082 281.485 0.0770167 281.281 0.20243L180.705 58.2498C180.263 58.5402 179.895 58.9302 179.631 59.3884C179.366 59.8466 179.213 60.3603 179.183 60.8884V176.983C179.183 177.669 179.526 178.065 180.063 178.065C180.303 178.059 180.536 177.989 180.74 177.863L281.316 119.815C281.76 119.527 282.13 119.137 282.394 118.679C282.659 118.22 282.811 117.705 282.838 117.177V1.08194C282.838 0.395921 282.495 -0.00865456 281.958 0.000140505Z" fill="#5C99F0"/>
<path opacity="0.7" d="M281.897 0.87085C281.904 0.935151 281.904 1.00004 281.897 1.06434V117.159C281.868 117.534 281.756 117.897 281.568 118.222C281.381 118.548 281.124 118.828 280.815 119.041L180.239 177.089L180.063 177.168C180.051 177.104 180.051 177.038 180.063 176.974V60.8796C180.093 60.5067 180.206 60.1451 180.393 59.8211C180.58 59.4971 180.837 59.2188 181.145 59.0062L281.721 0.958799C281.776 0.920002 281.839 0.893059 281.905 0.879647L281.897 0.87085ZM281.958 0.000140505C281.719 0.00727082 281.485 0.0770167 281.281 0.20243L180.705 58.2498C180.263 58.5402 179.895 58.9302 179.631 59.3884C179.366 59.8466 179.213 60.3603 179.183 60.8884V176.983C179.183 177.669 179.526 178.065 180.063 178.065C180.303 178.059 180.536 177.989 180.74 177.863L281.316 119.815C281.76 119.527 282.13 119.137 282.394 118.679C282.659 118.22 282.811 117.705 282.838 117.177V1.08194C282.838 0.395921 282.495 -0.00865456 281.958 0.000140505Z" fill="white"/>
<path d="M189.897 65.3114L225.627 44.687V85.9359L189.897 106.56V65.3114Z" fill="#5C99F0"/>
<path opacity="0.8" d="M189.897 65.3114L225.627 44.687V85.9359L189.897 106.56V65.3114Z" fill="white"/>
<path d="M220.27 54.9709V67.372L219.145 67.9964V64.2058C219.145 62.1125 217.447 61.4001 215.336 62.6139L200.197 71.3649C198.095 72.5787 196.389 75.2612 196.389 77.3544V81.1451L195.272 81.8135V69.4388L220.27 54.9709Z" fill="white"/>
<path d="M213.392 86.5445C211.562 87.5999 210.075 86.4918 210.075 84.0555V64.2051L205.475 66.7029V86.7116C205.475 89.1391 203.989 91.9887 202.159 93.0177L198.834 94.935V96.2543L216.699 85.9377V84.6272L213.392 86.5445Z" fill="white"/>
<path d="M232.744 42.6544C232.744 43.7978 233.773 44.1232 235.031 43.402L269.793 23.3053C270.41 22.9557 270.938 22.4681 271.334 21.8806C271.731 21.2932 271.986 20.6218 272.08 19.9192C272.08 18.7846 271.051 18.4504 269.793 19.1804L235.057 39.2331C234.43 39.582 233.894 40.0735 233.492 40.6678C233.09 41.2622 232.834 41.9427 232.744 42.6544Z" fill="#455A64"/>
<path d="M232.744 54.9686C232.744 56.112 233.773 56.4462 235.031 55.7162L269.767 35.6634C270.384 35.3139 270.911 34.8263 271.308 34.2388C271.705 33.6513 271.96 32.98 272.054 32.2773C272.054 31.1428 271.025 30.8086 269.767 31.5386L235.031 51.5913C234.415 51.94 233.888 52.4262 233.492 53.0121C233.095 53.5979 232.839 54.2675 232.744 54.9686Z" fill="#455A64"/>
<path d="M232.744 67.3698C232.744 68.5132 233.773 68.8474 235.031 68.1174L269.767 48.0646C270.383 47.716 270.909 47.2297 271.306 46.6439C271.703 46.058 271.959 45.3884 272.054 44.6873C272.054 43.544 271.025 43.2098 269.767 43.9398L235.031 63.9925C234.415 64.3412 233.888 64.8274 233.492 65.4133C233.095 65.9991 232.839 66.6687 232.744 67.3698Z" fill="#455A64"/>
<path d="M232.744 79.7465C232.744 80.8899 233.773 81.2241 235.031 80.4941L269.767 60.4414C270.383 60.0927 270.909 59.6064 271.306 59.0206C271.703 58.4347 271.959 57.7651 272.054 57.0641C272.054 55.9207 271.025 55.5865 269.767 56.3165L235.031 76.3692C234.415 76.7179 233.888 77.2041 233.492 77.79C233.095 78.3758 232.839 79.0454 232.744 79.7465Z" fill="#455A64"/>
<path d="M189.897 116.878C189.897 118.022 190.917 118.356 192.184 117.626L269.793 72.771C270.41 72.4233 270.937 71.9374 271.334 71.3513C271.731 70.7653 271.986 70.0951 272.08 69.3936C272.08 68.2503 271.051 67.9249 269.793 68.6461L192.184 113.501C191.567 113.848 191.039 114.334 190.642 114.92C190.245 115.506 189.99 116.176 189.897 116.878Z" fill="#455A64"/>
<path d="M189.897 129.254C189.897 130.397 190.917 130.731 192.184 130.001L269.793 85.1993C270.41 84.8498 270.937 84.3622 271.334 83.7747C271.731 83.1872 271.986 82.5159 272.08 81.8132C272.08 80.6787 271.051 80.3444 269.793 81.0744L192.184 125.876C191.567 126.224 191.039 126.709 190.642 127.296C190.245 127.882 189.99 128.552 189.897 129.254Z" fill="#455A64"/>
<path d="M189.897 141.635C189.897 142.77 190.917 143.104 192.184 142.374L269.793 97.5719C270.41 97.2223 270.937 96.7347 271.334 96.1473C271.731 95.5598 271.986 94.8884 272.08 94.1858C272.08 93.0512 271.051 92.717 269.793 93.447L192.184 138.249C191.566 138.597 191.037 139.084 190.64 139.672C190.243 140.26 189.989 140.932 189.897 141.635Z" fill="#455A64"/>
<path d="M139.873 273.526L164.881 164.213L304.23 83.7642L279.223 193.087L139.873 273.526Z" fill="#5C99F0"/>
<path d="M173.967 172.771V253.852L206.126 235.286V154.213L173.967 172.771Z" fill="#5C99F0"/>
<path opacity="0.2" d="M173.967 172.771V253.852L206.126 235.286V154.213L173.967 172.771Z" fill="black"/>
<path d="M232.805 301.883C230.07 299.843 203.699 279.693 190.293 250.872C176.026 220.23 176.043 184.487 176.043 171.039V170.617L271.641 115.437C271.641 129.007 271.641 164.803 285.97 195.551C299.067 223.695 324.427 243.589 328.447 246.632L232.805 301.883Z" fill="white"/>
<path d="M271.201 116.227C271.201 130.369 271.473 165.479 285.574 195.769C298.231 222.946 322.298 242.489 327.655 246.613L232.832 301.354C229.128 298.566 203.751 278.751 190.698 250.721C176.448 220.167 176.448 184.494 176.448 171.064V170.897L271.165 116.218L271.201 116.227ZM272.045 114.696L175.568 170.395C175.568 183.052 175.304 219.824 189.862 251.09C204.191 281.776 232.744 302.409 232.744 302.409L329.247 246.701C329.247 246.701 300.659 226.068 286.374 195.382C271.808 164.116 272.08 127.344 272.08 114.688L272.045 114.696Z" fill="#5C99F0"/>
<path opacity="0.7" d="M271.201 116.227C271.201 130.369 271.473 165.479 285.574 195.769C298.231 222.946 322.298 242.489 327.655 246.613L232.832 301.354C229.128 298.566 203.751 278.751 190.698 250.721C176.448 220.167 176.448 184.494 176.448 171.064V170.897L271.165 116.218L271.201 116.227ZM272.045 114.696L175.568 170.395C175.568 183.052 175.304 219.824 189.862 251.09C204.191 281.776 232.744 302.409 232.744 302.409L329.247 246.701C329.247 246.701 300.659 226.068 286.374 195.382C271.808 164.116 272.08 127.344 272.08 114.688L272.045 114.696Z" fill="white"/>
<path d="M261.164 133.378L230.659 150.968C230.048 151.304 229.528 151.783 229.142 152.363C228.756 152.943 228.516 153.608 228.442 154.301C228.486 155.418 229.551 155.735 230.809 155.005L261.323 137.415C261.926 137.082 262.441 136.61 262.825 136.038C263.209 135.466 263.451 134.81 263.531 134.126C263.478 132.965 262.431 132.648 261.164 133.378Z" fill="#455A64"/>
<path d="M261.815 145.382L231.31 162.972C230.707 163.297 230.195 163.768 229.823 164.343C229.451 164.918 229.23 165.578 229.181 166.262C229.278 167.343 230.386 167.634 231.644 166.904L262.158 149.313C262.759 148.99 263.267 148.52 263.635 147.946C264.003 147.372 264.218 146.713 264.261 146.033C264.173 144.942 263.082 144.678 261.815 145.382Z" fill="#455A64"/>
<path d="M263.037 157.053L232.523 174.643C231.266 175.373 230.351 176.824 230.5 177.871C230.65 178.918 231.802 179.19 233.069 178.46L263.583 160.87C264.841 160.14 265.738 158.698 265.58 157.651C265.421 156.605 264.295 156.323 263.037 157.053Z" fill="#455A64"/>
<path d="M264.867 168.374L234.353 185.964C233.095 186.694 232.225 188.119 232.436 189.139C232.647 190.159 233.843 190.388 235.074 189.658L265.58 172.068C266.846 171.338 267.691 169.922 267.48 168.902C267.269 167.881 266.169 167.644 264.867 168.374Z" fill="#455A64"/>
<path d="M267.348 179.315L236.834 196.905C235.576 197.635 234.758 199.025 235.075 200.001C235.391 200.977 236.596 201.197 237.854 200.467L268.368 182.877C269.635 182.147 270.427 180.766 270.127 179.781C269.828 178.796 268.606 178.585 267.348 179.315Z" fill="#455A64"/>
<path d="M270.567 189.86L196.204 232.789C194.946 233.519 194.181 234.873 194.524 235.814C194.867 236.756 196.178 236.931 197.436 236.201L271.799 193.273C273.066 192.543 273.796 191.197 273.453 190.247C273.11 189.297 271.781 189.13 270.567 189.86Z" fill="#455A64"/>
<path d="M274.481 199.93L200.127 242.859C198.86 243.589 198.165 244.908 198.588 245.805C199.01 246.702 200.347 246.843 201.631 246.113L275.994 203.184C277.261 202.454 277.938 201.135 277.516 200.238C277.094 199.341 275.748 199.209 274.481 199.93Z" fill="#455A64"/>
<path d="M279.363 209.526L205 252.454C203.734 253.184 203.109 254.468 203.61 255.322C204.112 256.175 205.546 256.263 206.812 255.533L281.123 212.604C282.381 211.883 282.987 210.608 282.486 209.754C281.985 208.901 280.595 208.796 279.363 209.526Z" fill="#455A64"/>
<path d="M285.055 218.6L210.7 261.52C209.434 262.25 208.871 263.508 209.442 264.308C210.014 265.108 211.518 265.188 212.785 264.449L287.139 221.52C288.406 220.79 288.951 219.55 288.38 218.741C287.808 217.932 286.321 217.87 285.055 218.6Z" fill="#455A64"/>
<path d="M291.546 227.23L217.183 270.15C215.925 270.88 215.424 272.102 216.057 272.867C216.69 273.633 218.247 273.668 219.514 272.938L293.877 229.991C295.135 229.261 295.636 228.057 294.986 227.291C294.335 226.526 292.813 226.473 291.546 227.23Z" fill="#455A64"/>
<path d="M298.715 235.445L224.378 278.365C223.111 279.095 222.619 280.291 223.358 281.004C224.097 281.716 225.662 281.734 226.92 281.004L301.283 238.075C302.55 237.345 302.99 236.166 302.286 235.436C301.582 234.706 299.999 234.724 298.715 235.445Z" fill="#455A64"/>
<path d="M306.632 243.298L232.268 286.217C231.011 286.947 230.597 288.117 231.389 288.812C232.18 289.507 233.799 289.48 235.066 288.75L309.367 245.822C310.625 245.092 311.021 243.948 310.247 243.245C309.473 242.541 307.863 242.568 306.632 243.298Z" fill="#455A64"/>
<path d="M219.602 157.38L184.523 177.609C184.91 190.318 186.361 208.647 191.674 227.108L226.762 206.879C221.441 188.418 219.989 170.08 219.602 157.38Z" fill="#5C99F0"/>
<path opacity="0.8" d="M219.602 157.38L184.523 177.609C184.91 190.318 186.361 208.647 191.674 227.108L226.762 206.879C221.441 188.418 219.989 170.08 219.602 157.38Z" fill="white"/>
<path d="M198.826 174.81C198.873 173.99 198.745 173.169 198.451 172.402C198.157 171.634 197.703 170.939 197.119 170.36L184.523 177.625C184.628 180.985 184.804 184.74 185.112 188.786C186.751 188.974 188.408 188.668 189.871 187.906C194.823 185.637 198.826 179.753 198.826 174.81Z" fill="#5C99F0"/>
<path opacity="0.6" d="M198.826 174.81C198.873 173.99 198.745 173.169 198.451 172.402C198.157 171.634 197.703 170.939 197.119 170.36L184.523 177.625C184.628 180.985 184.804 184.74 185.112 188.786C186.751 188.974 188.408 188.668 189.871 187.906C194.823 185.637 198.826 179.753 198.826 174.81Z" fill="white"/>
<path d="M223.78 194.74C221.44 191.794 216.682 182.691 214.65 178.725C214.57 178.568 214.445 178.439 214.291 178.354C214.137 178.269 213.961 178.232 213.785 178.248C213.61 178.264 213.444 178.332 213.308 178.444C213.172 178.555 213.072 178.705 213.022 178.874C210.824 186.387 209.548 194.14 209.222 201.961C206.293 199.636 203.774 196.835 201.772 193.676C201.687 193.554 201.568 193.458 201.43 193.401C201.292 193.344 201.141 193.327 200.994 193.353C200.847 193.379 200.711 193.446 200.601 193.547C200.491 193.648 200.412 193.778 200.373 193.922C196.538 208.689 198.465 223.219 198.465 223.219L226.762 206.878C225.583 202.797 224.607 198.733 223.78 194.74Z" fill="#5C99F0"/>
<path opacity="0.6" d="M223.78 194.74C221.44 191.794 216.682 182.691 214.65 178.725C214.57 178.568 214.445 178.439 214.291 178.354C214.137 178.269 213.961 178.232 213.785 178.248C213.61 178.264 213.444 178.332 213.308 178.444C213.172 178.555 213.072 178.705 213.022 178.874C210.824 186.387 209.548 194.14 209.222 201.961C206.293 199.636 203.774 196.835 201.772 193.676C201.687 193.554 201.568 193.458 201.43 193.401C201.292 193.344 201.141 193.327 200.994 193.353C200.847 193.379 200.711 193.446 200.601 193.547C200.491 193.648 200.412 193.778 200.373 193.922C196.538 208.689 198.465 223.219 198.465 223.219L226.762 206.878C225.583 202.797 224.607 198.733 223.78 194.74Z" fill="white"/>
</svg>
