<svg width="150" height="108" viewBox="0 0 150 108" fill="none" xmlns="http://www.w3.org/2000/svg">
<rect width="3" height="3" rx="1.5" fill="white"/>
<rect y="42" width="3" height="3" rx="1.5" fill="white"/>
<rect y="84" width="3" height="3" rx="1.5" fill="white"/>
<rect y="21" width="3" height="3" rx="1.5" fill="white"/>
<rect y="63" width="3" height="3" rx="1.5" fill="white"/>
<rect y="105" width="3" height="3" rx="1.5" fill="white"/>
<rect x="21" width="3" height="3" rx="1.5" fill="white"/>
<rect x="105" width="3" height="3" rx="1.5" fill="white"/>
<rect x="21" y="42" width="3" height="3" rx="1.5" fill="white"/>
<rect x="105" y="42" width="3" height="3" rx="1.5" fill="white"/>
<rect x="21" y="84" width="3" height="3" rx="1.5" fill="white"/>
<rect x="105" y="84" width="3" height="3" rx="1.5" fill="white"/>
<rect x="21" y="21" width="3" height="3" rx="1.5" fill="white"/>
<rect x="105" y="21" width="3" height="3" rx="1.5" fill="white"/>
<rect x="21" y="63" width="3" height="3" rx="1.5" fill="white"/>
<rect x="105" y="63" width="3" height="3" rx="1.5" fill="white"/>
<rect x="21" y="105" width="3" height="3" rx="1.5" fill="white"/>
<rect x="105" y="105" width="3" height="3" rx="1.5" fill="white"/>
<rect x="42" width="3" height="3" rx="1.5" fill="white"/>
<rect x="126" width="3" height="3" rx="1.5" fill="white"/>
<rect x="42" y="42" width="3" height="3" rx="1.5" fill="white"/>
<rect x="126" y="42" width="3" height="3" rx="1.5" fill="white"/>
<rect x="42" y="84" width="3" height="3" rx="1.5" fill="white"/>
<rect x="126" y="84" width="3" height="3" rx="1.5" fill="white"/>
<rect x="42" y="21" width="3" height="3" rx="1.5" fill="white"/>
<rect x="126" y="21" width="3" height="3" rx="1.5" fill="white"/>
<rect x="42" y="63" width="3" height="3" rx="1.5" fill="white"/>
<rect x="126" y="63" width="3" height="3" rx="1.5" fill="white"/>
<rect x="42" y="105" width="3" height="3" rx="1.5" fill="white"/>
<rect x="126" y="105" width="3" height="3" rx="1.5" fill="white"/>
<rect x="63" width="3" height="3" rx="1.5" fill="white"/>
<rect x="147" width="3" height="3" rx="1.5" fill="white"/>
<rect x="63" y="42" width="3" height="3" rx="1.5" fill="white"/>
<rect x="147" y="42" width="3" height="3" rx="1.5" fill="white"/>
<rect x="63" y="84" width="3" height="3" rx="1.5" fill="white"/>
<rect x="147" y="84" width="3" height="3" rx="1.5" fill="white"/>
<rect x="63" y="21" width="3" height="3" rx="1.5" fill="white"/>
<rect x="147" y="21" width="3" height="3" rx="1.5" fill="white"/>
<rect x="63" y="63" width="3" height="3" rx="1.5" fill="white"/>
<rect x="147" y="63" width="3" height="3" rx="1.5" fill="white"/>
<rect x="63" y="105" width="3" height="3" rx="1.5" fill="white"/>
<rect x="147" y="105" width="3" height="3" rx="1.5" fill="white"/>
<rect x="84" width="3" height="3" rx="1.5" fill="white"/>
<rect x="84" y="42" width="3" height="3" rx="1.5" fill="white"/>
<rect x="84" y="84" width="3" height="3" rx="1.5" fill="white"/>
<rect x="84" y="21" width="3" height="3" rx="1.5" fill="white"/>
<rect x="84" y="63" width="3" height="3" rx="1.5" fill="white"/>
<rect x="84" y="105" width="3" height="3" rx="1.5" fill="white"/>
</svg>
