<svg width="110" height="108" viewBox="0 0 110 108" fill="none" xmlns="http://www.w3.org/2000/svg">
<path d="M65.5684 18H36.8084C25.5632 18 18.08 25.7548 18.1989 37.2891L18.4733 63.9094C18.5919 75.4112 26.2351 83.166 37.4803 83.166H66.2402C77.4855 83.166 84.9355 75.4112 84.8169 63.9094L84.5425 37.2891C84.4235 25.7548 76.8136 18 65.5684 18Z" fill="url(#paint0_linear_176_2209)"/>
<g opacity="0.5" filter="url(#filter0_f_176_2209)">
<rect x="32.8413" y="75.6587" width="43.6506" height="45.4523" rx="13" transform="rotate(-105 32.8413 75.6587)" fill="#468DF4"/>
</g>
<g filter="url(#filter1_b_176_2209)">
<path d="M87.4019 32.5732H54.5845C41.7527 32.5732 33.1226 41.3981 33.1226 54.5241V84.8178C33.1226 97.9068 41.7527 106.732 54.5845 106.732H87.4019C100.234 106.732 108.826 97.9068 108.826 84.8178V54.5241C108.826 41.3981 100.234 32.5732 87.4019 32.5732Z" fill="#6CB8FF" fill-opacity="0.2"/>
<path d="M87.4019 32.0732H54.5845C48.0504 32.0732 42.5506 34.3226 38.6841 38.2769C34.8186 42.2302 32.6226 47.8497 32.6226 54.5241V84.8178C32.6226 91.474 34.8188 97.0843 38.6843 101.033C42.5507 104.982 48.0505 107.232 54.5845 107.232H87.4019C93.9359 107.232 99.4265 104.982 103.284 101.032C107.139 97.0836 109.326 91.4734 109.326 84.8178V54.5241C109.326 47.8504 107.14 42.2309 103.284 38.2773C99.4266 34.3226 93.936 32.0732 87.4019 32.0732Z" stroke="url(#paint1_linear_176_2209)" stroke-linecap="round" stroke-linejoin="round"/>
</g>
<g filter="url(#filter2_bd_176_2209)">
<mask id="path-5-inside-1_176_2209" fill="white">
<path fill-rule="evenodd" clip-rule="evenodd" d="M83.0454 83.4073C83.5034 83.6705 84.003 83.7966 84.4989 83.7966C85.4641 83.7966 86.4066 83.3109 86.9403 82.4395C87.2068 82.0012 87.3359 81.5204 87.3404 81.0447C87.3406 81.0246 87.3405 81.0045 87.3403 80.9844C87.3287 80.0482 86.8352 79.1396 85.9562 78.6229L72.481 70.751L72.481 53.6179C72.481 52.0828 71.2092 50.8369 69.6421 50.8369C68.075 50.8369 66.8032 52.0828 66.8032 53.6179V72.3305V72.3317C66.8032 73.3106 67.3294 74.219 68.1848 74.7233L83.0454 83.4073Z"/>
</mask>
<path fill-rule="evenodd" clip-rule="evenodd" d="M83.0454 83.4073C83.5034 83.6705 84.003 83.7966 84.4989 83.7966C85.4641 83.7966 86.4066 83.3109 86.9403 82.4395C87.2068 82.0012 87.3359 81.5204 87.3404 81.0447C87.3406 81.0246 87.3405 81.0045 87.3403 80.9844C87.3287 80.0482 86.8352 79.1396 85.9562 78.6229L72.481 70.751L72.481 53.6179C72.481 52.0828 71.2092 50.8369 69.6421 50.8369C68.075 50.8369 66.8032 52.0828 66.8032 53.6179V72.3305V72.3317C66.8032 73.3106 67.3294 74.219 68.1848 74.7233L83.0454 83.4073Z" fill="url(#paint2_linear_176_2209)"/>
<path d="M83.0454 83.4073L82.8436 83.7526L82.846 83.7541L83.0454 83.4073ZM86.9403 82.4395L87.2814 82.6484L87.2821 82.6473L86.9403 82.4395ZM87.3404 81.0447L87.7404 81.0485V81.0485L87.3404 81.0447ZM87.3403 80.9844L86.9403 80.9893L86.9403 80.9895L87.3403 80.9844ZM85.9562 78.6229L86.1589 78.278L86.1579 78.2775L85.9562 78.6229ZM72.481 70.751H72.081V70.9806L72.2792 71.0964L72.481 70.751ZM72.481 53.6179H72.881H72.481ZM68.1848 74.7233L67.9817 75.0679L67.983 75.0687L68.1848 74.7233ZM84.4989 83.3966C84.0714 83.3966 83.6407 83.2881 83.2447 83.0605L82.846 83.7541C83.366 84.053 83.9346 84.1966 84.4989 84.1966V83.3966ZM86.5992 82.2306C86.142 82.9771 85.3323 83.3966 84.4989 83.3966V84.1966C85.5959 84.1966 86.6712 83.6447 87.2814 82.6484L86.5992 82.2306ZM86.9404 81.041C86.9366 81.4462 86.8267 81.8563 86.5985 82.2317L87.2821 82.6473C87.5868 82.1462 87.7352 81.5946 87.7404 81.0485L86.9404 81.041ZM86.9403 80.9895C86.9405 81.0066 86.9405 81.0238 86.9404 81.041L87.7404 81.0485C87.7406 81.0254 87.7405 81.0023 87.7402 80.9792L86.9403 80.9895ZM87.7402 80.9794C87.727 79.9061 87.1611 78.8671 86.1589 78.278L85.7535 78.9677C86.5093 79.412 86.9304 80.1903 86.9403 80.9893L87.7402 80.9794ZM86.1579 78.2775L72.6827 70.4056L72.2792 71.0964L85.7544 78.9683L86.1579 78.2775ZM72.081 53.6179L72.081 70.751H72.881L72.881 53.6179H72.081ZM69.6421 51.2369C70.9961 51.2369 72.081 52.3114 72.081 53.6179H72.881C72.881 51.8541 71.4223 50.4369 69.6421 50.4369V51.2369ZM67.2032 53.6179C67.2032 52.3114 68.2881 51.2369 69.6421 51.2369V50.4369C67.8619 50.4369 66.4032 51.8541 66.4032 53.6179H67.2032ZM67.2032 72.3305V53.6179H66.4032V72.3305H67.2032ZM67.2032 72.3317V72.3305H66.4032V72.3317H67.2032ZM68.3879 74.3787C67.6518 73.9448 67.2032 73.1659 67.2032 72.3317H66.4032C66.4032 73.4553 67.0069 74.4933 67.9817 75.0679L68.3879 74.3787ZM83.2472 83.0619L68.3866 74.378L67.983 75.0687L82.8436 83.7526L83.2472 83.0619Z" fill="url(#paint3_linear_176_2209)" mask="url(#path-5-inside-1_176_2209)"/>
</g>
<defs>
<filter id="filter0_f_176_2209" x="0.462402" y="0.649902" width="97.3638" height="96.0903" filterUnits="userSpaceOnUse" color-interpolation-filters="sRGB">
<feFlood flood-opacity="0" result="BackgroundImageFix"/>
<feBlend mode="normal" in="SourceGraphic" in2="BackgroundImageFix" result="shape"/>
<feGaussianBlur stdDeviation="12" result="effect1_foregroundBlur_176_2209"/>
</filter>
<filter id="filter1_b_176_2209" x="8.12256" y="7.57324" width="125.703" height="124.158" filterUnits="userSpaceOnUse" color-interpolation-filters="sRGB">
<feFlood flood-opacity="0" result="BackgroundImageFix"/>
<feGaussianBlur in="BackgroundImage" stdDeviation="12"/>
<feComposite in2="SourceAlpha" operator="in" result="effect1_backgroundBlur_176_2209"/>
<feBlend mode="normal" in="SourceGraphic" in2="effect1_backgroundBlur_176_2209" result="shape"/>
</filter>
<filter id="filter2_bd_176_2209" x="51.8032" y="35.8369" width="50.5371" height="62.9595" filterUnits="userSpaceOnUse" color-interpolation-filters="sRGB">
<feFlood flood-opacity="0" result="BackgroundImageFix"/>
<feGaussianBlur in="BackgroundImage" stdDeviation="7.5"/>
<feComposite in2="SourceAlpha" operator="in" result="effect1_backgroundBlur_176_2209"/>
<feColorMatrix in="SourceAlpha" type="matrix" values="0 0 0 0 0 0 0 0 0 0 0 0 0 0 0 0 0 0 127 0" result="hardAlpha"/>
<feOffset dx="5" dy="5"/>
<feGaussianBlur stdDeviation="5"/>
<feColorMatrix type="matrix" values="0 0 0 0 0.278431 0 0 0 0 0.556863 0 0 0 0 0.960784 0 0 0 0.7 0"/>
<feBlend mode="normal" in2="effect1_backgroundBlur_176_2209" result="effect2_dropShadow_176_2209"/>
<feBlend mode="normal" in="SourceGraphic" in2="effect2_dropShadow_176_2209" result="shape"/>
</filter>
<linearGradient id="paint0_linear_176_2209" x1="87.3257" y1="-7.76856" x2="23.8117" y2="90.5766" gradientUnits="userSpaceOnUse">
<stop offset="0.332206" stop-color="#7FC0FB"/>
<stop offset="0.881422" stop-color="#468DF4"/>
</linearGradient>
<linearGradient id="paint1_linear_176_2209" x1="45.1733" y1="41.2128" x2="92.2638" y2="100.751" gradientUnits="userSpaceOnUse">
<stop stop-color="white" stop-opacity="0.25"/>
<stop offset="1" stop-color="white" stop-opacity="0"/>
</linearGradient>
<linearGradient id="paint2_linear_176_2209" x1="85.8844" y1="56.7888" x2="62.993" y2="57.2538" gradientUnits="userSpaceOnUse">
<stop stop-color="white"/>
<stop offset="1" stop-color="white" stop-opacity="0.2"/>
</linearGradient>
<linearGradient id="paint3_linear_176_2209" x1="70.0724" y1="54.6768" x2="90.8777" y2="70.7328" gradientUnits="userSpaceOnUse">
<stop stop-color="white" stop-opacity="0.25"/>
<stop offset="1" stop-color="white" stop-opacity="0"/>
</linearGradient>
</defs>
</svg>
