<svg width="50" height="50" viewBox="0 0 50 50" fill="none" xmlns="http://www.w3.org/2000/svg">
<circle cx="25" cy="25" r="25" fill="#E6F2FF"/>
<path d="M19.4971 14.5063C19.1788 14.8305 19 15.2703 19 15.7288C19 16.1873 19.1788 16.627 19.4971 16.9513L27.9017 25.5104L19.4971 34.0696C19.1878 34.3957 19.0167 34.8325 19.0206 35.2859C19.0244 35.7393 19.203 36.173 19.5178 36.4936C19.8326 36.8141 20.2585 36.996 20.7036 36.9999C21.1488 37.0039 21.5777 36.8296 21.8979 36.5146L31.5029 26.7329C31.8212 26.4087 32 25.9689 32 25.5104C32 25.0519 31.8212 24.6122 31.5029 24.2879L21.8979 14.5063C21.5795 14.1821 21.1477 14 20.6975 14C20.2473 14 19.8155 14.1821 19.4971 14.5063Z" fill="#007AFF"/>
</svg>
