<svg width="50" height="50" viewBox="0 0 50 50" fill="none" xmlns="http://www.w3.org/2000/svg">
<circle cx="25" cy="25" r="25" fill="#E6F2FF"/>
<path d="M30.5029 14.5063C30.8212 14.8305 31 15.2703 31 15.7288C31 16.1873 30.8212 16.627 30.5029 16.9513L22.0983 25.5104L30.5029 34.0696C30.8122 34.3957 30.9833 34.8325 30.9794 35.2859C30.9756 35.7393 30.797 36.173 30.4822 36.4936C30.1674 36.8141 29.7415 36.996 29.2964 36.9999C28.8512 37.0039 28.4223 36.8296 28.1021 36.5146L18.4971 26.7329C18.1788 26.4087 18 25.9689 18 25.5104C18 25.0519 18.1788 24.6122 18.4971 24.2879L28.1021 14.5063C28.4205 14.1821 28.8523 14 29.3025 14C29.7527 14 30.1845 14.1821 30.5029 14.5063V14.5063Z" fill="#007AFF"/>
</svg>
