<svg width="102" height="101" viewBox="0 0 102 101" fill="none" xmlns="http://www.w3.org/2000/svg">
<path d="M83.5161 40.8317L80.7843 38.1009C79.7219 37.0389 79.1149 35.5977 79.1149 34.0844V30.174C79.1149 23.878 73.9927 18.7615 67.6944 18.7615H63.7864C62.2687 18.7615 60.827 18.1508 59.7646 17.0889L56.9949 14.3239C52.5177 9.88635 45.2709 9.88635 40.8317 14.3581L38.0999 17.0889C37.0375 18.1508 35.5958 18.7615 34.0781 18.7615H30.1701C23.8718 18.7615 18.7496 23.878 18.7496 30.174V34.0426C18.7496 35.5977 18.1426 37.0389 17.0802 38.1009L14.3105 40.8735C9.8713 45.3452 9.90924 52.5932 14.3484 57.027L17.0802 59.7198C18.1426 60.8198 18.7496 62.261 18.7496 63.7819V67.6847C18.7496 73.9807 23.8718 79.1048 30.1701 79.1048H34.0781C35.5958 79.1048 37.0375 79.7079 38.0999 80.7698L40.8696 83.5424C43.1082 85.7422 46.0297 86.8383 48.9512 86.8383C51.8727 86.8383 54.7942 85.7422 57.0328 83.5006L59.7646 80.7698C60.827 79.7079 62.2687 79.1048 63.7864 79.1048H67.6944C73.9927 79.1048 79.1149 73.9807 79.1149 67.6847V63.7819C79.1149 62.261 79.7219 60.8198 80.7843 59.7578L83.4781 57.0649C83.5161 57.027 83.554 56.9928 83.592 56.9511C85.7167 54.793 86.8929 51.9067 86.8549 48.8725C86.8549 45.8382 85.6788 42.9557 83.5161 40.8317Z" fill="url(#paint0_linear_176_2218)"/>
<g opacity="0.5" filter="url(#filter0_f_176_2218)">
<path d="M71.8284 43.5647L70.0197 41.7567C69.3163 41.0535 68.9144 40.0993 68.9144 39.0973V36.5083C68.9144 32.3398 65.5231 28.9523 61.353 28.9523H58.7656C57.7608 28.9523 56.8062 28.548 56.1028 27.8448L54.269 26.0142C51.3048 23.0761 46.5067 23.0761 43.5676 26.0368L41.7589 27.8448C41.0555 28.548 40.1009 28.9523 39.0961 28.9523H36.5087C32.3386 28.9523 28.9473 32.3398 28.9473 36.5083V39.0697C28.9473 40.0993 28.5454 41.0535 27.842 41.7567L26.0082 43.5923C23.0691 46.553 23.0942 51.3518 26.0333 54.2873L27.842 56.0703C28.5454 56.7985 28.9473 57.7527 28.9473 58.7597V61.3437C28.9473 65.5122 32.3386 68.9048 36.5087 68.9048H39.0961C40.1009 68.9048 41.0555 69.3041 41.7589 70.0072L43.5927 71.8428C45.0748 73.2993 47.0091 74.025 48.9434 74.025C50.8777 74.025 52.812 73.2993 54.2941 71.8152L56.1028 70.0072C56.8062 69.3041 57.7608 68.9048 58.7656 68.9048H61.353C65.5231 68.9048 68.9144 65.5122 68.9144 61.3437V58.7597C68.9144 57.7527 69.3163 56.7985 70.0197 56.0954L71.8032 54.3124C71.8284 54.2873 71.8535 54.2647 71.8786 54.2371C73.2854 52.8083 74.0641 50.8973 74.039 48.8883C74.039 46.8794 73.2602 44.9709 71.8284 43.5647Z" fill="#4088F4"/>
</g>
<g filter="url(#filter1_b_176_2218)">
<mask id="path-3-outside-1_176_2218" maskUnits="userSpaceOnUse" x="23.1577" y="23.1616" width="78" height="78" fill="black">
<rect fill="white" x="23.1577" y="23.1616" width="78" height="78"/>
<path d="M96.6738 53.9934L93.942 51.2626C92.8796 50.2006 92.2726 48.7593 92.2726 47.246V43.3356C92.2726 37.0396 87.1504 31.9231 80.8521 31.9231H76.9441C75.4265 31.9231 73.9847 31.3125 72.9223 30.2505L70.1526 27.4855C65.6754 23.048 58.4286 23.048 53.9894 27.5197L51.2576 30.2505C50.1952 31.3125 48.7535 31.9231 47.2358 31.9231H43.3278C37.0295 31.9231 31.9074 37.0396 31.9074 43.3356V47.2043C31.9074 48.7593 31.3003 50.2006 30.2379 51.2626L27.4682 54.0351C23.029 58.5068 23.067 65.7548 27.5061 70.1886L30.2379 72.8815C31.3003 73.9814 31.9074 75.4226 31.9074 76.9435V80.8463C31.9074 87.1424 37.0295 92.2664 43.3278 92.2664H47.2358C48.7535 92.2664 50.1952 92.8695 51.2576 93.9315L54.0274 96.704C56.2659 98.9038 59.1874 99.9999 62.1089 99.9999C65.0304 99.9999 67.952 98.9038 70.1905 96.6623L72.9223 93.9315C73.9847 92.8695 75.4265 92.2664 76.9441 92.2664H80.8521C87.1504 92.2664 92.2726 87.1424 92.2726 80.8463V76.9435C92.2726 75.4226 92.8796 73.9814 93.942 72.9194L96.6359 70.2265C96.6738 70.1886 96.7117 70.1544 96.7497 70.1127C98.8744 67.9546 100.051 65.0683 100.013 62.0341C100.013 58.9998 98.8365 56.1173 96.6738 53.9934Z"/>
</mask>
<path d="M96.6738 53.9934L93.942 51.2626C92.8796 50.2006 92.2726 48.7593 92.2726 47.246V43.3356C92.2726 37.0396 87.1504 31.9231 80.8521 31.9231H76.9441C75.4265 31.9231 73.9847 31.3125 72.9223 30.2505L70.1526 27.4855C65.6754 23.048 58.4286 23.048 53.9894 27.5197L51.2576 30.2505C50.1952 31.3125 48.7535 31.9231 47.2358 31.9231H43.3278C37.0295 31.9231 31.9074 37.0396 31.9074 43.3356V47.2043C31.9074 48.7593 31.3003 50.2006 30.2379 51.2626L27.4682 54.0351C23.029 58.5068 23.067 65.7548 27.5061 70.1886L30.2379 72.8815C31.3003 73.9814 31.9074 75.4226 31.9074 76.9435V80.8463C31.9074 87.1424 37.0295 92.2664 43.3278 92.2664H47.2358C48.7535 92.2664 50.1952 92.8695 51.2576 93.9315L54.0274 96.704C56.2659 98.9038 59.1874 99.9999 62.1089 99.9999C65.0304 99.9999 67.952 98.9038 70.1905 96.6623L72.9223 93.9315C73.9847 92.8695 75.4265 92.2664 76.9441 92.2664H80.8521C87.1504 92.2664 92.2726 87.1424 92.2726 80.8463V76.9435C92.2726 75.4226 92.8796 73.9814 93.942 72.9194L96.6359 70.2265C96.6738 70.1886 96.7117 70.1544 96.7497 70.1127C98.8744 67.9546 100.051 65.0683 100.013 62.0341C100.013 58.9998 98.8365 56.1173 96.6738 53.9934Z" fill="#6CB8FF" fill-opacity="0.2"/>
<path d="M93.942 51.2626L94.649 50.5553L93.942 51.2626ZM72.9223 30.2505L73.6293 29.5433L73.6288 29.5428L72.9223 30.2505ZM70.1526 27.4855L70.8591 26.7778L70.8565 26.7753L70.1526 27.4855ZM53.9894 27.5197L54.6964 28.2269L54.6991 28.2242L53.9894 27.5197ZM51.2576 30.2505L51.9646 30.9577L51.2576 30.2505ZM30.2379 51.2626L29.531 50.5553L29.5305 50.5558L30.2379 51.2626ZM27.4682 54.0351L26.7607 53.3283L26.7585 53.3306L27.4682 54.0351ZM27.5061 70.1886L26.7994 70.8961L26.8041 70.9007L27.5061 70.1886ZM30.2379 72.8815L30.9572 72.1867C30.9515 72.1809 30.9458 72.175 30.9399 72.1693L30.2379 72.8815ZM51.2576 93.9315L51.9651 93.2247L51.9646 93.2242L51.2576 93.9315ZM54.0274 96.704L53.3199 97.4108L53.3264 97.4172L54.0274 96.704ZM70.1905 96.6623L69.4835 95.955L69.4829 95.9556L70.1905 96.6623ZM72.9223 93.9315L73.6293 94.6387L72.9223 93.9315ZM93.942 72.9194L94.649 73.6266L93.942 72.9194ZM96.6359 70.2265L95.9289 69.5193L96.6359 70.2265ZM96.7497 70.1127L96.0371 69.4112C96.0278 69.4206 96.0188 69.4302 96.0099 69.4399L96.7497 70.1127ZM100.013 62.0341H99.0126L99.0127 62.0466L100.013 62.0341ZM97.3808 53.2861L94.649 50.5553L93.235 51.9698L95.9668 54.7006L97.3808 53.2861ZM94.649 50.5553C93.7718 49.6785 93.2726 48.4906 93.2726 47.246H91.2726C91.2726 49.028 91.9875 50.7227 93.235 51.9698L94.649 50.5553ZM93.2726 47.246V43.3356H91.2726V47.246H93.2726ZM93.2726 43.3356C93.2726 36.4865 87.702 30.9231 80.8521 30.9231V32.9231C86.5989 32.9231 91.2726 37.5926 91.2726 43.3356H93.2726ZM80.8521 30.9231H76.9441V32.9231H80.8521V30.9231ZM76.9441 30.9231C75.6963 30.9231 74.5075 30.4211 73.6293 29.5433L72.2153 30.9577C73.4619 32.2038 75.1567 32.9231 76.9441 32.9231V30.9231ZM73.6288 29.5428L70.8591 26.7778L69.4461 28.1933L72.2158 30.9582L73.6288 29.5428ZM70.8565 26.7753C65.9908 21.9526 58.1112 21.9483 53.2797 26.8152L54.6991 28.2242C58.746 24.1477 65.3601 24.1433 69.4486 28.1958L70.8565 26.7753ZM53.2824 26.8124L50.5506 29.5433L51.9646 30.9577L54.6964 28.2269L53.2824 26.8124ZM50.5506 29.5433C49.6725 30.4211 48.4837 30.9231 47.2358 30.9231V32.9231C49.0233 32.9231 50.718 32.2038 51.9646 30.9577L50.5506 29.5433ZM47.2358 30.9231H43.3278V32.9231H47.2358V30.9231ZM43.3278 30.9231C36.478 30.9231 30.9074 36.4865 30.9074 43.3356H32.9074C32.9074 37.5926 37.581 32.9231 43.3278 32.9231V30.9231ZM30.9074 43.3356V47.2043H32.9074V43.3356H30.9074ZM30.9074 47.2043C30.9074 48.4945 30.4054 49.6812 29.531 50.5553L30.9449 51.9698C32.1952 50.7199 32.9074 49.0241 32.9074 47.2043H30.9074ZM29.5305 50.5558L26.7607 53.3283L28.1756 54.7418L30.9454 51.9693L29.5305 50.5558ZM26.7585 53.3306C21.9296 58.1949 21.9718 66.0744 26.7995 70.8961L28.2128 69.481C24.1621 65.4352 24.1284 58.8187 28.1779 54.7396L26.7585 53.3306ZM26.8041 70.9007L29.5359 73.5936L30.9399 72.1693L28.2081 69.4764L26.8041 70.9007ZM29.5187 73.5762C30.4092 74.4982 30.9074 75.6935 30.9074 76.9435H32.9074C32.9074 75.1517 32.1914 73.4645 30.9572 72.1867L29.5187 73.5762ZM30.9074 76.9435V80.8463H32.9074V76.9435H30.9074ZM30.9074 80.8463C30.9074 87.6946 36.4771 93.2664 43.3278 93.2664V91.2664C37.5819 91.2664 32.9074 86.5902 32.9074 80.8463H30.9074ZM43.3278 93.2664H47.2358V91.2664H43.3278V93.2664ZM47.2358 93.2664C48.4871 93.2664 49.6749 93.7633 50.5506 94.6387L51.9646 93.2242C50.7156 91.9757 49.0199 91.2664 47.2358 91.2664V93.2664ZM50.5502 94.6382L53.3199 97.4107L54.7348 95.9972L51.9651 93.2247L50.5502 94.6382ZM53.3264 97.4172C55.7607 99.8094 58.9377 101 62.1089 101V98.9999C59.4372 98.9999 56.7711 97.9982 54.7283 95.9907L53.3264 97.4172ZM62.1089 101C65.2813 101 68.4619 99.8083 70.8981 97.3689L69.4829 95.9556C67.442 97.9993 64.7796 98.9999 62.1089 98.9999V101ZM70.8975 97.3695L73.6293 94.6387L72.2153 93.2242L69.4835 95.955L70.8975 97.3695ZM73.6293 94.6387C74.505 93.7633 75.6929 93.2664 76.9441 93.2664V91.2664C75.1601 91.2664 73.4643 91.9757 72.2153 93.2242L73.6293 94.6387ZM76.9441 93.2664H80.8521V91.2664H76.9441V93.2664ZM80.8521 93.2664C87.7028 93.2664 93.2726 87.6946 93.2726 80.8463H91.2726C91.2726 86.5902 86.5981 91.2664 80.8521 91.2664V93.2664ZM93.2726 80.8463V76.9435H91.2726V80.8463H93.2726ZM93.2726 76.9435C93.2726 75.6906 93.7723 74.503 94.649 73.6266L93.235 72.2122C91.987 73.4598 91.2726 75.1546 91.2726 76.9435H93.2726ZM94.649 73.6266L97.3428 70.9337L95.9289 69.5193L93.235 72.2122L94.649 73.6266ZM97.3428 70.9337C97.3566 70.92 97.3588 70.9183 97.3907 70.8872C97.4152 70.8633 97.4507 70.8282 97.4895 70.7855L96.0099 69.4399C96.0108 69.4389 96.0083 69.4418 95.9948 69.4549C95.9867 69.4628 95.9814 69.4678 95.9687 69.4802C95.9579 69.4906 95.944 69.5042 95.9289 69.5193L97.3428 70.9337ZM97.4623 70.8143C99.7721 68.4683 101.054 65.3257 101.013 62.0216L99.0127 62.0466C99.0473 64.8109 97.9768 67.441 96.0371 69.4112L97.4623 70.8143ZM101.013 62.0341C101.013 58.7392 99.734 55.5972 97.3745 53.2799L95.9731 54.7068C97.9389 56.6375 99.0127 59.2605 99.0127 62.0341H101.013Z" fill="url(#paint1_linear_176_2218)" mask="url(#path-3-outside-1_176_2218)"/>
</g>
<g filter="url(#filter2_bd_176_2218)">
<mask id="path-5-inside-2_176_2218" fill="white">
<path fill-rule="evenodd" clip-rule="evenodd" d="M54.6724 74.1706C54.0654 74.8154 53.2306 75.1568 52.32 75.1568C51.4474 75.1568 50.6127 74.8154 50.0056 74.1706C48.7156 72.8811 48.7156 70.7571 50.0056 69.4676L69.5076 49.9726C70.7976 48.6869 72.8844 48.6869 74.1744 49.9726C75.4645 51.2622 75.4645 53.3899 74.1744 54.6795L54.6724 74.1706ZM71.8599 75.1569C70.0007 75.1569 68.521 73.6777 68.521 71.8193C68.521 70.0025 70.0007 68.5195 71.8599 68.5195C73.6811 68.5195 75.1608 70.0025 75.1608 71.8193C75.1608 73.6777 73.6811 75.1569 71.8599 75.1569ZM55.6588 52.3241C55.6588 50.5036 54.1791 49.0244 52.3579 49.0244C50.5367 49.0244 49.019 50.5036 49.019 52.3241C49.019 54.1864 50.5367 55.6618 52.3579 55.6618C54.1791 55.6618 55.6588 54.1864 55.6588 52.3241Z"/>
</mask>
<path fill-rule="evenodd" clip-rule="evenodd" d="M54.6724 74.1706C54.0654 74.8154 53.2306 75.1568 52.32 75.1568C51.4474 75.1568 50.6127 74.8154 50.0056 74.1706C48.7156 72.8811 48.7156 70.7571 50.0056 69.4676L69.5076 49.9726C70.7976 48.6869 72.8844 48.6869 74.1744 49.9726C75.4645 51.2622 75.4645 53.3899 74.1744 54.6795L54.6724 74.1706ZM71.8599 75.1569C70.0007 75.1569 68.521 73.6777 68.521 71.8193C68.521 70.0025 70.0007 68.5195 71.8599 68.5195C73.6811 68.5195 75.1608 70.0025 75.1608 71.8193C75.1608 73.6777 73.6811 75.1569 71.8599 75.1569ZM55.6588 52.3241C55.6588 50.5036 54.1791 49.0244 52.3579 49.0244C50.5367 49.0244 49.019 50.5036 49.019 52.3241C49.019 54.1864 50.5367 55.6618 52.3579 55.6618C54.1791 55.6618 55.6588 54.1864 55.6588 52.3241Z" fill="url(#paint2_linear_176_2218)"/>
<path d="M54.6724 74.1706L54.3895 73.8876L54.3812 73.8964L54.6724 74.1706ZM50.0056 74.1706L50.297 73.8963L50.2884 73.8877L50.0056 74.1706ZM50.0056 69.4676L50.2884 69.7505L50.0056 69.4676ZM69.5076 49.9726L69.2252 49.6893L69.2248 49.6897L69.5076 49.9726ZM74.1744 49.9726L74.4572 49.6897L74.4568 49.6893L74.1744 49.9726ZM74.1744 54.6795L74.4572 54.9624L74.4572 54.9624L74.1744 54.6795ZM52.32 75.5568C53.3332 75.5568 54.2759 75.1753 54.9637 74.4448L54.3812 73.8964C53.8548 74.4555 53.1281 74.7568 52.32 74.7568V75.5568ZM49.7144 74.4448C50.4005 75.1736 51.3423 75.5568 52.32 75.5568V74.7568C51.5525 74.7568 50.8248 74.4572 50.2968 73.8964L49.7144 74.4448ZM49.7228 69.1847C48.2765 70.6304 48.2765 73.0078 49.7228 74.4535L50.2884 73.8877C49.1547 72.7544 49.1547 70.8838 50.2884 69.7505L49.7228 69.1847ZM69.2248 49.6897L49.7228 69.1847L50.2884 69.7505L69.7904 50.2555L69.2248 49.6897ZM74.4568 49.6893C73.0107 48.248 70.6714 48.248 69.2252 49.6893L69.79 50.2559C70.9239 49.1258 72.7582 49.1258 73.8921 50.2559L74.4568 49.6893ZM74.4572 54.9624C75.9035 53.5166 75.9035 51.1355 74.4572 49.6897L73.8917 50.2555C75.0254 51.3888 75.0254 53.2633 73.8917 54.3966L74.4572 54.9624ZM54.9552 74.4536L74.4572 54.9624L73.8917 54.3966L54.3897 73.8877L54.9552 74.4536ZM68.121 71.8193C68.121 73.8988 69.7799 75.5569 71.8599 75.5569V74.7569C70.2215 74.7569 68.921 73.4567 68.921 71.8193H68.121ZM71.8599 68.1195C69.7826 68.1195 68.121 69.7788 68.121 71.8193H68.921C68.921 70.2262 70.2188 68.9195 71.8599 68.9195V68.1195ZM75.5608 71.8193C75.5608 69.7818 73.9021 68.1195 71.8599 68.1195V68.9195C73.46 68.9195 74.7608 70.2233 74.7608 71.8193H75.5608ZM71.8599 75.5569C73.9048 75.5569 75.5608 73.8958 75.5608 71.8193H74.7608C74.7608 73.4597 73.4573 74.7569 71.8599 74.7569V75.5569ZM52.3579 49.4244C53.9583 49.4244 55.2588 50.7247 55.2588 52.3241H56.0588C56.0588 50.2826 54.3999 48.6244 52.3579 48.6244V49.4244ZM49.419 52.3241C49.419 50.7306 50.7515 49.4244 52.3579 49.4244V48.6244C50.3219 48.6244 48.619 50.2766 48.619 52.3241H49.419ZM52.3579 55.2618C50.7542 55.2618 49.419 53.9621 49.419 52.3241H48.619C48.619 54.4107 50.3192 56.0618 52.3579 56.0618V55.2618ZM55.2588 52.3241C55.2588 53.968 53.9557 55.2618 52.3579 55.2618V56.0618C54.4026 56.0618 56.0588 54.4048 56.0588 52.3241H55.2588Z" fill="url(#paint3_linear_176_2218)" mask="url(#path-5-inside-2_176_2218)"/>
</g>
<defs>
<filter id="filter0_f_176_2218" x="0.816406" y="0.813477" width="96.2231" height="96.2114" filterUnits="userSpaceOnUse" color-interpolation-filters="sRGB">
<feFlood flood-opacity="0" result="BackgroundImageFix"/>
<feBlend mode="normal" in="SourceGraphic" in2="BackgroundImageFix" result="shape"/>
<feGaussianBlur stdDeviation="11.5" result="effect1_foregroundBlur_176_2218"/>
</filter>
<filter id="filter1_b_176_2218" x="-0.842285" y="-0.838379" width="125.856" height="125.838" filterUnits="userSpaceOnUse" color-interpolation-filters="sRGB">
<feFlood flood-opacity="0" result="BackgroundImageFix"/>
<feGaussianBlur in="BackgroundImage" stdDeviation="12"/>
<feComposite in2="SourceAlpha" operator="in" result="effect1_backgroundBlur_176_2218"/>
<feBlend mode="normal" in="SourceGraphic" in2="effect1_backgroundBlur_176_2218" result="shape"/>
</filter>
<filter id="filter2_bd_176_2218" x="34.019" y="34.0083" width="56.1416" height="56.1484" filterUnits="userSpaceOnUse" color-interpolation-filters="sRGB">
<feFlood flood-opacity="0" result="BackgroundImageFix"/>
<feGaussianBlur in="BackgroundImage" stdDeviation="7.5"/>
<feComposite in2="SourceAlpha" operator="in" result="effect1_backgroundBlur_176_2218"/>
<feColorMatrix in="SourceAlpha" type="matrix" values="0 0 0 0 0 0 0 0 0 0 0 0 0 0 0 0 0 0 127 0" result="hardAlpha"/>
<feOffset dx="5" dy="5"/>
<feGaussianBlur stdDeviation="5"/>
<feColorMatrix type="matrix" values="0 0 0 0 0.278431 0 0 0 0 0.556863 0 0 0 0 0.960784 0 0 0 0.5 0"/>
<feBlend mode="normal" in2="effect1_backgroundBlur_176_2218" result="effect2_dropShadow_176_2218"/>
<feBlend mode="normal" in="SourceGraphic" in2="effect2_dropShadow_176_2218" result="shape"/>
</filter>
<linearGradient id="paint0_linear_176_2218" x1="93.6674" y1="-22.4385" x2="21.6817" y2="112.709" gradientUnits="userSpaceOnUse">
<stop offset="0.560319" stop-color="#7ABCFB"/>
<stop offset="0.73668" stop-color="#468DF4"/>
</linearGradient>
<linearGradient id="paint1_linear_176_2218" x1="23.9364" y1="23.6459" x2="84.554" y2="92.9651" gradientUnits="userSpaceOnUse">
<stop stop-color="white" stop-opacity="0.4"/>
<stop offset="1" stop-color="white" stop-opacity="0"/>
</linearGradient>
<linearGradient id="paint2_linear_176_2218" x1="73.3074" y1="53.7302" x2="44.1879" y2="54.6794" gradientUnits="userSpaceOnUse">
<stop stop-color="white"/>
<stop offset="1" stop-color="white" stop-opacity="0.2"/>
</linearGradient>
<linearGradient id="paint3_linear_176_2218" x1="53.1804" y1="52.0546" x2="69.8613" y2="72.709" gradientUnits="userSpaceOnUse">
<stop stop-color="white" stop-opacity="0.25"/>
<stop offset="1" stop-color="white" stop-opacity="0"/>
</linearGradient>
</defs>
</svg>
