<svg width="405" height="423" viewBox="0 0 405 423" fill="none" xmlns="http://www.w3.org/2000/svg">
<g filter="url(#filter0_d_235_570)">
<rect x="31.7954" y="29.9155" width="343.493" height="361.812" rx="8.10453" fill="white"/>
</g>
<path d="M31.7954 38.02C31.7954 33.544 35.4239 29.9155 39.8999 29.9155H367.183C371.659 29.9155 375.288 33.544 375.288 38.0201V210.364H31.7954V38.02Z" fill="#E6F2FF"/>
<rect x="126.004" y="61.9746" width="163.294" height="118.106" rx="5.49588" fill="white" stroke="black" stroke-width="1.83196"/>
<path d="M127.031 164.676L129.337 171.266C130.109 173.47 132.189 174.946 134.525 174.946H279.739C281.821 174.946 283.724 173.77 284.655 171.908L288.271 164.676V175.39C288.271 177.414 286.631 179.054 284.607 179.054H130.695C128.671 179.054 127.031 177.414 127.031 175.39V164.676Z" fill="#80BDFF"/>
<path d="M126.004 67.4705C126.004 64.4352 128.464 61.9746 131.5 61.9746H283.802C286.838 61.9746 289.298 64.4352 289.298 67.4705V77.3797H126.004V67.4705Z" fill="#E6F2FF" stroke="black" stroke-width="1.83196"/>
<path d="M102.381 180.081H311.891" stroke="black" stroke-width="1.7719" stroke-linecap="round" stroke-linejoin="round"/>
<rect x="146.543" y="98.9463" width="54.4314" height="54.4314" rx="2.74794" fill="#E6F2FF" stroke="#007AFF" stroke-width="0.91598" stroke-linecap="round" stroke-dasharray="4.58 4.58"/>
<rect x="228.704" y="98.9463" width="39.0263" height="54.4314" rx="1.83196" fill="#E6F2FF" stroke="#231F20" stroke-width="0.91598" stroke-linecap="round"/>
<path d="M153.732 109.217H193.785" stroke="#007AFF" stroke-width="1.83196" stroke-linecap="round"/>
<path d="M235.893 109.217H260.541" stroke="white" stroke-width="1.83196" stroke-linecap="round"/>
<path d="M235.893 129.757H260.541" stroke="white" stroke-width="1.83196" stroke-linecap="round"/>
<path d="M153.732 120.514H193.785" stroke="#007AFF" stroke-width="1.83196" stroke-linecap="round"/>
<path d="M235.893 119.487H260.541" stroke="white" stroke-width="1.83196" stroke-linecap="round"/>
<path d="M235.893 140.027H260.541" stroke="white" stroke-width="1.83196" stroke-linecap="round"/>
<path d="M153.732 131.811H193.785" stroke="#007AFF" stroke-width="1.83196" stroke-linecap="round"/>
<path d="M153.732 142.081H193.785" stroke="#007AFF" stroke-width="1.83196" stroke-linecap="round"/>
<circle cx="136.273" cy="70.1912" r="2.05402" fill="#4DA3FF"/>
<circle cx="143.461" cy="70.1912" r="2.05402" fill="#4DA3FF"/>
<circle cx="150.651" cy="70.1912" r="2.05402" fill="#4DA3FF"/>
<rect x="110.488" y="108.08" width="37.1944" height="37.1944" rx="18.5972" fill="white" stroke="black" stroke-width="1.83196"/>
<rect x="93.408" y="158.778" width="24.2655" height="6.47178" rx="3.23589" transform="rotate(-46 93.408 158.778)" fill="white" stroke="black" stroke-width="1.83196"/>
<path d="M115.734 140.028L112.653 143.109" stroke="black" stroke-width="1.83196" stroke-linecap="square"/>
<path d="M203.029 108.759H202.571V109.675H203.029V108.759ZM216.656 109.217H217.114V108.759H216.656V109.217ZM216.656 121.541H216.198V121.999H216.656V121.541ZM226.65 121.541L222.07 118.897V124.186L226.65 121.541ZM203.029 109.675H216.656V108.759H203.029V109.675ZM216.198 109.217V121.541H217.114V109.217H216.198ZM216.656 121.999H222.528V121.083H216.656V121.999Z" fill="#231F20"/>
<path d="M276.043 142.234C278.511 137.959 284.68 137.959 287.148 142.234L303.362 170.317C305.83 174.592 302.745 179.935 297.809 179.935H265.382C260.446 179.935 257.361 174.592 259.829 170.317L276.043 142.234Z" fill="white" stroke="black" stroke-width="1.83196"/>
<g filter="url(#filter1_d_235_570)">
<path d="M283.852 151.091L283.471 162.594H280.661L280.256 151.091H283.852ZM282.137 168.167C281.534 168.167 281.034 167.984 280.637 167.619C280.256 167.238 280.065 166.77 280.065 166.214C280.065 165.658 280.256 165.198 280.637 164.833C281.034 164.451 281.534 164.261 282.137 164.261C282.725 164.261 283.209 164.451 283.59 164.833C283.971 165.198 284.162 165.658 284.162 166.214C284.162 166.77 283.971 167.238 283.59 167.619C283.209 167.984 282.725 168.167 282.137 168.167Z" fill="#007AFF"/>
</g>
<path d="M115.603 272.634V277.492H121.318V279.707H115.603V284.78H122.033V286.995H112.888V270.419H122.033V272.634H115.603ZM124.472 280.374C124.472 279.056 124.742 277.889 125.282 276.873C125.837 275.857 126.584 275.071 127.52 274.515C128.473 273.944 129.521 273.658 130.664 273.658C131.696 273.658 132.593 273.864 133.355 274.277C134.133 274.674 134.752 275.174 135.213 275.778V273.872H137.951V286.995H135.213V285.042C134.752 285.661 134.125 286.177 133.331 286.59C132.537 287.003 131.632 287.209 130.616 287.209C129.489 287.209 128.457 286.923 127.52 286.352C126.584 285.764 125.837 284.954 125.282 283.922C124.742 282.875 124.472 281.692 124.472 280.374ZM135.213 280.422C135.213 279.517 135.022 278.731 134.641 278.064C134.276 277.397 133.792 276.889 133.188 276.54C132.585 276.19 131.934 276.016 131.236 276.016C130.537 276.016 129.886 276.19 129.283 276.54C128.679 276.873 128.187 277.373 127.806 278.04C127.441 278.691 127.258 279.469 127.258 280.374C127.258 281.279 127.441 282.073 127.806 282.755C128.187 283.438 128.679 283.962 129.283 284.327C129.902 284.677 130.553 284.851 131.236 284.851C131.934 284.851 132.585 284.677 133.188 284.327C133.792 283.978 134.276 283.47 134.641 282.803C135.022 282.12 135.213 281.327 135.213 280.422ZM146.281 287.209C145.249 287.209 144.32 287.026 143.494 286.661C142.684 286.28 142.041 285.772 141.565 285.137C141.089 284.486 140.835 283.764 140.803 282.97H143.613C143.661 283.526 143.923 283.994 144.399 284.375C144.891 284.74 145.503 284.923 146.233 284.923C146.995 284.923 147.582 284.78 147.995 284.494C148.424 284.192 148.638 283.811 148.638 283.351C148.638 282.859 148.4 282.494 147.924 282.255C147.463 282.017 146.725 281.755 145.709 281.469C144.725 281.2 143.923 280.938 143.304 280.684C142.684 280.429 142.145 280.041 141.684 279.517C141.24 278.993 141.017 278.302 141.017 277.445C141.017 276.746 141.224 276.111 141.637 275.539C142.049 274.952 142.637 274.491 143.399 274.158C144.177 273.825 145.066 273.658 146.066 273.658C147.559 273.658 148.757 274.039 149.662 274.801C150.583 275.547 151.075 276.571 151.139 277.873H148.424C148.376 277.286 148.138 276.817 147.71 276.468C147.281 276.119 146.701 275.944 145.971 275.944C145.257 275.944 144.709 276.079 144.328 276.349C143.947 276.619 143.756 276.976 143.756 277.421C143.756 277.77 143.883 278.064 144.137 278.302C144.391 278.54 144.701 278.731 145.066 278.874C145.431 279.001 145.971 279.167 146.685 279.374C147.638 279.628 148.416 279.89 149.019 280.16C149.639 280.414 150.17 280.795 150.615 281.303C151.06 281.811 151.29 282.486 151.306 283.327C151.306 284.073 151.099 284.74 150.686 285.328C150.274 285.915 149.686 286.375 148.924 286.709C148.178 287.042 147.297 287.209 146.281 287.209ZM166.052 273.872L158.002 293.163H155.192L157.859 286.78L152.691 273.872H155.716L159.407 283.875L163.241 273.872H166.052ZM179.36 284.565L183.075 273.872H185.957L180.955 286.995H177.716L172.739 273.872H175.645L179.36 284.565ZM187.104 280.374C187.104 279.056 187.374 277.889 187.914 276.873C188.469 275.857 189.216 275.071 190.152 274.515C191.105 273.944 192.153 273.658 193.296 273.658C194.328 273.658 195.225 273.864 195.987 274.277C196.765 274.674 197.384 275.174 197.845 275.778V273.872H200.583V286.995H197.845V285.042C197.384 285.661 196.757 286.177 195.963 286.59C195.169 287.003 194.264 287.209 193.248 287.209C192.121 287.209 191.089 286.923 190.152 286.352C189.216 285.764 188.469 284.954 187.914 283.922C187.374 282.875 187.104 281.692 187.104 280.374ZM197.845 280.422C197.845 279.517 197.654 278.731 197.273 278.064C196.908 277.397 196.424 276.889 195.82 276.54C195.217 276.19 194.566 276.016 193.867 276.016C193.169 276.016 192.518 276.19 191.915 276.54C191.311 276.873 190.819 277.373 190.438 278.04C190.073 278.691 189.89 279.469 189.89 280.374C189.89 281.279 190.073 282.073 190.438 282.755C190.819 283.438 191.311 283.962 191.915 284.327C192.534 284.677 193.185 284.851 193.867 284.851C194.566 284.851 195.217 284.677 195.82 284.327C196.424 283.978 196.908 283.47 197.273 282.803C197.654 282.12 197.845 281.327 197.845 280.422ZM206.864 269.371V286.995H204.149V269.371H206.864ZM211.81 272.134C211.318 272.134 210.905 271.967 210.572 271.634C210.238 271.3 210.072 270.887 210.072 270.395C210.072 269.903 210.238 269.49 210.572 269.157C210.905 268.823 211.318 268.657 211.81 268.657C212.287 268.657 212.691 268.823 213.025 269.157C213.358 269.49 213.525 269.903 213.525 270.395C213.525 270.887 213.358 271.3 213.025 271.634C212.691 271.967 212.287 272.134 211.81 272.134ZM213.144 273.872V286.995H210.429V273.872H213.144ZM215.803 280.374C215.803 279.056 216.073 277.889 216.613 276.873C217.169 275.857 217.915 275.071 218.852 274.515C219.804 273.944 220.86 273.658 222.019 273.658C222.877 273.658 223.718 273.848 224.544 274.23C225.385 274.595 226.052 275.087 226.544 275.706V269.371H229.283V286.995H226.544V285.018C226.1 285.653 225.48 286.177 224.687 286.59C223.909 287.003 223.012 287.209 221.995 287.209C220.852 287.209 219.804 286.923 218.852 286.352C217.915 285.764 217.169 284.954 216.613 283.922C216.073 282.875 215.803 281.692 215.803 280.374ZM226.544 280.422C226.544 279.517 226.354 278.731 225.973 278.064C225.607 277.397 225.123 276.889 224.52 276.54C223.917 276.19 223.266 276.016 222.567 276.016C221.868 276.016 221.217 276.19 220.614 276.54C220.011 276.873 219.519 277.373 219.138 278.04C218.772 278.691 218.59 279.469 218.59 280.374C218.59 281.279 218.772 282.073 219.138 282.755C219.519 283.438 220.011 283.962 220.614 284.327C221.233 284.677 221.884 284.851 222.567 284.851C223.266 284.851 223.917 284.677 224.52 284.327C225.123 283.978 225.607 283.47 225.973 282.803C226.354 282.12 226.544 281.327 226.544 280.422ZM231.944 280.374C231.944 279.056 232.214 277.889 232.754 276.873C233.309 275.857 234.056 275.071 234.992 274.515C235.945 273.944 236.993 273.658 238.136 273.658C239.168 273.658 240.065 273.864 240.827 274.277C241.605 274.674 242.224 275.174 242.685 275.778V273.872H245.424V286.995H242.685V285.042C242.224 285.661 241.597 286.177 240.803 286.59C240.009 287.003 239.104 287.209 238.088 287.209C236.961 287.209 235.929 286.923 234.992 286.352C234.056 285.764 233.309 284.954 232.754 283.922C232.214 282.875 231.944 281.692 231.944 280.374ZM242.685 280.422C242.685 279.517 242.494 278.731 242.113 278.064C241.748 277.397 241.264 276.889 240.66 276.54C240.057 276.19 239.406 276.016 238.708 276.016C238.009 276.016 237.358 276.19 236.755 276.54C236.151 276.873 235.659 277.373 235.278 278.04C234.913 278.691 234.73 279.469 234.73 280.374C234.73 281.279 234.913 282.073 235.278 282.755C235.659 283.438 236.151 283.962 236.755 284.327C237.374 284.677 238.025 284.851 238.708 284.851C239.406 284.851 240.057 284.677 240.66 284.327C241.264 283.978 241.748 283.47 242.113 282.803C242.494 282.12 242.685 281.327 242.685 280.422ZM252.157 276.087V283.351C252.157 283.843 252.268 284.2 252.49 284.423C252.729 284.629 253.125 284.732 253.681 284.732H255.348V286.995H253.205C251.982 286.995 251.046 286.709 250.395 286.137C249.744 285.566 249.418 284.637 249.418 283.351V276.087H247.87V273.872H249.418V270.61H252.157V273.872H255.348V276.087H252.157ZM259.232 272.134C258.74 272.134 258.327 271.967 257.993 271.634C257.66 271.3 257.493 270.887 257.493 270.395C257.493 269.903 257.66 269.49 257.993 269.157C258.327 268.823 258.74 268.657 259.232 268.657C259.708 268.657 260.113 268.823 260.446 269.157C260.78 269.49 260.947 269.903 260.947 270.395C260.947 270.887 260.78 271.3 260.446 271.634C260.113 271.967 259.708 272.134 259.232 272.134ZM260.566 273.872V286.995H257.851V273.872H260.566ZM269.822 287.209C268.584 287.209 267.464 286.931 266.464 286.375C265.464 285.804 264.678 285.01 264.106 283.994C263.535 282.962 263.249 281.771 263.249 280.422C263.249 279.088 263.543 277.905 264.13 276.873C264.717 275.841 265.519 275.047 266.535 274.491C267.552 273.936 268.687 273.658 269.941 273.658C271.195 273.658 272.331 273.936 273.347 274.491C274.363 275.047 275.165 275.841 275.752 276.873C276.339 277.905 276.633 279.088 276.633 280.422C276.633 281.755 276.332 282.938 275.728 283.97C275.125 285.002 274.299 285.804 273.251 286.375C272.219 286.931 271.076 287.209 269.822 287.209ZM269.822 284.851C270.521 284.851 271.171 284.685 271.775 284.351C272.394 284.018 272.894 283.518 273.275 282.851C273.656 282.184 273.847 281.374 273.847 280.422C273.847 279.469 273.664 278.667 273.299 278.016C272.934 277.349 272.45 276.849 271.846 276.516C271.243 276.182 270.592 276.016 269.893 276.016C269.195 276.016 268.544 276.182 267.941 276.516C267.353 276.849 266.885 277.349 266.535 278.016C266.186 278.667 266.011 279.469 266.011 280.422C266.011 281.835 266.369 282.93 267.083 283.708C267.813 284.47 268.726 284.851 269.822 284.851ZM285.938 273.658C286.97 273.658 287.891 273.872 288.7 274.301C289.526 274.73 290.169 275.365 290.629 276.206C291.09 277.048 291.32 278.064 291.32 279.255V286.995H288.629V279.659C288.629 278.485 288.335 277.588 287.748 276.968C287.16 276.333 286.359 276.016 285.342 276.016C284.326 276.016 283.517 276.333 282.913 276.968C282.326 277.588 282.032 278.485 282.032 279.659V286.995H279.317V273.872H282.032V275.373C282.477 274.833 283.04 274.412 283.723 274.11C284.422 273.809 285.16 273.658 285.938 273.658ZM93.4932 323.374C93.4932 322.056 93.7631 320.889 94.3029 319.873C94.8586 318.857 95.6048 318.071 96.5416 317.515C97.4942 316.944 98.5421 316.658 99.6852 316.658C100.717 316.658 101.614 316.864 102.376 317.277C103.154 317.674 103.774 318.174 104.234 318.778V316.872H106.973V329.995H104.234V328.042C103.774 328.661 103.146 329.177 102.353 329.59C101.559 330.003 100.654 330.209 99.6376 330.209C98.5103 330.209 97.4783 329.923 96.5416 329.352C95.6048 328.764 94.8586 327.954 94.3029 326.922C93.7631 325.875 93.4932 324.692 93.4932 323.374ZM104.234 323.422C104.234 322.517 104.043 321.731 103.662 321.064C103.297 320.397 102.813 319.889 102.21 319.54C101.606 319.19 100.955 319.016 100.257 319.016C99.5582 319.016 98.9072 319.19 98.3039 319.54C97.7006 319.873 97.2084 320.373 96.8274 321.04C96.4622 321.691 96.2796 322.469 96.2796 323.374C96.2796 324.279 96.4622 325.073 96.8274 325.755C97.2084 326.438 97.7006 326.962 98.3039 327.327C98.9231 327.677 99.5741 327.851 100.257 327.851C100.955 327.851 101.606 327.677 102.21 327.327C102.813 326.978 103.297 326.47 103.662 325.803C104.043 325.12 104.234 324.327 104.234 323.422ZM117.159 316.658C118.191 316.658 119.112 316.872 119.922 317.301C120.748 317.73 121.391 318.365 121.851 319.206C122.312 320.048 122.542 321.064 122.542 322.255V329.995H119.851V322.659C119.851 321.485 119.557 320.588 118.969 319.968C118.382 319.333 117.58 319.016 116.564 319.016C115.548 319.016 114.738 319.333 114.135 319.968C113.547 320.588 113.254 321.485 113.254 322.659V329.995H110.539V316.872H113.254V318.373C113.698 317.833 114.262 317.412 114.945 317.11C115.643 316.809 116.381 316.658 117.159 316.658ZM125.1 323.374C125.1 322.056 125.37 320.889 125.91 319.873C126.465 318.857 127.212 318.071 128.148 317.515C129.101 316.944 130.157 316.658 131.316 316.658C132.173 316.658 133.015 316.848 133.84 317.23C134.682 317.595 135.348 318.087 135.841 318.706V312.371H138.579V329.995H135.841V328.018C135.396 328.653 134.777 329.177 133.983 329.59C133.205 330.003 132.308 330.209 131.292 330.209C130.149 330.209 129.101 329.923 128.148 329.352C127.212 328.764 126.465 327.954 125.91 326.922C125.37 325.875 125.1 324.692 125.1 323.374ZM135.841 323.422C135.841 322.517 135.65 321.731 135.269 321.064C134.904 320.397 134.42 319.889 133.816 319.54C133.213 319.19 132.562 319.016 131.863 319.016C131.165 319.016 130.514 319.19 129.911 319.54C129.307 319.873 128.815 320.373 128.434 321.04C128.069 321.691 127.886 322.469 127.886 323.374C127.886 324.279 128.069 325.073 128.434 325.755C128.815 326.438 129.307 326.962 129.911 327.327C130.53 327.677 131.181 327.851 131.863 327.851C132.562 327.851 133.213 327.677 133.816 327.327C134.42 326.978 134.904 326.47 135.269 325.803C135.65 325.12 135.841 324.327 135.841 323.422ZM160.359 323.112C160.359 323.604 160.327 324.049 160.263 324.446H150.237C150.317 325.494 150.705 326.335 151.404 326.97C152.103 327.605 152.96 327.923 153.976 327.923C155.437 327.923 156.469 327.311 157.072 326.089H160.001C159.605 327.296 158.882 328.288 157.834 329.066C156.802 329.828 155.516 330.209 153.976 330.209C152.722 330.209 151.595 329.931 150.594 329.375C149.61 328.804 148.832 328.01 148.26 326.994C147.705 325.962 147.427 324.771 147.427 323.422C147.427 322.072 147.697 320.889 148.237 319.873C148.792 318.841 149.562 318.047 150.547 317.491C151.547 316.936 152.69 316.658 153.976 316.658C155.215 316.658 156.318 316.928 157.287 317.468C158.255 318.008 159.009 318.77 159.549 319.754C160.089 320.722 160.359 321.842 160.359 323.112ZM157.525 322.255C157.509 321.254 157.152 320.453 156.453 319.849C155.754 319.246 154.889 318.944 153.857 318.944C152.92 318.944 152.119 319.246 151.452 319.849C150.785 320.437 150.388 321.238 150.261 322.255H157.525ZM165.745 318.778C166.142 318.111 166.666 317.595 167.317 317.23C167.984 316.848 168.77 316.658 169.675 316.658V319.468H168.984C167.921 319.468 167.111 319.738 166.555 320.278C166.015 320.818 165.745 321.754 165.745 323.088V329.995H163.031V316.872H165.745V318.778ZM174.886 318.778C175.283 318.111 175.806 317.595 176.457 317.23C177.124 316.848 177.91 316.658 178.815 316.658V319.468H178.124C177.061 319.468 176.251 319.738 175.695 320.278C175.155 320.818 174.886 321.754 174.886 323.088V329.995H172.171V316.872H174.886V318.778ZM187.003 330.209C185.764 330.209 184.645 329.931 183.645 329.375C182.644 328.804 181.859 328.01 181.287 326.994C180.715 325.962 180.43 324.771 180.43 323.422C180.43 322.088 180.723 320.905 181.311 319.873C181.898 318.841 182.7 318.047 183.716 317.491C184.732 316.936 185.867 316.658 187.122 316.658C188.376 316.658 189.511 316.936 190.527 317.491C191.543 318.047 192.345 318.841 192.933 319.873C193.52 320.905 193.814 322.088 193.814 323.422C193.814 324.755 193.512 325.938 192.909 326.97C192.306 328.002 191.48 328.804 190.432 329.375C189.4 329.931 188.257 330.209 187.003 330.209ZM187.003 327.851C187.701 327.851 188.352 327.685 188.956 327.351C189.575 327.018 190.075 326.518 190.456 325.851C190.837 325.184 191.027 324.374 191.027 323.422C191.027 322.469 190.845 321.667 190.48 321.016C190.115 320.349 189.63 319.849 189.027 319.516C188.424 319.182 187.773 319.016 187.074 319.016C186.376 319.016 185.725 319.182 185.121 319.516C184.534 319.849 184.065 320.349 183.716 321.016C183.367 321.667 183.192 322.469 183.192 323.422C183.192 324.835 183.549 325.93 184.264 326.708C184.994 327.47 185.907 327.851 187.003 327.851ZM199.213 318.778C199.61 318.111 200.134 317.595 200.785 317.23C201.451 316.848 202.237 316.658 203.142 316.658V319.468H202.452C201.388 319.468 200.578 319.738 200.022 320.278C199.483 320.818 199.213 321.754 199.213 323.088V329.995H196.498V316.872H199.213V318.778ZM214.539 318.801C215 318.198 215.627 317.69 216.421 317.277C217.215 316.864 218.112 316.658 219.112 316.658C220.255 316.658 221.295 316.944 222.232 317.515C223.184 318.071 223.931 318.857 224.47 319.873C225.01 320.889 225.28 322.056 225.28 323.374C225.28 324.692 225.01 325.875 224.47 326.922C223.931 327.954 223.184 328.764 222.232 329.352C221.295 329.923 220.255 330.209 219.112 330.209C218.112 330.209 217.223 330.011 216.445 329.614C215.667 329.201 215.031 328.693 214.539 328.089V336.234H211.824V316.872H214.539V318.801ZM222.517 323.374C222.517 322.469 222.327 321.691 221.946 321.04C221.581 320.373 221.089 319.873 220.469 319.54C219.866 319.19 219.215 319.016 218.516 319.016C217.834 319.016 217.183 319.19 216.564 319.54C215.96 319.889 215.468 320.397 215.087 321.064C214.722 321.731 214.539 322.517 214.539 323.422C214.539 324.327 214.722 325.12 215.087 325.803C215.468 326.47 215.96 326.978 216.564 327.327C217.183 327.677 217.834 327.851 218.516 327.851C219.215 327.851 219.866 327.677 220.469 327.327C221.089 326.962 221.581 326.438 221.946 325.755C222.327 325.073 222.517 324.279 222.517 323.374ZM230.68 318.778C231.077 318.111 231.601 317.595 232.252 317.23C232.919 316.848 233.704 316.658 234.609 316.658V319.468H233.919C232.855 319.468 232.045 319.738 231.49 320.278C230.95 320.818 230.68 321.754 230.68 323.088V329.995H227.965V316.872H230.68V318.778ZM242.797 330.209C241.559 330.209 240.439 329.931 239.439 329.375C238.439 328.804 237.653 328.01 237.081 326.994C236.51 325.962 236.224 324.771 236.224 323.422C236.224 322.088 236.518 320.905 237.105 319.873C237.692 318.841 238.494 318.047 239.51 317.491C240.527 316.936 241.662 316.658 242.916 316.658C244.17 316.658 245.306 316.936 246.322 317.491C247.338 318.047 248.14 318.841 248.727 319.873C249.314 320.905 249.608 322.088 249.608 323.422C249.608 324.755 249.307 325.938 248.703 326.97C248.1 328.002 247.274 328.804 246.226 329.375C245.194 329.931 244.051 330.209 242.797 330.209ZM242.797 327.851C243.496 327.851 244.146 327.685 244.75 327.351C245.369 327.018 245.869 326.518 246.25 325.851C246.631 325.184 246.822 324.374 246.822 323.422C246.822 322.469 246.639 321.667 246.274 321.016C245.909 320.349 245.425 319.849 244.821 319.516C244.218 319.182 243.567 319.016 242.868 319.016C242.17 319.016 241.519 319.182 240.916 319.516C240.328 319.849 239.86 320.349 239.51 321.016C239.161 321.667 238.986 322.469 238.986 323.422C238.986 324.835 239.344 325.93 240.058 326.708C240.789 327.47 241.701 327.851 242.797 327.851ZM257.984 330.209C256.746 330.209 255.626 329.931 254.626 329.375C253.626 328.804 252.84 328.01 252.268 326.994C251.697 325.962 251.411 324.771 251.411 323.422C251.411 322.088 251.705 320.905 252.292 319.873C252.88 318.841 253.681 318.047 254.697 317.491C255.714 316.936 256.849 316.658 258.103 316.658C259.357 316.658 260.493 316.936 261.509 317.491C262.525 318.047 263.327 318.841 263.914 319.873C264.501 320.905 264.795 322.088 264.795 323.422C264.795 324.755 264.494 325.938 263.89 326.97C263.287 328.002 262.461 328.804 261.413 329.375C260.381 329.931 259.238 330.209 257.984 330.209ZM257.984 327.851C258.683 327.851 259.334 327.685 259.937 327.351C260.556 327.018 261.056 326.518 261.437 325.851C261.818 325.184 262.009 324.374 262.009 323.422C262.009 322.469 261.826 321.667 261.461 321.016C261.096 320.349 260.612 319.849 260.008 319.516C259.405 319.182 258.754 319.016 258.055 319.016C257.357 319.016 256.706 319.182 256.103 319.516C255.515 319.849 255.047 320.349 254.697 321.016C254.348 321.667 254.173 322.469 254.173 323.422C254.173 324.835 254.531 325.93 255.245 326.708C255.976 327.47 256.888 327.851 257.984 327.851ZM272.98 319.087H270.551V329.995H267.812V319.087H266.264V316.872H267.812V315.943C267.812 314.435 268.209 313.34 269.003 312.657C269.813 311.958 271.075 311.609 272.79 311.609V313.872C271.964 313.872 271.385 314.03 271.051 314.348C270.718 314.65 270.551 315.181 270.551 315.943V316.872H272.98V319.087ZM276.768 315.134C276.276 315.134 275.863 314.967 275.529 314.634C275.196 314.3 275.029 313.887 275.029 313.395C275.029 312.903 275.196 312.49 275.529 312.157C275.863 311.823 276.276 311.657 276.768 311.657C277.244 311.657 277.649 311.823 277.982 312.157C278.316 312.49 278.483 312.903 278.483 313.395C278.483 313.887 278.316 314.3 277.982 314.634C277.649 314.967 277.244 315.134 276.768 315.134ZM278.102 316.872V329.995H275.387V316.872H278.102ZM288.287 316.658C289.319 316.658 290.24 316.872 291.049 317.301C291.875 317.73 292.518 318.365 292.978 319.206C293.439 320.048 293.669 321.064 293.669 322.255V329.995H290.978V322.659C290.978 321.485 290.684 320.588 290.097 319.968C289.509 319.333 288.707 319.016 287.691 319.016C286.675 319.016 285.866 319.333 285.262 319.968C284.675 320.588 284.381 321.485 284.381 322.659V329.995H281.666V316.872H284.381V318.373C284.826 317.833 285.389 317.412 286.072 317.11C286.77 316.809 287.509 316.658 288.287 316.658ZM302.419 316.658C303.435 316.658 304.332 316.864 305.11 317.277C305.904 317.674 306.523 318.174 306.968 318.778V316.872H309.707V330.209C309.707 331.416 309.453 332.487 308.945 333.424C308.437 334.377 307.698 335.123 306.73 335.663C305.777 336.203 304.634 336.472 303.3 336.472C301.522 336.472 300.046 336.052 298.871 335.21C297.696 334.385 297.029 333.257 296.87 331.828H299.561C299.768 332.511 300.204 333.059 300.871 333.472C301.554 333.9 302.364 334.115 303.3 334.115C304.396 334.115 305.277 333.781 305.944 333.114C306.627 332.448 306.968 331.479 306.968 330.209V328.018C306.508 328.637 305.88 329.161 305.087 329.59C304.309 330.003 303.419 330.209 302.419 330.209C301.276 330.209 300.228 329.923 299.276 329.352C298.339 328.764 297.593 327.954 297.037 326.922C296.497 325.875 296.227 324.692 296.227 323.374C296.227 322.056 296.497 320.889 297.037 319.873C297.593 318.857 298.339 318.071 299.276 317.515C300.228 316.944 301.276 316.658 302.419 316.658ZM306.968 323.422C306.968 322.517 306.777 321.731 306.396 321.064C306.031 320.397 305.547 319.889 304.944 319.54C304.34 319.19 303.689 319.016 302.991 319.016C302.292 319.016 301.641 319.19 301.038 319.54C300.435 319.873 299.942 320.373 299.561 321.04C299.196 321.691 299.014 322.469 299.014 323.374C299.014 324.279 299.196 325.073 299.561 325.755C299.942 326.438 300.435 326.962 301.038 327.327C301.657 327.677 302.308 327.851 302.991 327.851C303.689 327.851 304.34 327.677 304.944 327.327C305.547 326.978 306.031 326.47 306.396 325.803C306.777 325.12 306.968 324.327 306.968 323.422Z" fill="black"/>
<defs>
<filter id="filter0_d_235_570" x="0.998212" y="0.739234" width="403.466" height="421.786" filterUnits="userSpaceOnUse" color-interpolation-filters="sRGB">
<feFlood flood-opacity="0" result="BackgroundImageFix"/>
<feColorMatrix in="SourceAlpha" type="matrix" values="0 0 0 0 0 0 0 0 0 0 0 0 0 0 0 0 0 0 127 0" result="hardAlpha"/>
<feOffset dx="-0.810453" dy="0.810453"/>
<feGaussianBlur stdDeviation="14.9934"/>
<feComposite in2="hardAlpha" operator="out"/>
<feColorMatrix type="matrix" values="0 0 0 0 0.8375 0 0 0 0 0.8375 0 0 0 0 0.8375 0 0 0 0.6 0"/>
<feBlend mode="normal" in2="BackgroundImageFix" result="effect1_dropShadow_235_570"/>
<feBlend mode="normal" in="SourceGraphic" in2="effect1_dropShadow_235_570" result="shape"/>
</filter>
<filter id="filter1_d_235_570" x="276.402" y="151.091" width="11.424" height="24.4035" filterUnits="userSpaceOnUse" color-interpolation-filters="sRGB">
<feFlood flood-opacity="0" result="BackgroundImageFix"/>
<feColorMatrix in="SourceAlpha" type="matrix" values="0 0 0 0 0 0 0 0 0 0 0 0 0 0 0 0 0 0 127 0" result="hardAlpha"/>
<feOffset dy="3.66392"/>
<feGaussianBlur stdDeviation="1.83196"/>
<feComposite in2="hardAlpha" operator="out"/>
<feColorMatrix type="matrix" values="0 0 0 0 0.8125 0 0 0 0 0.8125 0 0 0 0 0.8125 0 0 0 1 0"/>
<feBlend mode="normal" in2="BackgroundImageFix" result="effect1_dropShadow_235_570"/>
<feBlend mode="normal" in="SourceGraphic" in2="effect1_dropShadow_235_570" result="shape"/>
</filter>
</defs>
</svg>
