<svg width="405" height="423" viewBox="0 0 405 423" fill="none" xmlns="http://www.w3.org/2000/svg">
<g filter="url(#filter0_d_235_547)">
<rect x="31.5078" y="29.916" width="343.493" height="361.812" rx="8.10453" fill="white"/>
</g>
<path d="M31.5078 38.0205C31.5078 33.5445 35.1363 29.916 39.6123 29.916H366.896C371.372 29.916 375 33.5445 375 38.0205V210.364H31.5078V38.0205Z" fill="#E6F2FF"/>
<rect x="180.318" y="61.9751" width="35.6117" height="37.0955" rx="0.91598" transform="rotate(11.5 180.318 61.9751)" fill="#B3D8FF" stroke="black" stroke-width="1.37397"/>
<rect width="35.6117" height="37.0955" rx="0.91598" transform="matrix(0.979925 -0.199368 -0.199368 -0.979925 203.872 112.301)" fill="#E6F2FF" stroke="black" stroke-width="1.37397"/>
<path d="M89.6797 181.766H317.747" stroke="black" stroke-width="1.7719" stroke-linecap="round" stroke-linejoin="round"/>
<path d="M251.626 147.668H177.692C176.895 147.668 176.189 147.153 175.947 146.393L156.551 85.6207H271.613C272.87 85.6207 273.753 86.8571 273.346 88.046L253.359 146.43C253.106 147.171 252.409 147.668 251.626 147.668Z" fill="white"/>
<path d="M134.989 68.8511H149.861C150.658 68.8511 151.364 69.3666 151.606 70.126L156.551 85.6207M156.551 85.6207L175.947 146.393C176.189 147.153 176.895 147.668 177.692 147.668H251.626C252.409 147.668 253.106 147.171 253.359 146.43L273.346 88.046C273.753 86.8571 272.87 85.6207 271.613 85.6207H156.551Z" stroke="black" stroke-width="1.83196" stroke-linecap="square"/>
<path d="M245.765 139.283H185.171C184.784 139.283 184.438 139.04 184.308 138.676L168.965 95.7885C168.752 95.1919 169.194 94.564 169.828 94.564H262.223C262.865 94.564 263.308 95.2082 263.078 95.8081L246.62 138.695C246.484 139.049 246.144 139.283 245.765 139.283Z" fill="#E6F2FF"/>
<path d="M217.159 101.272L221.17 104.02L226.03 104.154L227.66 108.735L231.513 111.701L230.139 116.365L231.513 121.029L227.66 123.994L226.03 128.575L221.17 128.709L217.159 131.457L213.148 128.709L208.288 128.575L206.658 123.994L202.805 121.029L204.179 116.365L202.805 111.701L206.658 108.735L208.288 104.154L213.148 104.02L217.159 101.272Z" fill="#80BDFF"/>
<path d="M134.987 178.304V123.707C134.987 122.578 135.403 121.49 136.157 120.649L148.155 107.266C149.024 106.297 150.264 105.744 151.565 105.744H169.424C170.639 105.744 171.804 106.226 172.662 107.085L186.19 120.613C187.049 121.472 187.532 122.637 187.532 123.851V178.304C187.532 180.833 185.481 182.884 182.952 182.884H139.567C137.037 182.884 134.987 180.833 134.987 178.304Z" fill="white" stroke="black" stroke-width="1.83196" stroke-linecap="square"/>
<path d="M140.787 178.765C136.662 178.012 135.457 176.412 135.075 175.471C134.617 182.247 136.221 183 140.787 183H182.03C187.529 183 187.376 177.667 186.613 175C186.154 178.012 181.839 178.765 179.739 178.765H140.787Z" fill="#80BDFF"/>
<g filter="url(#filter1_d_235_547)">
<path d="M164.73 131.818H168.433L157.916 157.262H154.174L164.73 131.818ZM153.15 131.7C154.831 131.7 156.183 132.225 157.207 133.275C158.258 134.326 158.783 136.177 158.783 138.829C158.783 141.481 158.258 143.332 157.207 144.382C156.183 145.433 154.831 145.958 153.15 145.958C152.074 145.958 151.102 145.735 150.236 145.288C149.395 144.842 148.739 144.094 148.266 143.043C147.794 141.993 147.557 140.588 147.557 138.829C147.557 137.043 147.794 135.638 148.266 134.614C148.739 133.564 149.395 132.816 150.236 132.369C151.102 131.923 152.074 131.7 153.15 131.7ZM153.15 135.166C152.809 135.166 152.494 135.271 152.205 135.481C151.942 135.665 151.719 136.019 151.535 136.544C151.378 137.07 151.299 137.831 151.299 138.829C151.299 139.8 151.378 140.549 151.535 141.074C151.719 141.599 151.942 141.967 152.205 142.177C152.494 142.361 152.809 142.452 153.15 142.452C153.492 142.452 153.807 142.361 154.096 142.177C154.384 141.967 154.608 141.599 154.765 141.074C154.949 140.549 155.041 139.8 155.041 138.829C155.041 137.831 154.949 137.07 154.765 136.544C154.608 136.019 154.384 135.665 154.096 135.481C153.807 135.271 153.492 135.166 153.15 135.166ZM169.338 142.964C171.019 142.964 172.371 143.49 173.395 144.54C174.446 145.59 174.971 147.441 174.971 150.094C174.971 152.746 174.446 154.597 173.395 155.647C172.371 156.697 171.019 157.223 169.338 157.223C168.236 157.223 167.264 156.999 166.424 156.553C165.584 156.107 164.914 155.358 164.415 154.308C163.942 153.258 163.706 151.853 163.706 150.094C163.706 148.308 163.942 146.903 164.415 145.879C164.914 144.829 165.584 144.08 166.424 143.634C167.264 143.188 168.236 142.964 169.338 142.964ZM169.338 146.47C168.997 146.47 168.682 146.562 168.393 146.746C168.131 146.929 167.907 147.284 167.724 147.809C167.566 148.334 167.487 149.096 167.487 150.094C167.487 151.091 167.566 151.853 167.724 152.378C167.907 152.903 168.131 153.271 168.393 153.481C168.682 153.665 168.997 153.757 169.338 153.757C169.68 153.757 169.982 153.665 170.244 153.481C170.533 153.271 170.756 152.903 170.914 152.378C171.098 151.853 171.19 151.091 171.19 150.094C171.19 149.096 171.098 148.334 170.914 147.809C170.756 147.284 170.533 146.929 170.244 146.746C169.982 146.562 169.68 146.47 169.338 146.47Z" fill="#007AFF"/>
</g>
<circle cx="161.82" cy="115.805" r="3.35393" fill="#B3D8FF"/>
<path d="M186.973 170.028H245.107" stroke="black" stroke-width="1.83196"/>
<circle cx="206.297" cy="170.587" r="10.0618" fill="white" stroke="black" stroke-width="1.37397"/>
<circle cx="250.377" cy="170.587" r="10.0618" fill="white" stroke="black" stroke-width="1.37397"/>
<g filter="url(#filter2_d_235_547)">
<circle cx="206.298" cy="170.587" r="4.31219" fill="#007AFF"/>
</g>
<g filter="url(#filter3_d_235_547)">
<circle cx="250.377" cy="170.587" r="4.31219" fill="#007AFF"/>
</g>
<path d="M66.4073 254.211C65.9787 253.386 65.3833 252.767 64.6212 252.354C63.8591 251.925 62.9779 251.711 61.9777 251.711C60.8822 251.711 59.9057 251.957 59.0484 252.449C58.191 252.941 57.5162 253.64 57.024 254.545C56.5477 255.45 56.3096 256.498 56.3096 257.688C56.3096 258.879 56.5477 259.935 57.024 260.856C57.5162 261.761 58.191 262.459 59.0484 262.952C59.9057 263.444 60.8822 263.69 61.9777 263.69C63.4542 263.69 64.6529 263.277 65.5738 262.451C66.4947 261.626 67.0583 260.507 67.2647 259.094H61.0489V256.926H70.1702V259.046C69.9956 260.332 69.5351 261.515 68.7889 262.594C68.0586 263.674 67.098 264.539 65.9072 265.19C64.7323 265.825 63.4225 266.143 61.9777 266.143C60.4217 266.143 59.0007 265.786 57.7147 265.071C56.4287 264.341 55.4046 263.333 54.6425 262.047C53.8963 260.761 53.5232 259.308 53.5232 257.688C53.5232 256.069 53.8963 254.616 54.6425 253.33C55.4046 252.044 56.4287 251.044 57.7147 250.329C59.0166 249.599 60.4376 249.234 61.9777 249.234C63.74 249.234 65.3039 249.671 66.6693 250.544C68.0506 251.401 69.0509 252.624 69.6701 254.211H66.4073ZM84.8748 259.117C84.8748 259.61 84.843 260.054 84.7795 260.451H74.7532C74.8326 261.499 75.2216 262.34 75.9201 262.975C76.6187 263.611 77.4761 263.928 78.4922 263.928C79.9529 263.928 80.9849 263.317 81.5882 262.094H84.5175C84.1206 263.301 83.3982 264.293 82.3503 265.071C81.3183 265.833 80.0323 266.214 78.4922 266.214C77.2379 266.214 76.1107 265.936 75.1104 265.381C74.126 264.809 73.3481 264.015 72.7765 262.999C72.2208 261.967 71.943 260.776 71.943 259.427C71.943 258.077 72.2129 256.895 72.7527 255.878C73.3084 254.846 74.0784 254.053 75.0628 253.497C76.063 252.941 77.2062 252.663 78.4922 252.663C79.7306 252.663 80.8341 252.933 81.8026 253.473C82.7711 254.013 83.5252 254.775 84.065 255.759C84.6049 256.728 84.8748 257.847 84.8748 259.117ZM82.0407 258.26C82.0249 257.26 81.6676 256.458 80.969 255.855C80.2704 255.251 79.4051 254.95 78.3731 254.95C77.4364 254.95 76.6346 255.251 75.9678 255.855C75.3009 256.442 74.904 257.244 74.777 258.26H82.0407ZM90.714 255.093V262.356C90.714 262.848 90.8252 263.206 91.0474 263.428C91.2856 263.634 91.6825 263.738 92.2382 263.738H93.9053V266H91.7619C90.5394 266 89.6026 265.714 88.9517 265.143C88.3007 264.571 87.9753 263.642 87.9753 262.356V255.093H86.4272V252.878H87.9753V249.615H90.714V252.878H93.9053V255.093H90.714ZM217.118 255.093V262.356C217.118 262.848 217.229 263.206 217.451 263.428C217.689 263.634 218.086 263.738 218.642 263.738H220.309V266H218.165C216.943 266 216.006 265.714 215.355 265.143C214.704 264.571 214.379 263.642 214.379 262.356V255.093H212.831V252.878H214.379V249.615H217.118V252.878H220.309V255.093H217.118ZM221.906 259.379C221.906 258.062 222.176 256.895 222.716 255.878C223.272 254.862 224.018 254.076 224.954 253.521C225.907 252.949 226.955 252.663 228.098 252.663C229.13 252.663 230.027 252.87 230.789 253.283C231.567 253.679 232.186 254.18 232.647 254.783V252.878H235.386V266H232.647V264.047C232.186 264.666 231.559 265.182 230.765 265.595C229.972 266.008 229.067 266.214 228.051 266.214C226.923 266.214 225.891 265.929 224.954 265.357C224.018 264.77 223.272 263.96 222.716 262.928C222.176 261.88 221.906 260.697 221.906 259.379ZM232.647 259.427C232.647 258.522 232.456 257.736 232.075 257.069C231.71 256.402 231.226 255.894 230.623 255.545C230.019 255.196 229.368 255.021 228.67 255.021C227.971 255.021 227.32 255.196 226.717 255.545C226.114 255.878 225.621 256.379 225.24 257.045C224.875 257.696 224.693 258.474 224.693 259.379C224.693 260.284 224.875 261.078 225.24 261.761C225.621 262.444 226.114 262.967 226.717 263.333C227.336 263.682 227.987 263.857 228.67 263.857C229.368 263.857 230.019 263.682 230.623 263.333C231.226 262.983 231.71 262.475 232.075 261.808C232.456 261.126 232.647 260.332 232.647 259.427ZM244.572 259.355L248.811 266H245.739L242.905 261.547L240.238 266H237.404L241.643 259.546L237.404 252.878H240.476L243.31 257.331L245.977 252.878H248.811L244.572 259.355ZM256.118 259.427C256.118 258.077 256.388 256.895 256.927 255.878C257.483 254.846 258.245 254.053 259.214 253.497C260.182 252.941 261.294 252.663 262.548 252.663C264.135 252.663 265.445 253.044 266.477 253.806C267.525 254.553 268.232 255.624 268.597 257.022H265.668C265.429 256.371 265.048 255.863 264.524 255.497C264.001 255.132 263.342 254.95 262.548 254.95C261.436 254.95 260.547 255.347 259.88 256.14C259.229 256.918 258.904 258.014 258.904 259.427C258.904 260.84 259.229 261.943 259.88 262.737C260.547 263.531 261.436 263.928 262.548 263.928C264.12 263.928 265.16 263.237 265.668 261.856H268.597C268.216 263.19 267.501 264.254 266.454 265.047C265.406 265.825 264.104 266.214 262.548 266.214C261.294 266.214 260.182 265.936 259.214 265.381C258.245 264.809 257.483 264.015 256.927 262.999C256.388 261.967 256.118 260.776 256.118 259.427ZM274.018 254.783C274.414 254.116 274.938 253.6 275.589 253.235C276.256 252.854 277.042 252.663 277.947 252.663V255.474H277.256C276.193 255.474 275.383 255.743 274.827 256.283C274.287 256.823 274.018 257.76 274.018 259.094V266H271.303V252.878H274.018V254.783ZM292.47 259.117C292.47 259.61 292.438 260.054 292.374 260.451H282.348C282.427 261.499 282.816 262.34 283.515 262.975C284.214 263.611 285.071 263.928 286.087 263.928C287.548 263.928 288.58 263.317 289.183 262.094H292.112C291.715 263.301 290.993 264.293 289.945 265.071C288.913 265.833 287.627 266.214 286.087 266.214C284.833 266.214 283.705 265.936 282.705 265.381C281.721 264.809 280.943 264.015 280.371 262.999C279.816 261.967 279.538 260.776 279.538 259.427C279.538 258.077 279.808 256.895 280.347 255.878C280.903 254.846 281.673 254.053 282.658 253.497C283.658 252.941 284.801 252.663 286.087 252.663C287.325 252.663 288.429 252.933 289.397 253.473C290.366 254.013 291.12 254.775 291.66 255.759C292.2 256.728 292.47 257.847 292.47 259.117ZM289.635 258.26C289.62 257.26 289.262 256.458 288.564 255.855C287.865 255.251 287 254.95 285.968 254.95C285.031 254.95 284.229 255.251 283.563 255.855C282.896 256.442 282.499 257.244 282.372 258.26H289.635ZM294.236 259.379C294.236 258.062 294.506 256.895 295.046 255.878C295.602 254.862 296.348 254.076 297.285 253.521C298.237 252.949 299.293 252.663 300.452 252.663C301.31 252.663 302.151 252.854 302.977 253.235C303.818 253.6 304.485 254.092 304.977 254.711V248.377H307.716V266H304.977V264.023C304.533 264.658 303.913 265.182 303.12 265.595C302.342 266.008 301.444 266.214 300.428 266.214C299.285 266.214 298.237 265.929 297.285 265.357C296.348 264.77 295.602 263.96 295.046 262.928C294.506 261.88 294.236 260.697 294.236 259.379ZM304.977 259.427C304.977 258.522 304.787 257.736 304.406 257.069C304.04 256.402 303.556 255.894 302.953 255.545C302.349 255.196 301.699 255.021 301 255.021C300.301 255.021 299.65 255.196 299.047 255.545C298.444 255.878 297.952 256.379 297.571 257.045C297.205 257.696 297.023 258.474 297.023 259.379C297.023 260.284 297.205 261.078 297.571 261.761C297.952 262.444 298.444 262.967 299.047 263.333C299.666 263.682 300.317 263.857 301 263.857C301.699 263.857 302.349 263.682 302.953 263.333C303.556 262.983 304.04 262.475 304.406 261.808C304.787 261.126 304.977 260.332 304.977 259.427ZM312.663 251.139C312.171 251.139 311.758 250.972 311.425 250.639C311.091 250.306 310.925 249.893 310.925 249.401C310.925 248.908 311.091 248.496 311.425 248.162C311.758 247.829 312.171 247.662 312.663 247.662C313.139 247.662 313.544 247.829 313.878 248.162C314.211 248.496 314.378 248.908 314.378 249.401C314.378 249.893 314.211 250.306 313.878 250.639C313.544 250.972 313.139 251.139 312.663 251.139ZM313.997 252.878V266H311.282V252.878H313.997ZM320.729 255.093V262.356C320.729 262.848 320.84 263.206 321.062 263.428C321.3 263.634 321.697 263.738 322.253 263.738H323.92V266H321.777C320.554 266 319.617 265.714 318.966 265.143C318.316 264.571 317.99 263.642 317.99 262.356V255.093H316.442V252.878H317.99V249.615H320.729V252.878H323.92V255.093H320.729ZM331.186 266.214C330.154 266.214 329.225 266.032 328.399 265.667C327.589 265.286 326.946 264.777 326.47 264.142C325.994 263.491 325.74 262.769 325.708 261.975H328.518C328.566 262.531 328.828 262.999 329.304 263.38C329.796 263.745 330.408 263.928 331.138 263.928C331.9 263.928 332.487 263.785 332.9 263.499C333.329 263.198 333.543 262.817 333.543 262.356C333.543 261.864 333.305 261.499 332.829 261.261C332.368 261.023 331.63 260.761 330.614 260.475C329.63 260.205 328.828 259.943 328.209 259.689C327.589 259.435 327.05 259.046 326.589 258.522C326.145 257.998 325.922 257.307 325.922 256.45C325.922 255.751 326.129 255.116 326.542 254.545C326.954 253.957 327.542 253.497 328.304 253.163C329.082 252.83 329.971 252.663 330.971 252.663C332.464 252.663 333.662 253.044 334.567 253.806C335.488 254.553 335.98 255.577 336.044 256.879H333.329C333.281 256.291 333.043 255.823 332.614 255.474C332.186 255.124 331.606 254.95 330.876 254.95C330.161 254.95 329.614 255.085 329.233 255.354C328.852 255.624 328.661 255.982 328.661 256.426C328.661 256.775 328.788 257.069 329.042 257.307C329.296 257.546 329.606 257.736 329.971 257.879C330.336 258.006 330.876 258.173 331.59 258.379C332.543 258.633 333.321 258.895 333.924 259.165C334.544 259.419 335.075 259.8 335.52 260.308C335.964 260.816 336.195 261.491 336.211 262.332C336.211 263.079 336.004 263.745 335.591 264.333C335.179 264.92 334.591 265.381 333.829 265.714C333.083 266.048 332.202 266.214 331.186 266.214ZM110.961 295.878L106.889 309H104.031L101.387 299.307L98.7438 309H95.8859L91.7896 295.878H94.5522L97.291 306.428L100.077 295.878H102.911L105.579 306.38L108.294 295.878H110.961ZM114.371 294.139C113.879 294.139 113.466 293.972 113.133 293.639C112.8 293.306 112.633 292.893 112.633 292.401C112.633 291.908 112.8 291.496 113.133 291.162C113.466 290.829 113.879 290.662 114.371 290.662C114.848 290.662 115.253 290.829 115.586 291.162C115.919 291.496 116.086 291.908 116.086 292.401C116.086 292.893 115.919 293.306 115.586 293.639C115.253 293.972 114.848 294.139 114.371 294.139ZM115.705 295.878V309H112.99V295.878H115.705ZM122.437 298.093V305.356C122.437 305.848 122.548 306.206 122.77 306.428C123.009 306.634 123.406 306.738 123.961 306.738H125.628V309H123.485C122.262 309 121.326 308.714 120.675 308.143C120.024 307.571 119.698 306.642 119.698 305.356V298.093H118.15V295.878H119.698V292.615H122.437V295.878H125.628V298.093H122.437ZM134.918 295.663C135.918 295.663 136.807 295.878 137.585 296.306C138.379 296.735 138.998 297.37 139.443 298.212C139.903 299.053 140.134 300.069 140.134 301.26V309H137.442V301.665C137.442 300.49 137.149 299.593 136.561 298.974C135.974 298.339 135.172 298.021 134.156 298.021C133.14 298.021 132.33 298.339 131.727 298.974C131.139 299.593 130.846 300.49 130.846 301.665V309H128.131V291.377H130.846V297.402C131.306 296.846 131.885 296.417 132.584 296.116C133.299 295.814 134.077 295.663 134.918 295.663ZM155.475 309.214C154.237 309.214 153.117 308.936 152.117 308.381C151.117 307.809 150.331 307.015 149.759 305.999C149.188 304.967 148.902 303.776 148.902 302.427C148.902 301.093 149.196 299.91 149.783 298.878C150.371 297.846 151.172 297.053 152.189 296.497C153.205 295.941 154.34 295.663 155.594 295.663C156.848 295.663 157.984 295.941 159 296.497C160.016 297.053 160.818 297.846 161.405 298.878C161.993 299.91 162.286 301.093 162.286 302.427C162.286 303.761 161.985 304.943 161.381 305.975C160.778 307.007 159.952 307.809 158.904 308.381C157.872 308.936 156.729 309.214 155.475 309.214ZM155.475 306.857C156.174 306.857 156.825 306.69 157.428 306.356C158.047 306.023 158.547 305.523 158.928 304.856C159.309 304.189 159.5 303.38 159.5 302.427C159.5 301.474 159.317 300.673 158.952 300.022C158.587 299.355 158.103 298.855 157.499 298.521C156.896 298.188 156.245 298.021 155.546 298.021C154.848 298.021 154.197 298.188 153.594 298.521C153.006 298.855 152.538 299.355 152.189 300.022C151.839 300.673 151.665 301.474 151.665 302.427C151.665 303.84 152.022 304.935 152.736 305.713C153.467 306.476 154.38 306.857 155.475 306.857ZM176.854 295.878V309H174.139V307.452C173.71 307.992 173.147 308.42 172.448 308.738C171.766 309.04 171.035 309.191 170.257 309.191C169.225 309.191 168.296 308.976 167.471 308.548C166.661 308.119 166.018 307.484 165.542 306.642C165.081 305.801 164.851 304.785 164.851 303.594V295.878H167.542V303.189C167.542 304.364 167.836 305.269 168.423 305.904C169.011 306.523 169.813 306.833 170.829 306.833C171.845 306.833 172.647 306.523 173.234 305.904C173.837 305.269 174.139 304.364 174.139 303.189V295.878H176.854ZM183.151 297.783C183.548 297.116 184.072 296.6 184.723 296.235C185.39 295.854 186.176 295.663 187.081 295.663V298.474H186.39C185.326 298.474 184.517 298.743 183.961 299.283C183.421 299.823 183.151 300.76 183.151 302.094V309H180.436V295.878H183.151V297.783ZM198.478 297.807C198.938 297.203 199.565 296.695 200.359 296.283C201.153 295.87 202.05 295.663 203.05 295.663C204.194 295.663 205.233 295.949 206.17 296.521C207.123 297.076 207.869 297.862 208.409 298.878C208.949 299.895 209.219 301.062 209.219 302.379C209.219 303.697 208.949 304.88 208.409 305.928C207.869 306.96 207.123 307.77 206.17 308.357C205.233 308.929 204.194 309.214 203.05 309.214C202.05 309.214 201.161 309.016 200.383 308.619C199.605 308.206 198.97 307.698 198.478 307.095V315.24H195.763V295.878H198.478V297.807ZM206.456 302.379C206.456 301.474 206.265 300.696 205.884 300.045C205.519 299.379 205.027 298.878 204.408 298.545C203.805 298.196 203.154 298.021 202.455 298.021C201.772 298.021 201.121 298.196 200.502 298.545C199.899 298.894 199.407 299.402 199.026 300.069C198.66 300.736 198.478 301.522 198.478 302.427C198.478 303.332 198.66 304.126 199.026 304.808C199.407 305.475 199.899 305.983 200.502 306.333C201.121 306.682 201.772 306.857 202.455 306.857C203.154 306.857 203.805 306.682 204.408 306.333C205.027 305.967 205.519 305.444 205.884 304.761C206.265 304.078 206.456 303.284 206.456 302.379ZM217.595 309.214C216.357 309.214 215.238 308.936 214.237 308.381C213.237 307.809 212.451 307.015 211.88 305.999C211.308 304.967 211.022 303.776 211.022 302.427C211.022 301.093 211.316 299.91 211.903 298.878C212.491 297.846 213.293 297.053 214.309 296.497C215.325 295.941 216.46 295.663 217.714 295.663C218.969 295.663 220.104 295.941 221.12 296.497C222.136 297.053 222.938 297.846 223.525 298.878C224.113 299.91 224.407 301.093 224.407 302.427C224.407 303.761 224.105 304.943 223.502 305.975C222.898 307.007 222.073 307.809 221.025 308.381C219.993 308.936 218.85 309.214 217.595 309.214ZM217.595 306.857C218.294 306.857 218.945 306.69 219.548 306.356C220.167 306.023 220.668 305.523 221.049 304.856C221.43 304.189 221.62 303.38 221.62 302.427C221.62 301.474 221.438 300.673 221.072 300.022C220.707 299.355 220.223 298.855 219.62 298.521C219.016 298.188 218.365 298.021 217.667 298.021C216.968 298.021 216.317 298.188 215.714 298.521C215.126 298.855 214.658 299.355 214.309 300.022C213.959 300.673 213.785 301.474 213.785 302.427C213.785 303.84 214.142 304.935 214.857 305.713C215.587 306.476 216.5 306.857 217.595 306.857ZM244.714 295.878L240.641 309H237.784L235.14 299.307L232.497 309H229.639L225.542 295.878H228.305L231.044 306.428L233.83 295.878H236.664L239.332 306.38L242.047 295.878H244.714ZM258.77 302.117C258.77 302.61 258.738 303.054 258.674 303.451H248.648C248.727 304.499 249.116 305.34 249.815 305.975C250.514 306.611 251.371 306.928 252.387 306.928C253.848 306.928 254.88 306.317 255.483 305.094H258.412C258.016 306.301 257.293 307.293 256.245 308.071C255.213 308.833 253.927 309.214 252.387 309.214C251.133 309.214 250.006 308.936 249.005 308.381C248.021 307.809 247.243 307.015 246.671 305.999C246.116 304.967 245.838 303.776 245.838 302.427C245.838 301.077 246.108 299.895 246.648 298.878C247.203 297.846 247.973 297.053 248.958 296.497C249.958 295.941 251.101 295.663 252.387 295.663C253.626 295.663 254.729 295.933 255.697 296.473C256.666 297.013 257.42 297.775 257.96 298.759C258.5 299.728 258.77 300.847 258.77 302.117ZM255.936 301.26C255.92 300.26 255.563 299.458 254.864 298.855C254.165 298.251 253.3 297.95 252.268 297.95C251.331 297.95 250.53 298.251 249.863 298.855C249.196 299.442 248.799 300.244 248.672 301.26H255.936ZM264.156 297.783C264.553 297.116 265.077 296.6 265.728 296.235C266.395 295.854 267.181 295.663 268.086 295.663V298.474H267.395C266.332 298.474 265.522 298.743 264.966 299.283C264.426 299.823 264.156 300.76 264.156 302.094V309H261.441V295.878H264.156V297.783ZM276.083 298.093H273.654V309H270.915V298.093H269.367V295.878H270.915V294.949C270.915 293.441 271.312 292.345 272.106 291.662C272.916 290.964 274.178 290.614 275.892 290.614V292.877C275.067 292.877 274.487 293.036 274.154 293.353C273.821 293.655 273.654 294.187 273.654 294.949V295.878H276.083V298.093ZM290.373 295.878V309H287.658V307.452C287.229 307.992 286.666 308.42 285.967 308.738C285.284 309.04 284.554 309.191 283.776 309.191C282.744 309.191 281.815 308.976 280.99 308.548C280.18 308.119 279.537 307.484 279.061 306.642C278.6 305.801 278.37 304.785 278.37 303.594V295.878H281.061V303.189C281.061 304.364 281.355 305.269 281.942 305.904C282.53 306.523 283.332 306.833 284.348 306.833C285.364 306.833 286.166 306.523 286.753 305.904C287.356 305.269 287.658 304.364 287.658 303.189V295.878H290.373ZM296.67 291.377V309H293.955V291.377H296.67ZM133.109 347.618H126.179L124.988 351H122.154L128.084 334.424H131.228L137.158 351H134.3L133.109 347.618ZM132.347 345.403L129.656 337.711L126.941 345.403H132.347ZM142.451 334.448V351H139.736V334.448H142.451ZM151.297 344.379C151.297 343.062 151.567 341.895 152.107 340.878C152.662 339.862 153.409 339.076 154.345 338.521C155.298 337.949 156.346 337.663 157.489 337.663C158.521 337.663 159.418 337.87 160.18 338.283C160.958 338.679 161.577 339.18 162.038 339.783V337.878H164.776V351H162.038V349.047C161.577 349.666 160.95 350.182 160.156 350.595C159.362 351.008 158.457 351.214 157.441 351.214C156.314 351.214 155.282 350.929 154.345 350.357C153.409 349.77 152.662 348.96 152.107 347.928C151.567 346.88 151.297 345.697 151.297 344.379ZM162.038 344.427C162.038 343.522 161.847 342.736 161.466 342.069C161.101 341.402 160.617 340.894 160.013 340.545C159.41 340.196 158.759 340.021 158.061 340.021C157.362 340.021 156.711 340.196 156.108 340.545C155.504 340.878 155.012 341.379 154.631 342.045C154.266 342.696 154.083 343.474 154.083 344.379C154.083 345.284 154.266 346.078 154.631 346.761C155.012 347.444 155.504 347.967 156.108 348.333C156.727 348.682 157.378 348.857 158.061 348.857C158.759 348.857 159.41 348.682 160.013 348.333C160.617 347.983 161.101 347.475 161.466 346.808C161.847 346.126 162.038 345.332 162.038 344.427ZM171.057 333.377V351H168.342V333.377H171.057ZM179.909 337.663C180.925 337.663 181.822 337.87 182.6 338.283C183.394 338.679 184.013 339.18 184.458 339.783V337.878H187.197V351.214C187.197 352.421 186.942 353.493 186.434 354.429C185.926 355.382 185.188 356.128 184.22 356.668C183.267 357.208 182.124 357.478 180.79 357.478C179.012 357.478 177.535 357.057 176.36 356.216C175.186 355.39 174.519 354.263 174.36 352.834H177.051C177.258 353.517 177.694 354.064 178.361 354.477C179.044 354.906 179.853 355.12 180.79 355.12C181.886 355.12 182.767 354.787 183.434 354.12C184.116 353.453 184.458 352.484 184.458 351.214V349.023C183.997 349.643 183.37 350.166 182.576 350.595C181.798 351.008 180.909 351.214 179.909 351.214C178.766 351.214 177.718 350.929 176.765 350.357C175.829 349.77 175.082 348.96 174.527 347.928C173.987 346.88 173.717 345.697 173.717 344.379C173.717 343.062 173.987 341.895 174.527 340.878C175.082 339.862 175.829 339.076 176.765 338.521C177.718 337.949 178.766 337.663 179.909 337.663ZM184.458 344.427C184.458 343.522 184.267 342.736 183.886 342.069C183.521 341.402 183.037 340.894 182.433 340.545C181.83 340.196 181.179 340.021 180.481 340.021C179.782 340.021 179.131 340.196 178.528 340.545C177.924 340.878 177.432 341.379 177.051 342.045C176.686 342.696 176.503 343.474 176.503 344.379C176.503 345.284 176.686 346.078 177.051 346.761C177.432 347.444 177.924 347.967 178.528 348.333C179.147 348.682 179.798 348.857 180.481 348.857C181.179 348.857 181.83 348.682 182.433 348.333C183.037 347.983 183.521 347.475 183.886 346.808C184.267 346.126 184.458 345.332 184.458 344.427ZM196.454 351.214C195.216 351.214 194.097 350.936 193.096 350.381C192.096 349.809 191.31 349.015 190.739 347.999C190.167 346.967 189.881 345.776 189.881 344.427C189.881 343.093 190.175 341.91 190.763 340.878C191.35 339.846 192.152 339.053 193.168 338.497C194.184 337.941 195.319 337.663 196.573 337.663C197.828 337.663 198.963 337.941 199.979 338.497C200.995 339.053 201.797 339.846 202.384 340.878C202.972 341.91 203.266 343.093 203.266 344.427C203.266 345.761 202.964 346.943 202.361 347.975C201.757 349.007 200.932 349.809 199.884 350.381C198.852 350.936 197.709 351.214 196.454 351.214ZM196.454 348.857C197.153 348.857 197.804 348.69 198.407 348.356C199.026 348.023 199.527 347.523 199.908 346.856C200.289 346.189 200.479 345.38 200.479 344.427C200.479 343.474 200.297 342.673 199.931 342.022C199.566 341.355 199.082 340.855 198.479 340.521C197.875 340.188 197.224 340.021 196.526 340.021C195.827 340.021 195.176 340.188 194.573 340.521C193.986 340.855 193.517 341.355 193.168 342.022C192.819 342.673 192.644 343.474 192.644 344.427C192.644 345.84 193.001 346.935 193.716 347.713C194.446 348.476 195.359 348.857 196.454 348.857ZM208.665 339.783C209.061 339.116 209.585 338.6 210.236 338.235C210.903 337.854 211.689 337.663 212.594 337.663V340.474H211.903C210.84 340.474 210.03 340.743 209.474 341.283C208.934 341.823 208.665 342.76 208.665 344.094V351H205.95V337.878H208.665V339.783ZM216.471 336.139C215.979 336.139 215.566 335.972 215.233 335.639C214.899 335.306 214.732 334.893 214.732 334.401C214.732 333.908 214.899 333.496 215.233 333.162C215.566 332.829 215.979 332.662 216.471 332.662C216.947 332.662 217.352 332.829 217.686 333.162C218.019 333.496 218.186 333.908 218.186 334.401C218.186 334.893 218.019 335.306 217.686 335.639C217.352 335.972 216.947 336.139 216.471 336.139ZM217.805 337.878V351H215.09V337.878H217.805ZM224.537 340.093V347.356C224.537 347.848 224.648 348.206 224.87 348.428C225.108 348.634 225.505 348.738 226.061 348.738H227.728V351H225.584C224.362 351 223.425 350.714 222.774 350.143C222.123 349.571 221.798 348.642 221.798 347.356V340.093H220.25V337.878H221.798V334.615H224.537V337.878H227.728V340.093H224.537ZM237.018 337.663C238.018 337.663 238.907 337.878 239.685 338.306C240.479 338.735 241.098 339.37 241.543 340.212C242.003 341.053 242.233 342.069 242.233 343.26V351H239.542V343.665C239.542 342.49 239.248 341.593 238.661 340.974C238.073 340.339 237.272 340.021 236.255 340.021C235.239 340.021 234.43 340.339 233.826 340.974C233.239 341.593 232.945 342.49 232.945 343.665V351H230.23V333.377H232.945V339.402C233.406 338.846 233.985 338.417 234.684 338.116C235.398 337.814 236.176 337.663 237.018 337.663ZM261.581 337.663C262.613 337.663 263.534 337.878 264.344 338.306C265.169 338.735 265.812 339.37 266.273 340.212C266.749 341.053 266.987 342.069 266.987 343.26V351H264.296V343.665C264.296 342.49 264.002 341.593 263.415 340.974C262.828 340.339 262.026 340.021 261.01 340.021C259.994 340.021 259.184 340.339 258.58 340.974C257.993 341.593 257.699 342.49 257.699 343.665V351H255.008V343.665C255.008 342.49 254.714 341.593 254.127 340.974C253.54 340.339 252.738 340.021 251.722 340.021C250.705 340.021 249.896 340.339 249.292 340.974C248.705 341.593 248.411 342.49 248.411 343.665V351H245.696V337.878H248.411V339.378C248.856 338.838 249.419 338.417 250.102 338.116C250.785 337.814 251.515 337.663 252.293 337.663C253.341 337.663 254.278 337.886 255.103 338.33C255.929 338.775 256.564 339.418 257.009 340.259C257.406 339.465 258.025 338.838 258.866 338.378C259.708 337.901 260.613 337.663 261.581 337.663Z" fill="black"/>
<path d="M110.089 250.007V244.181H120.238V270.928H113.716V250.007H110.089ZM124.524 257.188C124.524 252.987 125.33 249.677 126.942 247.259C128.579 244.841 131.205 243.632 134.82 243.632C138.435 243.632 141.048 244.841 142.661 247.259C144.297 249.677 145.115 252.987 145.115 257.188C145.115 261.438 144.297 264.772 142.661 267.191C141.048 269.609 138.435 270.818 134.82 270.818C131.205 270.818 128.579 269.609 126.942 267.191C125.33 264.772 124.524 261.438 124.524 257.188ZM138.96 257.188C138.96 254.721 138.691 252.828 138.154 251.509C137.617 250.166 136.505 249.494 134.82 249.494C133.134 249.494 132.023 250.166 131.486 251.509C130.948 252.828 130.68 254.721 130.68 257.188C130.68 258.849 130.777 260.229 130.973 261.328C131.168 262.403 131.559 263.282 132.145 263.966C132.756 264.626 133.647 264.956 134.82 264.956C135.992 264.956 136.872 264.626 137.458 263.966C138.068 263.282 138.471 262.403 138.667 261.328C138.862 260.229 138.96 258.849 138.96 257.188ZM148.425 257.188C148.425 252.987 149.232 249.677 150.844 247.259C152.48 244.841 155.106 243.632 158.721 243.632C162.336 243.632 164.95 244.841 166.562 247.259C168.198 249.677 169.017 252.987 169.017 257.188C169.017 261.438 168.198 264.772 166.562 267.191C164.95 269.609 162.336 270.818 158.721 270.818C155.106 270.818 152.48 269.609 150.844 267.191C149.232 264.772 148.425 261.438 148.425 257.188ZM162.861 257.188C162.861 254.721 162.593 252.828 162.055 251.509C161.518 250.166 160.407 249.494 158.721 249.494C157.036 249.494 155.924 250.166 155.387 251.509C154.85 252.828 154.581 254.721 154.581 257.188C154.581 258.849 154.679 260.229 154.874 261.328C155.069 262.403 155.46 263.282 156.046 263.966C156.657 264.626 157.549 264.956 158.721 264.956C159.894 264.956 160.773 264.626 161.359 263.966C161.97 263.282 162.373 262.403 162.568 261.328C162.764 260.229 162.861 258.849 162.861 257.188ZM171.814 250.923C171.814 248.944 172.376 247.418 173.499 246.343C174.647 245.268 176.125 244.731 177.933 244.731C179.74 244.731 181.206 245.268 182.329 246.343C183.453 247.418 184.015 248.944 184.015 250.923C184.015 252.901 183.453 254.428 182.329 255.503C181.206 256.577 179.74 257.115 177.933 257.115C176.125 257.115 174.647 256.577 173.499 255.503C172.376 254.428 171.814 252.901 171.814 250.923ZM196.692 245.134L182.586 270.928H176.54L190.646 245.134H196.692ZM177.896 248.395C176.724 248.395 176.137 249.237 176.137 250.923C176.137 252.584 176.724 253.414 177.896 253.414C178.458 253.414 178.897 253.207 179.215 252.791C179.533 252.376 179.691 251.753 179.691 250.923C179.691 249.237 179.093 248.395 177.896 248.395ZM189.254 265.139C189.254 263.16 189.816 261.634 190.94 260.559C192.063 259.484 193.529 258.947 195.336 258.947C197.144 258.947 198.609 259.484 199.733 260.559C200.857 261.634 201.418 263.16 201.418 265.139C201.418 267.117 200.857 268.644 199.733 269.719C198.609 270.793 197.144 271.331 195.336 271.331C193.529 271.331 192.063 270.793 190.94 269.719C189.816 268.644 189.254 267.117 189.254 265.139ZM195.3 262.611C194.738 262.611 194.298 262.818 193.981 263.234C193.688 263.649 193.541 264.284 193.541 265.139C193.541 266.8 194.127 267.63 195.3 267.63C195.861 267.63 196.301 267.423 196.619 267.007C196.936 266.592 197.095 265.969 197.095 265.139C197.095 264.308 196.936 263.685 196.619 263.27C196.301 262.83 195.861 262.611 195.3 262.611Z" fill="#007AFF"/>
<path d="M134.987 178.304V123.707C134.987 122.578 135.403 121.49 136.157 120.649L148.155 107.266C149.024 106.297 150.264 105.744 151.565 105.744H169.424C170.639 105.744 171.804 106.226 172.662 107.085L186.19 120.613C187.049 121.472 187.532 122.637 187.532 123.851V178.304C187.532 180.833 185.481 182.884 182.952 182.884H139.567C137.037 182.884 134.987 180.833 134.987 178.304Z" stroke="black" stroke-width="1.83196" stroke-linecap="square"/>
<defs>
<filter id="filter0_d_235_547" x="0.710614" y="0.739722" width="403.466" height="421.786" filterUnits="userSpaceOnUse" color-interpolation-filters="sRGB">
<feFlood flood-opacity="0" result="BackgroundImageFix"/>
<feColorMatrix in="SourceAlpha" type="matrix" values="0 0 0 0 0 0 0 0 0 0 0 0 0 0 0 0 0 0 127 0" result="hardAlpha"/>
<feOffset dx="-0.810453" dy="0.810453"/>
<feGaussianBlur stdDeviation="14.9934"/>
<feComposite in2="hardAlpha" operator="out"/>
<feColorMatrix type="matrix" values="0 0 0 0 0.8375 0 0 0 0 0.8375 0 0 0 0 0.8375 0 0 0 0.6 0"/>
<feBlend mode="normal" in2="BackgroundImageFix" result="effect1_dropShadow_235_547"/>
<feBlend mode="normal" in="SourceGraphic" in2="effect1_dropShadow_235_547" result="shape"/>
</filter>
<filter id="filter1_d_235_547" x="143.893" y="131.7" width="34.7414" height="32.8903" filterUnits="userSpaceOnUse" color-interpolation-filters="sRGB">
<feFlood flood-opacity="0" result="BackgroundImageFix"/>
<feColorMatrix in="SourceAlpha" type="matrix" values="0 0 0 0 0 0 0 0 0 0 0 0 0 0 0 0 0 0 127 0" result="hardAlpha"/>
<feOffset dy="3.66392"/>
<feGaussianBlur stdDeviation="1.83196"/>
<feComposite in2="hardAlpha" operator="out"/>
<feColorMatrix type="matrix" values="0 0 0 0 0.520833 0 0 0 0 0.520833 0 0 0 0 0.520833 0 0 0 0.25 0"/>
<feBlend mode="normal" in2="BackgroundImageFix" result="effect1_dropShadow_235_547"/>
<feBlend mode="normal" in="SourceGraphic" in2="effect1_dropShadow_235_547" result="shape"/>
</filter>
<filter id="filter2_d_235_547" x="198.321" y="166.274" width="15.9521" height="15.9524" filterUnits="userSpaceOnUse" color-interpolation-filters="sRGB">
<feFlood flood-opacity="0" result="BackgroundImageFix"/>
<feColorMatrix in="SourceAlpha" type="matrix" values="0 0 0 0 0 0 0 0 0 0 0 0 0 0 0 0 0 0 127 0" result="hardAlpha"/>
<feOffset dy="3.66392"/>
<feGaussianBlur stdDeviation="1.83196"/>
<feComposite in2="hardAlpha" operator="out"/>
<feColorMatrix type="matrix" values="0 0 0 0 0 0 0 0 0 0 0 0 0 0 0 0 0 0 0.25 0"/>
<feBlend mode="normal" in2="BackgroundImageFix" result="effect1_dropShadow_235_547"/>
<feBlend mode="normal" in="SourceGraphic" in2="effect1_dropShadow_235_547" result="shape"/>
</filter>
<filter id="filter3_d_235_547" x="242.401" y="166.274" width="15.9521" height="15.9524" filterUnits="userSpaceOnUse" color-interpolation-filters="sRGB">
<feFlood flood-opacity="0" result="BackgroundImageFix"/>
<feColorMatrix in="SourceAlpha" type="matrix" values="0 0 0 0 0 0 0 0 0 0 0 0 0 0 0 0 0 0 127 0" result="hardAlpha"/>
<feOffset dy="3.66392"/>
<feGaussianBlur stdDeviation="1.83196"/>
<feComposite in2="hardAlpha" operator="out"/>
<feColorMatrix type="matrix" values="0 0 0 0 0 0 0 0 0 0 0 0 0 0 0 0 0 0 0.25 0"/>
<feBlend mode="normal" in2="BackgroundImageFix" result="effect1_dropShadow_235_547"/>
<feBlend mode="normal" in="SourceGraphic" in2="effect1_dropShadow_235_547" result="shape"/>
</filter>
</defs>
</svg>
