<svg width="404" height="423" viewBox="0 0 404 423" fill="none" xmlns="http://www.w3.org/2000/svg">
<g filter="url(#filter0_d_235_521)">
<rect x="31" y="29.9155" width="343.493" height="361.812" rx="8.10453" fill="white"/>
</g>
<path d="M77.7693 316.645C77.3339 316.645 76.9686 316.498 76.6736 316.203C76.3786 315.908 76.2311 315.542 76.2311 315.107C76.2311 314.671 76.3786 314.306 76.6736 314.011C76.9686 313.716 77.3339 313.569 77.7693 313.569C78.1908 313.569 78.549 313.716 78.844 314.011C79.139 314.306 79.2865 314.671 79.2865 315.107C79.2865 315.542 79.139 315.908 78.844 316.203C78.549 316.498 78.1908 316.645 77.7693 316.645ZM78.9494 318.183V329.794H76.5472V318.183H78.9494ZM87.9612 317.994C88.8743 317.994 89.689 318.183 90.4055 318.563C91.136 318.942 91.7049 319.504 92.1123 320.248C92.5197 320.993 92.7234 321.892 92.7234 322.946V329.794H90.3423V323.304C90.3423 322.264 90.0824 321.471 89.5626 320.923C89.0428 320.361 88.3334 320.08 87.4344 320.08C86.5353 320.08 85.8189 320.361 85.285 320.923C84.7653 321.471 84.5054 322.264 84.5054 323.304V329.794H82.1032V318.183H84.5054V319.511C84.8987 319.033 85.3974 318.661 86.0015 318.394C86.6196 318.127 87.2728 317.994 87.9612 317.994ZM100.276 327.645L103.563 318.183H106.113L101.688 329.794H98.8218L94.4178 318.183H96.9886L100.276 327.645ZM112.965 329.984C111.869 329.984 110.879 329.738 109.994 329.246C109.108 328.74 108.413 328.038 107.907 327.139C107.402 326.226 107.149 325.172 107.149 323.978C107.149 322.798 107.409 321.752 107.928 320.838C108.448 319.925 109.158 319.223 110.057 318.731C110.956 318.24 111.96 317.994 113.07 317.994C114.18 317.994 115.184 318.24 116.083 318.731C116.982 319.223 117.692 319.925 118.211 320.838C118.731 321.752 118.991 322.798 118.991 323.978C118.991 325.158 118.724 326.205 118.19 327.118C117.657 328.031 116.926 328.74 115.999 329.246C115.086 329.738 114.074 329.984 112.965 329.984ZM112.965 327.897C113.583 327.897 114.159 327.75 114.693 327.455C115.24 327.16 115.683 326.717 116.02 326.127C116.357 325.537 116.526 324.821 116.526 323.978C116.526 323.135 116.364 322.426 116.041 321.85C115.718 321.26 115.29 320.817 114.756 320.522C114.222 320.227 113.646 320.08 113.028 320.08C112.41 320.08 111.834 320.227 111.3 320.522C110.78 320.817 110.366 321.26 110.057 321.85C109.748 322.426 109.593 323.135 109.593 323.978C109.593 325.228 109.909 326.198 110.541 326.886C111.188 327.56 111.995 327.897 112.965 327.897ZM122.588 316.645C122.153 316.645 121.787 316.498 121.492 316.203C121.197 315.908 121.05 315.542 121.05 315.107C121.05 314.671 121.197 314.306 121.492 314.011C121.787 313.716 122.153 313.569 122.588 313.569C123.009 313.569 123.368 313.716 123.663 314.011C123.958 314.306 124.105 314.671 124.105 315.107C124.105 315.542 123.958 315.908 123.663 316.203C123.368 316.498 123.009 316.645 122.588 316.645ZM123.768 318.183V329.794H121.366V318.183H123.768ZM126.121 323.978C126.121 322.784 126.36 321.738 126.838 320.838C127.329 319.925 128.004 319.223 128.86 318.731C129.717 318.24 130.701 317.994 131.811 317.994C133.215 317.994 134.374 318.331 135.287 319.005C136.215 319.665 136.84 320.614 137.163 321.85H134.571C134.36 321.274 134.023 320.824 133.559 320.501C133.096 320.178 132.513 320.017 131.811 320.017C130.827 320.017 130.04 320.368 129.45 321.07C128.875 321.759 128.587 322.728 128.587 323.978C128.587 325.228 128.875 326.205 129.45 326.907C130.04 327.61 130.827 327.961 131.811 327.961C133.201 327.961 134.121 327.35 134.571 326.127H137.163C136.826 327.307 136.193 328.249 135.266 328.951C134.339 329.639 133.187 329.984 131.811 329.984C130.701 329.984 129.717 329.738 128.86 329.246C128.004 328.74 127.329 328.038 126.838 327.139C126.36 326.226 126.121 325.172 126.121 323.978ZM150.198 323.704C150.198 324.14 150.17 324.533 150.114 324.884H141.242C141.313 325.811 141.657 326.556 142.275 327.118C142.893 327.68 143.652 327.961 144.551 327.961C145.843 327.961 146.756 327.42 147.29 326.338H149.882C149.531 327.406 148.891 328.284 147.964 328.972C147.051 329.646 145.913 329.984 144.551 329.984C143.441 329.984 142.444 329.738 141.559 329.246C140.688 328.74 139.999 328.038 139.493 327.139C139.002 326.226 138.756 325.172 138.756 323.978C138.756 322.784 138.995 321.738 139.472 320.838C139.964 319.925 140.645 319.223 141.516 318.731C142.401 318.24 143.413 317.994 144.551 317.994C145.646 317.994 146.623 318.233 147.48 318.71C148.337 319.188 149.004 319.862 149.482 320.733C149.959 321.59 150.198 322.58 150.198 323.704ZM147.69 322.946C147.676 322.061 147.36 321.351 146.742 320.817C146.124 320.284 145.358 320.017 144.445 320.017C143.617 320.017 142.907 320.284 142.317 320.817C141.727 321.337 141.376 322.047 141.264 322.946H147.69ZM160.438 319.89C160.845 319.356 161.4 318.907 162.103 318.542C162.805 318.176 163.599 317.994 164.484 317.994C165.495 317.994 166.415 318.247 167.244 318.752C168.087 319.244 168.747 319.939 169.225 320.838C169.702 321.738 169.941 322.77 169.941 323.936C169.941 325.102 169.702 326.149 169.225 327.076C168.747 327.989 168.087 328.705 167.244 329.225C166.415 329.731 165.495 329.984 164.484 329.984C163.599 329.984 162.812 329.808 162.124 329.457C161.435 329.092 160.873 328.642 160.438 328.108V335.315H158.036V318.183H160.438V319.89ZM167.497 323.936C167.497 323.135 167.328 322.447 166.991 321.871C166.668 321.281 166.233 320.838 165.685 320.543C165.151 320.234 164.575 320.08 163.957 320.08C163.353 320.08 162.777 320.234 162.229 320.543C161.695 320.852 161.26 321.302 160.922 321.892C160.599 322.482 160.438 323.177 160.438 323.978C160.438 324.779 160.599 325.481 160.922 326.085C161.26 326.675 161.695 327.125 162.229 327.434C162.777 327.743 163.353 327.897 163.957 327.897C164.575 327.897 165.151 327.743 165.685 327.434C166.233 327.111 166.668 326.647 166.991 326.043C167.328 325.439 167.497 324.737 167.497 323.936ZM174.719 319.869C175.07 319.279 175.534 318.823 176.11 318.499C176.7 318.162 177.395 317.994 178.196 317.994V320.48H177.585C176.643 320.48 175.927 320.719 175.435 321.197C174.958 321.674 174.719 322.503 174.719 323.683V329.794H172.317V318.183H174.719V319.869ZM185.44 329.984C184.344 329.984 183.354 329.738 182.469 329.246C181.584 328.74 180.888 328.038 180.383 327.139C179.877 326.226 179.624 325.172 179.624 323.978C179.624 322.798 179.884 321.752 180.404 320.838C180.924 319.925 181.633 319.223 182.532 318.731C183.431 318.24 184.436 317.994 185.545 317.994C186.655 317.994 187.66 318.24 188.559 318.731C189.458 319.223 190.167 319.925 190.687 320.838C191.207 321.752 191.467 322.798 191.467 323.978C191.467 325.158 191.2 326.205 190.666 327.118C190.132 328.031 189.401 328.74 188.474 329.246C187.561 329.738 186.55 329.984 185.44 329.984ZM185.44 327.897C186.058 327.897 186.634 327.75 187.168 327.455C187.716 327.16 188.158 326.717 188.495 326.127C188.833 325.537 189.001 324.821 189.001 323.978C189.001 323.135 188.84 322.426 188.516 321.85C188.193 321.26 187.765 320.817 187.231 320.522C186.697 320.227 186.121 320.08 185.503 320.08C184.885 320.08 184.309 320.227 183.775 320.522C183.256 320.817 182.841 321.26 182.532 321.85C182.223 322.426 182.068 323.135 182.068 323.978C182.068 325.228 182.385 326.198 183.017 326.886C183.663 327.56 184.471 327.897 185.44 327.897ZM193.04 323.978C193.04 322.784 193.279 321.738 193.757 320.838C194.249 319.925 194.923 319.223 195.78 318.731C196.637 318.24 197.62 317.994 198.73 317.994C200.135 317.994 201.294 318.331 202.207 319.005C203.134 319.665 203.759 320.614 204.082 321.85H201.49C201.28 321.274 200.942 320.824 200.479 320.501C200.015 320.178 199.432 320.017 198.73 320.017C197.746 320.017 196.96 320.368 196.37 321.07C195.794 321.759 195.506 322.728 195.506 323.978C195.506 325.228 195.794 326.205 196.37 326.907C196.96 327.61 197.746 327.961 198.73 327.961C200.121 327.961 201.041 327.35 201.49 326.127H204.082C203.745 327.307 203.113 328.249 202.186 328.951C201.258 329.639 200.107 329.984 198.73 329.984C197.62 329.984 196.637 329.738 195.78 329.246C194.923 328.74 194.249 328.038 193.757 327.139C193.279 326.226 193.04 325.172 193.04 323.978ZM217.117 323.704C217.117 324.14 217.089 324.533 217.033 324.884H208.162C208.232 325.811 208.576 326.556 209.194 327.118C209.812 327.68 210.571 327.961 211.47 327.961C212.762 327.961 213.676 327.42 214.209 326.338H216.801C216.45 327.406 215.811 328.284 214.884 328.972C213.971 329.646 212.833 329.984 211.47 329.984C210.36 329.984 209.363 329.738 208.478 329.246C207.607 328.74 206.919 328.038 206.413 327.139C205.921 326.226 205.675 325.172 205.675 323.978C205.675 322.784 205.914 321.738 206.392 320.838C206.883 319.925 207.565 319.223 208.436 318.731C209.321 318.24 210.332 317.994 211.47 317.994C212.566 317.994 213.542 318.233 214.399 318.71C215.256 319.188 215.923 319.862 216.401 320.733C216.878 321.59 217.117 322.58 217.117 323.704ZM214.61 322.946C214.596 322.061 214.28 321.351 213.661 320.817C213.043 320.284 212.278 320.017 211.365 320.017C210.536 320.017 209.826 320.284 209.236 320.817C208.646 321.337 208.295 322.047 208.183 322.946H214.61ZM223.696 329.984C222.782 329.984 221.961 329.822 221.23 329.499C220.514 329.162 219.945 328.712 219.523 328.15C219.102 327.574 218.877 326.935 218.849 326.233H221.336C221.378 326.724 221.609 327.139 222.031 327.476C222.466 327.799 223.007 327.961 223.653 327.961C224.328 327.961 224.848 327.834 225.213 327.581C225.592 327.315 225.782 326.977 225.782 326.57C225.782 326.134 225.571 325.811 225.15 325.601C224.742 325.39 224.089 325.158 223.19 324.905C222.319 324.666 221.609 324.435 221.062 324.21C220.514 323.985 220.036 323.641 219.629 323.177C219.235 322.714 219.039 322.103 219.039 321.344C219.039 320.726 219.221 320.164 219.587 319.658C219.952 319.139 220.472 318.731 221.146 318.436C221.834 318.141 222.621 317.994 223.506 317.994C224.826 317.994 225.887 318.331 226.688 319.005C227.503 319.665 227.938 320.572 227.994 321.723H225.592C225.55 321.204 225.339 320.789 224.96 320.48C224.581 320.171 224.068 320.017 223.422 320.017C222.79 320.017 222.305 320.136 221.968 320.375C221.631 320.614 221.462 320.93 221.462 321.323C221.462 321.632 221.574 321.892 221.799 322.103C222.024 322.313 222.298 322.482 222.621 322.608C222.944 322.721 223.422 322.868 224.054 323.051C224.897 323.276 225.585 323.508 226.119 323.746C226.667 323.971 227.137 324.308 227.531 324.758C227.924 325.207 228.128 325.804 228.142 326.549C228.142 327.209 227.959 327.799 227.594 328.319C227.229 328.839 226.709 329.246 226.035 329.541C225.374 329.836 224.595 329.984 223.696 329.984ZM234.952 329.984C234.039 329.984 233.217 329.822 232.486 329.499C231.77 329.162 231.201 328.712 230.78 328.15C230.358 327.574 230.133 326.935 230.105 326.233H232.592C232.634 326.724 232.866 327.139 233.287 327.476C233.723 327.799 234.263 327.961 234.91 327.961C235.584 327.961 236.104 327.834 236.469 327.581C236.848 327.315 237.038 326.977 237.038 326.57C237.038 326.134 236.827 325.811 236.406 325.601C235.998 325.39 235.345 325.158 234.446 324.905C233.575 324.666 232.866 324.435 232.318 324.21C231.77 323.985 231.292 323.641 230.885 323.177C230.492 322.714 230.295 322.103 230.295 321.344C230.295 320.726 230.477 320.164 230.843 319.658C231.208 319.139 231.728 318.731 232.402 318.436C233.09 318.141 233.877 317.994 234.762 317.994C236.083 317.994 237.143 318.331 237.944 319.005C238.759 319.665 239.194 320.572 239.25 321.723H236.848C236.806 321.204 236.595 320.789 236.216 320.48C235.837 320.171 235.324 320.017 234.678 320.017C234.046 320.017 233.561 320.136 233.224 320.375C232.887 320.614 232.718 320.93 232.718 321.323C232.718 321.632 232.83 321.892 233.055 322.103C233.28 322.313 233.554 322.482 233.877 322.608C234.2 322.721 234.678 322.868 235.31 323.051C236.153 323.276 236.841 323.508 237.375 323.746C237.923 323.971 238.393 324.308 238.787 324.758C239.18 325.207 239.384 325.804 239.398 326.549C239.398 327.209 239.215 327.799 238.85 328.319C238.485 328.839 237.965 329.246 237.291 329.541C236.63 329.836 235.851 329.984 234.952 329.984ZM243.216 316.645C242.78 316.645 242.415 316.498 242.12 316.203C241.825 315.908 241.677 315.542 241.677 315.107C241.677 314.671 241.825 314.306 242.12 314.011C242.415 313.716 242.78 313.569 243.216 313.569C243.637 313.569 243.995 313.716 244.29 314.011C244.585 314.306 244.733 314.671 244.733 315.107C244.733 315.542 244.585 315.908 244.29 316.203C243.995 316.498 243.637 316.645 243.216 316.645ZM244.396 318.183V329.794H241.993V318.183H244.396ZM253.407 317.994C254.321 317.994 255.135 318.183 255.852 318.563C256.582 318.942 257.151 319.504 257.559 320.248C257.966 320.993 258.17 321.892 258.17 322.946V329.794H255.789V323.304C255.789 322.264 255.529 321.471 255.009 320.923C254.489 320.361 253.78 320.08 252.881 320.08C251.982 320.08 251.265 320.361 250.731 320.923C250.212 321.471 249.952 322.264 249.952 323.304V329.794H247.549V318.183H249.952V319.511C250.345 319.033 250.844 318.661 251.448 318.394C252.066 318.127 252.719 317.994 253.407 317.994ZM265.912 317.994C266.811 317.994 267.604 318.176 268.293 318.542C268.995 318.893 269.543 319.335 269.936 319.869V318.183H272.36V329.984C272.36 331.051 272.135 331.999 271.685 332.828C271.236 333.671 270.583 334.331 269.726 334.809C268.883 335.287 267.871 335.525 266.691 335.525C265.118 335.525 263.812 335.153 262.772 334.409C261.732 333.678 261.142 332.681 261.002 331.416H263.383C263.566 332.021 263.952 332.505 264.542 332.87C265.146 333.25 265.863 333.439 266.691 333.439C267.661 333.439 268.44 333.144 269.03 332.554C269.634 331.964 269.936 331.107 269.936 329.984V328.045C269.529 328.593 268.974 329.056 268.272 329.436C267.583 329.801 266.797 329.984 265.912 329.984C264.9 329.984 263.973 329.731 263.13 329.225C262.301 328.705 261.641 327.989 261.15 327.076C260.672 326.149 260.433 325.102 260.433 323.936C260.433 322.77 260.672 321.738 261.15 320.838C261.641 319.939 262.301 319.244 263.13 318.752C263.973 318.247 264.9 317.994 265.912 317.994ZM269.936 323.978C269.936 323.177 269.768 322.482 269.431 321.892C269.108 321.302 268.679 320.852 268.145 320.543C267.612 320.234 267.036 320.08 266.417 320.08C265.799 320.08 265.223 320.234 264.69 320.543C264.156 320.838 263.72 321.281 263.383 321.871C263.06 322.447 262.898 323.135 262.898 323.936C262.898 324.737 263.06 325.439 263.383 326.043C263.72 326.647 264.156 327.111 264.69 327.434C265.237 327.743 265.813 327.897 266.417 327.897C267.036 327.897 267.612 327.743 268.145 327.434C268.679 327.125 269.108 326.675 269.431 326.085C269.768 325.481 269.936 324.779 269.936 323.978ZM283.791 320.143V326.57C283.791 327.005 283.889 327.322 284.086 327.518C284.297 327.701 284.648 327.792 285.14 327.792H286.615V329.794H284.718C283.637 329.794 282.808 329.541 282.232 329.035C281.656 328.53 281.368 327.708 281.368 326.57V320.143H279.998V318.183H281.368V315.297H283.791V318.183H286.615V320.143H283.791ZM290.051 316.645C289.615 316.645 289.25 316.498 288.955 316.203C288.66 315.908 288.513 315.542 288.513 315.107C288.513 314.671 288.66 314.306 288.955 314.011C289.25 313.716 289.615 313.569 290.051 313.569C290.472 313.569 290.831 313.716 291.126 314.011C291.421 314.306 291.568 314.671 291.568 315.107C291.568 315.542 291.421 315.908 291.126 316.203C290.831 316.498 290.472 316.645 290.051 316.645ZM291.231 318.183V329.794H288.829V318.183H291.231ZM308.44 317.994C309.353 317.994 310.168 318.183 310.884 318.563C311.614 318.942 312.183 319.504 312.591 320.248C313.012 320.993 313.223 321.892 313.223 322.946V329.794H310.842V323.304C310.842 322.264 310.582 321.471 310.062 320.923C309.542 320.361 308.833 320.08 307.934 320.08C307.035 320.08 306.318 320.361 305.785 320.923C305.265 321.471 305.005 322.264 305.005 323.304V329.794H302.624V323.304C302.624 322.264 302.364 321.471 301.844 320.923C301.324 320.361 300.615 320.08 299.716 320.08C298.817 320.08 298.1 320.361 297.567 320.923C297.047 321.471 296.787 322.264 296.787 323.304V329.794H294.385V318.183H296.787V319.511C297.18 319.033 297.679 318.661 298.283 318.394C298.887 318.127 299.533 317.994 300.222 317.994C301.149 317.994 301.978 318.19 302.708 318.584C303.439 318.977 304.001 319.546 304.394 320.291C304.745 319.588 305.293 319.033 306.037 318.626C306.782 318.204 307.583 317.994 308.44 317.994ZM326.921 323.704C326.921 324.14 326.893 324.533 326.837 324.884H317.965C318.036 325.811 318.38 326.556 318.998 327.118C319.616 327.68 320.375 327.961 321.274 327.961C322.566 327.961 323.479 327.42 324.013 326.338H326.605C326.254 327.406 325.614 328.284 324.687 328.972C323.774 329.646 322.636 329.984 321.274 329.984C320.164 329.984 319.167 329.738 318.281 329.246C317.411 328.74 316.722 328.038 316.216 327.139C315.725 326.226 315.479 325.172 315.479 323.978C315.479 322.784 315.718 321.738 316.195 320.838C316.687 319.925 317.368 319.223 318.239 318.731C319.124 318.24 320.136 317.994 321.274 317.994C322.369 317.994 323.346 318.233 324.203 318.71C325.06 319.188 325.727 319.862 326.204 320.733C326.682 321.59 326.921 322.58 326.921 323.704ZM324.413 322.946C324.399 322.061 324.083 321.351 323.465 320.817C322.847 320.284 322.081 320.017 321.168 320.017C320.34 320.017 319.63 320.284 319.04 320.817C318.45 321.337 318.099 322.047 317.986 322.946H324.413Z" fill="black"/>
<path d="M93.2808 287.806C92.2975 287.806 91.4125 287.638 90.6258 287.3C89.8391 286.949 89.221 286.458 88.7715 285.825C88.3219 285.193 88.0972 284.456 88.0972 283.613H90.6679C90.7241 284.245 90.9699 284.765 91.4054 285.172C91.855 285.58 92.4801 285.783 93.2808 285.783C94.1096 285.783 94.7558 285.587 95.2194 285.193C95.683 284.786 95.9148 284.266 95.9148 283.634C95.9148 283.142 95.7673 282.742 95.4723 282.433C95.1913 282.124 94.8331 281.885 94.3976 281.716C93.9762 281.548 93.3862 281.365 92.6276 281.169C91.6723 280.916 90.8927 280.663 90.2886 280.41C89.6986 280.143 89.1929 279.736 88.7715 279.188C88.35 278.64 88.1393 277.909 88.1393 276.996C88.1393 276.154 88.35 275.416 88.7715 274.784C89.1929 274.152 89.7829 273.667 90.5415 273.33C91.3001 272.993 92.1781 272.824 93.1755 272.824C94.5943 272.824 95.7532 273.182 96.6523 273.899C97.5654 274.601 98.0711 275.571 98.1695 276.807H95.5144C95.4723 276.273 95.2194 275.816 94.7558 275.437C94.2923 275.058 93.6812 274.868 92.9226 274.868C92.2343 274.868 91.6723 275.044 91.2369 275.395C90.8014 275.746 90.5836 276.252 90.5836 276.912C90.5836 277.362 90.7171 277.734 90.984 278.029C91.265 278.31 91.6161 278.535 92.0376 278.703C92.459 278.872 93.035 279.054 93.7655 279.251C94.7348 279.518 95.5214 279.785 96.1255 280.052C96.7436 280.319 97.2634 280.733 97.6848 281.295C98.1203 281.843 98.338 282.58 98.338 283.508C98.338 284.252 98.1343 284.954 97.727 285.615C97.3336 286.275 96.7506 286.809 95.978 287.216C95.2194 287.61 94.3204 287.806 93.2808 287.806ZM100.372 281.801C100.372 280.635 100.611 279.602 101.088 278.703C101.58 277.804 102.24 277.109 103.069 276.617C103.912 276.111 104.839 275.859 105.85 275.859C106.764 275.859 107.557 276.041 108.232 276.406C108.92 276.758 109.468 277.2 109.875 277.734V276.048H112.298V287.659H109.875V285.931C109.468 286.479 108.913 286.935 108.21 287.3C107.508 287.666 106.707 287.848 105.808 287.848C104.811 287.848 103.898 287.595 103.069 287.09C102.24 286.57 101.58 285.854 101.088 284.94C100.611 284.013 100.372 282.967 100.372 281.801ZM109.875 281.843C109.875 281.042 109.707 280.347 109.369 279.757C109.046 279.167 108.618 278.717 108.084 278.408C107.55 278.099 106.974 277.945 106.356 277.945C105.738 277.945 105.162 278.099 104.628 278.408C104.094 278.703 103.659 279.146 103.322 279.736C102.999 280.312 102.837 281 102.837 281.801C102.837 282.601 102.999 283.304 103.322 283.908C103.659 284.512 104.094 284.976 104.628 285.299C105.176 285.608 105.752 285.762 106.356 285.762C106.974 285.762 107.55 285.608 108.084 285.299C108.618 284.99 109.046 284.54 109.369 283.95C109.707 283.346 109.875 282.644 109.875 281.843ZM119.942 285.509L123.229 276.048H125.779L121.354 287.659H118.488L114.084 276.048H116.655L119.942 285.509ZM138.236 281.569C138.236 282.004 138.208 282.398 138.151 282.749H129.28C129.351 283.676 129.695 284.421 130.313 284.983C130.931 285.544 131.689 285.825 132.589 285.825C133.881 285.825 134.794 285.285 135.328 284.203H137.92C137.569 285.271 136.929 286.149 136.002 286.837C135.089 287.511 133.951 287.848 132.589 287.848C131.479 287.848 130.481 287.603 129.596 287.111C128.725 286.605 128.037 285.903 127.531 285.004C127.04 284.091 126.794 283.037 126.794 281.843C126.794 280.649 127.033 279.602 127.51 278.703C128.002 277.79 128.683 277.088 129.554 276.596C130.439 276.104 131.451 275.859 132.589 275.859C133.684 275.859 134.661 276.097 135.518 276.575C136.374 277.053 137.042 277.727 137.519 278.598C137.997 279.455 138.236 280.445 138.236 281.569ZM135.728 280.81C135.714 279.925 135.398 279.216 134.78 278.682C134.162 278.148 133.396 277.881 132.483 277.881C131.654 277.881 130.945 278.148 130.355 278.682C129.765 279.202 129.414 279.911 129.301 280.81H135.728Z" fill="black"/>
<path d="M31 38.02C31 33.544 34.6285 29.9155 39.1045 29.9155H366.388C370.864 29.9155 374.493 33.544 374.493 38.0201V210.364H31V38.02Z" fill="#E6F2FF"/>
<path d="M263.864 287.848C262.768 287.848 261.778 287.603 260.892 287.111C260.007 286.605 259.312 285.903 258.806 285.004C258.301 284.091 258.048 283.037 258.048 281.843C258.048 280.663 258.308 279.616 258.827 278.703C259.347 277.79 260.057 277.088 260.956 276.596C261.855 276.104 262.859 275.859 263.969 275.859C265.079 275.859 266.083 276.104 266.982 276.596C267.881 277.088 268.591 277.79 269.11 278.703C269.63 279.616 269.89 280.663 269.89 281.843C269.89 283.023 269.623 284.069 269.089 284.983C268.556 285.896 267.825 286.605 266.898 287.111C265.985 287.603 264.973 287.848 263.864 287.848ZM263.864 285.762C264.482 285.762 265.058 285.615 265.591 285.32C266.139 285.025 266.582 284.582 266.919 283.992C267.256 283.402 267.425 282.686 267.425 281.843C267.425 281 267.263 280.291 266.94 279.715C266.617 279.125 266.189 278.682 265.655 278.387C265.121 278.092 264.545 277.945 263.927 277.945C263.309 277.945 262.733 278.092 262.199 278.387C261.679 278.682 261.265 279.125 260.956 279.715C260.647 280.291 260.492 281 260.492 281.843C260.492 283.093 260.808 284.062 261.44 284.751C262.087 285.425 262.894 285.762 263.864 285.762ZM277.132 278.008H274.983V287.659H272.56V278.008H271.19V276.048H272.56V275.226C272.56 273.892 272.911 272.923 273.613 272.318C274.33 271.7 275.447 271.391 276.964 271.391V273.393C276.233 273.393 275.721 273.534 275.426 273.815C275.131 274.081 274.983 274.552 274.983 275.226V276.048H277.132V278.008ZM287.538 278.008V284.435C287.538 284.87 287.636 285.186 287.833 285.383C288.043 285.566 288.394 285.657 288.886 285.657H290.361V287.659H288.465C287.383 287.659 286.554 287.406 285.978 286.9C285.402 286.394 285.114 285.573 285.114 284.435V278.008H283.745V276.048H285.114V273.161H287.538V276.048H290.361V278.008H287.538ZM298.581 275.859C299.466 275.859 300.252 276.048 300.941 276.427C301.643 276.807 302.191 277.369 302.584 278.113C302.992 278.858 303.195 279.757 303.195 280.81V287.659H300.814V281.169C300.814 280.129 300.554 279.335 300.035 278.787C299.515 278.226 298.805 277.945 297.906 277.945C297.007 277.945 296.291 278.226 295.757 278.787C295.237 279.335 294.977 280.129 294.977 281.169V287.659H292.575V272.066H294.977V277.397C295.385 276.905 295.898 276.526 296.516 276.259C297.148 275.992 297.836 275.859 298.581 275.859ZM316.901 281.569C316.901 282.004 316.873 282.398 316.816 282.749H307.945C308.015 283.676 308.36 284.421 308.978 284.983C309.596 285.544 310.354 285.825 311.254 285.825C312.546 285.825 313.459 285.285 313.993 284.203H316.585C316.233 285.271 315.594 286.149 314.667 286.837C313.754 287.511 312.616 287.848 311.254 287.848C310.144 287.848 309.146 287.603 308.261 287.111C307.39 286.605 306.702 285.903 306.196 285.004C305.705 284.091 305.459 283.037 305.459 281.843C305.459 280.649 305.698 279.602 306.175 278.703C306.667 277.79 307.348 277.088 308.219 276.596C309.104 276.104 310.116 275.859 311.254 275.859C312.349 275.859 313.326 276.097 314.182 276.575C315.039 277.053 315.707 277.727 316.184 278.598C316.662 279.455 316.901 280.445 316.901 281.569ZM314.393 280.81C314.379 279.925 314.063 279.216 313.445 278.682C312.827 278.148 312.061 277.881 311.148 277.881C310.319 277.881 309.61 278.148 309.02 278.682C308.43 279.202 308.079 279.911 307.966 280.81H314.393Z" fill="black"/>
<path d="M166.983 282.925C167.356 284.891 168.5 285.873 170.416 285.873C171.734 285.873 172.667 285.289 173.214 284.119C173.762 282.95 174.035 281.047 174.035 278.41C173.488 279.182 172.742 279.779 171.796 280.201C170.851 280.624 169.794 280.836 168.625 280.836C167.033 280.836 165.615 280.512 164.371 279.866C163.127 279.194 162.145 278.211 161.423 276.918C160.727 275.599 160.378 274.007 160.378 272.142C160.378 270.301 160.751 268.696 161.498 267.328C162.269 265.96 163.351 264.903 164.744 264.156C166.162 263.41 167.829 263.037 169.744 263.037C173.426 263.037 176.001 264.181 177.468 266.47C178.936 268.758 179.67 272.129 179.67 276.582C179.67 279.816 179.371 282.49 178.774 284.605C178.202 286.694 177.219 288.286 175.826 289.381C174.458 290.475 172.58 291.023 170.192 291.023C168.301 291.023 166.684 290.649 165.341 289.903C164.023 289.157 163.003 288.174 162.281 286.955C161.585 285.736 161.187 284.393 161.087 282.925H166.983ZM170.08 275.798C171.125 275.798 171.958 275.487 172.58 274.865C173.202 274.219 173.513 273.348 173.513 272.253C173.513 271.059 173.19 270.139 172.543 269.492C171.896 268.845 171.025 268.522 169.931 268.522C168.836 268.522 167.966 268.858 167.319 269.53C166.697 270.176 166.386 271.072 166.386 272.216C166.386 273.286 166.697 274.157 167.319 274.828C167.966 275.475 168.886 275.798 170.08 275.798ZM183.074 276.918C183.074 272.639 183.895 269.268 185.537 266.806C187.204 264.343 189.878 263.111 193.559 263.111C197.241 263.111 199.903 264.343 201.545 266.806C203.211 269.268 204.045 272.639 204.045 276.918C204.045 281.246 203.211 284.642 201.545 287.105C199.903 289.567 197.241 290.799 193.559 290.799C189.878 290.799 187.204 289.567 185.537 287.105C183.895 284.642 183.074 281.246 183.074 276.918ZM197.776 276.918C197.776 274.405 197.502 272.477 196.955 271.134C196.408 269.766 195.276 269.082 193.559 269.082C191.843 269.082 190.711 269.766 190.164 271.134C189.617 272.477 189.343 274.405 189.343 276.918C189.343 278.609 189.442 280.015 189.641 281.134C189.84 282.229 190.239 283.124 190.836 283.821C191.457 284.493 192.365 284.828 193.559 284.828C194.754 284.828 195.649 284.493 196.246 283.821C196.868 283.124 197.278 282.229 197.477 281.134C197.677 280.015 197.776 278.609 197.776 276.918ZM206.894 270.537C206.894 268.522 207.466 266.967 208.61 265.873C209.779 264.778 211.284 264.231 213.125 264.231C214.966 264.231 216.458 264.778 217.603 265.873C218.747 266.967 219.319 268.522 219.319 270.537C219.319 272.552 218.747 274.107 217.603 275.201C216.458 276.296 214.966 276.843 213.125 276.843C211.284 276.843 209.779 276.296 208.61 275.201C207.466 274.107 206.894 272.552 206.894 270.537ZM232.23 264.641L217.864 290.911H211.707L226.073 264.641H232.23ZM213.088 267.962C211.894 267.962 211.297 268.821 211.297 270.537C211.297 272.229 211.894 273.074 213.088 273.074C213.66 273.074 214.108 272.863 214.431 272.44C214.754 272.017 214.916 271.383 214.916 270.537C214.916 268.821 214.307 267.962 213.088 267.962ZM224.655 285.015C224.655 283 225.227 281.445 226.372 280.351C227.516 279.256 229.008 278.709 230.849 278.709C232.69 278.709 234.183 279.256 235.327 280.351C236.471 281.445 237.044 283 237.044 285.015C237.044 287.03 236.471 288.585 235.327 289.679C234.183 290.774 232.69 291.321 230.849 291.321C229.008 291.321 227.516 290.774 226.372 289.679C225.227 288.585 224.655 287.03 224.655 285.015ZM230.812 282.44C230.24 282.44 229.792 282.652 229.469 283.075C229.17 283.498 229.021 284.144 229.021 285.015C229.021 286.707 229.618 287.552 230.812 287.552C231.384 287.552 231.832 287.341 232.155 286.918C232.479 286.495 232.64 285.861 232.64 285.015C232.64 284.169 232.479 283.535 232.155 283.112C231.832 282.664 231.384 282.44 230.812 282.44Z" fill="#007AFF"/>
<circle cx="197.201" cy="120.91" r="58.704" fill="white" stroke="black" stroke-width="1.7719"/>
<path d="M127.842 180.5H269.49" stroke="black" stroke-width="1.7719" stroke-linecap="round" stroke-linejoin="round"/>
<circle cx="197.201" cy="120.91" r="42.006" fill="#E6F2FF"/>
<path d="M239.128 123.475C238.503 133.688 234.173 143.321 226.949 150.567C219.726 157.813 210.106 162.174 199.895 162.83C189.685 163.486 179.586 160.393 171.494 154.132C163.402 147.87 157.873 138.871 155.946 128.822C157.582 137.353 167.809 147.914 174.679 153.23C181.549 158.546 192.775 159.848 201.444 159.29C210.112 158.733 220.816 153.322 226.949 147.17C233.082 141.019 238.598 132.145 239.128 123.475Z" fill="#80BDFF"/>
<g filter="url(#filter1_d_235_521)">
<path d="M198.177 78.9043V123.09L219.669 142.402" stroke="#007AFF" stroke-width="3.54379" stroke-linecap="round" stroke-linejoin="round"/>
</g>
<circle cx="197.201" cy="120.91" r="58.704" stroke="black" stroke-width="1.7719"/>
<path d="M232.84 63.4505C239.908 67.3508 246.097 72.6672 251.018 79.0674C255.939 85.4677 259.487 92.8142 261.44 100.648" stroke="black" stroke-width="1.7719" stroke-linecap="round" stroke-linejoin="round"/>
<path d="M247.527 63.2785C254.973 69.2253 260.859 76.8952 264.678 85.6258" stroke="black" stroke-width="1.7719" stroke-linecap="round" stroke-linejoin="round"/>
<path d="M148.795 150.326C151.763 146.096 153.43 140.359 153.43 134.376L121.783 134.376C121.783 140.359 123.45 146.096 126.418 150.326C129.385 154.557 133.41 156.933 137.607 156.933C141.803 156.933 145.828 154.557 148.795 150.326Z" fill="#E6F2FF" stroke="black" stroke-width="1.83196" stroke-linecap="round" stroke-linejoin="round"/>
<path d="M146.414 152.71C147.587 151.569 149.097 150.053 150.308 148.421C151.512 146.799 149.978 145.908 148.55 147.336C148.437 147.45 148.311 147.551 148.176 147.638L146.879 148.475C141.425 151.994 134.429 152.044 128.924 148.604L127.3 147.588C127.213 147.534 127.13 147.473 127.053 147.407C125.568 146.134 123.961 147.289 125.231 148.776C126.766 150.573 128.576 151.978 129.863 153.23C132.199 155.503 134.639 156.933 137.943 156.933C141.246 156.933 144.078 154.983 146.414 152.71Z" fill="#80BDFF"/>
<path d="M148.795 150.326C151.763 146.096 153.43 140.359 153.43 134.376L121.783 134.376C121.783 140.359 123.45 146.096 126.418 150.326C129.385 154.557 133.41 156.933 137.607 156.933C141.803 156.933 145.828 154.557 148.795 150.326Z" stroke="black" stroke-width="1.83196" stroke-linecap="round" stroke-linejoin="round"/>
<path d="M114.376 134.04H161.509" stroke="black" stroke-width="1.83196" stroke-linecap="round"/>
<path d="M114.376 180.5H161.509" stroke="black" stroke-width="1.83196" stroke-linecap="round"/>
<path d="M126.417 164.214C123.449 168.444 121.782 174.181 121.782 180.164L153.429 180.164C153.429 174.181 151.762 168.444 148.794 164.214C145.827 159.983 141.802 157.607 137.605 157.607C133.409 157.607 129.384 159.983 126.417 164.214Z" fill="white" stroke="black" stroke-width="1.83196" stroke-linecap="round" stroke-linejoin="round"/>
<path d="M121.783 178.796C121.783 178.171 122.532 177.851 122.984 178.283C123.116 178.41 123.292 178.48 123.475 178.48H151.738C151.921 178.48 152.097 178.41 152.229 178.283C152.681 177.851 153.43 178.171 153.43 178.796V179.021C153.43 179.466 153.069 179.827 152.624 179.827H122.589C122.144 179.827 121.783 179.466 121.783 179.021V178.796Z" fill="#80BDFF"/>
<path d="M126.417 164.214C123.449 168.444 121.782 174.181 121.782 180.164L153.429 180.164C153.429 174.181 151.762 168.444 148.794 164.214C145.827 159.983 141.802 157.607 137.605 157.607C133.409 157.607 129.384 159.983 126.417 164.214Z" stroke="black" stroke-width="1.83196" stroke-linecap="round" stroke-linejoin="round"/>
<defs>
<filter id="filter0_d_235_521" x="0.202802" y="0.739234" width="403.466" height="421.786" filterUnits="userSpaceOnUse" color-interpolation-filters="sRGB">
<feFlood flood-opacity="0" result="BackgroundImageFix"/>
<feColorMatrix in="SourceAlpha" type="matrix" values="0 0 0 0 0 0 0 0 0 0 0 0 0 0 0 0 0 0 127 0" result="hardAlpha"/>
<feOffset dx="-0.810453" dy="0.810453"/>
<feGaussianBlur stdDeviation="14.9934"/>
<feComposite in2="hardAlpha" operator="out"/>
<feColorMatrix type="matrix" values="0 0 0 0 0.8375 0 0 0 0 0.8375 0 0 0 0 0.8375 0 0 0 0.6 0"/>
<feBlend mode="normal" in2="BackgroundImageFix" result="effect1_dropShadow_235_521"/>
<feBlend mode="normal" in="SourceGraphic" in2="effect1_dropShadow_235_521" result="shape"/>
</filter>
<filter id="filter1_d_235_521" x="192.741" y="77.1323" width="32.3632" height="74.3693" filterUnits="userSpaceOnUse" color-interpolation-filters="sRGB">
<feFlood flood-opacity="0" result="BackgroundImageFix"/>
<feColorMatrix in="SourceAlpha" type="matrix" values="0 0 0 0 0 0 0 0 0 0 0 0 0 0 0 0 0 0 127 0" result="hardAlpha"/>
<feOffset dy="3.66392"/>
<feGaussianBlur stdDeviation="1.83196"/>
<feComposite in2="hardAlpha" operator="out"/>
<feColorMatrix type="matrix" values="0 0 0 0 0 0 0 0 0 0 0 0 0 0 0 0 0 0 0.25 0"/>
<feBlend mode="normal" in2="BackgroundImageFix" result="effect1_dropShadow_235_521"/>
<feBlend mode="normal" in="SourceGraphic" in2="effect1_dropShadow_235_521" result="shape"/>
</filter>
</defs>
</svg>
