<svg xmlns="http://www.w3.org/2000/svg" version="1.1" xmlns:xlink="http://www.w3.org/1999/xlink" xmlns:svgjs="http://svgjs.dev/svgjs" width="1000" height="181" viewBox="0 0 1000 181"><g transform="matrix(1,0,0,1,-0.6060606060606233,0.4312556773772229)"><svg viewBox="0 0 396 72" data-background-color="#ffffff" preserveAspectRatio="xMidYMid meet" height="181" width="1000" xmlns="http://www.w3.org/2000/svg" xmlns:xlink="http://www.w3.org/1999/xlink"><g id="tight-bounds" transform="matrix(1,0,0,1,0.2400000000000091,-0.17154921973016712)"><svg viewBox="0 0 395.52 72.3430984394603" height="72.3430984394603" width="395.52"><g><svg viewBox="0 0 536.3359191206844 98.09921671107932" height="72.3430984394603" width="395.52"><g transform="matrix(1,0,0,1,140.81591912068444,13.557851224179558)"><svg viewBox="0 0 395.52 70.9835142627202" height="70.9835142627202" width="395.52"><g id="textblocktransform"><svg viewBox="0 0 395.52 70.9835142627202" height="70.9835142627202" width="395.52" id="textblock"><g><svg viewBox="0 0 395.52 70.9835142627202" height="70.9835142627202" width="395.52"><g transform="matrix(1,0,0,1,0,0)"><svg width="395.52" viewBox="3.69 -37.55 273.12 49" height="70.9835142627202" data-palette-color="#fe4901"><g class="wordmark-text-0" data-fill-palette-color="primary" id="text-0"><path d="M44.43-32.3L44.43 0 38.04 0 38.04-20.85 26.78-1.05Q26.37-0.29 25.62 0.1 24.88 0.49 24.02 0.49L24.02 0.49Q23.19 0.49 22.47 0.1 21.75-0.29 21.34-1.05L21.34-1.05 10.03-20.85 10.03 0 3.69 0 3.69-32.3Q3.69-33.4 4.33-34.25 4.98-35.11 6.03-35.4L6.03-35.4Q6.54-35.52 7.06-35.49 7.57-35.45 8.04-35.27 8.52-35.08 8.91-34.75 9.3-34.42 9.57-33.96L9.57-33.96 24.02-8.84 38.48-33.96Q39.04-34.89 40.03-35.28 41.02-35.67 42.09-35.4L42.09-35.4Q43.12-35.11 43.77-34.25 44.43-33.4 44.43-32.3L44.43-32.3ZM78.34-17.65L78.34-8.74Q78.34-7.42 77.88-5.9 77.41-4.37 76.38-3.06 75.34-1.76 73.67-0.88 71.99 0 69.6 0L69.6 0 58.15 0Q56.83 0 55.31-0.46 53.78-0.93 52.48-1.97 51.17-3 50.29-4.68 49.41-6.35 49.41-8.74L49.41-8.74Q49.41-10.06 49.88-11.6 50.34-13.13 51.38-14.44 52.41-15.75 54.09-16.63 55.76-17.5 58.15-17.5L58.15-17.5 69.6-17.5 69.6-11.45 58.15-11.45Q56.86-11.45 56.15-10.66 55.44-9.86 55.44-8.69L55.44-8.69Q55.44-7.45 56.26-6.75 57.08-6.05 58.2-6.05L58.2-6.05 69.6-6.05Q70.9-6.05 71.6-6.84 72.31-7.62 72.31-8.79L72.31-8.79 72.31-17.65Q72.31-18.9 71.54-19.63 70.77-20.36 69.6-20.36L69.6-20.36 55.66-20.36 55.66-26.39 69.6-26.39Q70.92-26.39 72.45-25.93 73.97-25.46 75.28-24.43 76.58-23.39 77.46-21.72 78.34-20.04 78.34-17.65L78.34-17.65ZM112.47-17.5L112.47 2.54Q112.47 4.17 112.06 5.48 111.64 6.79 110.96 7.78 110.27 8.76 109.37 9.46 108.47 10.16 107.48 10.6 106.49 11.04 105.48 11.24 104.46 11.45 103.56 11.45L103.56 11.45 92.11 11.45 92.11 5.1 103.56 5.1Q104.85 5.1 105.49 4.44 106.12 3.78 106.12 2.54L106.12 2.54 106.12-17.5Q106.12-18.75 105.49-19.4 104.85-20.04 103.56-20.04L103.56-20.04 92.11-20.04Q90.94-20.04 90.25-19.32 89.57-18.6 89.57-17.5L89.57-17.5 89.57-8.91Q89.57-7.67 90.23-7.01 90.89-6.35 92.16-6.35L92.16-6.35 103.56-6.35 103.56 0 92.11 0Q91.21 0 90.2-0.21 89.2-0.42 88.22-0.85 87.23-1.29 86.32-1.99 85.42-2.69 84.74-3.67 84.05-4.66 83.64-5.97 83.22-7.28 83.22-8.91L83.22-8.91 83.22-17.5Q83.22-18.41 83.43-19.41 83.64-20.41 84.08-21.4 84.52-22.39 85.21-23.29 85.91-24.19 86.9-24.88 87.89-25.56 89.18-25.98 90.47-26.39 92.11-26.39L92.11-26.39 103.56-26.39Q104.46-26.39 105.48-26.18 106.49-25.98 107.48-25.54 108.47-25.1 109.37-24.4 110.27-23.71 110.96-22.72 111.64-21.73 112.06-20.43 112.47-19.14 112.47-17.5L112.47-17.5ZM124.72-37.55L124.72-31.81 118.38-31.81 118.38-37.55 124.72-37.55ZM124.72-26.39L124.72 0 118.38 0 118.38-26.39 124.72-26.39ZM156.36-6.35L156.36 0 139.15 0Q137.83 0 136.27-0.46 134.71-0.93 133.38-1.99 132.05-3.05 131.15-4.75 130.26-6.45 130.26-8.91L130.26-8.91 130.26-17.5Q130.26-18.41 130.47-19.41 130.68-20.41 131.12-21.4 131.56-22.39 132.25-23.29 132.95-24.19 133.94-24.88 134.93-25.56 136.22-25.98 137.51-26.39 139.15-26.39L139.15-26.39 156.36-26.39 156.36-20.04 139.15-20.04Q137.91-20.04 137.26-19.41 136.61-18.77 136.61-17.46L136.61-17.46 136.61-8.91Q136.61-7.67 137.27-7.01 137.93-6.35 139.2-6.35L139.2-6.35 156.36-6.35ZM195.96-10.3L195.96-10.3Q195.96-8.42 195.48-6.92 195.01-5.42 194.23-4.27 193.44-3.13 192.39-2.32 191.34-1.51 190.22-1 189.1-0.49 187.94-0.24 186.78 0 185.75 0L185.75 0 161.27 0 161.27-6.35 185.75-6.35Q187.59-6.35 188.6-7.42 189.61-8.5 189.61-10.3L189.61-10.3Q189.61-11.18 189.34-11.91 189.07-12.65 188.57-13.18 188.07-13.72 187.35-14.01 186.63-14.31 185.75-14.31L185.75-14.31 171.15-14.31Q169.62-14.31 167.83-14.86 166.05-15.41 164.53-16.63 163-17.85 161.99-19.82 160.97-21.8 160.97-24.66L160.97-24.66Q160.97-27.51 161.99-29.48 163-31.45 164.53-32.68 166.05-33.91 167.83-34.46 169.62-35.01 171.15-35.01L171.15-35.01 192.76-35.01 192.76-28.66 171.15-28.66Q169.35-28.66 168.33-27.56 167.32-26.46 167.32-24.66L167.32-24.66Q167.32-22.83 168.33-21.77 169.35-20.7 171.15-20.7L171.15-20.7 185.75-20.7 185.8-20.7Q186.83-20.68 187.98-20.42 189.12-20.17 190.26-19.63 191.39-19.09 192.42-18.27 193.44-17.46 194.24-16.31 195.03-15.16 195.5-13.67 195.96-12.18 195.96-10.3ZM206.97-37.55L206.97-31.81 200.62-31.81 200.62-37.55 206.97-37.55ZM206.97-26.39L206.97 0 200.62 0 200.62-26.39 206.97-26.39ZM241.75-17.5L241.75 2.54Q241.75 4.17 241.34 5.48 240.92 6.79 240.24 7.78 239.56 8.76 238.65 9.46 237.75 10.16 236.76 10.6 235.77 11.04 234.76 11.24 233.75 11.45 232.84 11.45L232.84 11.45 221.39 11.45 221.39 5.1 232.84 5.1Q234.14 5.1 234.77 4.44 235.41 3.78 235.41 2.54L235.41 2.54 235.41-17.5Q235.41-18.75 234.77-19.4 234.14-20.04 232.84-20.04L232.84-20.04 221.39-20.04Q220.22-20.04 219.54-19.32 218.85-18.6 218.85-17.5L218.85-17.5 218.85-8.91Q218.85-7.67 219.51-7.01 220.17-6.35 221.44-6.35L221.44-6.35 232.84-6.35 232.84 0 221.39 0Q220.49 0 219.49-0.21 218.49-0.42 217.5-0.85 216.51-1.29 215.61-1.99 214.7-2.69 214.02-3.67 213.34-4.66 212.92-5.97 212.51-7.28 212.51-8.91L212.51-8.91 212.51-17.5Q212.51-18.41 212.71-19.41 212.92-20.41 213.36-21.4 213.8-22.39 214.5-23.29 215.19-24.19 216.18-24.88 217.17-25.56 218.46-25.98 219.76-26.39 221.39-26.39L221.39-26.39 232.84-26.39Q233.75-26.39 234.76-26.18 235.77-25.98 236.76-25.54 237.75-25.1 238.65-24.4 239.56-23.71 240.24-22.72 240.92-21.73 241.34-20.43 241.75-19.14 241.75-17.5L241.75-17.5ZM276.81-14.65L276.81 0 270.46 0 270.46-14.65Q270.46-15.89 270.04-16.88 269.61-17.87 268.88-18.58 268.14-19.29 267.16-19.67 266.17-20.04 265.02-20.04L265.02-20.04 253.91-20.04 253.91 0 247.56 0 247.56-23.24Q247.56-23.9 247.81-24.48 248.05-25.05 248.49-25.48 248.93-25.9 249.52-26.15 250.1-26.39 250.76-26.39L250.76-26.39 265.07-26.39Q266.26-26.39 267.59-26.12 268.93-25.85 270.23-25.26 271.54-24.66 272.72-23.74 273.91-22.83 274.82-21.52 275.74-20.21 276.27-18.51 276.81-16.8 276.81-14.65L276.81-14.65Z" fill="#fe4901" data-fill-palette-color="primary"></path></g></svg></g></svg></g></svg></g></svg></g><g><svg viewBox="0 0 124.0584150075985 98.09921671107932" height="98.09921671107932" width="124.0584150075985"><g><svg xmlns="http://www.w3.org/2000/svg" xmlns:xlink="http://www.w3.org/1999/xlink" version="1.1" x="0" y="0" viewBox="1.1 11.299999999999994 97.75527064941693 77.3" enable-background="new 0 0 100 100" xml:space="preserve" height="98.09921671107932" width="124.0584150075985" class="icon-icon-0" data-fill-palette-color="accent" id="icon-0"><path d="M39.6 66.9c0-0.1 0-0.2 0-0.3-1.2 1-2.4 1.9-3.7 2.8-0.7 0.5-1.5 1-2.2 1.5-0.4 0.3-0.8 0.4-1.1 0.5-1.2 0.3-2.3-0.4-2.6-1.6-0.2-0.7 0-1.4 0.1-1.8 0.1-0.2 0.1-0.4 0.2-0.6-0.9 1.1-1.7 2.3-2.6 3.4l-0.6 0.8c-0.3 0.4-0.5 0.7-0.6 1-0.1 0.2-0.2 0.4-0.3 0.6l-0.1 0.3c0 0 0 0.1 0 0.1-0.2 0.5-0.7 0.9-1.3 0.9-0.1 0-0.2 0-0.3 0-0.7-0.1-1.2-0.8-1.1-1.5 0-0.1 0-0.2 0-0.3 0.2-0.9 0.6-1.6 1-2.3 2-3.3 3.8-6 5.7-8.2 0.6-0.8 1.3-1.4 1.9-2.1l0.1-0.1c0.4-0.4 0.8-0.6 1.3-0.8 0.7-0.2 1.5 0 2 0.5 0.4 0.4 0.5 1 0.5 1.6-0.1 0.5-0.2 1-0.3 1.5-0.2 0.7-0.5 1.4-0.7 2-0.2 0.5-0.4 1-0.6 1.5 0.6-0.5 1.2-1 1.8-1.5 0.9-0.7 1.7-1.4 2.6-2.2 0.5-0.4 1-0.7 1.5-1l0.2-0.1c0.5-0.3 1-0.3 1.2-0.3 0.5 0 1 0.2 1.4 0.6 0.4 0.4 0.5 0.9 0.5 1.4 0 0.5-0.1 0.9-0.2 1.5 0 0.1 0 0.1 0 0.2 0.3-0.2 0.6-0.4 0.9-0.6 0.5-0.3 1-0.6 1.5-0.9 1.3-0.8 2.5-1.4 3.6-1.8 1-0.4 1.9-0.3 2.6 0.2 0.4 0.2 0.7 0.5 1 0.9 0.1 0.1 0.1 0.1 0.2 0.1 0.1 0 0.1 0 0.2 0 0.6-0.1 1.1-0.3 1.7-0.5-0.1 0.7-0.4 2.1 0.5 3.2-0.5 0.1-1 0.3-1.6 0.4-1.3 0.2-2.5-0.1-3.3-1l-0.5 0.2c-0.7 0.3-1.4 0.6-2.1 0.9-0.8 0.4-1.6 0.9-2.4 1.3-0.6 0.3-1.2 0.7-1.8 1-0.5 0.3-1.1 0.5-1.7 0.7-0.8 0.2-1.6 0-2.1-0.5C39.7 68.1 39.6 67.5 39.6 66.9zM81.3 77.9V47.7c-2.5 3.2-5.3 6.4-8.2 9.6v20.6h-21v0.4c0 1.3-1 2.3-2.3 2.3H38.3c-1.3 0-2.3-1-2.3-2.3v-0.4H15v-40h50.4c1.2-1.8 2.4-3.7 3.7-5.6l-0.1-0.1 1.8-2.5H12.8c-3.3 0-6 2.7-6 6v42.2H6.5 1.1V82c0 3.7 3 6.6 6.6 6.6h6.4 59.8 6.4c3.7 0 6.6-3 6.6-6.6v-4.1h-5.4H81.3zM98.2 24.5l-3.6-2.6 1-1.6c0.4-0.8 0.8-1.6 1.2-2.5 0.1-0.3 0.2-0.6 0.3-0.8 0.6-2 0-3.4-1.9-4.8-1.6-1.2-3-1.2-4.7 0-1.1 0.8-2.1 1.8-3 2.8-3.3 3.8-6.1 7.8-9.1 11.8-0.1 0.1-0.1 0.2-0.1 0.2l-2.4 3.3c-0.1 0.1-0.2 0.3-0.4 0.5-0.2 0.2-0.3 0.5-0.5 0.7l-0.1 0.2 0 0c-3.9 5.5-7.6 11.1-11 16.9-2.2 3.8-4.4 7.7-6 11.9-0.2 0.6-0.4 1.2-0.5 1.8-0.1 0.7-0.5 1.5 0.3 2 0.7 0.5 1.4-0.1 2-0.4 1.7-1 3.1-2.3 4.5-3.7 6.8-6.5 12.7-13.8 18.3-21.3l0 0 0 0c0.5-0.7 1-1.3 1.5-2 0.1-0.1 0.2-0.2 0.2-0.3l2.4-3.3c0.1-0.1 0.2-0.2 0.3-0.4 1.9-2.8 4-5.5 5.9-8.3 0 0 0.1-0.1 0.1-0.1l2.2 1.6L84.7 40.3c-0.5 0.7-0.4 1.7 0.3 2.2 0.4 0.3 0.8 0.3 1.2 0.3 0.4-0.1 0.8-0.3 1-0.6l11.3-15.5C99.1 26 98.9 25 98.2 24.5z" fill="#fe4901" data-fill-palette-color="accent"></path></svg></g></svg></g></svg></g><defs></defs></svg><rect width="395.52" height="72.3430984394603" fill="none" stroke="none" visibility="hidden"></rect></g></svg></g></svg>